<?xml version="1.0" encoding="UTF-8" standalone="no"?>
<!-- Created with Inkscape (http://www.inkscape.org/) -->

<svg
   width="104.41838"
   height="100"
   viewBox="0 0 104.41838 100"
   version="1.1"
   id="SVGRoot"
   sodipodi:docname="pxg_logo.svg"
   inkscape:version="1.2.2 (b0a8486541, 2022-12-01)"
   inkscape:export-filename="PXG_Header_Light_Alt.svg"
   inkscape:export-xdpi="96"
   inkscape:export-ydpi="96"
   xmlns:inkscape="http://www.inkscape.org/namespaces/inkscape"
   xmlns:sodipodi="http://sodipodi.sourceforge.net/DTD/sodipodi-0.dtd"
   xmlns="http://www.w3.org/2000/svg"
   xmlns:svg="http://www.w3.org/2000/svg">
  <sodipodi:namedview
     id="namedview385"
     pagecolor="#ffffff"
     bordercolor="#000000"
     borderopacity="0.25"
     inkscape:showpageshadow="2"
     inkscape:pageopacity="0.0"
     inkscape:pagecheckerboard="0"
     inkscape:deskcolor="#d1d1d1"
     inkscape:document-units="px"
     showgrid="false"
     inkscape:zoom="4"
     inkscape:cx="131.75"
     inkscape:cy="6.875"
     inkscape:window-width="1920"
     inkscape:window-height="1016"
     inkscape:window-x="0"
     inkscape:window-y="28"
     inkscape:window-maximized="1"
     inkscape:current-layer="layer1"
     showguides="true" />
  <defs
     id="defs380">
    <linearGradient
       id="paint0_linear_55_306"
       x1="1239"
       y1="169"
       x2="1239.14"
       y2="2289.5"
       gradientUnits="userSpaceOnUse"
       gradientTransform="matrix(0.04035058,0,0,0.04035058,3.8090003,3.809)">
      <stop
         stop-color="#F7951D"
         id="stop83" />
      <stop
         offset="1"
         stop-color="#F0212D"
         id="stop85" />
    </linearGradient>
  </defs>
  <g
     inkscape:label="Layer 1"
     inkscape:groupmode="layer"
     id="layer1">
    <path
       fill-rule="evenodd"
       clip-rule="evenodd"
       d="M 45.514556,3.809 C 37.962137,5.187646 24.576477,12.738585 31.452216,31.913181 25.830048,23.930505 20.771457,7.133888 45.514556,3.809 Z m -19.328091,7.727138 c -3.510541,9.482385 -3.77278,15.978829 10.349925,28.164705 -1.721639,-3.133908 -4.830006,-10.700974 -3.490366,-15.898129 1.735075,7.505208 7.715032,17.750221 11.378663,20.558622 -0.746284,-2.091492 -2.182765,-6.439953 -1.956802,-7.101703 1.099755,1.930979 2.726287,3.894396 4.427871,5.948039 3.667061,4.426097 7.681137,9.271798 7.5157,15.114965 0.168262,4.371179 -0.544329,14.550421 -4.741194,20.296344 0.39019,-3.073503 -0.04842,-10.224838 -4.922771,-14.243756 2.313702,4.304196 4.983297,14.957961 -2.844514,23.141059 1.089465,-5.359768 0.197717,-17.330574 -12.085,-22.334047 3.288573,3.443115 9.550943,11.229567 8.292045,14.82884 C 34.982852,76.614767 27.175014,70.246236 19.790857,66.594507 16.589724,64.368366 9.8525083,58.512285 8.5128693,52.895485 9.5081973,54.29444 13.330729,57.777906 20.658395,60.521744 15.903764,57.11898 6.9069163,47.702365 8.9567263,37.259633 10.099978,41.906689 16.340882,52.21356 32.158311,56.264758 20.651656,51.732177 1.6573053,37.804366 17.732978,18.355385 14.518367,23.574047 11.099342,36.081396 23.139955,44.361336 20.89376,41.738548 16.534565,34.943511 17.067193,28.74566 20.086748,35.000002 28.748687,48.263238 39.239838,51.281461 28.809253,44.186619 11.595735,26.304451 26.186465,11.536138 Z M 15.957552,66.1103 c 2.754129,2.68735 7.068131,5.881099 11.240421,8.969935 5.913782,4.378441 11.542809,8.545849 12.041865,10.761502 C 40.248603,90.320651 15.957552,72.768146 15.957552,66.1103 Z M 62.804377,3.990577 c 9.260459,1.27777 24.836187,8.651165 13.053414,27.922604 C 78.857453,24.979619 80.446055,9.68808 62.804377,3.990577 Z m -18.177938,7.12188 c 1.089466,2.252893 5.051893,7.521347 12.185876,10.571851 8.917479,3.81313 8.23152,8.635025 7.485033,10.753431 0.564909,1.580411 1.436481,5.281891 0.403507,7.444682 -0.248561,-1.540059 -1.634199,-4.951016 -5.185051,-6.274515 -0.564908,-0.248842 -2.118405,-1.133852 -3.813129,-2.683314 -0.732767,0.854101 -0.996256,4.043128 3.813129,9.966594 6.012237,7.404332 5.931536,18.783196 -3.813129,31.412928 1.035799,-5.3061 2.372614,-17.249874 -0.564909,-22.57615 -1.667689,-3.792955 -5.382768,-11.649214 -6.899949,-12.73061 -0.188034,0.410246 -0.451523,1.630164 0,3.228047 -1.069291,-2.454647 -2.945593,-8.053976 -1.896478,-10.813956 -0.63875,0.423681 -2.13858,1.622093 -3.026092,3.026294 0.322805,-1.694725 1.759084,-5.423119 4.92257,-6.778898 -0.827188,-0.295891 -2.820506,-1.158062 -4.176084,-2.239457 1.002107,0.269017 3.542983,0.72631 5.689231,0.403506 -2.131722,-1.163429 -6.883608,-3.502432 -8.836576,-3.550852 2.413287,-0.241983 7.936354,-0.298553 10.729825,1.410051 -2.912909,-1.783738 -8.388926,-6.391049 -7.017774,-10.569632 z m 29.597153,12.286751 c -1.016835,9.199934 -7.296596,16.62444 -10.309574,19.186703 1.08188,2.565652 1.924945,6.724885 2.138399,8.240118 1.460134,8.948763 -8.157092,25.929967 -14.082171,33.522736 15.898129,-14.058145 23.625266,-18.568128 25.501567,-19.065651 -2.16279,1.839986 -6.724827,8.930795 -8.7359,12.246402 1.612005,-1.109239 5.120892,-3.074714 10.796605,-6.253937 l 0.0016,-4.03e-4 0.0049,-0.0028 0.0036,-0.0024 c 2.065143,-1.156851 4.417178,-2.473894 7.069018,-3.969287 7.956753,-4.48703 11.143239,-11.311525 11.742041,-14.1631 -4.487389,5.051893 -9.697859,6.785757 -11.74202,7.021001 C 98.353677,51.644617 99.463321,42.16223 98.353677,37.582439 93.785555,50.752868 80.794281,55.444431 74.869201,56.143706 104.42197,43.215381 97.015215,25.470524 89.617743,18.214158 96.670621,32.030197 89.07301,41.496445 84.391939,44.502563 87.2649,41.290658 89.476516,32.861419 90.223002,29.04829 87.414198,36.03701 78.386562,43.809865 74.223592,46.822721 93.733502,28.543907 86.826693,16.035226 80.800737,11.677364 88.693311,23.637276 77.512164,35.073963 70.93502,39.297339 74.033944,34.632811 74.418889,26.755046 74.223592,23.399208 Z M 86.611624,71.053246 C 76.572399,85.385772 58.998106,88.471384 51.465863,88.222419 58.745108,83.138245 64.559627,77.603357 66.556981,75.471635 c -0.387366,1.920689 -1.923109,5.346453 -2.642963,6.81925 3.728394,-0.726312 16.684966,-7.794522 22.697606,-11.237639 z M 14.242531,15.308957 c -7.0505057,7.504846 -8.8100577,18.504294 -9.7343757,24.282417 -0.183922,1.149789 -0.334776,2.092782 -0.487664,2.760423 -0.755974,9.170154 0.454035,17.972231 4.613349,26.179539 4.1592977,8.207711 10.9815727,15.886829 18.8236677,20.699849 7.842136,4.813021 16.988565,6.968548 26.190111,6.960474 9.201143,-0.0081 19.722961,-3.445533 27.557027,-8.271867 7.833662,-4.826335 12.672504,-10.85229 16.81772,-19.066862 4.144814,-8.214571 6.408884,-17.417732 5.636974,-26.586635 -0.7715,-9.168783 -4.398212,-20.259141 -10.955181,-26.816111 5.000244,6.782489 7.504801,18.419396 8.211341,26.816111 0.70695,8.396592 -2.83745,17.176476 -6.633633,24.699438 -3.796183,7.522559 -9.63572,14.375299 -16.810054,18.795299 C 70.297884,90.181038 62.0704,91.995199 53.643988,92.002465 45.217575,92.009766 37.019991,90.168531 29.838233,85.761032 22.656435,81.353541 15.993746,74.736448 12.184651,67.219942 8.3755963,59.703839 5.6213263,51.286706 6.3136463,42.888621 7.0059603,34.490696 9.0776563,24.065032 14.242531,15.308957 Z m 44.70554,9.825327 c 0.955099,0.739747 2.957699,2.412963 3.328924,3.187695 0.371225,0.774731 0.73317,2.474822 0.867537,3.228048 -0.275594,-0.03361 -0.984554,-0.500348 -1.614023,-2.098231 -0.698872,-1.773771 -0.95187,-2.11554 -2.102266,-3.667586 -0.144858,-0.195659 -0.30384,-0.410526 -0.480172,-0.649926 z"
       fill="url(#paint0_linear_55_306)"
       id="path81"
       sodipodi:nodetypes="cccccccccccccccccccccccccccccccccscccccccccccccccccccccccccccccccccccccccccccccccccscccccccscccccscccc"
       style="fill:url(#paint0_linear_55_306);stroke-width:0.0403506"
       inkscape:label="Logo"
       transform="matrix(1.0441838,0,0,1.082454,-3.9772866,-4.123069)" />
  </g>
</svg>
