<?xml version="1.0" encoding="UTF-8" standalone="no"?>
<!-- Created with Inkscape (http://www.inkscape.org/) -->

<svg
   width="500"
   height="500"
   viewBox="0 0 500.00001 500"
   version="1.1"
   id="SVGRoot"
   sodipodi:docname="Rangefinder_NATO.svg.2022_12_08_02_11_51.0.svg"
   inkscape:version="1.2.1 (9c6d41e410, 2022-07-14)"
   xml:space="preserve"
   xmlns:inkscape="http://www.inkscape.org/namespaces/inkscape"
   xmlns:sodipodi="http://sodipodi.sourceforge.net/DTD/sodipodi-0.dtd"
   xmlns="http://www.w3.org/2000/svg"
   xmlns:svg="http://www.w3.org/2000/svg"><sodipodi:namedview
     id="namedview365"
     pagecolor="#505050"
     bordercolor="#eeeeee"
     borderopacity="1"
     inkscape:showpageshadow="0"
     inkscape:pageopacity="0"
     inkscape:pagecheckerboard="0"
     inkscape:deskcolor="#505050"
     inkscape:document-units="px"
     showgrid="false"
     inkscape:zoom="1.7852694"
     inkscape:cx="364.93092"
     inkscape:cy="279.50964"
     inkscape:window-width="1920"
     inkscape:window-height="1009"
     inkscape:window-x="-8"
     inkscape:window-y="-8"
     inkscape:window-maximized="1"
     inkscape:current-layer="layer1" /><defs
     id="defs360"><clipPath
       clipPathUnits="userSpaceOnUse"
       id="clipPath356"><circle
         style="fill:#f1372a;fill-rule:evenodd;stroke-width:27.9088"
         id="circle358"
         cx="750.00006"
         cy="680.95844"
         r="680.95844" /></clipPath><clipPath
       clipPathUnits="userSpaceOnUse"
       id="clipPath1504"><circle
         style="fill:#f1372a;fill-opacity:0.299242;fill-rule:evenodd;stroke-width:32.8388"
         id="circle1506"
         cx="750"
         cy="750"
         r="712.5" /></clipPath></defs><g
     inkscape:label="Layer 1"
     inkscape:groupmode="layer"
     id="layer1"
     transform="translate(-500,-320)"><circle
       style="fill:#eaebee;fill-opacity:1;fill-rule:evenodd;stroke-width:17.789;stroke-dasharray:none"
       id="path2286"
       cx="750"
       cy="570"
       r="250" /><path
       d="m 724.42634,618.91947 c -5.00854,0 -9.11363,-4.02605 -9.11363,-9.11928 0,-1.39472 0.3275,-2.79508 0.90347,-3.94133 h 16.42598 c 0.57031,1.14625 0.90346,2.54661 0.90346,3.94133 0,5.09323 -4.02603,9.11928 -9.11928,9.11928 m 23.64799,0 c -5.08759,0 -9.19268,-4.02605 -9.19268,-9.11928 0,-1.39472 0.3275,-2.79508 0.90346,-3.94133 h 16.50504 c 0.57595,1.14625 0.90346,2.54661 0.90346,3.94133 0,5.09323 -4.10508,9.11928 -9.11928,9.11928 m 23.56895,0 c -5.00854,0 -9.11362,-4.02605 -9.11362,-9.11928 0,-1.39472 0.32749,-2.79508 0.90346,-3.94133 h 16.42597 c 0.57031,1.14625 0.90345,2.54661 0.90345,3.94133 0,5.09323 -4.10508,9.11928 -9.11926,9.11928 m 23.56893,0 c -5.00853,0 -9.11362,-4.02605 -9.11362,-9.11928 0,-1.39472 0.32749,-2.79508 0.90346,-3.94133 h 16.42598 c 0.57031,1.14625 0.89782,2.54661 0.89782,3.94133 0,5.09323 -4.02039,9.11928 -9.11364,9.11928 m -94.34916,0 c -5.09322,0 -9.11927,-4.02605 -9.11927,-9.11928 0,-1.39472 0.33315,-2.79508 0.90345,-3.94133 h 16.42599 c 0.57029,1.14625 0.90345,2.54661 0.90345,3.94133 0,5.09323 -4.11073,9.11928 -9.11362,9.11928 m 58.71342,-60.79704 c 7.05827,-0.3275 24.30301,2.63134 24.30301,9.69523 0,6.98485 -17.24474,15.85567 -24.30301,15.85567 h -30.5538 c -5.00287,0 -9.93236,-4.27448 -11.90304,-8.29486 h -9.19833 c -0.7397,1.14627 -2.05536,1.97066 -3.52913,1.97066 h -8.62234 c -1.47944,0 -2.79508,-0.82439 -3.53479,-1.97066 h -11.73931 c -0.73969,1.14627 -2.05535,1.97066 -3.53478,1.97066 h -8.62237 c -2.29816,0 -4.10508,-1.89161 -4.10508,-4.11072 v -2.63133 c 0,-2.29816 1.80692,-4.10508 4.10508,-4.10508 h 8.62237 c 1.47943,0 2.79509,0.73971 3.53478,1.97066 h 11.73931 c 0.73971,-1.23095 2.05535,-1.97066 3.53479,-1.97066 h 8.62234 c 1.47377,0 2.78943,0.73971 3.52913,1.97066 h 9.19833 c 4.84478,-11.33838 32.02758,-9.85897 42.45684,-10.35023 m -61.9207,29.57693 h 101.58248 c 1.80691,0 3.36539,0.49127 4.84479,1.56412 l 6.40326,4.26884 c 3.61383,2.4619 4.76009,7.22765 2.79506,11.08995 l -6.3242,12.56933 c -1.56413,3.04351 -4.43257,4.77139 -7.71891,4.77139 H 697.65577 c -3.20162,0 -6.07575,-1.64881 -7.63422,-4.60199 l -6.81545,-12.81781 c -2.1344,-4.02602 -0.7397,-9.11926 3.20164,-11.50214 l 6.81543,-4.11072 c 1.39474,-0.82442 2.78942,-1.23097 4.4326,-1.23097"
       style="fill:#f1372a;fill-opacity:1;fill-rule:evenodd;stroke:none;stroke-width:5.64661"
       id="path10262" /><path
       id="path1115"
       clip-path="url(#clipPath1504)"
       style="fill:#2d2c2d;fill-opacity:1;stroke:#2d2c2d;stroke-width:2.655;stroke-dasharray:none;stroke-opacity:1;paint-order:stroke fill markers"
       d="m 750,649.74902 c -3.4487,0 -8.54622,4.05906 -9.40723,7.4896 -0.97602,3.88868 1.81598,9.35358 5.61929,10.99643 7.16544,3.09537 14.90769,-3.11364 13.25639,-10.63183 -0.80416,-3.66132 -5.85871,-7.8542 -9.46845,-7.8542 z m -0.19204,1.44448 c 0.98351,-0.0206 1.97856,0.12268 2.91401,0.40635 1.8709,0.56733 3.50183,1.69749 4.31675,3.22017 1.76324,3.29454 1.1168,8.43437 -1.35264,10.75429 -5.17245,4.85936 -13.68501,1.31027 -13.68501,-5.70556 0,-4.4053 1.3489,-6.60508 4.96245,-8.10191 0.88896,-0.36821 1.86093,-0.55273 2.84444,-0.57334 z m -120.80772,23.55703 v 43.00049 42.99771 H 557.00156 485.0001 v 54.84023 c 0,30.1615 -0.29504,63.01257 -0.65684,73.00063 -0.59798,16.50857 -0.50786,18.1604 0.99917,18.1604 1.5284,0 1.65879,-5.62148 1.65879,-72.01816 v -72.02095 l 71.99868,0.26997 72.00146,0.26998 V 719.99985 676.74887 H 750 869.00141 v 43.50147 43.49868 h 71.99868 72.00151 v 72.00146 c 0,47.33289 0.3417,71.99868 0.9991,71.99868 0.6575,0 0.9992,-25.00118 0.9992,-73.00063 V 761.75068 H 943.00122 870.99975 V 718.24921 674.75053 H 750 Z m -81.50054,90.00044 c -1.08322,0 -1.50014,1.11068 -1.50014,3.99946 v 3.99947 h -3.99946 c -2.2,0 -3.99947,0.44917 -3.99947,0.99917 0,0.55 1.79947,1.00195 3.99947,1.00195 h 3.99946 v 4.49766 c 0,3.33322 0.38914,4.50044 1.50014,4.50044 1.11111,0 1.50015,-1.16722 1.50015,-4.50044 v -4.49766 h 3.99946 c 2.2,0 4.00225,-0.45195 4.00225,-1.00195 0,-0.55 -1.80225,-0.99917 -4.00225,-0.99917 h -3.99946 v -3.99947 c 0,-2.88878 -0.41682,-3.99946 -1.50015,-3.99946 z m 202.5003,0 c -0.55,0 -0.99917,1.77265 -0.99917,3.94102 0,3.91081 -0.0332,3.94492 -4.17202,4.24995 -5.9664,0.43973 -6.31383,2.80825 -0.41192,2.80825 h 4.58394 v 4.50044 c 0,2.475 0.44917,4.50044 0.99917,4.50044 0.55,0 0.99917,-2.02544 0.99917,-4.50044 v -4.50044 h 3.94101 c 5.57785,0 5.97313,-1.74048 0.57891,-2.54941 -4.46765,-0.66996 -4.51992,-0.72247 -4.51992,-4.56446 0,-2.13744 -0.44917,-3.88535 -0.99917,-3.88535 z m 204.62387,1.45005 c -0.54991,0 -0.99917,1.79957 -0.99917,3.99946 v 3.99947 h -4.50044 c -2.47497,0 -4.50044,0.44918 -4.50044,0.99917 0,0.55001 2.02547,0.99917 4.50044,0.99917 h 4.50044 v 4.50044 c 0,2.47489 0.44926,4.50043 0.99917,4.50043 0.55005,0 1.00196,-2.02554 1.00196,-4.50043 v -4.50044 h 4.50043 c 2.47494,0 4.49766,-0.44916 4.49766,-0.99917 0,-0.54999 -2.02272,-0.99917 -4.49766,-0.99917 h -4.50043 v -3.99947 c 0,-2.19989 -0.45191,-3.99946 -1.00196,-3.99946 z m -265.62334,33.54873 v 21.50024 21.50025 h -36.9999 -36.9999 v 36.9999 c 0,23.99979 0.35052,36.9999 0.99917,36.9999 0.64815,0 1.00195,-12.66761 1.00195,-36.00073 v -36.00073 h 36.9999 36.99991 V 823.25112 801.75087 H 750 809.00112 v 21.74795 21.75074 h 35.75024 35.75025 l -0.11133,35.75024 c -0.0904,29.52206 0.127,35.75024 1.24966,35.75024 1.12147,0 1.36098,-6.47784 1.36098,-36.9999 v -36.9999 H 847.00019 810.99946 V 821.24999 799.74975 H 750 Z m -143.00097,46.49897 c -0.55,0.33992 -0.99917,2.39135 -0.99917,4.55889 v 3.94102 h -4.50044 c -2.475,0 -4.50044,0.45195 -4.50044,1.00195 0,0.55 2.02544,0.99917 4.50044,0.99917 h 4.50044 v 4.50044 c 0,2.475 0.44917,4.50044 0.99917,4.50044 0.55,0 1.00195,-2.02544 1.00195,-4.50044 v -4.50044 h 4.49766 c 2.475,0 4.50044,-0.44917 4.50044,-0.99917 0,-0.55 -2.02544,-1.00195 -4.50044,-1.00195 h -4.49766 v -4.55889 c 0,-2.7847 -0.39114,-4.31841 -1.00195,-3.94102 z M 750,846.7497 c -0.55,0 -0.99917,1.79957 -0.99917,3.99946 v 3.99947 h -4.50044 c -2.475,0 -4.50044,0.45195 -4.50044,1.00195 0,0.55 2.02544,0.99917 4.50044,0.99917 h 4.50044 v 4.50044 c 0,2.475 0.44917,4.50044 0.99917,4.50044 0.55,0 0.99917,-2.02544 0.99917,-4.50044 v -4.50044 h 4.00224 c 2.2,0 3.99947,-0.44917 3.99947,-0.99917 0,-0.55 -1.79947,-1.00195 -3.99947,-1.00195 h -4.00224 v -3.99947 c 0,-2.19989 -0.44917,-3.99946 -0.99917,-3.99946 z m 204.00043,0 c -0.54989,0 -0.99917,1.79957 -0.99917,3.99946 v 3.99947 h -4.50043 c -3.33333,0 -4.50044,0.38903 -4.50044,1.50014 0,1.11111 1.16711,1.50015 4.50044,1.50015 h 4.50043 v 4.50044 c 0,2.475 0.44928,4.50044 0.99917,4.50044 0.55,0 0.99917,-2.02544 0.99917,-4.50044 v -4.50044 h 4.00225 c 2.8889,0 3.99946,-0.41682 3.99946,-1.50015 0,-1.08333 -1.11056,-1.50014 -3.99946,-1.50014 h -4.00225 v -3.99947 c 0,-2.19989 -0.44917,-3.99946 -0.99917,-3.99946 z m -245.729,49.00108 0.0752,3.24799 c 0.0414,1.7875 -0.0174,8.34868 -0.1336,14.57842 l -0.21152,11.32764 -23.75185,-0.32842 -23.74908,-0.32563 -0.26718,25.33828 c 0,0 -0.006,25.25281 0.99917,24.91801 0.96528,-0.3212 1.33212,-6.06562 1.53632,-24.0914 l 0.26719,-23.66558 h 23.98286 23.98286 V 912.2496 897.74912 h 38.50005 38.50005 v 14.50048 14.50049 h 23.99956 23.99956 v 23.99956 c 0,20.66648 0.20848,23.99956 1.50015,23.99956 1.29333,0 1.50015,-3.44335 1.50015,-24.99873 V 924.74897 H 815.00171 790.99936 V 910.25126 895.75078 H 749.6354 Z m -163.27104,31.99848 c -0.55,0 -0.99917,1.79957 -0.99917,3.99946 v 4.00225 h -4.50044 c -2.475,0 -4.50044,0.44917 -4.50044,0.99917 0,0.55 2.02544,0.99917 4.50044,0.99917 h 4.50044 v 5.00142 c 0,2.74989 0.44917,4.99863 0.99917,4.99863 0.55,0 0.99917,-2.24874 0.99917,-4.99863 v -5.00142 h 4.55888 c 2.7847,0 4.31852,-0.38837 3.94102,-0.99917 -0.33992,-0.55 -2.39135,-0.99917 -4.55889,-0.99917 -3.93087,0 -3.94101,-0.0123 -3.94101,-4.00225 0,-2.19989 -0.44917,-3.99946 -0.99917,-3.99946 z M 750,928.25024 c -0.58114,-0.35916 -0.99917,0.62717 -0.99917,2.35737 0,5.0901 -0.87412,6.14253 -5.10718,6.14253 -2.14115,0 -3.8937,0.44917 -3.8937,0.99917 0,0.55 1.79946,0.99917 3.99946,0.99917 3.971,0 4.00225,0.0298 4.00225,3.83525 0,2.1084 0.29851,4.13384 0.66518,4.50044 1.58895,1.589 2.33233,0.36415 2.33233,-3.83525 v -4.50044 h 4.00224 c 2.2,0 3.99947,-0.44917 3.99947,-0.99917 0,-0.55 -1.79947,-0.99917 -3.99947,-0.99917 -3.98989,0 -4.00224,-0.01 -4.00224,-3.94102 0,-2.16739 -0.44917,-4.21896 -0.99917,-4.55888 z m 204.9996,0.49819 c -0.54989,0 -0.99917,1.80225 -0.99917,4.00225 v 3.99946 H 949.5 c -2.475,0 -4.50044,0.44917 -4.50044,0.99917 0,0.55 2.02544,0.99917 4.50044,0.99917 h 4.50043 v 4.50044 c 0,2.475 0.44928,4.50044 0.99917,4.50044 0.55,0 1.00196,-2.02544 1.00196,-4.50044 v -4.50044 h 3.94101 c 2.1675,0 4.21899,-0.44917 4.55889,-0.99917 0.3775,-0.6108 -1.15632,-0.99917 -3.94102,-0.99917 h -4.55888 v -3.99946 c 0,-2.2 -0.45196,-4.00225 -1.00196,-4.00225 z M 718.00151,988.5873 v 11.07993 11.08267 h -18.00176 -17.99897 v 19.001 c 0,12 0.36759,18.9981 0.99917,18.9981 0.62963,0 1.00195,-6.6658 1.00195,-17.999 v -17.9989 h 17.99898 17.99897 V 1002.25 991.74902 h 29.00098 29.00097 v 10.50098 10.5011 h 17.99898 17.99897 v 17.9989 c 0,9.9 0.38609,17.999 0.85723,17.999 0.87307,0 2.29405,-35.8831 1.4751,-37.2504 -0.24707,-0.4125 -8.56592,-0.7487 -18.48604,-0.7487 H 779.8081 l 0.34234,-10.7487 0.34511,-10.7515 -31.24702,-0.3312 z m -175.00224,26.1621 c -0.55,0 -0.99917,1.8024 -0.99917,4.0023 v 3.9994 h -4.50044 c -2.475,0 -4.50044,0.4493 -4.50044,0.9992 0,0.5501 2.02544,0.9992 4.50044,0.9992 h 4.50044 v 4.5004 c 0,2.475 0.44917,4.5004 0.99917,4.5004 0.54989,0 1.00195,-2.0254 1.00195,-4.5004 v -4.5004 h 4.50044 c 2.475,0 4.49765,-0.4491 4.49765,-0.9992 0,-0.5499 -2.02265,-0.9992 -4.49765,-0.9992 h -4.50044 v -3.9994 c 0,-2.1999 -0.45206,-4.0023 -1.00195,-4.0023 z m 206.00156,0 c -0.55,0 -0.99917,1.8024 -0.99917,4.0023 v 3.9994 h -4.00225 c -2.2,0 -3.99946,0.4493 -3.99946,0.9992 0,0.5501 1.79946,0.9992 3.99946,0.9992 h 4.00225 v 4.5004 c 0,2.475 0.44917,4.5004 0.99917,4.5004 0.55,0 0.99917,-2.0254 0.99917,-4.5004 v -4.5004 h 4.50044 c 2.47489,0 4.50044,-0.4491 4.50044,-0.9992 0,-0.5499 -2.02555,-0.9992 -4.50044,-0.9992 H 750 v -3.9994 c 0,-2.1999 -0.44917,-4.0023 -0.99917,-4.0023 z m 207.00073,0 c -0.55,0 -1.00196,1.7994 -1.00196,3.9995 v 4.0022 h -4.50043 c -3.33333,0 -4.49766,0.3891 -4.49766,1.5002 0,1.1111 1.16433,1.4973 4.49766,1.4973 h 4.50043 v 4.5005 c 0,2.475 0.45196,4.5004 1.00196,4.5004 0.55,0 0.99917,-1.9986 0.99917,-4.442 v -4.442 l 4.24995,-0.3089 c 2.3375,-0.1691 4.24995,-0.7554 4.24995,-1.3053 0,-0.55 -1.91245,-1.139 -4.24995,-1.3081 -4.229,-0.306 -4.24995,-0.3267 -4.24995,-4.25 0,-2.1684 -0.44917,-3.9438 -0.99917,-3.9438 z"
       transform="matrix(0.56497072,0,0,0.56497072,326.55478,103.66083)"
       sodipodi:nodetypes="sscssssssssscccccsssscccccccccccssscccccccsscssscssscssscsssssscssscsssssscssscssscssscsscccccsssccccccccccccsscccccccsscssscssscssscsssscssscssscssscsssscssscssscssscsscsccccccccccccccccccssscccccccsscssscssscssssssssssscscssssssscssscssscssscsscccccssscccccccccccsssscccccsscssscssscssscsssscssscssscssscsssscssscsssccssss" /><text
       xml:space="preserve"
       style="font-size:42.6667px;font-family:'PT Sans';-inkscape-font-specification:'PT Sans';text-align:start;text-anchor:start;fill:#eaebee;fill-opacity:1;fill-rule:evenodd;stroke:none;stroke-width:20.7454;stroke-opacity:1"
       x="748.40002"
       y="389.8667"
       id="text6808"><tspan
         sodipodi:role="line"
         style="font-size:42.6667px;text-align:center;text-anchor:middle;fill:#2d2c2d;fill-opacity:1;stroke-width:20.7454"
         x="748.40002"
         y="389.8667"
         id="tspan8335"
         dy="10">Variable Frame</tspan><tspan
         sodipodi:role="line"
         style="font-size:42.6667px;text-align:center;text-anchor:middle;fill:#2d2c2d;fill-opacity:1;stroke-width:20.7454"
         x="748.40002"
         y="443.20007"
         id="tspan17772">Rangefinder</tspan></text><text
       xml:space="preserve"
       style="font-size:21.3333px;font-family:'PT Sans';-inkscape-font-specification:'PT Sans';text-align:center;text-anchor:middle;fill:#f1372a;fill-opacity:1;fill-rule:evenodd;stroke-width:18.2551"
       x="749.82892"
       y="708.52271"
       id="text20730"><tspan
         sodipodi:role="line"
         x="749.82892"
         y="708.52271"
         id="tspan20870"
         style="font-size:21.3333px" /><tspan
         sodipodi:role="line"
         x="749.82892"
         y="735.18933"
         id="tspan21600"
         style="font-size:21.3333px">Effective Range 400m</tspan></text><rect
       style="fill:#000000;fill-opacity:0;fill-rule:evenodd;stroke:#f1372a;stroke-width:3.40925;stroke-dasharray:none;stroke-dashoffset:0;stroke-opacity:1"
       id="rect11577"
       width="16.712738"
       height="16.712738"
       x="-66.343628"
       y="899.23248"
       transform="rotate(-45)" /><g
       id="g11643"
       transform="matrix(0,-5.8955034,4.2951119,0,144.79303,2637.9521)"><path
         style="fill:none;fill-opacity:1;fill-rule:evenodd;stroke:#f1372a;stroke-width:1.05833;stroke-dasharray:none;stroke-dashoffset:0;stroke-opacity:1"
         d="m 321.15477,106.15928 h 8.48104"
         id="path11639"
         sodipodi:nodetypes="cc" /><path
         style="fill:none;fill-opacity:1;fill-rule:evenodd;stroke:#f1372a;stroke-width:1.05833;stroke-dasharray:none;stroke-dashoffset:0;stroke-opacity:1"
         d="m 329.63581,106.15928 v 0"
         id="path11641"
         sodipodi:nodetypes="cc" /></g><g
       id="g11649"
       transform="matrix(4.2814218,0,0,4.2951119,-563.20918,286.34425)"><path
         style="fill:none;fill-opacity:1;fill-rule:evenodd;stroke:#f1372a;stroke-width:1.05833;stroke-dasharray:none;stroke-dashoffset:0;stroke-opacity:1"
         d="m 275.00019,106.15928 h 54.63562"
         id="path11645"
         sodipodi:nodetypes="cc" /><path
         style="fill:none;fill-opacity:1;fill-rule:evenodd;stroke:#f1372a;stroke-width:1.05833;stroke-dasharray:none;stroke-dashoffset:0;stroke-opacity:1"
         d="m 272.39573,106.15928 h 57.24008"
         id="path11647"
         sodipodi:nodetypes="cc" /></g></g></svg>
