<?xml version="1.0" encoding="UTF-8" standalone="no"?>
<!-- Created with Inkscape (http://www.inkscape.org/) -->

<svg
   width="500px"
   height="500px"
   viewBox="0 0 500 500"
   version="1.1"
   id="SVGRoot"
   sodipodi:docname="Rangefinder_RU.svg"
   inkscape:version="1.2.1 (9c6d41e410, 2022-07-14)"
   xmlns:inkscape="http://www.inkscape.org/namespaces/inkscape"
   xmlns:sodipodi="http://sodipodi.sourceforge.net/DTD/sodipodi-0.dtd"
   xmlns="http://www.w3.org/2000/svg"
   xmlns:svg="http://www.w3.org/2000/svg">
  <sodipodi:namedview
     id="namedview10608"
     pagecolor="#ffffff"
     bordercolor="#000000"
     borderopacity="0.25"
     inkscape:showpageshadow="2"
     inkscape:pageopacity="0.0"
     inkscape:pagecheckerboard="0"
     inkscape:deskcolor="#d1d1d1"
     inkscape:document-units="px"
     showgrid="false"
     inkscape:zoom="1.7852694"
     inkscape:cx="189.0471"
     inkscape:cy="312.55787"
     inkscape:window-width="2560"
     inkscape:window-height="1369"
     inkscape:window-x="3832"
     inkscape:window-y="-8"
     inkscape:window-maximized="1"
     inkscape:current-layer="g11675" />
  <defs
     id="defs10603" />
  <g
     inkscape:label="Layer 1"
     inkscape:groupmode="layer"
     id="layer1">
    <circle
       style="fill:#eaebee;fill-rule:evenodd;stroke-width:28.7392"
       id="path10979"
       cx="250"
       cy="250"
       r="250" />
    <path
       d="m 137.15822,333.19277 c -3.33903,0 -6.07575,-2.68402 -6.07575,-6.07952 0,-0.92981 0.21832,-1.86338 0.60231,-2.62755 h 10.95065 c 0.3802,0.76417 0.60231,1.69774 0.60231,2.62755 0,3.3955 -2.68403,6.07952 -6.07952,6.07952 m 15.76534,0 c -3.39174,0 -6.12846,-2.68402 -6.12846,-6.07952 0,-0.92981 0.21832,-1.86338 0.6023,-2.62755 h 11.00336 c 0.38397,0.76417 0.6023,1.69774 0.6023,2.62755 0,3.3955 -2.73672,6.07952 -6.0795,6.07952 m 15.71262,0 c -3.33903,0 -6.07576,-2.68402 -6.07576,-6.07952 0,-0.92981 0.21833,-1.86338 0.60231,-2.62755 h 10.95066 c 0.38021,0.76417 0.6023,1.69774 0.6023,2.62755 0,3.3955 -2.73672,6.07952 -6.07951,6.07952 m 15.71262,0 c -3.33902,0 -6.07575,-2.68402 -6.07575,-6.07952 0,-0.92981 0.21833,-1.86338 0.60231,-2.62755 h 10.95066 c 0.3802,0.76417 0.59854,1.69774 0.59854,2.62755 0,3.3955 -2.68025,6.07952 -6.07576,6.07952 m -62.89944,0 c -3.3955,0 -6.07952,-2.68402 -6.07952,-6.07952 0,-0.92981 0.22211,-1.86338 0.60231,-2.62755 h 10.95065 c 0.38021,0.76417 0.6023,1.69774 0.6023,2.62755 0,3.3955 -2.74048,6.07952 -6.07574,6.07952 m 39.14228,-40.53136 c 4.70551,-0.21833 16.20201,1.75422 16.20201,6.46349 0,4.65656 -11.4965,10.57044 -16.20201,10.57044 h -20.36919 c -3.33527,0 -6.6216,-2.84965 -7.93537,-5.5299 h -6.13222 c -0.49313,0.76417 -1.37024,1.31377 -2.35275,1.31377 h -5.74825 c -0.98628,0 -1.86338,-0.5496 -2.35651,-1.31377 h -7.8262 c -0.49314,0.76417 -1.37025,1.31377 -2.35653,1.31377 h -5.748238 c -1.53211,0 -2.73672,-1.26107 -2.73672,-2.74048 v -1.75421 c 0,-1.53212 1.20461,-2.73673 2.73672,-2.73673 h 5.748238 c 0.98628,0 1.86339,0.49314 2.35653,1.31378 h 7.8262 c 0.49313,-0.82064 1.37023,-1.31378 2.35651,-1.31378 h 5.74825 c 0.98251,0 1.85962,0.49314 2.35275,1.31378 h 6.13222 c 3.22985,-7.55893 21.35171,-6.57265 28.30456,-6.90016 m -41.28047,19.71796 h 67.72166 c 1.20462,0 2.24359,0.32751 3.22986,1.04275 l 4.26883,2.84588 c 2.40923,1.64128 3.1734,4.81844 1.86338,7.39329 l -4.21613,8.37957 c -1.04274,2.02901 -2.95506,3.18093 -5.14594,3.18093 h -67.72166 c -2.13442,0 -4.05049,-1.09921 -5.08947,-3.068 l -4.54364,-8.5452 c -1.42294,-2.68402 -0.49314,-6.07951 2.13441,-7.6681 l 4.54364,-2.74048 c 0.92982,-0.5496 1.85962,-0.82064 2.95506,-0.82064"
       style="fill:#f1372a;fill-opacity:1;fill-rule:evenodd;stroke:none;stroke-width:3.7644"
       id="path10262" />
    <g
       id="g11675"
       transform="translate(-4.5051083,7.3982944)">
      <path
         id="path10756"
         style="display:inline;fill:#2d2c2d;fill-opacity:1;stroke-width:1.13641"
         d="m 118.41162,191.57405 c -0.72748,0.0629 -1.3842,0.55519 -2.44816,1.51817 -1.29279,1.16995 -2.35052,3.12973 -2.35052,4.35478 0,2.10629 0.15246,2.12612 2.80108,0.39065 6.30064,-4.12839 7.15307,-0.15883 1.17638,5.47787 -3.72121,3.50958 -5.19548,8.13746 -3.22059,10.11232 0.41667,0.41658 2.97361,0.75688 5.68207,0.75688 6.26076,0 7.05567,-3.0835 0.93444,-3.62456 l -3.99077,-0.3529 4.45244,-4.8564 c 3.74384,-4.08414 4.32248,-5.35087 3.62675,-7.95491 -0.45511,-1.70344 -2.16381,-3.84856 -3.79544,-4.76539 -1.34299,-0.75463 -2.14018,-1.11949 -2.86768,-1.05651 z m 134.98037,8.97368 c -0.40485,0 -0.81094,0.47351 -1.54703,1.42052 -1.40472,1.80692 -4.36137,1.98873 -32.38783,1.98873 -26.65729,0 -30.84079,-0.2314 -30.84079,-1.70463 0,-2.14527 -2.99297,-2.23388 -4.20608,-0.1243 -0.7196,1.25134 -6.54971,1.70973 -28.01307,2.19959 -14.90772,0.34026 -27.3959,0.90765 -27.74895,1.26071 -0.35316,0.35301 59.54405,0.64146 133.10261,0.64146 h 133.74407 l -1.85999,-2.84104 c -2.08653,-3.18443 -4.74723,-3.7116 -5.73535,-1.13642 -0.55936,1.45751 -5.14782,1.70463 -31.66203,1.70463 -26.51429,0 -31.10268,-0.24716 -31.66204,-1.70463 -0.35975,-0.93753 -1.69352,-1.70462 -2.96311,-1.70462 -1.29437,0 -2.30834,0.74884 -2.30834,1.70462 0,1.47384 -4.24888,1.70463 -31.41123,1.70463 -28.56765,0 -31.55011,-0.18009 -32.95603,-1.98873 -0.73609,-0.94701 -1.13997,-1.42052 -1.54481,-1.42052 z m -134.01486,15.40153 c -1.01534,0.0466 -1.21853,2.2015 -1.21853,10.01465 0,5.814 0.34024,10.91202 0.75687,11.32864 2.06444,2.06449 2.65237,-0.13182 2.65237,-9.91699 0,-8.43986 -0.35693,-10.81146 -1.70461,-11.32863 -0.18001,-0.0691 -0.34105,-0.10433 -0.4861,-0.0976 z m 56.73864,18.7908 c -0.88604,0.0566 -1.41564,1.86581 -3.09186,8.25677 -2.18453,8.32873 -1.62511,9.77181 3.81099,9.81045 1.45957,0.0102 2.66083,0.92009 3.01861,2.28837 0.3269,1.25006 1.46693,2.27283 2.53251,2.27283 1.69703,0 1.84491,-0.86804 1.18969,-7.0116 -0.41138,-3.85723 -1.00953,-7.43709 -1.32951,-7.9549 -1.27586,-2.06423 -2.72118,-0.75574 -2.72118,2.46593 0,1.87496 -0.21342,3.40925 -0.47499,3.40925 -0.26141,0 -1.2382,0.29341 -2.16852,0.65033 -1.4795,0.5679 -1.49699,0.10592 -0.14206,-3.69334 1.88994,-5.29933 2.05425,-9.07299 0.43726,-10.07238 -0.42985,-0.26565 -0.7656,-0.44057 -1.06094,-0.42171 z m -57.37121,5.70649 c -1.4991,0.0732 0.12896,3.12517 4.81201,8.9981 4.80744,6.02888 8.23901,8.47803 8.23901,5.87962 0,-1.40674 -10.61664,-14.20481 -12.21646,-14.72679 -0.34199,-0.1116 -0.6204,-0.16141 -0.83456,-0.15093 z m 116.12519,8.41657 c -0.45496,-0.0351 -0.88253,-0.002 -1.26071,0.11542 -3.50855,1.09358 -4.04626,2.51477 -4.04626,10.66277 0,7.93376 0.43,9.1529 3.94195,11.14442 1.24996,0.70886 2.57783,1.30569 2.94979,1.32285 1.46949,0.0752 4.22456,-4.1366 4.95405,-7.57092 0.99753,-4.6964 -0.84564,-8.02735 -5.05171,-9.13127 -2.55478,-0.67056 -3.1011,-1.26965 -2.315,-2.53696 0.87912,-1.41726 1.3748,-1.34723 3.39815,0.48386 1.65117,1.4944 2.73027,1.78428 3.56017,0.95442 1.58848,-1.58853 -2.94582,-5.19882 -6.13043,-5.44459 z m -86.34313,0.55046 c -1.65142,0 -2.04866,13.18734 -0.47054,15.62571 1.83521,2.83538 2.48825,1.27187 2.37271,-5.68652 -0.15849,-9.55332 -0.23197,-9.93919 -1.90217,-9.93919 z m 145.5033,5.22483 c -0.53857,-0.0507 -1.05962,-0.0294 -1.55369,0.0688 -0.65876,0.13026 -1.26661,0.39412 -1.80006,0.79682 -2.45604,1.85393 -3.18603,16.74963 -0.9522,19.44113 1.84526,2.22333 7.28416,2.25463 9.1113,0.0533 0.80934,-0.97512 1.18326,-3.49671 0.8856,-5.96617 -0.28382,-2.35247 -0.13055,-5.64462 0.33959,-7.3179 0.62112,-2.21035 0.33797,-3.49555 -1.03209,-4.69659 -1.61596,-1.41664 -3.38274,-2.22718 -4.99845,-2.37938 z m 0.51272,3.37374 c 1.32384,-0.2251 2.03313,0.58839 2.03313,2.38825 0,0.85852 -1.23124,1.51374 -2.84105,1.51374 -3.3507,0 -3.72104,-1.7216 -0.71692,-3.32934 0.57416,-0.30729 1.08355,-0.49761 1.52484,-0.57265 z m 62.53168,0.56377 c -1.79121,-0.13624 -3.57084,0.277 -4.58783,1.29401 -0.79315,0.79326 -1.36281,4.59615 -1.36281,9.09132 0,6.21229 0.44565,8.17193 2.27283,9.99912 2.98606,2.98601 7.02177,2.891 8.96036,-0.21308 2.19391,-3.51301 1.78242,-15.51505 -0.6237,-18.17376 -1.06354,-1.17524 -2.86752,-1.86137 -4.65885,-1.99761 z m -15.11964,0.18645 c -1.33005,-0.25616 -1.59033,1.61416 -1.42497,10.22552 0.11081,5.79716 0.23899,10.71192 0.28411,10.92023 0.0449,0.20835 0.72138,0.16203 1.50264,-0.10205 2.17527,-0.73713 1.83349,-20.62059 -0.36178,-21.04365 z m -107.84846,0.35513 c 0.59121,-0.0787 1.55306,0.15763 2.45706,0.64144 1.5017,0.80362 2.0814,2.1282 1.84001,4.21052 -0.3379,2.91735 -3.00315,4.57664 -4.66995,2.90984 -0.99227,-0.99209 -1.05157,-6.60381 -0.0799,-7.57536 0.0986,-0.0986 0.25572,-0.16022 0.45278,-0.18644 z m -56.56993,0.80569 c -1.06528,-0.35302 -1.42052,2.06185 -1.42052,9.66176 0,5.57303 0.34024,10.47476 0.75686,10.89138 2.1314,2.13163 2.70811,-0.17698 2.41044,-9.66175 -0.22196,-7.08221 -0.78141,-10.57141 -1.74678,-10.89139 z m 180.00192,2.18848 c 0.51143,-0.1442 1.02931,-0.009 1.50264,0.47722 1.27908,1.31524 1.85578,12.07716 0.74355,13.87669 -2.23839,3.62181 -5.25147,-0.69224 -5.25147,-7.51765 0,-3.46281 1.47096,-6.40362 3.00528,-6.83626 z m -218.60675,0.32851 c -1.0322,0.066 -1.51753,0.7262 -0.77018,1.93545 0.39678,0.642 5.3795,4.22417 11.07117,7.96156 v 0.002 c 6.72027,4.41285 10.51462,6.29497 10.82257,5.37135 0.26076,-0.78228 -0.74893,-2.32797 -2.24397,-3.43589 -1.49488,-1.10793 -3.49301,-2.68005 -4.43913,-3.49359 -0.94613,-0.81349 -2.99169,-2.11082 -4.54566,-2.88321 -1.5539,-0.77243 -4.18103,-2.49659 -5.83745,-3.83095 -1.4455,-1.16461 -3.02515,-1.69299 -4.05735,-1.62695 z m 155.42695,4.33702 c 2.29628,-0.14878 3.44256,1.9391 2.09749,4.45243 -1.35407,2.5303 -3.94633,2.66509 -4.87194,0.25304 -1.11965,-2.91776 -0.82425,-3.69006 1.72461,-4.49905 0.37106,-0.11777 0.7218,-0.18516 1.04984,-0.20642 z m -87.30863,5.89293 c -0.0796,-0.0272 -0.16242,-0.0147 -0.2508,0.04 -0.62507,0.3863 -1.13642,4.50941 -1.13642,9.16011 0,7.02999 0.31045,8.45432 1.83779,8.45432 1.35077,0 1.65561,-0.67726 1.15195,-2.55694 -0.37688,-1.4063 -0.69228,-5.52713 -0.70137,-9.15792 -0.008,-3.59442 -0.34399,-5.7497 -0.90115,-5.93953 z m 28.81656,0.96773 c -1.14629,-0.26348 -1.23673,2.05899 -0.87895,11.8569 0.21111,5.78135 0.85762,10.51184 1.43827,10.51184 1.38033,0 1.37877,-21.25817 -0.002,-22.11127 -0.20858,-0.12893 -0.39337,-0.21983 -0.55712,-0.25747 z m -66.36487,6.51441 c -1.47406,-0.0261 -2.47702,0.42797 -2.47702,1.3717 0,1.45032 0.59856,1.75415 13.63698,6.90726 8.88602,3.5125 9.36077,3.57053 8.88045,1.07649 -0.21965,-1.14053 -2.73758,-2.85512 -6.0483,-4.11729 -3.1201,-1.18953 -7.03058,-2.86594 -8.68958,-3.72664 -1.88327,-0.97714 -3.82846,-1.48541 -5.30253,-1.51152 z m 125.24092,0.47498 c -0.16032,-0.0507 -0.32108,-0.0338 -0.47276,0.0599 -1.70828,1.05579 -1.41442,22.95948 0.31741,23.6583 0.78115,0.31517 1.67604,0.61421 1.98873,0.66364 0.68764,0.10876 0.14597,-18.73507 -0.64369,-22.40203 -0.23129,-1.07391 -0.7087,-1.8277 -1.18969,-1.97984 z m -30.10833,1.74236 c -1.16453,0 -1.405,16.27824 -0.25747,17.42577 2.03653,2.03657 2.75193,0.0915 2.54361,-6.91393 -0.24752,-8.3277 -0.72229,-10.51184 -2.28614,-10.51184 z m 88.19424,3.11849 c -1.18048,0.28845 -2.23463,18.86198 -1.21854,21.50975 0.31879,0.83077 1.12468,1.50931 1.79118,1.50931 0.80036,0 1.10173,-3.95471 0.88783,-11.64825 -0.1956,-7.0344 -0.77415,-11.53832 -1.46047,-11.37081 z m -28.94307,3.70001 c -1.77208,0 -1.53191,16.73581 0.2486,17.33476 1.01811,0.34254 1.51656,-1.60921 1.7601,-6.89395 0.36289,-7.87109 -0.13126,-10.44081 -2.0087,-10.44081 z m -125.44957,1.22297 c -1.28469,0.0953 -1.86442,0.61821 -1.86442,1.57589 0,1.67574 9.4588,5.13947 14.12751,5.17379 1.29287,0.009 3.06992,0.47446 3.95081,1.0321 0.88083,0.55764 2.25564,0.76347 3.05411,0.45723 2.69878,-1.03559 0.25347,-3.74738 -4.48795,-4.97626 -2.59214,-0.67184 -6.50211,-1.69798 -8.68957,-2.27949 -2.81613,-0.74861 -4.8058,-1.07864 -6.09049,-0.98326 z m 30.31921,6.59654 c -1.51138,-0.0156 -2.26444,0.25487 -2.72341,0.80791 -1.67558,2.01908 0.45973,3.02052 9.7461,4.5723 10.96654,1.83245 11.93235,1.81865 11.93235,-0.16647 0,-2.16731 -0.76975,-2.45061 -11.67933,-4.30373 -3.4943,-0.59361 -5.76434,-0.8945 -7.27571,-0.91001 z m 27.74005,4.88081 c -1.32169,0.0709 -1.96651,0.31191 -1.96651,0.72358 0,1.93028 2.31703,2.91452 10.22773,4.34367 v -0.002 c 12.16157,2.19717 13.81057,1.96993 11.54614,-1.59808 -1.0657,-1.67912 -2.89209,-2.10097 -13.78124,-3.17397 -2.70551,-0.26657 -4.70429,-0.36386 -6.02612,-0.29297 z m 32.59648,3.61566 c -3.07924,-0.13208 -5.16117,0.045 -5.48453,0.56821 -1.05536,1.70761 3.03031,3.55844 8.06366,3.65118 2.38495,0.0439 5.29617,0.45781 6.47002,0.91889 3.33755,1.31103 8.61035,0.18532 7.89276,-1.68465 -0.33507,-0.87311 -1.19442,-1.63049 -1.90883,-1.68243 -0.71441,-0.0522 -2.32134,-0.26537 -3.57127,-0.47497 -4.30651,-0.7218 -8.38257,-1.16415 -11.46181,-1.29623 z m 25.97552,2.19515 c -0.7257,0.0309 -1.24936,0.11783 -1.50042,0.273 -1.7635,1.08989 -1.24714,2.38003 1.47601,3.69335 1.40617,0.67824 6.75997,1.26659 11.89684,1.30954 7.48518,0.0616 9.21958,-0.23311 8.7384,-1.4871 -0.55809,-1.45432 -15.53096,-4.00528 -20.61083,-3.78879 z m 31.5333,2.43263 c -1.38953,-0.0227 -2.63562,0.18892 -3.44476,0.71915 -1.45531,0.95369 -1.38257,1.34449 0.51493,2.7922 2.399,1.83033 10.34484,2.30247 11.35083,0.67475 1.20403,-1.94814 -4.25254,-4.11802 -8.421,-4.1861 z m -227.87341,14.2851 c -0.78104,0 -1.41634,0.54327 -1.61584,1.26292 v 0.93222 0.95662 0.99437 1.03432 0.69028 l 88.26748,-0.0156 c 81.72146,-0.0149 157.92922,-0.0612 169.35026,-0.0999 l 20.76621,-0.0731 -1.85999,-2.84104 c -2.05431,-3.13527 -5.00955,-3.80566 -5.00955,-1.13642 0,1.47598 -4.41977,1.70463 -32.95604,1.70463 -28.53637,0 -32.95604,-0.22874 -32.95604,-1.70463 0,-0.93754 -0.76721,-1.70461 -1.70461,-1.70461 -0.93755,0 -1.70463,0.76707 -1.70463,1.70461 0,1.47427 -4.28161,1.70463 -31.69978,1.70463 -27.12734,0 -31.79252,-0.24593 -32.35231,-1.70463 -0.35976,-0.93754 -1.17977,-1.70461 -1.82447,-1.70461 -0.6446,0 -1.17193,0.76707 -1.17193,1.70461 0,1.47512 -4.35662,1.70463 -32.38782,1.70463 -28.03133,0 -32.38783,-0.22942 -32.38783,-1.70463 0,-0.93754 -0.5114,-1.70461 -1.13641,-1.70461 -0.62508,0 -1.13642,0.76707 -1.13642,1.70461 0,1.47512 -4.35663,1.70463 -32.38782,1.70463 -28.03134,0 -32.38784,-0.22942 -32.38784,-1.70463 0,-0.93754 -0.76721,-1.70461 -1.70462,-1.70461 z m -7.25797,21.13022 c -0.34738,-0.0352 -0.68184,-0.005 -0.98992,0.10432 -2.85574,1.01247 -5.95729,3.89094 -5.95729,5.52671 0,2.42823 3.14136,2.7918 3.75771,0.43504 0.60922,-2.32972 3.58135,-2.97617 4.77871,-1.03877 0.39343,0.63658 -1.36679,3.77203 -3.91086,6.9672 -4.26225,5.35314 -5.57307,8.73201 -3.99965,10.30543 0.34399,0.34395 3.10176,0.58715 6.13042,0.54158 4.05081,-0.0611 5.35679,-0.47577 4.93631,-1.57146 -0.31595,-0.82329 -2.29658,-1.48932 -4.42803,-1.48932 -2.12059,0 -3.85537,-0.40739 -3.85537,-0.90559 0,-0.49817 2.04556,-2.90355 4.54566,-5.34469 2.49997,-2.44129 4.54565,-5.51617 4.54565,-6.83403 0,-2.93678 -3.12181,-6.44957 -5.55334,-6.69641 z m 17.33921,0.46166 c -1.54904,0 -4.96738,9.91858 -4.96738,14.41162 0,2.30309 0.55487,2.63461 4.41249,2.63461 3.45739,0 4.5417,0.49225 5.00733,2.27283 1.13718,4.34842 1.94434,2.22661 1.94434,-5.11386 0,-7.67894 -1.48683,-9.89402 -2.67013,-3.97746 -0.38553,1.92747 -1.40634,3.40924 -2.3483,3.40924 -2.83392,0 -3.02962,-1.86791 -0.75244,-7.18027 2.20666,-5.14787 2.0789,-6.45671 -0.62591,-6.45671 z m -7.30014,20.67299 c -0.23393,-0.0496 -0.52734,-0.0317 -0.88561,0.0421 -1.04254,0.21492 -1.7552,1.22884 -1.58253,2.25285 0.17284,1.024 -0.2107,2.18713 -0.85232,2.58357 -0.6416,0.39653 -1.16527,1.45653 -1.16527,2.35717 0,4.17463 4.67149,-0.0643 5.18045,-4.70102 0.1794,-1.63412 0.007,-2.3861 -0.69472,-2.53474 z" />
      <text
         xml:space="preserve"
         style="font-size:42.6667px;font-family:'PT Sans';-inkscape-font-specification:'PT Sans';text-align:start;text-anchor:start;fill:#eaebee;fill-opacity:1;fill-rule:evenodd;stroke:none;stroke-width:20.7454;stroke-opacity:1"
         x="364.13345"
         y="62.980396"
         id="text6808"><tspan
           sodipodi:role="line"
           id="tspan6806"
           style="font-size:42.6667px;text-align:end;text-anchor:end;fill:#2d2c2d;fill-opacity:1;stroke-width:20.7454"
           x="364.13345"
           y="62.980396"
           dy="10">Stadiametric</tspan><tspan
           sodipodi:role="line"
           style="font-size:42.6667px;text-align:end;text-anchor:end;fill:#2d2c2d;fill-opacity:1;stroke-width:20.7454"
           x="364.13345"
           y="116.31377"
           id="tspan8335">Rangefinder</tspan></text>
      <rect
         style="fill:#000000;fill-opacity:0;fill-rule:evenodd;stroke:#f1372a;stroke-width:3.40925;stroke-dasharray:none;stroke-dashoffset:0;stroke-opacity:1"
         id="rect12450"
         width="16.712738"
         height="16.712738"
         x="-47.169952"
         y="198.37178"
         transform="rotate(-45)" />
      <rect
         style="fill:#000000;fill-opacity:0;fill-rule:evenodd;stroke:#f1372a;stroke-width:3.40925;stroke-dasharray:none;stroke-dashoffset:0;stroke-opacity:1"
         id="rect12452"
         width="16.712738"
         height="16.712738"
         x="144.8401"
         y="390.38177"
         transform="rotate(-45)" />
      <g
         id="g11521"
         transform="matrix(4.5374761,0,0,4.2951119,-1117.2555,-282.34177)">
        <path
           style="fill:none;fill-opacity:1;fill-rule:evenodd;stroke:#f1372a;stroke-width:1.05833;stroke-dasharray:none;stroke-dashoffset:0;stroke-opacity:1"
           d="m 275.00019,106.15928 h 54.63562"
           id="path11519"
           sodipodi:nodetypes="cc" />
        <path
           style="fill:none;fill-opacity:1;fill-rule:evenodd;stroke:#f1372a;stroke-width:1.05833;stroke-dasharray:none;stroke-dashoffset:0;stroke-opacity:1"
           d="m 275.00019,106.15928 h 54.63562"
           id="path11579"
           sodipodi:nodetypes="cc" />
      </g>
      <text
         xml:space="preserve"
         style="font-size:21.3333px;font-family:'PT Sans';-inkscape-font-specification:'PT Sans';text-align:end;text-anchor:end;fill:#f1372a;fill-opacity:1;fill-rule:evenodd;stroke-width:20.7454"
         x="249.82933"
         y="164.72916"
         id="text11525"><tspan
           sodipodi:role="line"
           id="tspan11523"
           x="249.82933"
           y="164.72916"
           style="font-size:21.3333px;text-align:center;text-anchor:middle;fill:#f1372a;fill-opacity:1;stroke-width:20.7454">Range in 100m</tspan></text>
      <rect
         style="fill:#000000;fill-opacity:0;fill-rule:evenodd;stroke:#f1372a;stroke-width:3.40925;stroke-dasharray:none;stroke-dashoffset:0;stroke-opacity:1"
         id="rect11577"
         width="16.712738"
         height="16.712738"
         x="-202.69173"
         y="353.89352"
         transform="rotate(-45)" />
      <g
         id="g11643"
         transform="matrix(0,-4.0198431,4.2951119,0,-337.23248,1730.4672)">
        <path
           style="fill:none;fill-opacity:1;fill-rule:evenodd;stroke:#f1372a;stroke-width:1.05833;stroke-dasharray:none;stroke-dashoffset:0;stroke-opacity:1"
           d="m 321.15477,106.15928 h 8.48104"
           id="path11639"
           sodipodi:nodetypes="cc" />
        <path
           style="fill:none;fill-opacity:1;fill-rule:evenodd;stroke:#f1372a;stroke-width:1.05833;stroke-dasharray:none;stroke-dashoffset:0;stroke-opacity:1"
           d="m 329.63581,106.15928 v 0"
           id="path11641"
           sodipodi:nodetypes="cc" />
      </g>
      <g
         id="g11649"
         transform="matrix(4.1169811,0,0,4.2951119,-1002.7145,-18.76341)">
        <path
           style="fill:none;fill-opacity:1;fill-rule:evenodd;stroke:#f1372a;stroke-width:1.05833;stroke-dasharray:none;stroke-dashoffset:0;stroke-opacity:1"
           d="m 275.00019,106.15928 h 54.63562"
           id="path11645"
           sodipodi:nodetypes="cc" />
        <path
           style="fill:none;fill-opacity:1;fill-rule:evenodd;stroke:#f1372a;stroke-width:1.05833;stroke-dasharray:none;stroke-dashoffset:0;stroke-opacity:1"
           d="m 272.39573,106.15928 h 57.24008"
           id="path11647"
           sodipodi:nodetypes="cc" />
      </g>
      <text
         xml:space="preserve"
         style="font-size:21.3333px;font-family:'PT Sans';-inkscape-font-specification:'PT Sans';text-align:end;text-anchor:end;fill:#f1372a;fill-opacity:1;fill-rule:evenodd;stroke-width:20.7454"
         x="249.9147"
         y="427.71985"
         id="text11653"><tspan
           sodipodi:role="line"
           id="tspan11651"
           x="249.9147"
           y="427.71985"
           style="font-size:21.3333px;text-align:center;text-anchor:middle;fill:#f1372a;fill-opacity:1;stroke-width:20.7454">Target Height Indicator</tspan></text>
    </g>
  </g>
</svg>
