<?xml version="1.0" encoding="UTF-8" standalone="no"?>
<!-- Created with Inkscape (http://www.inkscape.org/) -->

<svg
   width="500"
   height="500"
   viewBox="0 0 500.00001 500"
   version="1.1"
   id="SVGRoot"
   sodipodi:docname="Rangefinder_NATO.svg"
   inkscape:version="1.2.1 (9c6d41e410, 2022-07-14)"
   xml:space="preserve"
   xmlns:inkscape="http://www.inkscape.org/namespaces/inkscape"
   xmlns:sodipodi="http://sodipodi.sourceforge.net/DTD/sodipodi-0.dtd"
   xmlns="http://www.w3.org/2000/svg"
   xmlns:svg="http://www.w3.org/2000/svg"><sodipodi:namedview
     id="namedview365"
     pagecolor="#505050"
     bordercolor="#eeeeee"
     borderopacity="1"
     inkscape:showpageshadow="0"
     inkscape:pageopacity="0"
     inkscape:pagecheckerboard="0"
     inkscape:deskcolor="#505050"
     inkscape:document-units="px"
     showgrid="false"
     inkscape:zoom="1.7852694"
     inkscape:cx="340.84492"
     inkscape:cy="279.50964"
     inkscape:window-width="2560"
     inkscape:window-height="1369"
     inkscape:window-x="3832"
     inkscape:window-y="-8"
     inkscape:window-maximized="1"
     inkscape:current-layer="layer1" /><defs
     id="defs360"><clipPath
       clipPathUnits="userSpaceOnUse"
       id="clipPath356"><circle
         style="fill:#f1372a;fill-rule:evenodd;stroke-width:27.9088"
         id="circle358"
         cx="750.00006"
         cy="680.95844"
         r="680.95844" /></clipPath><clipPath
       clipPathUnits="userSpaceOnUse"
       id="clipPath1504"><circle
         style="fill:#f1372a;fill-opacity:0.299242;fill-rule:evenodd;stroke-width:32.8388"
         id="circle1506"
         cx="750"
         cy="750"
         r="712.5" /></clipPath></defs><g
     inkscape:label="Layer 1"
     inkscape:groupmode="layer"
     id="layer1"
     transform="translate(-500,-320)"><circle
       style="fill:#eaebee;fill-opacity:1;fill-rule:evenodd;stroke-width:17.789;stroke-dasharray:none"
       id="path2286"
       cx="750"
       cy="570"
       r="250" /><path
       d="m 724.42634,618.91947 c -5.00854,0 -9.11363,-4.02605 -9.11363,-9.11928 0,-1.39472 0.3275,-2.79508 0.90347,-3.94133 h 16.42598 c 0.57031,1.14625 0.90346,2.54661 0.90346,3.94133 0,5.09323 -4.02603,9.11928 -9.11928,9.11928 m 23.64799,0 c -5.08759,0 -9.19268,-4.02605 -9.19268,-9.11928 0,-1.39472 0.3275,-2.79508 0.90346,-3.94133 h 16.50504 c 0.57595,1.14625 0.90346,2.54661 0.90346,3.94133 0,5.09323 -4.10508,9.11928 -9.11928,9.11928 m 23.56895,0 c -5.00854,0 -9.11362,-4.02605 -9.11362,-9.11928 0,-1.39472 0.32749,-2.79508 0.90346,-3.94133 h 16.42597 c 0.57031,1.14625 0.90345,2.54661 0.90345,3.94133 0,5.09323 -4.10508,9.11928 -9.11926,9.11928 m 23.56893,0 c -5.00853,0 -9.11362,-4.02605 -9.11362,-9.11928 0,-1.39472 0.32749,-2.79508 0.90346,-3.94133 h 16.42598 c 0.57031,1.14625 0.89782,2.54661 0.89782,3.94133 0,5.09323 -4.02039,9.11928 -9.11364,9.11928 m -94.34916,0 c -5.09322,0 -9.11927,-4.02605 -9.11927,-9.11928 0,-1.39472 0.33315,-2.79508 0.90345,-3.94133 h 16.42599 c 0.57029,1.14625 0.90345,2.54661 0.90345,3.94133 0,5.09323 -4.11073,9.11928 -9.11362,9.11928 m 58.71342,-60.79704 c 7.05827,-0.3275 24.30301,2.63134 24.30301,9.69523 0,6.98485 -17.24474,15.85567 -24.30301,15.85567 h -30.5538 c -5.00287,0 -9.93236,-4.27448 -11.90304,-8.29486 h -9.19833 c -0.7397,1.14627 -2.05536,1.97066 -3.52913,1.97066 h -8.62234 c -1.47944,0 -2.79508,-0.82439 -3.53479,-1.97066 h -11.73931 c -0.73969,1.14627 -2.05535,1.97066 -3.53478,1.97066 h -8.62237 c -2.29816,0 -4.10508,-1.89161 -4.10508,-4.11072 v -2.63133 c 0,-2.29816 1.80692,-4.10508 4.10508,-4.10508 h 8.62237 c 1.47943,0 2.79509,0.73971 3.53478,1.97066 h 11.73931 c 0.73971,-1.23095 2.05535,-1.97066 3.53479,-1.97066 h 8.62234 c 1.47377,0 2.78943,0.73971 3.52913,1.97066 h 9.19833 c 4.84478,-11.33838 32.02758,-9.85897 42.45684,-10.35023 m -61.9207,29.57693 h 101.58248 c 1.80691,0 3.36539,0.49127 4.84479,1.56412 l 6.40326,4.26884 c 3.61383,2.4619 4.76009,7.22765 2.79506,11.08995 l -6.3242,12.56933 c -1.56413,3.04351 -4.43257,4.77139 -7.71891,4.77139 H 697.65577 c -3.20162,0 -6.07575,-1.64881 -7.63422,-4.60199 l -6.81545,-12.81781 c -2.1344,-4.02602 -0.7397,-9.11926 3.20164,-11.50214 l 6.81543,-4.11072 c 1.39474,-0.82442 2.78942,-1.23097 4.4326,-1.23097"
       style="fill:#f1372a;fill-opacity:1;fill-rule:evenodd;stroke:none;stroke-width:5.64661"
       id="path10262" /><path
       id="path1115"
       clip-path="url(#clipPath1504)"
       style="fill:#2d2c2d;fill-opacity:1;stroke:#2d2c2d;stroke-width:2.655;stroke-dasharray:none;stroke-opacity:1;paint-order:stroke fill markers"
       d="m 750,649.74902 c -3.4487,0 -8.54622,4.05906 -9.40723,7.4896 -0.97602,3.88868 1.81598,9.35358 5.61929,10.99643 7.16544,3.09537 14.90769,-3.11364 13.25639,-10.63183 -0.80416,-3.66132 -5.85871,-7.8542 -9.46845,-7.8542 z m -0.19204,1.44448 c 0.98351,-0.0206 1.97856,0.12268 2.91401,0.40635 1.8709,0.56733 3.50183,1.69749 4.31675,3.22017 1.76324,3.29454 1.1168,8.43437 -1.35264,10.75429 -5.17245,4.85936 -13.68501,1.31027 -13.68501,-5.70556 0,-4.4053 1.3489,-6.60508 4.96245,-8.10191 0.88896,-0.36821 1.86093,-0.55273 2.84444,-0.57334 z m -120.80772,23.55703 v 43.00049 42.99771 H 557.00156 485.0001 v 54.84023 c 0,30.1615 -0.29504,63.01257 -0.65684,73.00063 -0.59798,16.50857 -0.50786,18.1604 0.99917,18.1604 1.5284,0 1.65879,-5.62148 1.65879,-72.01816 v -72.02095 l 71.99868,0.26997 72.00146,0.26998 V 719.99985 676.74887 H 750 869.00141 v 43.50147 43.49868 h 71.99868 72.00151 v 72.00146 c 0,47.33289 0.3417,71.99868 0.9991,71.99868 0.6575,0 0.9992,-25.00118 0.9992,-73.00063 V 761.75068 H 943.00122 870.99975 V 718.24921 674.75053 H 750 Z m -81.50054,90.00044 c -1.08322,0 -1.50014,1.11068 -1.50014,3.99946 v 3.99947 h -3.99946 c -2.2,0 -3.99947,0.44917 -3.99947,0.99917 0,0.55 1.79947,1.00195 3.99947,1.00195 h 3.99946 v 4.49766 c 0,3.33322 0.38914,4.50044 1.50014,4.50044 1.11111,0 1.50015,-1.16722 1.50015,-4.50044 v -4.49766 h 3.99946 c 2.2,0 4.00225,-0.45195 4.00225,-1.00195 0,-0.55 -1.80225,-0.99917 -4.00225,-0.99917 h -3.99946 v -3.99947 c 0,-2.88878 -0.41682,-3.99946 -1.50015,-3.99946 z m 202.5003,0 c -0.55,0 -0.99917,1.77265 -0.99917,3.94102 0,3.91081 -0.0332,3.94492 -4.17202,4.24995 -5.9664,0.43973 -6.31383,2.80825 -0.41192,2.80825 h 4.58394 v 4.50044 c 0,2.475 0.44917,4.50044 0.99917,4.50044 0.55,0 0.99917,-2.02544 0.99917,-4.50044 v -4.50044 h 3.94101 c 5.57785,0 5.97313,-1.74048 0.57891,-2.54941 -4.46765,-0.66996 -4.51992,-0.72247 -4.51992,-4.56446 0,-2.13744 -0.44917,-3.88535 -0.99917,-3.88535 z m 204.62387,1.45005 c -0.54991,0 -0.99917,1.79957 -0.99917,3.99946 v 3.99947 h -4.50044 c -2.47497,0 -4.50044,0.44918 -4.50044,0.99917 0,0.55001 2.02547,0.99917 4.50044,0.99917 h 4.50044 v 4.50044 c 0,2.47489 0.44926,4.50043 0.99917,4.50043 0.55005,0 1.00196,-2.02554 1.00196,-4.50043 v -4.50044 h 4.50043 c 2.47494,0 4.49766,-0.44916 4.49766,-0.99917 0,-0.54999 -2.02272,-0.99917 -4.49766,-0.99917 h -4.50043 v -3.99947 c 0,-2.19989 -0.45191,-3.99946 -1.00196,-3.99946 z m -265.62334,33.54873 v 21.50024 21.50025 h -36.9999 -36.9999 v 36.9999 c 0,23.99979 0.35052,36.9999 0.99917,36.9999 0.64815,0 1.00195,-12.66761 1.00195,-36.00073 v -36.00073 h 36.9999 36.99991 V 823.25112 801.75087 H 750 809.00112 v 21.74795 21.75074 h 35.75024 35.75025 l -0.11133,35.75024 c -0.0904,29.52206 0.127,35.75024 1.24966,35.75024 1.12147,0 1.36098,-6.47784 1.36098,-36.9999 v -36.9999 H 847.00019 810.99946 V 821.24999 799.74975 H 750 Z m -143.00097,46.49897 c -0.55,0.33992 -0.99917,2.39135 -0.99917,4.55889 v 3.94102 h -4.50044 c -2.475,0 -4.50044,0.45195 -4.50044,1.00195 0,0.55 2.02544,0.99917 4.50044,0.99917 h 4.50044 v 4.50044 c 0,2.475 0.44917,4.50044 0.99917,4.50044 0.55,0 1.00195,-2.02544 1.00195,-4.50044 v -4.50044 h 4.49766 c 2.475,0 4.50044,-0.44917 4.50044,-0.99917 0,-0.55 -2.02544,-1.00195 -4.50044,-1.00195 h -4.49766 v -4.55889 c 0,-2.7847 -0.39114,-4.31841 -1.00195,-3.94102 z M 750,846.7497 c -0.55,0 -0.99917,1.79957 -0.99917,3.99946 v 3.99947 h -4.50044 c -2.475,0 -4.50044,0.45195 -4.50044,1.00195 0,0.55 2.02544,0.99917 4.50044,0.99917 h 4.50044 v 4.50044 c 0,2.475 0.44917,4.50044 0.99917,4.50044 0.55,0 0.99917,-2.02544 0.99917,-4.50044 v -4.50044 h 4.00224 c 2.2,0 3.99947,-0.44917 3.99947,-0.99917 0,-0.55 -1.79947,-1.00195 -3.99947,-1.00195 h -4.00224 v -3.99947 c 0,-2.19989 -0.44917,-3.99946 -0.99917,-3.99946 z m 204.00043,0 c -0.54989,0 -0.99917,1.79957 -0.99917,3.99946 v 3.99947 h -4.50043 c -3.33333,0 -4.50044,0.38903 -4.50044,1.50014 0,1.11111 1.16711,1.50015 4.50044,1.50015 h 4.50043 v 4.50044 c 0,2.475 0.44928,4.50044 0.99917,4.50044 0.55,0 0.99917,-2.02544 0.99917,-4.50044 v -4.50044 h 4.00225 c 2.8889,0 3.99946,-0.41682 3.99946,-1.50015 0,-1.08333 -1.11056,-1.50014 -3.99946,-1.50014 h -4.00225 v -3.99947 c 0,-2.19989 -0.44917,-3.99946 -0.99917,-3.99946 z m -245.729,49.00108 0.0752,3.24799 c 0.0414,1.7875 -0.0174,8.34868 -0.1336,14.57842 l -0.21152,11.32764 -23.75185,-0.32842 -23.74908,-0.32563 -0.26718,25.33828 c 0,0 -0.006,25.25281 0.99917,24.91801 0.96528,-0.3212 1.33212,-6.06562 1.53632,-24.0914 l 0.26719,-23.66558 h 23.98286 23.98286 V 912.2496 897.74912 h 38.50005 38.50005 v 14.50048 14.50049 h 23.99956 23.99956 v 23.99956 c 0,20.66648 0.20848,23.99956 1.50015,23.99956 1.29333,0 1.50015,-3.44335 1.50015,-24.99873 V 924.74897 H 815.00171 790.99936 V 910.25126 895.75078 H 749.6354 Z m -163.27104,31.99848 c -0.55,0 -0.99917,1.79957 -0.99917,3.99946 v 4.00225 h -4.50044 c -2.475,0 -4.50044,0.44917 -4.50044,0.99917 0,0.55 2.02544,0.99917 4.50044,0.99917 h 4.50044 v 5.00142 c 0,2.74989 0.44917,4.99863 0.99917,4.99863 0.55,0 0.99917,-2.24874 0.99917,-4.99863 v -5.00142 h 4.55888 c 2.7847,0 4.31852,-0.38837 3.94102,-0.99917 -0.33992,-0.55 -2.39135,-0.99917 -4.55889,-0.99917 -3.93087,0 -3.94101,-0.0123 -3.94101,-4.00225 0,-2.19989 -0.44917,-3.99946 -0.99917,-3.99946 z M 750,928.25024 c -0.58114,-0.35916 -0.99917,0.62717 -0.99917,2.35737 0,5.0901 -0.87412,6.14253 -5.10718,6.14253 -2.14115,0 -3.8937,0.44917 -3.8937,0.99917 0,0.55 1.79946,0.99917 3.99946,0.99917 3.971,0 4.00225,0.0298 4.00225,3.83525 0,2.1084 0.29851,4.13384 0.66518,4.50044 1.58895,1.589 2.33233,0.36415 2.33233,-3.83525 v -4.50044 h 4.00224 c 2.2,0 3.99947,-0.44917 3.99947,-0.99917 0,-0.55 -1.79947,-0.99917 -3.99947,-0.99917 -3.98989,0 -4.00224,-0.01 -4.00224,-3.94102 0,-2.16739 -0.44917,-4.21896 -0.99917,-4.55888 z m 204.9996,0.49819 c -0.54989,0 -0.99917,1.80225 -0.99917,4.00225 v 3.99946 H 949.5 c -2.475,0 -4.50044,0.44917 -4.50044,0.99917 0,0.55 2.02544,0.99917 4.50044,0.99917 h 4.50043 v 4.50044 c 0,2.475 0.44928,4.50044 0.99917,4.50044 0.55,0 1.00196,-2.02544 1.00196,-4.50044 v -4.50044 h 3.94101 c 2.1675,0 4.21899,-0.44917 4.55889,-0.99917 0.3775,-0.6108 -1.15632,-0.99917 -3.94102,-0.99917 h -4.55888 v -3.99946 c 0,-2.2 -0.45196,-4.00225 -1.00196,-4.00225 z M 718.00151,988.5873 v 11.07993 11.08267 h -18.00176 -17.99897 v 19.001 c 0,12 0.36759,18.9981 0.99917,18.9981 0.62963,0 1.00195,-6.6658 1.00195,-17.999 v -17.9989 h 17.99898 17.99897 V 1002.25 991.74902 h 29.00098 29.00097 v 10.50098 10.5011 h 17.99898 17.99897 v 17.9989 c 0,9.9 0.38609,17.999 0.85723,17.999 0.87307,0 2.29405,-35.8831 1.4751,-37.2504 -0.24707,-0.4125 -8.56592,-0.7487 -18.48604,-0.7487 H 779.8081 l 0.34234,-10.7487 0.34511,-10.7515 -31.24702,-0.3312 z m -175.00224,26.1621 c -0.55,0 -0.99917,1.8024 -0.99917,4.0023 v 3.9994 h -4.50044 c -2.475,0 -4.50044,0.4493 -4.50044,0.9992 0,0.5501 2.02544,0.9992 4.50044,0.9992 h 4.50044 v 4.5004 c 0,2.475 0.44917,4.5004 0.99917,4.5004 0.54989,0 1.00195,-2.0254 1.00195,-4.5004 v -4.5004 h 4.50044 c 2.475,0 4.49765,-0.4491 4.49765,-0.9992 0,-0.5499 -2.02265,-0.9992 -4.49765,-0.9992 h -4.50044 v -3.9994 c 0,-2.1999 -0.45206,-4.0023 -1.00195,-4.0023 z m 206.00156,0 c -0.55,0 -0.99917,1.8024 -0.99917,4.0023 v 3.9994 h -4.00225 c -2.2,0 -3.99946,0.4493 -3.99946,0.9992 0,0.5501 1.79946,0.9992 3.99946,0.9992 h 4.00225 v 4.5004 c 0,2.475 0.44917,4.5004 0.99917,4.5004 0.55,0 0.99917,-2.0254 0.99917,-4.5004 v -4.5004 h 4.50044 c 2.47489,0 4.50044,-0.4491 4.50044,-0.9992 0,-0.5499 -2.02555,-0.9992 -4.50044,-0.9992 H 750 v -3.9994 c 0,-2.1999 -0.44917,-4.0023 -0.99917,-4.0023 z m 207.00073,0 c -0.55,0 -1.00196,1.7994 -1.00196,3.9995 v 4.0022 h -4.50043 c -3.33333,0 -4.49766,0.3891 -4.49766,1.5002 0,1.1111 1.16433,1.4973 4.49766,1.4973 h 4.50043 v 4.5005 c 0,2.475 0.45196,4.5004 1.00196,4.5004 0.55,0 0.99917,-1.9986 0.99917,-4.442 v -4.442 l 4.24995,-0.3089 c 2.3375,-0.1691 4.24995,-0.7554 4.24995,-1.3053 0,-0.55 -1.91245,-1.139 -4.24995,-1.3081 -4.229,-0.306 -4.24995,-0.3267 -4.24995,-4.25 0,-2.1684 -0.44917,-3.9438 -0.99917,-3.9438 z"
       transform="matrix(0.56497072,0,0,0.56497072,326.55478,103.66083)"
       sodipodi:nodetypes="sscssssssssscccccsssscccccccccccssscccccccsscssscssscssscsssssscssscsssssscssscssscssscsscccccsssccccccccccccsscccccccsscssscssscssscsssscssscssscssscsssscssscssscssscsscsccccccccccccccccccssscccccccsscssscssscssssssssssscscssssssscssscssscssscsscccccssscccccccccccsssscccccsscssscssscssscsssscssscssscssscsssscssscsssccssss" /><g
       aria-label="Variable Frame
Rangefinder"
       id="text6808"
       style="font-size:42.6667px;font-family:'PT Sans';-inkscape-font-specification:'PT Sans';fill:#eaebee;fill-rule:evenodd;stroke-width:20.7454"><path
         d="m 623.30121,390.52269 1.024,4.52267 h 0.0427 l 1.10933,-4.608 7.21067,-20.43735 h 3.54134 l -11.30668,30.33602 h -1.57866 l -11.52001,-30.33602 h 3.88267 z"
         style="text-align:center;text-anchor:middle;fill:#2d2c2d"
         id="path307" /><path
         d="m 636.95462,380.11202 q 1.62133,-0.98134 3.75467,-1.45067 2.176,-0.46933 4.52267,-0.46933 2.21867,0 3.54133,0.59733 1.36534,0.59733 2.048,1.57867 0.72534,0.93867 0.93867,2.09067 0.256,1.152 0.256,2.304 0,2.56 -0.128,4.992 -0.128,2.432 -0.128,4.60801 0,1.57866 0.128,2.98666 0.128,1.40801 0.46934,2.60267 h -2.51734 l -0.896,-2.98667 h -0.21333 q -0.384,0.59734 -0.98134,1.19467 -0.55466,0.55467 -1.36533,1.024 -0.81067,0.42667 -1.87734,0.72534 -1.06666,0.29866 -2.432,0.29866 -1.36533,0 -2.56,-0.42666 -1.152,-0.42667 -2.00534,-1.19467 -0.85333,-0.81067 -1.36533,-1.92 -0.46933,-1.10934 -0.46933,-2.51734 0,-1.87733 0.768,-3.11467 0.768,-1.28 2.13333,-2.00533 1.408,-0.768 3.328,-1.06667 1.96267,-0.34133 4.30934,-0.34133 0.59734,0 1.152,0 0.59734,0 1.19467,0.0853 0.128,-1.28 0.128,-2.304 0,-2.34667 -0.93867,-3.28534 -0.93866,-0.93866 -3.41333,-0.93866 -0.72534,0 -1.57867,0.128 -0.81067,0.0853 -1.70667,0.29866 -0.85333,0.17067 -1.664,0.46934 -0.768,0.256 -1.36533,0.59733 z m 6.05867,17.10934 q 1.19467,0 2.13333,-0.29866 0.93867,-0.34134 1.62134,-0.81067 0.68267,-0.512 1.10933,-1.10933 0.46934,-0.59734 0.68267,-1.15201 v -3.54133 q -0.59733,-0.0427 -1.23733,-0.0427 -0.59734,-0.0427 -1.19467,-0.0427 -1.32267,0 -2.60267,0.17066 -1.23733,0.128 -2.21867,0.55467 -0.93867,0.384 -1.536,1.10933 -0.55467,0.68267 -0.55467,1.74934 0,1.49333 1.06667,2.47467 1.06667,0.93866 2.73067,0.93866 z"
         style="text-align:center;text-anchor:middle;fill:#2d2c2d"
         id="path309" /><path
         d="m 668.52799,381.81869 q -1.28,-0.42667 -2.432,-0.42667 -1.83467,0 -2.90134,1.024 -1.06667,0.98133 -1.32267,2.51733 v 14.93335 h -3.41333 v -21.33335 h 2.38933 l 0.64,2.60267 h 0.17067 q 0.81067,-1.45067 1.92,-2.21867 1.152,-0.81067 2.90134,-0.81067 1.23733,0 2.77333,0.42667 z"
         style="text-align:center;text-anchor:middle;fill:#2d2c2d"
         id="path311" /><path
         d="m 673.69066,378.53335 h 3.41334 v 21.33335 h -3.41334 z m -0.72533,-6.48534 q 0,-0.98133 0.64,-1.664 0.68267,-0.72533 1.70667,-0.72533 1.024,0 1.74933,0.72533 0.72534,0.68267 0.72534,1.664 0,0.98134 -0.72534,1.62134 -0.72533,0.64 -1.74933,0.64 -1.024,0 -1.70667,-0.64 -0.64,-0.64 -0.64,-1.62134 z"
         style="text-align:center;text-anchor:middle;fill:#2d2c2d"
         id="path313" /><path
         d="m 684.05865,380.11202 q 1.62134,-0.98134 3.75467,-1.45067 2.17601,-0.46933 4.52267,-0.46933 2.21867,0 3.54134,0.59733 1.36533,0.59733 2.048,1.57867 0.72534,0.93867 0.93867,2.09067 0.256,1.152 0.256,2.304 0,2.56 -0.128,4.992 -0.128,2.432 -0.128,4.60801 0,1.57866 0.128,2.98666 0.128,1.40801 0.46933,2.60267 H 696.944 l -0.896,-2.98667 h -0.21334 q -0.384,0.59734 -0.98133,1.19467 -0.55467,0.55467 -1.36534,1.024 -0.81066,0.42667 -1.87733,0.72534 -1.06667,0.29866 -2.432,0.29866 -1.36534,0 -2.56,-0.42666 -1.152,-0.42667 -2.00534,-1.19467 -0.85333,-0.81067 -1.36533,-1.92 -0.46934,-1.10934 -0.46934,-2.51734 0,-1.87733 0.768,-3.11467 0.768,-1.28 2.13334,-2.00533 1.408,-0.768 3.328,-1.06667 1.96267,-0.34133 4.30934,-0.34133 0.59733,0 1.152,0 0.59733,0 1.19467,0.0853 0.128,-1.28 0.128,-2.304 0,-2.34667 -0.93867,-3.28534 -0.93867,-0.93866 -3.41334,-0.93866 -0.72533,0 -1.57866,0.128 -0.81067,0.0853 -1.70667,0.29866 -0.85334,0.17067 -1.664,0.46934 -0.768,0.256 -1.36534,0.59733 z m 6.05868,17.10934 q 1.19466,0 2.13333,-0.29866 0.93867,-0.34134 1.62133,-0.81067 0.68267,-0.512 1.10934,-1.10933 0.46933,-0.59734 0.68267,-1.15201 v -3.54133 q -0.59734,-0.0427 -1.23734,-0.0427 -0.59733,-0.0427 -1.19467,-0.0427 -1.32266,0 -2.60266,0.17066 -1.23734,0.128 -2.21867,0.55467 -0.93867,0.384 -1.536,1.10933 -0.55467,0.68267 -0.55467,1.74934 0,1.49333 1.06667,2.47467 1.06666,0.93866 2.73067,0.93866 z"
         style="text-align:center;text-anchor:middle;fill:#2d2c2d"
         id="path315" /><path
         d="m 705.56268,370.00001 h 3.41334 v 10.62401 h 0.17067 q 0.98133,-1.23734 2.47467,-1.92 1.536,-0.68267 3.328,-0.68267 4.13867,0 6.18667,2.64533 2.09067,2.64534 2.09067,8.19201 0,5.58934 -2.73067,8.49067 -2.73067,2.90134 -7.68001,2.90134 -2.38933,0 -4.352,-0.512 -1.92,-0.512 -2.90134,-1.10934 z m 8.78934,11.00801 q -2.13333,0 -3.456,1.19467 -1.32267,1.19466 -1.92,3.37067 v 10.752 q 0.81067,0.46934 1.96267,0.72534 1.152,0.21333 2.38933,0.21333 2.90134,0 4.60801,-2.048 1.74933,-2.048 1.74933,-6.40001 0,-1.664 -0.29867,-3.11466 -0.29866,-1.45067 -0.93866,-2.47467 -0.64,-1.024 -1.664,-1.62134 -0.98134,-0.59733 -2.43201,-0.59733 z"
         style="text-align:center;text-anchor:middle;fill:#2d2c2d"
         id="path317" /><path
         d="m 732.40008,394.6187 q 0,1.49333 0.512,2.13333 0.512,0.64 1.45066,0.64 0.55467,0 1.19467,-0.0853 0.64,-0.0853 1.45067,-0.384 l 0.384,2.688 q -0.68267,0.34133 -1.92,0.55467 -1.19467,0.21333 -2.09067,0.21333 -1.92,0 -3.15734,-1.06667 -1.23733,-1.10933 -1.23733,-3.712 v -25.60002 h 3.41334 z"
         style="text-align:center;text-anchor:middle;fill:#2d2c2d"
         id="path319" /><path
         d="m 756.63476,398.16003 q -1.28001,1.024 -3.24267,1.62134 -1.92001,0.59733 -4.09601,0.59733 -2.432,0 -4.224,-0.768 -1.792,-0.81067 -2.944,-2.26134 -1.152,-1.49333 -1.70667,-3.54133 -0.55467,-2.048 -0.55467,-4.60801 0,-5.46133 2.432,-8.32 2.43201,-2.85867 6.95468,-2.85867 1.45066,0 2.90133,0.34133 1.45067,0.29867 2.60267,1.19467 1.152,0.896 1.87734,2.56 0.72533,1.62134 0.72533,4.30934 0,1.408 -0.256,3.11467 h -13.69601 q 0,1.87733 0.384,3.328 0.384,1.45067 1.19467,2.47467 0.81066,0.98133 2.09067,1.536 1.32266,0.512 3.2,0.512 1.45067,0 2.90133,-0.512 1.45067,-0.512 2.176,-1.19467 z m -7.33868,-17.15201 q -2.51733,0 -4.05333,1.32267 -1.49334,1.32266 -1.792,4.52267 h 10.58134 q 0,-3.24267 -1.23734,-4.52267 -1.23733,-1.32267 -3.49867,-1.32267 z"
         style="text-align:center;text-anchor:middle;fill:#2d2c2d"
         id="path321" /><path
         d="m 774.46942,370.00001 h 16.25601 v 3.15734 h -12.71468 v 10.19734 h 11.86135 v 3.15733 h -11.86135 v 13.35468 h -3.54133 z"
         style="text-align:center;text-anchor:middle;fill:#2d2c2d"
         id="path323" /><path
         d="m 806.25611,381.81869 q -1.28,-0.42667 -2.432,-0.42667 -1.83467,0 -2.90134,1.024 -1.06666,0.98133 -1.32267,2.51733 v 14.93335 h -3.41333 v -21.33335 h 2.38933 l 0.64,2.60267 h 0.17067 q 0.81067,-1.45067 1.92,-2.21867 1.152,-0.81067 2.90134,-0.81067 1.23733,0 2.77333,0.42667 z"
         style="text-align:center;text-anchor:middle;fill:#2d2c2d"
         id="path325" /><path
         d="m 810.35213,380.11202 q 1.62134,-0.98134 3.75467,-1.45067 2.17601,-0.46933 4.52267,-0.46933 2.21867,0 3.54134,0.59733 1.36533,0.59733 2.048,1.57867 0.72534,0.93867 0.93867,2.09067 0.256,1.152 0.256,2.304 0,2.56 -0.128,4.992 -0.128,2.432 -0.128,4.60801 0,1.57866 0.128,2.98666 0.128,1.40801 0.46933,2.60267 h -2.51733 l -0.896,-2.98667 h -0.21334 q -0.384,0.59734 -0.98133,1.19467 -0.55467,0.55467 -1.36534,1.024 -0.81066,0.42667 -1.87733,0.72534 -1.06667,0.29866 -2.432,0.29866 -1.36534,0 -2.56,-0.42666 -1.152,-0.42667 -2.00534,-1.19467 -0.85333,-0.81067 -1.36533,-1.92 -0.46934,-1.10934 -0.46934,-2.51734 0,-1.87733 0.768,-3.11467 0.768,-1.28 2.13334,-2.00533 1.408,-0.768 3.328,-1.06667 1.96267,-0.34133 4.30934,-0.34133 0.59733,0 1.152,0 0.59733,0 1.19467,0.0853 0.128,-1.28 0.128,-2.304 0,-2.34667 -0.93867,-3.28534 -0.93867,-0.93866 -3.41334,-0.93866 -0.72533,0 -1.57866,0.128 -0.81067,0.0853 -1.70667,0.29866 -0.85334,0.17067 -1.664,0.46934 -0.768,0.256 -1.36534,0.59733 z m 6.05868,17.10934 q 1.19466,0 2.13333,-0.29866 0.93867,-0.34134 1.62133,-0.81067 0.68267,-0.512 1.10934,-1.10933 0.46933,-0.59734 0.68267,-1.15201 v -3.54133 q -0.59734,-0.0427 -1.23734,-0.0427 -0.59733,-0.0427 -1.19467,-0.0427 -1.32266,0 -2.60266,0.17066 -1.23734,0.128 -2.21867,0.55467 -0.93867,0.384 -1.536,1.10933 -0.55467,0.68267 -0.55467,1.74934 0,1.49333 1.06667,2.47467 1.06666,0.93866 2.73067,0.93866 z"
         style="text-align:center;text-anchor:middle;fill:#2d2c2d"
         id="path327" /><path
         d="m 844.3575,399.8667 v -12.07468 q 0,-1.70666 -0.17067,-2.944 -0.128,-1.28 -0.55466,-2.13333 -0.42667,-0.85334 -1.23734,-1.28 -0.768,-0.42667 -2.048,-0.42667 -1.96267,0 -3.28534,1.19467 -1.28,1.19466 -1.792,2.98666 v 14.67735 h -3.41333 v -21.33335 h 2.38933 l 0.64,2.60267 h 0.17067 q 1.152,-1.36534 2.64533,-2.21867 1.53601,-0.896 3.96801,-0.896 2.048,0 3.328,0.81067 1.32267,0.768 2.048,2.73067 0.98134,-1.66401 2.688,-2.60267 1.74934,-0.93867 3.92534,-0.93867 1.792,0 3.02934,0.42667 1.23733,0.384 2.048,1.408 0.81066,1.024 1.152,2.77333 0.384,1.74934 0.384,4.43734 v 12.80001 h -3.41334 v -12.84268 q 0,-1.536 -0.17066,-2.64533 -0.128,-1.152 -0.59734,-1.87734 -0.42667,-0.768 -1.23733,-1.10933 -0.768,-0.384 -2.048,-0.384 -2.13334,0 -3.32801,1.19467 -1.19466,1.19466 -1.70666,3.41333 v 14.25068 z"
         style="text-align:center;text-anchor:middle;fill:#2d2c2d"
         id="path329" /><path
         d="m 882.07487,398.16003 q -1.28,1.024 -3.24267,1.62134 -1.92,0.59733 -4.096,0.59733 -2.432,0 -4.224,-0.768 -1.792,-0.81067 -2.94401,-2.26134 -1.152,-1.49333 -1.70666,-3.54133 -0.55467,-2.048 -0.55467,-4.60801 0,-5.46133 2.432,-8.32 2.432,-2.85867 6.95467,-2.85867 1.45067,0 2.90134,0.34133 1.45067,0.29867 2.60267,1.19467 1.152,0.896 1.87733,2.56 0.72534,1.62134 0.72534,4.30934 0,1.408 -0.256,3.11467 H 868.8482 q 0,1.87733 0.384,3.328 0.384,1.45067 1.19466,2.47467 0.81067,0.98133 2.09067,1.536 1.32267,0.512 3.2,0.512 1.45067,0 2.90134,-0.512 1.45067,-0.512 2.176,-1.19467 z m -7.33867,-17.15201 q -2.51733,0 -4.05334,1.32267 -1.49333,1.32266 -1.792,4.52267 h 10.58134 q 0,-3.24267 -1.23733,-4.52267 -1.23733,-1.32267 -3.49867,-1.32267 z"
         style="text-align:center;text-anchor:middle;fill:#2d2c2d"
         id="path331" /><path
         d="m 642.24524,413.63205 q 1.62133,-0.29867 3.712,-0.46933 2.13334,-0.17067 3.88267,-0.17067 1.96267,0 3.71201,0.42667 1.792,0.42666 3.11466,1.408 1.36534,0.98133 2.17601,2.56 0.81066,1.57867 0.81066,3.84 0,3.49867 -1.92,5.67467 -1.92,2.17601 -4.864,2.90134 l 2.048,1.57867 7.424,11.81867 h -4.13866 l -8.23468,-12.88534 -4.18133,-0.64 v 13.52534 h -3.54134 z m 7.68001,2.432 q -0.55467,0 -1.15201,0 -0.59733,0 -1.152,0.0427 -0.55466,0.0427 -1.06666,0.0853 -0.46934,0.0427 -0.768,0.128 v 11.00801 h 3.328 q 2.944,0 4.864,-1.45067 1.92,-1.45067 1.92,-4.52267 0,-2.304 -1.57866,-3.79733 -1.57867,-1.49334 -4.39467,-1.49334 z"
         style="text-align:center;text-anchor:middle;fill:#2d2c2d"
         id="path333" /><path
         d="m 666.52255,423.44539 q 1.62134,-0.98133 3.75467,-1.45067 2.176,-0.46933 4.52267,-0.46933 2.21867,0 3.54134,0.59733 1.36533,0.59734 2.048,1.57867 0.72533,0.93867 0.93867,2.09067 0.256,1.152 0.256,2.304 0,2.56 -0.128,4.992 -0.128,2.43201 -0.128,4.60801 0,1.57867 0.128,2.98667 0.128,1.408 0.46933,2.60267 h -2.51733 l -0.896,-2.98667 h -0.21334 q -0.384,0.59733 -0.98133,1.19466 -0.55467,0.55467 -1.36534,1.02401 -0.81066,0.42666 -1.87733,0.72533 -1.06667,0.29867 -2.432,0.29867 -1.36534,0 -2.56001,-0.42667 -1.152,-0.42667 -2.00533,-1.19467 -0.85333,-0.81067 -1.36533,-1.92 -0.46934,-1.10933 -0.46934,-2.51734 0,-1.87733 0.768,-3.11466 0.768,-1.28001 2.13334,-2.00534 1.408,-0.768 3.328,-1.06667 1.96267,-0.34133 4.30934,-0.34133 0.59733,0 1.152,0 0.59733,0 1.19466,0.0853 0.128,-1.28 0.128,-2.304 0,-2.34667 -0.93866,-3.28533 -0.93867,-0.93867 -3.41334,-0.93867 -0.72533,0 -1.57867,0.128 -0.81066,0.0853 -1.70666,0.29867 -0.85334,0.17066 -1.66401,0.46933 -0.768,0.256 -1.36533,0.59733 z m 6.05867,17.10935 q 1.19467,0 2.13334,-0.29867 0.93867,-0.34133 1.62133,-0.81067 0.68267,-0.512 1.10934,-1.10933 0.46933,-0.59734 0.68266,-1.152 v -3.54134 q -0.59733,-0.0427 -1.23733,-0.0427 -0.59733,-0.0427 -1.19467,-0.0427 -1.32266,0 -2.60267,0.17067 -1.23733,0.128 -2.21866,0.55466 -0.93867,0.384 -1.53601,1.10934 -0.55466,0.68266 -0.55466,1.74933 0,1.49334 1.06667,2.47467 1.06666,0.93867 2.73066,0.93867 z"
         style="text-align:center;text-anchor:middle;fill:#2d2c2d"
         id="path335" /><path
         d="m 701.72259,443.20007 v -12.16001 q 0,-3.328 -0.98133,-4.992 -0.93867,-1.70667 -3.49867,-1.70667 -2.26134,0 -3.75467,1.23734 -1.45067,1.19466 -2.048,3.02933 v 14.59201 h -3.41334 v -21.33335 h 2.38933 l 0.64,2.60267 h 0.17067 q 1.024,-1.36533 2.73067,-2.21867 1.74934,-0.896 4.13867,-0.896 1.74933,0 3.072,0.42667 1.32267,0.384 2.176,1.408 0.896,1.024 1.32267,2.77334 0.46934,1.70666 0.46934,4.352 v 12.88534 z"
         style="text-align:center;text-anchor:middle;fill:#2d2c2d"
         id="path337" /><path
         d="m 727.70665,444.18141 q 0,4.13867 -2.21867,6.10133 -2.176,1.96267 -6.48534,1.96267 -2.56,0 -4.13867,-0.34133 -1.536,-0.29867 -2.64533,-0.81067 l 0.896,-2.90133 q 0.98133,0.384 2.176,0.72533 1.19467,0.34133 3.11467,0.34133 1.792,0 2.90133,-0.34133 1.152,-0.29867 1.83467,-1.06667 0.68267,-0.72533 0.93867,-1.92 0.256,-1.152 0.256,-2.77333 v -2.04801 h -0.17067 q -0.85333,1.23734 -2.176,1.92001 -1.32267,0.64 -3.456,0.64 -4.30934,0 -6.35734,-2.68801 -2.00534,-2.688 -2.00534,-8.36267 0,-5.46134 2.60267,-8.27734 2.60267,-2.85867 7.68001,-2.85867 2.432,0 4.13867,0.384 1.74933,0.384 3.11467,0.896 z m -8.57601,-3.49867 q 2.176,0 3.41334,-1.06667 1.23733,-1.10933 1.74933,-3.41334 v -10.92267 q -1.70667,-0.81067 -4.352,-0.81067 -2.90134,0 -4.56534,1.96267 -1.664,1.96267 -1.664,6.144 0,1.79201 0.29867,3.28534 0.29866,1.49333 0.93866,2.56 0.64,1.06667 1.66401,1.664 1.024,0.59734 2.51733,0.59734 z"
         style="text-align:center;text-anchor:middle;fill:#2d2c2d"
         id="path339" /><path
         d="m 749.85069,441.4934 q -1.28,1.02401 -3.24266,1.62134 -1.92001,0.59733 -4.09601,0.59733 -2.432,0 -4.224,-0.768 -1.792,-0.81067 -2.944,-2.26133 -1.152,-1.49334 -1.70667,-3.54134 -0.55467,-2.048 -0.55467,-4.608 0,-5.46134 2.432,-8.32001 2.43201,-2.85867 6.95468,-2.85867 1.45066,0 2.90133,0.34134 1.45067,0.29866 2.60267,1.19466 1.152,0.896 1.87733,2.56001 0.72534,1.62133 0.72534,4.30933 0,1.408 -0.256,3.11467 h -13.69601 q 0,1.87734 0.384,3.328 0.384,1.45067 1.19467,2.47467 0.81066,0.98134 2.09066,1.536 1.32267,0.512 3.20001,0.512 1.45066,0 2.90133,-0.512 1.45067,-0.512 2.176,-1.19466 z m -7.33867,-17.15201 q -2.51733,0 -4.05333,1.32267 -1.49334,1.32267 -1.792,4.52267 h 10.58134 q 0,-3.24267 -1.23734,-4.52267 -1.23733,-1.32267 -3.49867,-1.32267 z"
         style="text-align:center;text-anchor:middle;fill:#2d2c2d"
         id="path341" /><path
         d="m 772.37868,421.86672 v 21.33335 h -3.41333 v -18.34668 h -8.61868 v 18.34668 h -3.41333 v -18.34668 h -3.32801 v -2.98667 h 3.32801 v -1.19466 q 0,-4.01067 1.96266,-5.80268 2.00534,-1.83466 5.84534,-1.83466 2.51734,0 4.48001,0.512 1.96266,0.46933 3.072,1.152 l -1.152,2.73067 q -1.152,-0.72534 -2.73067,-1.06667 -1.57867,-0.34133 -3.37067,-0.34133 -1.57867,0 -2.51734,0.384 -0.896,0.34133 -1.408,1.10933 -0.46933,0.72533 -0.64,1.83467 -0.128,1.10933 -0.128,2.51733 z"
         style="text-align:center;text-anchor:middle;fill:#2d2c2d"
         id="path343" /><path
         d="m 792.68807,443.20007 v -12.16001 q 0,-3.328 -0.98134,-4.992 -0.93866,-1.70667 -3.49867,-1.70667 -2.26133,0 -3.75467,1.23734 -1.45066,1.19466 -2.048,3.02933 v 14.59201 h -3.41333 v -21.33335 h 2.38933 l 0.64,2.60267 h 0.17067 q 1.024,-1.36533 2.73067,-2.21867 1.74933,-0.896 4.13867,-0.896 1.74933,0 3.072,0.42667 1.32267,0.384 2.176,1.408 0.896,1.024 1.32267,2.77334 0.46933,1.70666 0.46933,4.352 v 12.88534 z"
         style="text-align:center;text-anchor:middle;fill:#2d2c2d"
         id="path345" /><path
         d="m 818.7148,435.8614 q 0,2.176 0.0427,3.968 0.0427,1.74934 0.384,3.45601 h -2.30401 l -0.85333,-3.02934 h -0.17067 q -0.85333,1.49333 -2.47467,2.47467 -1.62133,0.98133 -3.79733,0.98133 -4.26667,0 -6.35734,-2.688 -2.048,-2.688 -2.048,-8.40534 0,-5.46134 2.56,-8.27734 2.60267,-2.85867 7.12534,-2.85867 1.57867,0 2.47467,0.17067 0.93867,0.17067 2.00533,0.55467 v -8.87468 h 3.41334 z m -8.61867,4.864 q 2.176,0 3.456,-1.10933 1.28,-1.152 1.74933,-3.456 v -10.58134 q -0.768,-0.59734 -1.74933,-0.85334 -0.98134,-0.256 -2.60267,-0.256 -2.944,0 -4.608,1.96267 -1.66401,1.92 -1.66401,6.18667 0,1.74934 0.256,3.24267 0.29867,1.49333 0.93867,2.56 0.64,1.06667 1.664,1.70667 1.06667,0.59733 2.56001,0.59733 z"
         style="text-align:center;text-anchor:middle;fill:#2d2c2d"
         id="path347" /><path
         d="m 840.85881,441.4934 q -1.28,1.02401 -3.24267,1.62134 -1.92,0.59733 -4.096,0.59733 -2.432,0 -4.224,-0.768 -1.792,-0.81067 -2.944,-2.26133 -1.15201,-1.49334 -1.70667,-3.54134 -0.55467,-2.048 -0.55467,-4.608 0,-5.46134 2.432,-8.32001 2.432,-2.85867 6.95467,-2.85867 1.45067,0 2.90134,0.34134 1.45067,0.29866 2.60267,1.19466 1.152,0.896 1.87733,2.56001 0.72534,1.62133 0.72534,4.30933 0,1.408 -0.256,3.11467 h -13.69601 q 0,1.87734 0.384,3.328 0.384,1.45067 1.19466,2.47467 0.81067,0.98134 2.09067,1.536 1.32267,0.512 3.2,0.512 1.45067,0 2.90134,-0.512 1.45067,-0.512 2.176,-1.19466 z m -7.33867,-17.15201 q -2.51733,0 -4.05334,1.32267 -1.49333,1.32267 -1.792,4.52267 h 10.58134 q 0,-3.24267 -1.23733,-4.52267 -1.23733,-1.32267 -3.49867,-1.32267 z"
         style="text-align:center;text-anchor:middle;fill:#2d2c2d"
         id="path349" /><path
         d="m 857.02948,425.15206 q -1.28001,-0.42667 -2.43201,-0.42667 -1.83466,0 -2.90133,1.024 -1.06667,0.98134 -1.32267,2.51734 v 14.93334 h -3.41334 v -21.33335 h 2.38934 l 0.64,2.60267 h 0.17067 q 0.81066,-1.45067 1.92,-2.21867 1.152,-0.81066 2.90133,-0.81066 1.23734,0 2.77334,0.42666 z"
         style="text-align:center;text-anchor:middle;fill:#2d2c2d"
         id="path351" /></g><g
       aria-label="
Effective Range 400m"
       id="text20730"
       style="font-size:21.3333px;font-family:'PT Sans';-inkscape-font-specification:'PT Sans';text-align:center;text-anchor:middle;fill:#f1372a;fill-rule:evenodd;stroke-width:18.2551"><path
         d="m 651.89839,720.25602 h 8.12799 v 1.57866 h -6.35733 v 4.88533 h 5.82399 v 1.57866 h -5.82399 v 5.312 h 6.46399 v 1.57866 h -8.23465 z"
         id="path354" /><path
         d="m 661.98902,724.52268 h 1.664 v -0.59733 q 0,-0.98133 0.14933,-1.70667 0.17067,-0.72533 0.53334,-1.17333 0.36266,-0.46933 0.93866,-0.68266 0.576,-0.23467 1.42933,-0.23467 0.68267,0 1.19467,0.0853 0.53333,0.0853 1.10933,0.32 l -0.384,1.42933 q -0.49067,-0.21333 -0.93867,-0.27733 -0.42666,-0.064 -0.81066,-0.064 -0.55467,0 -0.87467,0.17067 -0.29866,0.17066 -0.448,0.512 -0.128,0.32 -0.17066,0.81066 -0.0213,0.46933 -0.0213,1.10933 v 0.29867 h 2.83733 v 1.49333 h -2.83733 v 9.17332 h -1.70666 v -9.17332 h -1.664 z"
         id="path356" /><path
         d="m 668.79435,724.52268 h 1.664 v -0.59733 q 0,-0.98133 0.14933,-1.70667 0.17067,-0.72533 0.53333,-1.17333 0.36267,-0.46933 0.93867,-0.68266 0.576,-0.23467 1.42933,-0.23467 0.68267,0 1.19467,0.0853 0.53333,0.0853 1.10933,0.32 l -0.384,1.42933 q -0.49067,-0.21333 -0.93867,-0.27733 -0.42666,-0.064 -0.81066,-0.064 -0.55467,0 -0.87467,0.17067 -0.29866,0.17066 -0.448,0.512 -0.128,0.32 -0.17066,0.81066 -0.0213,0.46933 -0.0213,1.10933 v 0.29867 h 2.83733 v 1.49333 h -2.83733 v 9.17332 h -1.70666 v -9.17332 h -1.664 z"
         id="path358" /><path
         d="m 684.325,734.336 q -0.63999,0.512 -1.62133,0.81066 -0.95999,0.29867 -2.04799,0.29867 -1.216,0 -2.112,-0.384 -0.896,-0.40533 -1.472,-1.13067 -0.576,-0.74666 -0.85333,-1.77066 -0.27733,-1.024 -0.27733,-2.304 0,-2.73066 1.216,-4.15999 1.21599,-1.42933 3.47732,-1.42933 0.72534,0 1.45067,0.17067 0.72533,0.14933 1.30133,0.59733 0.576,0.448 0.93866,1.28 0.36267,0.81066 0.36267,2.15466 0,0.704 -0.128,1.55733 h -6.84799 q 0,0.93867 0.192,1.664 0.192,0.72533 0.59733,1.23733 0.40534,0.49067 1.04534,0.768 0.66133,0.256 1.59999,0.256 0.72534,0 1.45067,-0.256 0.72533,-0.256 1.088,-0.59733 z m -3.66932,-8.57599 q -1.25867,0 -2.02667,0.66133 -0.74666,0.66134 -0.89599,2.26133 h 5.29065 q 0,-1.62133 -0.61866,-2.26133 -0.61867,-0.66133 -1.74933,-0.66133 z"
         id="path360" /><path
         d="m 694.41565,734.48533 q -0.64,0.46933 -1.51466,0.704 -0.87467,0.256 -1.83467,0.256 -1.23733,0 -2.09066,-0.384 -0.85333,-0.40533 -1.408,-1.13067 -0.53333,-0.74666 -0.78933,-1.77066 -0.23467,-1.04533 -0.23467,-2.304 0,-2.70932 1.19467,-4.13866 1.19466,-1.45066 3.43466,-1.45066 1.024,0 1.728,0.17067 0.72533,0.14933 1.30133,0.448 l -0.49067,1.47199 q -0.49067,-0.27733 -1.088,-0.42666 -0.59733,-0.17067 -1.28,-0.17067 -3.02932,0 -3.02932,4.09599 0,0.81067 0.14933,1.55734 0.17067,0.72533 0.53333,1.30133 0.384,0.55466 0.98133,0.896 0.61867,0.34133 1.51467,0.34133 0.768,0 1.36533,-0.23467 0.61866,-0.23466 1.00266,-0.53333 z"
         id="path362" /><path
         d="m 695.35432,724.52268 h 1.664 v -2.112 l 1.70666,-0.49066 v 2.60266 h 2.90133 v 1.49333 h -2.90133 v 5.90932 q 0,1.10934 0.27733,1.57867 0.27734,0.448 0.93867,0.448 0.55466,0 0.93866,-0.10667 0.384,-0.128 0.85334,-0.32 l 0.384,1.30133 q -0.576,0.27734 -1.25867,0.448 -0.68267,0.17067 -1.472,0.17067 -1.30133,0 -1.83466,-0.72533 -0.53333,-0.74667 -0.53333,-2.47467 v -6.22932 h -1.664 z"
         id="path364" /><path
         d="m 704.35699,724.52268 h 1.70666 v 10.66665 h -1.70666 z m -0.36267,-3.24266 q 0,-0.49067 0.32,-0.832 0.34134,-0.36267 0.85333,-0.36267 0.512,0 0.87467,0.36267 0.36267,0.34133 0.36267,0.832 0,0.49066 -0.36267,0.81066 -0.36267,0.32 -0.87467,0.32 -0.51199,0 -0.85333,-0.32 -0.32,-0.32 -0.32,-0.81066 z"
         id="path366" /><path
         d="m 712.78363,730.77334 0.59734,2.02666 h 0.0213 l 0.53333,-2.06933 2.38933,-6.20799 h 1.83467 l -4.544,10.90132 h -0.72533 l -4.62933,-10.90132 h 1.96267 z"
         id="path368" /><path
         d="m 727.54629,734.336 q -0.64,0.512 -1.62133,0.81066 -0.96,0.29867 -2.048,0.29867 -1.216,0 -2.11199,-0.384 -0.896,-0.40533 -1.472,-1.13067 -0.576,-0.74666 -0.85333,-1.77066 -0.27734,-1.024 -0.27734,-2.304 0,-2.73066 1.216,-4.15999 1.216,-1.42933 3.47733,-1.42933 0.72533,0 1.45066,0.17067 0.72534,0.14933 1.30133,0.59733 0.576,0.448 0.93867,1.28 0.36267,0.81066 0.36267,2.15466 0,0.704 -0.128,1.55733 h -6.84799 q 0,0.93867 0.192,1.664 0.192,0.72533 0.59733,1.23733 0.40533,0.49067 1.04533,0.768 0.66133,0.256 1.6,0.256 0.72533,0 1.45066,-0.256 0.72533,-0.256 1.088,-0.59733 z m -3.66933,-8.57599 q -1.25866,0 -2.02666,0.66133 -0.74667,0.66134 -0.896,2.26133 h 5.29066 q 0,-1.62133 -0.61867,-2.26133 -0.61866,-0.66133 -1.74933,-0.66133 z"
         id="path370" /><path
         d="m 736.4636,720.40535 q 0.81067,-0.14933 1.856,-0.23466 1.06667,-0.0853 1.94133,-0.0853 0.98133,0 1.856,0.21334 0.896,0.21333 1.55733,0.704 0.68266,0.49066 1.088,1.27999 0.40533,0.78934 0.40533,1.92 0,1.74933 -0.96,2.83733 -0.96,1.088 -2.43199,1.45066 l 1.02399,0.78934 3.712,5.90932 h -2.06933 l -4.11733,-6.44266 -2.09066,-0.32 v 6.76266 h -1.77067 z m 3.84,1.216 q -0.27733,0 -0.576,0 -0.29867,0 -0.576,0.0213 -0.27733,0.0213 -0.53333,0.0427 -0.23467,0.0213 -0.384,0.064 v 5.50399 h 1.664 q 1.47199,0 2.43199,-0.72533 0.96,-0.72533 0.96,-2.26133 0,-1.152 -0.78933,-1.89866 -0.78933,-0.74667 -2.19733,-0.74667 z"
         id="path372" /><path
         d="m 748.60223,725.31201 q 0.81066,-0.49066 1.87733,-0.72533 1.088,-0.23467 2.26133,-0.23467 1.10933,0 1.77066,0.29867 0.68267,0.29867 1.024,0.78933 0.36267,0.46933 0.46933,1.04533 0.128,0.576 0.128,1.152 0,1.28 -0.064,2.496 -0.064,1.216 -0.064,2.30399 0,0.78934 0.064,1.49333 0.064,0.704 0.23467,1.30134 h -1.25866 l -0.448,-1.49333 h -0.10667 q -0.192,0.29866 -0.49067,0.59733 -0.27733,0.27733 -0.68266,0.512 -0.40533,0.21333 -0.93867,0.36266 -0.53333,0.14934 -1.216,0.14934 -0.68266,0 -1.27999,-0.21334 -0.576,-0.21333 -1.00267,-0.59733 -0.42666,-0.40533 -0.68266,-0.96 -0.23467,-0.55466 -0.23467,-1.25866 0,-0.93867 0.384,-1.55733 0.384,-0.64 1.06666,-1.00267 0.704,-0.384 1.664,-0.53333 0.98133,-0.17067 2.15466,-0.17067 0.29867,0 0.576,0 0.29867,0 0.59734,0.0427 0.064,-0.64 0.064,-1.152 0,-1.17333 -0.46934,-1.64266 -0.46933,-0.46934 -1.70666,-0.46934 -0.36267,0 -0.78933,0.064 -0.40534,0.0427 -0.85333,0.14934 -0.42667,0.0853 -0.832,0.23466 -0.384,0.128 -0.68267,0.29867 z m 3.02933,8.55466 q 0.59733,0 1.06666,-0.14934 0.46933,-0.17066 0.81067,-0.40533 0.34133,-0.256 0.55466,-0.55467 0.23467,-0.29866 0.34134,-0.576 v -1.77066 q -0.29867,-0.0213 -0.61867,-0.0213 -0.29867,-0.0213 -0.59733,-0.0213 -0.66133,0 -1.30133,0.0853 -0.61867,0.064 -1.10933,0.27733 -0.46934,0.192 -0.768,0.55467 -0.27734,0.34133 -0.27734,0.87466 0,0.74667 0.53334,1.23733 0.53333,0.46934 1.36533,0.46934 z"
         id="path374" /><path
         d="m 766.20221,735.18933 v -6.07999 q 0,-1.664 -0.49067,-2.496 -0.46933,-0.85333 -1.74933,-0.85333 -1.13067,0 -1.87733,0.61867 -0.72533,0.59733 -1.024,1.51466 v 7.29599 h -1.70666 v -10.66665 h 1.19466 l 0.32,1.30133 h 0.0853 q 0.512,-0.68266 1.36534,-1.10933 0.87466,-0.448 2.06933,-0.448 0.87466,0 1.53599,0.21333 0.66134,0.192 1.088,0.704 0.448,0.512 0.66133,1.38667 0.23467,0.85333 0.23467,2.17599 v 6.44266 z"
         id="path376" /><path
         d="m 779.19421,735.68 q 0,2.06933 -1.10934,3.05066 -1.08799,0.98133 -3.24266,0.98133 -1.28,0 -2.06933,-0.17067 -0.768,-0.14933 -1.32266,-0.40533 l 0.448,-1.45066 q 0.49066,0.192 1.08799,0.36266 0.59734,0.17067 1.55734,0.17067 0.89599,0 1.45066,-0.17067 0.576,-0.14933 0.91733,-0.53333 0.34133,-0.36267 0.46933,-0.96 0.128,-0.576 0.128,-1.38666 v -1.024 h -0.0853 q -0.42666,0.61866 -1.088,0.96 -0.66133,0.32 -1.72799,0.32 -2.15467,0 -3.17867,-1.344 -1.00266,-1.344 -1.00266,-4.18133 0,-2.73066 1.30133,-4.13866 1.30133,-1.42933 3.83999,-1.42933 1.216,0 2.06933,0.192 0.87467,0.192 1.55734,0.448 z m -4.288,-1.74934 q 1.088,0 1.70667,-0.53333 0.61866,-0.55466 0.87466,-1.70666 v -5.46133 q -0.85333,-0.40533 -2.176,-0.40533 -1.45066,0 -2.28266,0.98133 -0.832,0.98133 -0.832,3.072 0,0.896 0.14934,1.64266 0.14933,0.74667 0.46933,1.28 0.32,0.53333 0.832,0.832 0.512,0.29866 1.25866,0.29866 z"
         id="path378" /><path
         d="m 790.26621,734.336 q -0.64,0.512 -1.62133,0.81066 -0.96,0.29867 -2.048,0.29867 -1.216,0 -2.112,-0.384 -0.896,-0.40533 -1.47199,-1.13067 -0.576,-0.74666 -0.85334,-1.77066 -0.27733,-1.024 -0.27733,-2.304 0,-2.73066 1.216,-4.15999 1.216,-1.42933 3.47733,-1.42933 0.72533,0 1.45066,0.17067 0.72533,0.14933 1.30133,0.59733 0.576,0.448 0.93867,1.28 0.36266,0.81066 0.36266,2.15466 0,0.704 -0.128,1.55733 h -6.84799 q 0,0.93867 0.192,1.664 0.192,0.72533 0.59734,1.23733 0.40533,0.49067 1.04533,0.768 0.66133,0.256 1.6,0.256 0.72533,0 1.45066,-0.256 0.72533,-0.256 1.088,-0.59733 z m -3.66933,-8.57599 q -1.25867,0 -2.02666,0.66133 -0.74667,0.66134 -0.896,2.26133 h 5.29066 q 0,-1.62133 -0.61867,-2.26133 -0.61867,-0.66133 -1.74933,-0.66133 z"
         id="path380" /><path
         d="m 808.54883,730.60267 h -2.51733 v 4.58666 h -1.66399 v -4.58666 h -6.57066 v -0.704 l 7.08265,-9.87732 h 1.152 v 9.08799 h 2.51733 z m -4.18132,-6.14399 0.21333,-1.74933 h -0.064 l -0.74667,1.45066 -3.00799,4.07466 -1.024,1.04534 1.49333,-0.17067 h 3.136 z"
         id="path382" /><path
         d="m 809.91416,727.72267 q 0,-3.83999 1.23733,-5.78132 1.25867,-1.94133 3.648,-1.94133 2.58133,0 3.73333,1.92 1.17333,1.89866 1.17333,5.80265 0,3.84 -1.25867,5.78133 -1.23733,1.94133 -3.64799,1.94133 -2.53866,0 -3.712,-2.02666 -1.17333,-2.02667 -1.17333,-5.696 z m 1.77067,0 q 0,1.38667 0.17066,2.53867 0.192,1.13066 0.576,1.96266 0.384,0.81067 0.96,1.28 0.59733,0.448 1.408,0.448 1.62133,0 2.36799,-1.49333 0.768,-1.51467 0.768,-4.736 0,-1.36533 -0.17066,-2.51732 -0.14934,-1.152 -0.53334,-1.984 -0.36266,-0.832 -0.95999,-1.28 -0.59734,-0.448 -1.472,-0.448 -1.6,0 -2.368,1.51467 -0.74666,1.51466 -0.74666,4.71465 z"
         id="path384" /><path
         d="m 821.54081,727.72267 q 0,-3.83999 1.23733,-5.78132 1.25867,-1.94133 3.648,-1.94133 2.58133,0 3.73332,1.92 1.17334,1.89866 1.17334,5.80265 0,3.84 -1.25867,5.78133 -1.23733,1.94133 -3.64799,1.94133 -2.53867,0 -3.712,-2.02666 -1.17333,-2.02667 -1.17333,-5.696 z m 1.77066,0 q 0,1.38667 0.17067,2.53867 0.192,1.13066 0.576,1.96266 0.384,0.81067 0.96,1.28 0.59733,0.448 1.408,0.448 1.62133,0 2.36799,-1.49333 0.768,-1.51467 0.768,-4.736 0,-1.36533 -0.17066,-2.51732 -0.14934,-1.152 -0.53334,-1.984 -0.36266,-0.832 -0.96,-1.28 -0.59733,-0.448 -1.47199,-0.448 -1.6,0 -2.368,1.51467 -0.74667,1.51466 -0.74667,4.71465 z"
         id="path386" /><path
         d="m 840.14345,735.18933 v -6.03732 q 0,-0.85334 -0.0853,-1.472 -0.064,-0.64 -0.27733,-1.06667 -0.21333,-0.42666 -0.61866,-0.64 -0.384,-0.21333 -1.024,-0.21333 -0.98133,0 -1.64267,0.59733 -0.64,0.59734 -0.89599,1.49333 v 7.33866 h -1.70667 v -10.66665 h 1.19467 l 0.32,1.30133 h 0.0853 q 0.576,-0.68266 1.32266,-1.10933 0.768,-0.448 1.984,-0.448 1.024,0 1.664,0.40533 0.66133,0.384 1.024,1.36533 0.49066,-0.83199 1.34399,-1.30133 0.87467,-0.46933 1.96267,-0.46933 0.896,0 1.51466,0.21333 0.61867,0.192 1.024,0.704 0.40533,0.512 0.576,1.38667 0.192,0.87466 0.192,2.21866 v 6.39999 h -1.70667 v -6.42132 q 0,-0.768 -0.0853,-1.32267 -0.064,-0.576 -0.29866,-0.93866 -0.21334,-0.384 -0.61867,-0.55467 -0.384,-0.192 -1.024,-0.192 -1.06666,0 -1.664,0.59733 -0.59733,0.59734 -0.85333,1.70667 v 7.12532 z"
         id="path388" /></g><rect
       style="fill:#000000;fill-opacity:0;fill-rule:evenodd;stroke:#f1372a;stroke-width:3.40925;stroke-dasharray:none;stroke-dashoffset:0;stroke-opacity:1"
       id="rect11577"
       width="16.712738"
       height="16.712738"
       x="-66.343628"
       y="899.23248"
       transform="rotate(-45)" /><g
       id="g11643"
       transform="matrix(0,-5.8955034,4.2951119,0,144.79303,2637.9521)"><path
         style="fill:none;fill-opacity:1;fill-rule:evenodd;stroke:#f1372a;stroke-width:1.05833;stroke-dasharray:none;stroke-dashoffset:0;stroke-opacity:1"
         d="m 321.15477,106.15928 h 8.48104"
         id="path11639"
         sodipodi:nodetypes="cc" /><path
         style="fill:none;fill-opacity:1;fill-rule:evenodd;stroke:#f1372a;stroke-width:1.05833;stroke-dasharray:none;stroke-dashoffset:0;stroke-opacity:1"
         d="m 329.63581,106.15928 v 0"
         id="path11641"
         sodipodi:nodetypes="cc" /></g><g
       id="g11649"
       transform="matrix(4.2814218,0,0,4.2951119,-563.20918,286.34425)"><path
         style="fill:none;fill-opacity:1;fill-rule:evenodd;stroke:#f1372a;stroke-width:1.05833;stroke-dasharray:none;stroke-dashoffset:0;stroke-opacity:1"
         d="m 275.00019,106.15928 h 54.63562"
         id="path11645"
         sodipodi:nodetypes="cc" /><path
         style="fill:none;fill-opacity:1;fill-rule:evenodd;stroke:#f1372a;stroke-width:1.05833;stroke-dasharray:none;stroke-dashoffset:0;stroke-opacity:1"
         d="m 272.39573,106.15928 h 57.24008"
         id="path11647"
         sodipodi:nodetypes="cc" /></g></g></svg>
