<?xml version="1.0" encoding="UTF-8" standalone="no"?>
<!-- Created with Inkscape (http://www.inkscape.org/) -->

<svg
   width="500px"
   height="500px"
   viewBox="0 0 500 500"
   version="1.1"
   id="SVGRoot"
   sodipodi:docname="Rangefinder_RU.svg"
   inkscape:version="1.2.1 (9c6d41e410, 2022-07-14)"
   xmlns:inkscape="http://www.inkscape.org/namespaces/inkscape"
   xmlns:sodipodi="http://sodipodi.sourceforge.net/DTD/sodipodi-0.dtd"
   xmlns="http://www.w3.org/2000/svg"
   xmlns:svg="http://www.w3.org/2000/svg">
  <sodipodi:namedview
     id="namedview10608"
     pagecolor="#ffffff"
     bordercolor="#000000"
     borderopacity="0.25"
     inkscape:showpageshadow="2"
     inkscape:pageopacity="0.0"
     inkscape:pagecheckerboard="0"
     inkscape:deskcolor="#d1d1d1"
     inkscape:document-units="px"
     showgrid="false"
     inkscape:zoom="1.7852694"
     inkscape:cx="164.9611"
     inkscape:cy="312.55787"
     inkscape:window-width="2560"
     inkscape:window-height="1369"
     inkscape:window-x="3832"
     inkscape:window-y="-8"
     inkscape:window-maximized="1"
     inkscape:current-layer="g11675" />
  <defs
     id="defs10603" />
  <g
     inkscape:label="Layer 1"
     inkscape:groupmode="layer"
     id="layer1">
    <circle
       style="fill:#eaebee;fill-rule:evenodd;stroke-width:28.7392"
       id="path10979"
       cx="250"
       cy="250"
       r="250" />
    <path
       d="m 137.15822,333.19277 c -3.33903,0 -6.07575,-2.68402 -6.07575,-6.07952 0,-0.92981 0.21832,-1.86338 0.60231,-2.62755 h 10.95065 c 0.3802,0.76417 0.60231,1.69774 0.60231,2.62755 0,3.3955 -2.68403,6.07952 -6.07952,6.07952 m 15.76534,0 c -3.39174,0 -6.12846,-2.68402 -6.12846,-6.07952 0,-0.92981 0.21832,-1.86338 0.6023,-2.62755 h 11.00336 c 0.38397,0.76417 0.6023,1.69774 0.6023,2.62755 0,3.3955 -2.73672,6.07952 -6.0795,6.07952 m 15.71262,0 c -3.33903,0 -6.07576,-2.68402 -6.07576,-6.07952 0,-0.92981 0.21833,-1.86338 0.60231,-2.62755 h 10.95066 c 0.38021,0.76417 0.6023,1.69774 0.6023,2.62755 0,3.3955 -2.73672,6.07952 -6.07951,6.07952 m 15.71262,0 c -3.33902,0 -6.07575,-2.68402 -6.07575,-6.07952 0,-0.92981 0.21833,-1.86338 0.60231,-2.62755 h 10.95066 c 0.3802,0.76417 0.59854,1.69774 0.59854,2.62755 0,3.3955 -2.68025,6.07952 -6.07576,6.07952 m -62.89944,0 c -3.3955,0 -6.07952,-2.68402 -6.07952,-6.07952 0,-0.92981 0.22211,-1.86338 0.60231,-2.62755 h 10.95065 c 0.38021,0.76417 0.6023,1.69774 0.6023,2.62755 0,3.3955 -2.74048,6.07952 -6.07574,6.07952 m 39.14228,-40.53136 c 4.70551,-0.21833 16.20201,1.75422 16.20201,6.46349 0,4.65656 -11.4965,10.57044 -16.20201,10.57044 h -20.36919 c -3.33527,0 -6.6216,-2.84965 -7.93537,-5.5299 h -6.13222 c -0.49313,0.76417 -1.37024,1.31377 -2.35275,1.31377 h -5.74825 c -0.98628,0 -1.86338,-0.5496 -2.35651,-1.31377 h -7.8262 c -0.49314,0.76417 -1.37025,1.31377 -2.35653,1.31377 h -5.748238 c -1.53211,0 -2.73672,-1.26107 -2.73672,-2.74048 v -1.75421 c 0,-1.53212 1.20461,-2.73673 2.73672,-2.73673 h 5.748238 c 0.98628,0 1.86339,0.49314 2.35653,1.31378 h 7.8262 c 0.49313,-0.82064 1.37023,-1.31378 2.35651,-1.31378 h 5.74825 c 0.98251,0 1.85962,0.49314 2.35275,1.31378 h 6.13222 c 3.22985,-7.55893 21.35171,-6.57265 28.30456,-6.90016 m -41.28047,19.71796 h 67.72166 c 1.20462,0 2.24359,0.32751 3.22986,1.04275 l 4.26883,2.84588 c 2.40923,1.64128 3.1734,4.81844 1.86338,7.39329 l -4.21613,8.37957 c -1.04274,2.02901 -2.95506,3.18093 -5.14594,3.18093 h -67.72166 c -2.13442,0 -4.05049,-1.09921 -5.08947,-3.068 l -4.54364,-8.5452 c -1.42294,-2.68402 -0.49314,-6.07951 2.13441,-7.6681 l 4.54364,-2.74048 c 0.92982,-0.5496 1.85962,-0.82064 2.95506,-0.82064"
       style="fill:#f1372a;fill-opacity:1;fill-rule:evenodd;stroke:none;stroke-width:3.7644"
       id="path10262" />
    <g
       id="g11675"
       transform="translate(-4.5051083,7.3982944)">
      <path
         id="path10756"
         style="display:inline;fill:#2d2c2d;fill-opacity:1;stroke-width:1.13641"
         d="m 118.41162,191.57405 c -0.72748,0.0629 -1.3842,0.55519 -2.44816,1.51817 -1.29279,1.16995 -2.35052,3.12973 -2.35052,4.35478 0,2.10629 0.15246,2.12612 2.80108,0.39065 6.30064,-4.12839 7.15307,-0.15883 1.17638,5.47787 -3.72121,3.50958 -5.19548,8.13746 -3.22059,10.11232 0.41667,0.41658 2.97361,0.75688 5.68207,0.75688 6.26076,0 7.05567,-3.0835 0.93444,-3.62456 l -3.99077,-0.3529 4.45244,-4.8564 c 3.74384,-4.08414 4.32248,-5.35087 3.62675,-7.95491 -0.45511,-1.70344 -2.16381,-3.84856 -3.79544,-4.76539 -1.34299,-0.75463 -2.14018,-1.11949 -2.86768,-1.05651 z m 134.98037,8.97368 c -0.40485,0 -0.81094,0.47351 -1.54703,1.42052 -1.40472,1.80692 -4.36137,1.98873 -32.38783,1.98873 -26.65729,0 -30.84079,-0.2314 -30.84079,-1.70463 0,-2.14527 -2.99297,-2.23388 -4.20608,-0.1243 -0.7196,1.25134 -6.54971,1.70973 -28.01307,2.19959 -14.90772,0.34026 -27.3959,0.90765 -27.74895,1.26071 -0.35316,0.35301 59.54405,0.64146 133.10261,0.64146 h 133.74407 l -1.85999,-2.84104 c -2.08653,-3.18443 -4.74723,-3.7116 -5.73535,-1.13642 -0.55936,1.45751 -5.14782,1.70463 -31.66203,1.70463 -26.51429,0 -31.10268,-0.24716 -31.66204,-1.70463 -0.35975,-0.93753 -1.69352,-1.70462 -2.96311,-1.70462 -1.29437,0 -2.30834,0.74884 -2.30834,1.70462 0,1.47384 -4.24888,1.70463 -31.41123,1.70463 -28.56765,0 -31.55011,-0.18009 -32.95603,-1.98873 -0.73609,-0.94701 -1.13997,-1.42052 -1.54481,-1.42052 z m -134.01486,15.40153 c -1.01534,0.0466 -1.21853,2.2015 -1.21853,10.01465 0,5.814 0.34024,10.91202 0.75687,11.32864 2.06444,2.06449 2.65237,-0.13182 2.65237,-9.91699 0,-8.43986 -0.35693,-10.81146 -1.70461,-11.32863 -0.18001,-0.0691 -0.34105,-0.10433 -0.4861,-0.0976 z m 56.73864,18.7908 c -0.88604,0.0566 -1.41564,1.86581 -3.09186,8.25677 -2.18453,8.32873 -1.62511,9.77181 3.81099,9.81045 1.45957,0.0102 2.66083,0.92009 3.01861,2.28837 0.3269,1.25006 1.46693,2.27283 2.53251,2.27283 1.69703,0 1.84491,-0.86804 1.18969,-7.0116 -0.41138,-3.85723 -1.00953,-7.43709 -1.32951,-7.9549 -1.27586,-2.06423 -2.72118,-0.75574 -2.72118,2.46593 0,1.87496 -0.21342,3.40925 -0.47499,3.40925 -0.26141,0 -1.2382,0.29341 -2.16852,0.65033 -1.4795,0.5679 -1.49699,0.10592 -0.14206,-3.69334 1.88994,-5.29933 2.05425,-9.07299 0.43726,-10.07238 -0.42985,-0.26565 -0.7656,-0.44057 -1.06094,-0.42171 z m -57.37121,5.70649 c -1.4991,0.0732 0.12896,3.12517 4.81201,8.9981 4.80744,6.02888 8.23901,8.47803 8.23901,5.87962 0,-1.40674 -10.61664,-14.20481 -12.21646,-14.72679 -0.34199,-0.1116 -0.6204,-0.16141 -0.83456,-0.15093 z m 116.12519,8.41657 c -0.45496,-0.0351 -0.88253,-0.002 -1.26071,0.11542 -3.50855,1.09358 -4.04626,2.51477 -4.04626,10.66277 0,7.93376 0.43,9.1529 3.94195,11.14442 1.24996,0.70886 2.57783,1.30569 2.94979,1.32285 1.46949,0.0752 4.22456,-4.1366 4.95405,-7.57092 0.99753,-4.6964 -0.84564,-8.02735 -5.05171,-9.13127 -2.55478,-0.67056 -3.1011,-1.26965 -2.315,-2.53696 0.87912,-1.41726 1.3748,-1.34723 3.39815,0.48386 1.65117,1.4944 2.73027,1.78428 3.56017,0.95442 1.58848,-1.58853 -2.94582,-5.19882 -6.13043,-5.44459 z m -86.34313,0.55046 c -1.65142,0 -2.04866,13.18734 -0.47054,15.62571 1.83521,2.83538 2.48825,1.27187 2.37271,-5.68652 -0.15849,-9.55332 -0.23197,-9.93919 -1.90217,-9.93919 z m 145.5033,5.22483 c -0.53857,-0.0507 -1.05962,-0.0294 -1.55369,0.0688 -0.65876,0.13026 -1.26661,0.39412 -1.80006,0.79682 -2.45604,1.85393 -3.18603,16.74963 -0.9522,19.44113 1.84526,2.22333 7.28416,2.25463 9.1113,0.0533 0.80934,-0.97512 1.18326,-3.49671 0.8856,-5.96617 -0.28382,-2.35247 -0.13055,-5.64462 0.33959,-7.3179 0.62112,-2.21035 0.33797,-3.49555 -1.03209,-4.69659 -1.61596,-1.41664 -3.38274,-2.22718 -4.99845,-2.37938 z m 0.51272,3.37374 c 1.32384,-0.2251 2.03313,0.58839 2.03313,2.38825 0,0.85852 -1.23124,1.51374 -2.84105,1.51374 -3.3507,0 -3.72104,-1.7216 -0.71692,-3.32934 0.57416,-0.30729 1.08355,-0.49761 1.52484,-0.57265 z m 62.53168,0.56377 c -1.79121,-0.13624 -3.57084,0.277 -4.58783,1.29401 -0.79315,0.79326 -1.36281,4.59615 -1.36281,9.09132 0,6.21229 0.44565,8.17193 2.27283,9.99912 2.98606,2.98601 7.02177,2.891 8.96036,-0.21308 2.19391,-3.51301 1.78242,-15.51505 -0.6237,-18.17376 -1.06354,-1.17524 -2.86752,-1.86137 -4.65885,-1.99761 z m -15.11964,0.18645 c -1.33005,-0.25616 -1.59033,1.61416 -1.42497,10.22552 0.11081,5.79716 0.23899,10.71192 0.28411,10.92023 0.0449,0.20835 0.72138,0.16203 1.50264,-0.10205 2.17527,-0.73713 1.83349,-20.62059 -0.36178,-21.04365 z m -107.84846,0.35513 c 0.59121,-0.0787 1.55306,0.15763 2.45706,0.64144 1.5017,0.80362 2.0814,2.1282 1.84001,4.21052 -0.3379,2.91735 -3.00315,4.57664 -4.66995,2.90984 -0.99227,-0.99209 -1.05157,-6.60381 -0.0799,-7.57536 0.0986,-0.0986 0.25572,-0.16022 0.45278,-0.18644 z m -56.56993,0.80569 c -1.06528,-0.35302 -1.42052,2.06185 -1.42052,9.66176 0,5.57303 0.34024,10.47476 0.75686,10.89138 2.1314,2.13163 2.70811,-0.17698 2.41044,-9.66175 -0.22196,-7.08221 -0.78141,-10.57141 -1.74678,-10.89139 z m 180.00192,2.18848 c 0.51143,-0.1442 1.02931,-0.009 1.50264,0.47722 1.27908,1.31524 1.85578,12.07716 0.74355,13.87669 -2.23839,3.62181 -5.25147,-0.69224 -5.25147,-7.51765 0,-3.46281 1.47096,-6.40362 3.00528,-6.83626 z m -218.60675,0.32851 c -1.0322,0.066 -1.51753,0.7262 -0.77018,1.93545 0.39678,0.642 5.3795,4.22417 11.07117,7.96156 v 0.002 c 6.72027,4.41285 10.51462,6.29497 10.82257,5.37135 0.26076,-0.78228 -0.74893,-2.32797 -2.24397,-3.43589 -1.49488,-1.10793 -3.49301,-2.68005 -4.43913,-3.49359 -0.94613,-0.81349 -2.99169,-2.11082 -4.54566,-2.88321 -1.5539,-0.77243 -4.18103,-2.49659 -5.83745,-3.83095 -1.4455,-1.16461 -3.02515,-1.69299 -4.05735,-1.62695 z m 155.42695,4.33702 c 2.29628,-0.14878 3.44256,1.9391 2.09749,4.45243 -1.35407,2.5303 -3.94633,2.66509 -4.87194,0.25304 -1.11965,-2.91776 -0.82425,-3.69006 1.72461,-4.49905 0.37106,-0.11777 0.7218,-0.18516 1.04984,-0.20642 z m -87.30863,5.89293 c -0.0796,-0.0272 -0.16242,-0.0147 -0.2508,0.04 -0.62507,0.3863 -1.13642,4.50941 -1.13642,9.16011 0,7.02999 0.31045,8.45432 1.83779,8.45432 1.35077,0 1.65561,-0.67726 1.15195,-2.55694 -0.37688,-1.4063 -0.69228,-5.52713 -0.70137,-9.15792 -0.008,-3.59442 -0.34399,-5.7497 -0.90115,-5.93953 z m 28.81656,0.96773 c -1.14629,-0.26348 -1.23673,2.05899 -0.87895,11.8569 0.21111,5.78135 0.85762,10.51184 1.43827,10.51184 1.38033,0 1.37877,-21.25817 -0.002,-22.11127 -0.20858,-0.12893 -0.39337,-0.21983 -0.55712,-0.25747 z m -66.36487,6.51441 c -1.47406,-0.0261 -2.47702,0.42797 -2.47702,1.3717 0,1.45032 0.59856,1.75415 13.63698,6.90726 8.88602,3.5125 9.36077,3.57053 8.88045,1.07649 -0.21965,-1.14053 -2.73758,-2.85512 -6.0483,-4.11729 -3.1201,-1.18953 -7.03058,-2.86594 -8.68958,-3.72664 -1.88327,-0.97714 -3.82846,-1.48541 -5.30253,-1.51152 z m 125.24092,0.47498 c -0.16032,-0.0507 -0.32108,-0.0338 -0.47276,0.0599 -1.70828,1.05579 -1.41442,22.95948 0.31741,23.6583 0.78115,0.31517 1.67604,0.61421 1.98873,0.66364 0.68764,0.10876 0.14597,-18.73507 -0.64369,-22.40203 -0.23129,-1.07391 -0.7087,-1.8277 -1.18969,-1.97984 z m -30.10833,1.74236 c -1.16453,0 -1.405,16.27824 -0.25747,17.42577 2.03653,2.03657 2.75193,0.0915 2.54361,-6.91393 -0.24752,-8.3277 -0.72229,-10.51184 -2.28614,-10.51184 z m 88.19424,3.11849 c -1.18048,0.28845 -2.23463,18.86198 -1.21854,21.50975 0.31879,0.83077 1.12468,1.50931 1.79118,1.50931 0.80036,0 1.10173,-3.95471 0.88783,-11.64825 -0.1956,-7.0344 -0.77415,-11.53832 -1.46047,-11.37081 z m -28.94307,3.70001 c -1.77208,0 -1.53191,16.73581 0.2486,17.33476 1.01811,0.34254 1.51656,-1.60921 1.7601,-6.89395 0.36289,-7.87109 -0.13126,-10.44081 -2.0087,-10.44081 z m -125.44957,1.22297 c -1.28469,0.0953 -1.86442,0.61821 -1.86442,1.57589 0,1.67574 9.4588,5.13947 14.12751,5.17379 1.29287,0.009 3.06992,0.47446 3.95081,1.0321 0.88083,0.55764 2.25564,0.76347 3.05411,0.45723 2.69878,-1.03559 0.25347,-3.74738 -4.48795,-4.97626 -2.59214,-0.67184 -6.50211,-1.69798 -8.68957,-2.27949 -2.81613,-0.74861 -4.8058,-1.07864 -6.09049,-0.98326 z m 30.31921,6.59654 c -1.51138,-0.0156 -2.26444,0.25487 -2.72341,0.80791 -1.67558,2.01908 0.45973,3.02052 9.7461,4.5723 10.96654,1.83245 11.93235,1.81865 11.93235,-0.16647 0,-2.16731 -0.76975,-2.45061 -11.67933,-4.30373 -3.4943,-0.59361 -5.76434,-0.8945 -7.27571,-0.91001 z m 27.74005,4.88081 c -1.32169,0.0709 -1.96651,0.31191 -1.96651,0.72358 0,1.93028 2.31703,2.91452 10.22773,4.34367 v -0.002 c 12.16157,2.19717 13.81057,1.96993 11.54614,-1.59808 -1.0657,-1.67912 -2.89209,-2.10097 -13.78124,-3.17397 -2.70551,-0.26657 -4.70429,-0.36386 -6.02612,-0.29297 z m 32.59648,3.61566 c -3.07924,-0.13208 -5.16117,0.045 -5.48453,0.56821 -1.05536,1.70761 3.03031,3.55844 8.06366,3.65118 2.38495,0.0439 5.29617,0.45781 6.47002,0.91889 3.33755,1.31103 8.61035,0.18532 7.89276,-1.68465 -0.33507,-0.87311 -1.19442,-1.63049 -1.90883,-1.68243 -0.71441,-0.0522 -2.32134,-0.26537 -3.57127,-0.47497 -4.30651,-0.7218 -8.38257,-1.16415 -11.46181,-1.29623 z m 25.97552,2.19515 c -0.7257,0.0309 -1.24936,0.11783 -1.50042,0.273 -1.7635,1.08989 -1.24714,2.38003 1.47601,3.69335 1.40617,0.67824 6.75997,1.26659 11.89684,1.30954 7.48518,0.0616 9.21958,-0.23311 8.7384,-1.4871 -0.55809,-1.45432 -15.53096,-4.00528 -20.61083,-3.78879 z m 31.5333,2.43263 c -1.38953,-0.0227 -2.63562,0.18892 -3.44476,0.71915 -1.45531,0.95369 -1.38257,1.34449 0.51493,2.7922 2.399,1.83033 10.34484,2.30247 11.35083,0.67475 1.20403,-1.94814 -4.25254,-4.11802 -8.421,-4.1861 z m -227.87341,14.2851 c -0.78104,0 -1.41634,0.54327 -1.61584,1.26292 v 0.93222 0.95662 0.99437 1.03432 0.69028 l 88.26748,-0.0156 c 81.72146,-0.0149 157.92922,-0.0612 169.35026,-0.0999 l 20.76621,-0.0731 -1.85999,-2.84104 c -2.05431,-3.13527 -5.00955,-3.80566 -5.00955,-1.13642 0,1.47598 -4.41977,1.70463 -32.95604,1.70463 -28.53637,0 -32.95604,-0.22874 -32.95604,-1.70463 0,-0.93754 -0.76721,-1.70461 -1.70461,-1.70461 -0.93755,0 -1.70463,0.76707 -1.70463,1.70461 0,1.47427 -4.28161,1.70463 -31.69978,1.70463 -27.12734,0 -31.79252,-0.24593 -32.35231,-1.70463 -0.35976,-0.93754 -1.17977,-1.70461 -1.82447,-1.70461 -0.6446,0 -1.17193,0.76707 -1.17193,1.70461 0,1.47512 -4.35662,1.70463 -32.38782,1.70463 -28.03133,0 -32.38783,-0.22942 -32.38783,-1.70463 0,-0.93754 -0.5114,-1.70461 -1.13641,-1.70461 -0.62508,0 -1.13642,0.76707 -1.13642,1.70461 0,1.47512 -4.35663,1.70463 -32.38782,1.70463 -28.03134,0 -32.38784,-0.22942 -32.38784,-1.70463 0,-0.93754 -0.76721,-1.70461 -1.70462,-1.70461 z m -7.25797,21.13022 c -0.34738,-0.0352 -0.68184,-0.005 -0.98992,0.10432 -2.85574,1.01247 -5.95729,3.89094 -5.95729,5.52671 0,2.42823 3.14136,2.7918 3.75771,0.43504 0.60922,-2.32972 3.58135,-2.97617 4.77871,-1.03877 0.39343,0.63658 -1.36679,3.77203 -3.91086,6.9672 -4.26225,5.35314 -5.57307,8.73201 -3.99965,10.30543 0.34399,0.34395 3.10176,0.58715 6.13042,0.54158 4.05081,-0.0611 5.35679,-0.47577 4.93631,-1.57146 -0.31595,-0.82329 -2.29658,-1.48932 -4.42803,-1.48932 -2.12059,0 -3.85537,-0.40739 -3.85537,-0.90559 0,-0.49817 2.04556,-2.90355 4.54566,-5.34469 2.49997,-2.44129 4.54565,-5.51617 4.54565,-6.83403 0,-2.93678 -3.12181,-6.44957 -5.55334,-6.69641 z m 17.33921,0.46166 c -1.54904,0 -4.96738,9.91858 -4.96738,14.41162 0,2.30309 0.55487,2.63461 4.41249,2.63461 3.45739,0 4.5417,0.49225 5.00733,2.27283 1.13718,4.34842 1.94434,2.22661 1.94434,-5.11386 0,-7.67894 -1.48683,-9.89402 -2.67013,-3.97746 -0.38553,1.92747 -1.40634,3.40924 -2.3483,3.40924 -2.83392,0 -3.02962,-1.86791 -0.75244,-7.18027 2.20666,-5.14787 2.0789,-6.45671 -0.62591,-6.45671 z m -7.30014,20.67299 c -0.23393,-0.0496 -0.52734,-0.0317 -0.88561,0.0421 -1.04254,0.21492 -1.7552,1.22884 -1.58253,2.25285 0.17284,1.024 -0.2107,2.18713 -0.85232,2.58357 -0.6416,0.39653 -1.16527,1.45653 -1.16527,2.35717 0,4.17463 4.67149,-0.0643 5.18045,-4.70102 0.1794,-1.63412 0.007,-2.3861 -0.69472,-2.53474 z" />
      <g
         aria-label="Stadiametric
Rangefinder"
         id="text6808"
         style="font-size:42.6667px;font-family:'PT Sans';-inkscape-font-specification:'PT Sans';fill:#eaebee;fill-rule:evenodd;stroke-width:20.7454">
        <path
           d="m 151.43989,65.385724 q 0,-1.792001 -1.06666,-2.901336 -1.06667,-1.152 -2.68801,-2.005334 -1.57866,-0.896001 -3.456,-1.664002 -1.87733,-0.768 -3.49867,-1.834668 -1.57867,-1.109334 -2.64533,-2.688002 -1.06667,-1.621334 -1.06667,-4.096003 0,-3.498669 2.432,-5.546671 2.432,-2.048001 6.91201,-2.048001 2.60267,0 4.736,0.384 2.13334,0.384001 3.328,0.981334 l -1.06666,3.114669 q -0.98134,-0.469333 -2.90134,-0.896 -1.87733,-0.426667 -4.26667,-0.426667 -2.816,0 -4.224,1.280001 -1.408,1.237334 -1.408,2.944002 0,1.664001 1.06666,2.773335 1.06667,1.109334 2.64534,2.005335 1.62133,0.853334 3.49867,1.706668 1.87733,0.853334 3.456,2.005335 1.62133,1.109334 2.688,2.688002 1.06667,1.578668 1.06667,3.925336 0,1.920001 -0.68267,3.456003 -0.68266,1.536001 -2.00533,2.645335 -1.32267,1.109334 -3.2,1.706668 -1.87734,0.597334 -4.26667,0.597334 -3.20001,0 -5.29068,-0.512001 -2.09066,-0.469333 -3.24266,-1.066667 l 1.19466,-3.200003 q 0.98134,0.554668 2.90134,1.109335 1.92,0.512 4.30934,0.512 1.408,0 2.64533,-0.256 1.23734,-0.298667 2.13334,-0.896001 0.896,-0.64 1.408,-1.578668 0.55466,-0.938667 0.55466,-2.218668 z"
           style="text-align:end;text-anchor:end;fill:#2d2c2d"
           id="path310" />
        <path
           d="m 157.4559,51.647047 h 3.32801 v -4.224003 l 3.41333,-0.981334 v 5.205337 h 5.80267 v 2.986669 h -5.80267 v 11.818675 q 0,2.218669 0.55467,3.157336 0.55467,0.896001 1.87733,0.896001 1.10934,0 1.87734,-0.213334 0.768,-0.256 1.70667,-0.64 l 0.768,2.602668 q -1.152,0.554667 -2.51734,0.896001 -1.36533,0.341334 -2.944,0.341334 -2.60267,0 -3.66934,-1.450668 -1.06666,-1.493335 -1.06666,-4.949337 V 54.633716 h -3.32801 z"
           style="text-align:end;text-anchor:end;fill:#2d2c2d"
           id="path312" />
        <path
           d="m 174.39461,53.225715 q 1.62134,-0.981334 3.75467,-1.450668 2.176,-0.469334 4.52267,-0.469334 2.21867,0 3.54134,0.597334 1.36533,0.597334 2.048,1.578668 0.72533,0.938667 0.93867,2.090668 0.256,1.152001 0.256,2.304002 0,2.560002 -0.128,4.992004 -0.128,2.432002 -0.128,4.608003 0,1.578668 0.128,2.986669 0.128,1.408001 0.46933,2.602669 h -2.51733 l -0.896,-2.986669 h -0.21334 q -0.384,0.597334 -0.98133,1.194667 -0.55467,0.554667 -1.36534,1.024001 -0.81066,0.426667 -1.87733,0.725334 -1.06667,0.298667 -2.432,0.298667 -1.36534,0 -2.56,-0.426667 -1.15201,-0.426667 -2.00534,-1.194668 -0.85333,-0.810667 -1.36533,-1.920001 -0.46934,-1.109334 -0.46934,-2.517335 0,-1.877335 0.768,-3.114669 0.768,-1.280001 2.13334,-2.005335 1.408,-0.768001 3.328,-1.066668 1.96267,-0.341333 4.30934,-0.341333 0.59733,0 1.152,0 0.59733,0 1.19467,0.08533 0.128,-1.280001 0.128,-2.304002 0,-2.346668 -0.93867,-3.285335 -0.93867,-0.938668 -3.41334,-0.938668 -0.72533,0 -1.57867,0.128 -0.81066,0.08533 -1.70666,0.298667 -0.85334,0.170667 -1.664,0.469334 -0.76801,0.256 -1.36534,0.597334 z m 6.05867,17.109346 q 1.19467,0 2.13334,-0.298667 0.93867,-0.341334 1.62133,-0.810667 0.68267,-0.512001 1.10934,-1.109334 0.46933,-0.597334 0.68267,-1.152001 v -3.541336 q -0.59734,-0.04267 -1.23734,-0.04267 -0.59733,-0.04267 -1.19467,-0.04267 -1.32266,0 -2.60266,0.170667 -1.23734,0.128 -2.21867,0.554667 -0.93867,0.384001 -1.536,1.109334 -0.55467,0.682668 -0.55467,1.749335 0,1.493335 1.06667,2.474669 1.06666,0.938667 2.73066,0.938667 z"
           style="text-align:end;text-anchor:end;fill:#2d2c2d"
           id="path314" />
        <path
           d="m 212.28266,65.641724 q 0,2.176002 0.0427,3.968003 0.0427,1.749335 0.384,3.456003 h -2.304 l -0.85333,-3.029336 h -0.17067 q -0.85333,1.493335 -2.47467,2.474669 -1.62133,0.981334 -3.79733,0.981334 -4.26667,0 -6.35734,-2.688002 -2.048,-2.688002 -2.048,-8.40534 0,-5.461337 2.56,-8.277339 2.60267,-2.858669 7.12534,-2.858669 1.57867,0 2.47467,0.170667 0.93866,0.170666 2.00533,0.554667 v -8.874674 h 3.41334 z m -8.61868,4.864004 q 2.176,0 3.45601,-1.109334 1.28,-1.152001 1.74933,-3.456003 V 55.35905 q -0.768,-0.597334 -1.74933,-0.853334 -0.98134,-0.256 -2.60267,-0.256 -2.944,0 -4.60801,1.962668 -1.664,1.920001 -1.664,6.186671 0,1.749335 0.256,3.242669 0.29867,1.493335 0.93867,2.560002 0.64,1.066668 1.664,1.706668 1.06667,0.597334 2.56,0.597334 z"
           style="text-align:end;text-anchor:end;fill:#2d2c2d"
           id="path316" />
        <path
           d="m 219.57867,51.647047 h 3.41333 v 21.333349 h -3.41333 z m -0.72534,-6.485338 q 0,-0.981334 0.64,-1.664001 0.68267,-0.725334 1.70667,-0.725334 1.024,0 1.74934,0.725334 0.72533,0.682667 0.72533,1.664001 0,0.981334 -0.72533,1.621334 -0.72534,0.640001 -1.74934,0.640001 -1.024,0 -1.70667,-0.640001 -0.64,-0.64 -0.64,-1.621334 z"
           style="text-align:end;text-anchor:end;fill:#2d2c2d"
           id="path318" />
        <path
           d="m 229.94665,53.225715 q 1.62134,-0.981334 3.75467,-1.450668 2.176,-0.469334 4.52267,-0.469334 2.21867,0 3.54134,0.597334 1.36533,0.597334 2.048,1.578668 0.72533,0.938667 0.93867,2.090668 0.256,1.152001 0.256,2.304002 0,2.560002 -0.128,4.992004 -0.128,2.432002 -0.128,4.608003 0,1.578668 0.128,2.986669 0.128,1.408001 0.46933,2.602669 H 242.832 l -0.896,-2.986669 h -0.21334 q -0.384,0.597334 -0.98133,1.194667 -0.55467,0.554667 -1.36534,1.024001 -0.81066,0.426667 -1.87733,0.725334 -1.06667,0.298667 -2.432,0.298667 -1.36534,0 -2.56,-0.426667 -1.15201,-0.426667 -2.00534,-1.194668 -0.85333,-0.810667 -1.36533,-1.920001 -0.46934,-1.109334 -0.46934,-2.517335 0,-1.877335 0.768,-3.114669 0.768,-1.280001 2.13334,-2.005335 1.408,-0.768001 3.328,-1.066668 1.96267,-0.341333 4.30934,-0.341333 0.59733,0 1.152,0 0.59733,0 1.19467,0.08533 0.128,-1.280001 0.128,-2.304002 0,-2.346668 -0.93867,-3.285335 -0.93867,-0.938668 -3.41334,-0.938668 -0.72533,0 -1.57867,0.128 -0.81066,0.08533 -1.70666,0.298667 -0.85334,0.170667 -1.664,0.469334 -0.768,0.256 -1.36534,0.597334 z m 6.05868,17.109346 q 1.19466,0 2.13333,-0.298667 0.93867,-0.341334 1.62133,-0.810667 0.68267,-0.512001 1.10934,-1.109334 0.46933,-0.597334 0.68267,-1.152001 v -3.541336 q -0.59734,-0.04267 -1.23734,-0.04267 -0.59733,-0.04267 -1.19467,-0.04267 -1.32266,0 -2.60266,0.170667 -1.23734,0.128 -2.21867,0.554667 -0.93867,0.384001 -1.536,1.109334 -0.55467,0.682668 -0.55467,1.749335 0,1.493335 1.06667,2.474669 1.06666,0.938667 2.73067,0.938667 z"
           style="text-align:end;text-anchor:end;fill:#2d2c2d"
           id="path320" />
        <path
           d="M 263.95203,72.980396 V 60.905721 q 0,-1.706668 -0.17067,-2.944003 -0.128,-1.280001 -0.55467,-2.133335 -0.42666,-0.853333 -1.23733,-1.28 -0.768,-0.426667 -2.048,-0.426667 -1.96267,0 -3.28534,1.194667 -1.28,1.194668 -1.792,2.986669 v 14.677344 h -3.41334 V 51.647047 h 2.38934 l 0.64,2.602669 h 0.17067 q 1.152,-1.365335 2.64533,-2.218669 1.536,-0.896 3.968,-0.896 2.04801,0 3.32801,0.810667 1.32267,0.768001 2.048,2.730669 0.98133,-1.664002 2.688,-2.602669 1.74934,-0.938667 3.92534,-0.938667 1.792,0 3.02933,0.426667 1.23734,0.384 2.048,1.408001 0.81067,1.024 1.15201,2.773335 0.384,1.749335 0.384,4.437337 v 12.800009 h -3.41334 V 60.13772 q 0,-1.536001 -0.17067,-2.645335 -0.128,-1.152001 -0.59733,-1.877335 -0.42667,-0.768001 -1.23734,-1.109334 -0.768,-0.384 -2.048,-0.384 -2.13333,0 -3.328,1.194667 -1.19467,1.194668 -1.70667,3.413336 v 14.250677 z"
           style="text-align:end;text-anchor:end;fill:#2d2c2d"
           id="path322" />
        <path
           d="m 301.66941,71.273728 q -1.28,1.024001 -3.24267,1.621335 -1.92,0.597334 -4.096,0.597334 -2.43201,0 -4.22401,-0.768001 -1.792,-0.810667 -2.944,-2.261335 -1.152,-1.493334 -1.70667,-3.541336 -0.55467,-2.048001 -0.55467,-4.608003 0,-5.461338 2.43201,-8.320007 2.432,-2.858668 6.95467,-2.858668 1.45067,0 2.90133,0.341333 1.45067,0.298667 2.60267,1.194668 1.152,0.896 1.87734,2.560002 0.72533,1.621334 0.72533,4.309336 0,1.408001 -0.256,3.114669 h -13.69601 q 0,1.877335 0.384,3.328003 0.384,1.450667 1.19467,2.474668 0.81067,0.981334 2.09067,1.536001 1.32266,0.512001 3.2,0.512001 1.45067,0 2.90133,-0.512001 1.45067,-0.512 2.17601,-1.194667 z m -7.33867,-17.152012 q -2.51734,0 -4.05334,1.322667 -1.49334,1.322668 -1.792,4.52267 h 10.58134 q 0,-3.242669 -1.23734,-4.52267 -1.23733,-1.322667 -3.49866,-1.322667 z"
           style="text-align:end;text-anchor:end;fill:#2d2c2d"
           id="path324" />
        <path
           d="m 304.95471,51.647047 h 3.328 v -4.224003 l 3.41334,-0.981334 v 5.205337 h 5.80267 v 2.986669 h -5.80267 v 11.818675 q 0,2.218669 0.55467,3.157336 0.55466,0.896001 1.87733,0.896001 1.10934,0 1.87734,-0.213334 0.768,-0.256 1.70667,-0.64 l 0.768,2.602668 q -1.15201,0.554667 -2.51734,0.896001 -1.36533,0.341334 -2.944,0.341334 -2.60267,0 -3.66934,-1.450668 -1.06667,-1.493335 -1.06667,-4.949337 V 54.633716 h -3.328 z"
           style="text-align:end;text-anchor:end;fill:#2d2c2d"
           id="path326" />
        <path
           d="m 332.30409,54.932383 q -1.28,-0.426667 -2.432,-0.426667 -1.83467,0 -2.90134,1.024001 -1.06666,0.981334 -1.32266,2.517335 v 14.933344 h -3.41334 V 51.647047 h 2.38933 l 0.64001,2.602669 h 0.17066 q 0.81067,-1.450668 1.92,-2.218669 1.152,-0.810667 2.90134,-0.810667 1.23733,0 2.77333,0.426667 z"
           style="text-align:end;text-anchor:end;fill:#2d2c2d"
           id="path328" />
        <path
           d="m 337.46677,51.647047 h 3.41333 v 21.333349 h -3.41333 z m -0.72534,-6.485338 q 0,-0.981334 0.64,-1.664001 0.68267,-0.725334 1.70667,-0.725334 1.024,0 1.74934,0.725334 0.72533,0.682667 0.72533,1.664001 0,0.981334 -0.72533,1.621334 -0.72534,0.640001 -1.74934,0.640001 -1.024,0 -1.70667,-0.640001 -0.64,-0.64 -0.64,-1.621334 z"
           style="text-align:end;text-anchor:end;fill:#2d2c2d"
           id="path330" />
        <path
           d="m 362.72544,71.572395 q -1.28,0.938668 -3.02934,1.408001 -1.74933,0.512001 -3.66933,0.512001 -2.47467,0 -4.18134,-0.768001 -1.70667,-0.810667 -2.816,-2.261335 -1.06667,-1.493334 -1.57867,-3.541336 -0.46933,-2.090668 -0.46933,-4.608003 0,-5.418671 2.38933,-8.27734 2.38934,-2.901335 6.86934,-2.901335 2.048,0 3.456,0.341333 1.45067,0.298667 2.60267,0.896001 l -0.98133,2.944002 q -0.98134,-0.554667 -2.176,-0.853334 -1.19467,-0.341333 -2.56001,-0.341333 -6.05867,0 -6.05867,8.192006 0,1.621334 0.29867,3.114669 0.34133,1.450667 1.06667,2.602668 0.768,1.109334 1.96267,1.792002 1.23733,0.682667 3.02933,0.682667 1.536,0 2.73067,-0.469334 1.23733,-0.469334 2.00533,-1.066667 z"
           style="text-align:end;text-anchor:end;fill:#2d2c2d"
           id="path332" />
        <path
           d="m 148.19722,86.745747 q 1.62133,-0.298667 3.712,-0.469333 2.13333,-0.170667 3.88267,-0.170667 1.96267,0 3.712,0.426667 1.792,0.426667 3.11467,1.408001 1.36533,0.981334 2.176,2.560002 0.81067,1.578668 0.81067,3.840003 0,3.498669 -1.92,5.67467 -1.92,2.176 -4.86401,2.90134 l 2.048,1.57866 7.42401,11.81868 h -4.13867 l -8.23467,-12.88534 -4.18134,-0.64 v 13.52534 h -3.54133 z m 7.68,2.432002 q -0.55467,0 -1.152,0 -0.59733,0 -1.152,0.04267 -0.55467,0.04267 -1.06667,0.08533 -0.46933,0.04267 -0.768,0.128 v 11.008011 h 3.328 q 2.94401,0 4.86401,-1.45067 1.92,-1.450668 1.92,-4.52267 0,-2.304002 -1.57867,-3.797336 -1.57867,-1.493335 -4.39467,-1.493335 z"
           style="text-align:end;text-anchor:end;fill:#2d2c2d"
           id="path334" />
        <path
           d="m 172.47453,96.559088 q 1.62133,-0.981334 3.75467,-1.450668 2.176,-0.469333 4.52267,-0.469333 2.21867,0 3.54133,0.597333 1.36534,0.597334 2.048,1.578668 0.72534,0.938668 0.93867,2.090668 0.256,1.152004 0.256,2.304004 0,2.56 -0.128,4.992 -0.128,2.432 -0.128,4.60801 0,1.57866 0.128,2.98666 0.128,1.40801 0.46934,2.60267 h -2.51734 l -0.896,-2.98667 h -0.21333 q -0.384,0.59734 -0.98134,1.19467 -0.55466,0.55467 -1.36533,1.024 -0.81067,0.42667 -1.87734,0.72534 -1.06666,0.29866 -2.432,0.29866 -1.36533,0 -2.56,-0.42666 -1.152,-0.42667 -2.00534,-1.19467 -0.85333,-0.81067 -1.36533,-1.92 -0.46933,-1.10934 -0.46933,-2.51734 0,-1.87733 0.768,-3.11467 0.768,-1.28 2.13333,-2.00533 1.408,-0.768 3.328,-1.06667 1.96267,-0.34133 4.30934,-0.34133 0.59734,0 1.152,0 0.59734,0 1.19467,0.0853 0.128,-1.28 0.128,-2.304 0,-2.34667 -0.93867,-3.285337 -0.93866,-0.938668 -3.41333,-0.938668 -0.72534,0 -1.57867,0.128001 -0.81067,0.08533 -1.70667,0.298666 -0.85333,0.170667 -1.664,0.469334 -0.768,0.256 -1.36533,0.597334 z m 6.05867,17.109342 q 1.19467,0 2.13333,-0.29866 0.93867,-0.34134 1.62134,-0.81067 0.68267,-0.512 1.10933,-1.10933 0.46934,-0.59734 0.68267,-1.15201 v -3.54133 q -0.59733,-0.0427 -1.23733,-0.0427 -0.59734,-0.0427 -1.19467,-0.0427 -1.32267,0 -2.60267,0.17066 -1.23733,0.128 -2.21867,0.55467 -0.93867,0.384 -1.536,1.10933 -0.55467,0.68267 -0.55467,1.74934 0,1.49333 1.06667,2.47467 1.06667,0.93866 2.73067,0.93866 z"
           style="text-align:end;text-anchor:end;fill:#2d2c2d"
           id="path336" />
        <path
           d="m 207.67456,116.31377 v -12.16001 q 0,-3.328 -0.98133,-4.992003 -0.93867,-1.706668 -3.49867,-1.706668 -2.26133,0 -3.75467,1.237334 -1.45067,1.194667 -2.048,3.029337 v 14.59201 h -3.41334 V 94.98042 h 2.38934 l 0.64,2.602669 h 0.17067 q 1.024,-1.365335 2.73067,-2.218669 1.74933,-0.896 4.13867,-0.896 1.74933,0 3.072,0.426667 1.32267,0.384 2.176,1.408001 0.896,1.024001 1.32267,2.773335 0.46933,1.706667 0.46933,4.352007 v 12.88534 z"
           style="text-align:end;text-anchor:end;fill:#2d2c2d"
           id="path338" />
        <path
           d="m 233.65862,117.2951 q 0,4.13867 -2.21867,6.10134 -2.176,1.96267 -6.48533,1.96267 -2.56001,0 -4.13867,-0.34133 -1.53601,-0.29867 -2.64534,-0.81067 l 0.896,-2.90134 q 0.98134,0.384 2.176,0.72534 1.19467,0.34133 3.11467,0.34133 1.792,0 2.90134,-0.34133 1.152,-0.29867 1.83467,-1.06667 0.68266,-0.72533 0.93866,-1.92 0.256,-1.152 0.256,-2.77334 v -2.048 h -0.17066 q -0.85334,1.23734 -2.17601,1.92 -1.32266,0.64 -3.456,0.64 -4.30933,0 -6.35734,-2.688 -2.00533,-2.688 -2.00533,-8.36267 0,-5.46134 2.60267,-8.277341 2.60267,-2.858669 7.68,-2.858669 2.43201,0 4.13867,0.384 1.74934,0.384 3.11467,0.896001 z m -8.576,-3.49867 q 2.176,0 3.41333,-1.06666 1.23734,-1.10934 1.74934,-3.41334 V 98.393756 q -1.70667,-0.810667 -4.35201,-0.810667 -2.90133,0 -4.56533,1.962668 -1.664,1.962663 -1.664,6.144003 0,1.792 0.29866,3.28534 0.29867,1.49333 0.93867,2.56 0.64,1.06667 1.664,1.664 1.024,0.59733 2.51734,0.59733 z"
           style="text-align:end;text-anchor:end;fill:#2d2c2d"
           id="path340" />
        <path
           d="m 255.80267,114.6071 q -1.28,1.024 -3.24267,1.62134 -1.92,0.59733 -4.096,0.59733 -2.432,0 -4.22401,-0.768 -1.792,-0.81067 -2.944,-2.26134 -1.152,-1.49333 -1.70667,-3.54133 -0.55466,-2.048 -0.55466,-4.60801 0,-5.46133 2.432,-8.320001 2.432,-2.858669 6.95467,-2.858669 1.45067,0 2.90134,0.341333 1.45066,0.298667 2.60267,1.194668 1.152,0.896001 1.87733,2.560002 0.72533,1.621337 0.72533,4.309337 0,1.408 -0.256,3.11467 h -13.69601 q 0,1.87733 0.384,3.328 0.384,1.45067 1.19467,2.47467 0.81067,0.98133 2.09067,1.536 1.32267,0.512 3.2,0.512 1.45067,0 2.90134,-0.512 1.45067,-0.512 2.176,-1.19467 z M 248.464,97.455089 q -2.51734,0 -4.05334,1.322667 -1.49333,1.322664 -1.792,4.522674 H 253.2 q 0,-3.24267 -1.23733,-4.522674 -1.23734,-1.322667 -3.49867,-1.322667 z"
           style="text-align:end;text-anchor:end;fill:#2d2c2d"
           id="path342" />
        <path
           d="m 278.33066,94.98042 v 21.33335 h -3.41334 V 97.967089 h -8.61867 v 18.346681 h -3.41334 V 97.967089 h -3.328 V 94.98042 h 3.328 v -1.194667 q 0,-4.01067 1.96267,-5.802671 2.00533,-1.834668 5.84534,-1.834668 2.51733,0 4.48,0.512 1.96267,0.469334 3.072,1.152001 l -1.152,2.730668 q -1.152,-0.725333 -2.73067,-1.066667 -1.57866,-0.341334 -3.37067,-0.341334 -1.57866,0 -2.51733,0.384001 -0.896,0.341333 -1.408,1.109334 -0.46934,0.725334 -0.64,1.834668 -0.128,1.109334 -0.128,2.517335 z"
           style="text-align:end;text-anchor:end;fill:#2d2c2d"
           id="path344" />
        <path
           d="m 298.64004,116.31377 v -12.16001 q 0,-3.328 -0.98133,-4.992003 -0.93867,-1.706668 -3.49867,-1.706668 -2.26134,0 -3.75467,1.237334 -1.45067,1.194667 -2.048,3.029337 v 14.59201 h -3.41334 V 94.98042 h 2.38934 l 0.64,2.602669 h 0.17066 q 1.024,-1.365335 2.73067,-2.218669 1.74934,-0.896 4.13867,-0.896 1.74934,0 3.072,0.426667 1.32267,0.384 2.17601,1.408001 0.896,1.024001 1.32266,2.773335 0.46934,1.706667 0.46934,4.352007 v 12.88534 z"
           style="text-align:end;text-anchor:end;fill:#2d2c2d"
           id="path346" />
        <path
           d="m 324.66677,108.9751 q 0,2.176 0.0427,3.968 0.0427,1.74933 0.384,3.456 h -2.304 l -0.85334,-3.02933 h -0.17066 q -0.85334,1.49333 -2.47467,2.47467 -1.62134,0.98133 -3.79734,0.98133 -4.26667,0 -6.35733,-2.688 -2.04801,-2.688 -2.04801,-8.40534 0,-5.46134 2.56001,-8.277341 2.60266,-2.858669 7.12533,-2.858669 1.57867,0 2.47467,0.170667 0.93867,0.170666 2.00534,0.554667 V 86.44708 h 3.41333 z m -8.61867,4.864 q 2.176,0 3.456,-1.10933 1.28,-1.152 1.74934,-3.45601 V 98.692423 q -0.768,-0.597334 -1.74934,-0.853334 -0.98133,-0.256 -2.60267,-0.256 -2.944,0 -4.608,1.962668 -1.664,1.920003 -1.664,6.186673 0,1.74933 0.256,3.24267 0.29867,1.49333 0.93867,2.56 0.64,1.06667 1.664,1.70667 1.06667,0.59733 2.56,0.59733 z"
           style="text-align:end;text-anchor:end;fill:#2d2c2d"
           id="path348" />
        <path
           d="m 346.81079,114.6071 q -1.28,1.024 -3.24267,1.62134 -1.92,0.59733 -4.096,0.59733 -2.43201,0 -4.22401,-0.768 -1.792,-0.81067 -2.944,-2.26134 -1.152,-1.49333 -1.70667,-3.54133 -0.55466,-2.048 -0.55466,-4.60801 0,-5.46133 2.432,-8.320001 2.432,-2.858669 6.95467,-2.858669 1.45067,0 2.90133,0.341333 1.45067,0.298667 2.60267,1.194668 1.152,0.896001 1.87734,2.560002 0.72533,1.621337 0.72533,4.309337 0,1.408 -0.256,3.11467 h -13.69601 q 0,1.87733 0.384,3.328 0.384,1.45067 1.19467,2.47467 0.81067,0.98133 2.09067,1.536 1.32266,0.512 3.2,0.512 1.45067,0 2.90134,-0.512 1.45066,-0.512 2.176,-1.19467 z m -7.33867,-17.152011 q -2.51734,0 -4.05334,1.322667 -1.49334,1.322664 -1.792,4.522674 h 10.58134 q 0,-3.24267 -1.23734,-4.522674 -1.23733,-1.322667 -3.49866,-1.322667 z"
           style="text-align:end;text-anchor:end;fill:#2d2c2d"
           id="path350" />
        <path
           d="m 362.98145,98.265756 q -1.28,-0.426667 -2.432,-0.426667 -1.83467,0 -2.90134,1.024001 -1.06666,0.981334 -1.32266,2.51733 v 14.93335 h -3.41334 V 94.98042 h 2.38934 l 0.64,2.602669 h 0.17066 q 0.81067,-1.450668 1.92,-2.218669 1.152,-0.810667 2.90134,-0.810667 1.23733,0 2.77333,0.426667 z"
           style="text-align:end;text-anchor:end;fill:#2d2c2d"
           id="path352" />
      </g>
      <rect
         style="fill:#000000;fill-opacity:0;fill-rule:evenodd;stroke:#f1372a;stroke-width:3.40925;stroke-dasharray:none;stroke-dashoffset:0;stroke-opacity:1"
         id="rect12450"
         width="16.712738"
         height="16.712738"
         x="-47.169952"
         y="198.37178"
         transform="rotate(-45)" />
      <rect
         style="fill:#000000;fill-opacity:0;fill-rule:evenodd;stroke:#f1372a;stroke-width:3.40925;stroke-dasharray:none;stroke-dashoffset:0;stroke-opacity:1"
         id="rect12452"
         width="16.712738"
         height="16.712738"
         x="144.8401"
         y="390.38177"
         transform="rotate(-45)" />
      <g
         id="g11521"
         transform="matrix(4.5374761,0,0,4.2951119,-1117.2555,-282.34177)">
        <path
           style="fill:none;fill-opacity:1;fill-rule:evenodd;stroke:#f1372a;stroke-width:1.05833;stroke-dasharray:none;stroke-dashoffset:0;stroke-opacity:1"
           d="m 275.00019,106.15928 h 54.63562"
           id="path11519"
           sodipodi:nodetypes="cc" />
        <path
           style="fill:none;fill-opacity:1;fill-rule:evenodd;stroke:#f1372a;stroke-width:1.05833;stroke-dasharray:none;stroke-dashoffset:0;stroke-opacity:1"
           d="m 275.00019,106.15928 h 54.63562"
           id="path11579"
           sodipodi:nodetypes="cc" />
      </g>
      <g
         aria-label="Range in 100m"
         id="text11525"
         style="font-size:21.3333px;font-family:'PT Sans';-inkscape-font-specification:'PT Sans';text-align:end;text-anchor:end;fill:#f1372a;fill-rule:evenodd;stroke-width:20.7454">
        <path
           d="m 182.64008,149.94518 q 0.81067,-0.14933 1.856,-0.23467 1.06667,-0.0853 1.94133,-0.0853 0.98133,0 1.856,0.21333 0.896,0.21334 1.55733,0.704 0.68267,0.49067 1.088,1.28 0.40533,0.78933 0.40533,1.92 0,1.74933 -0.96,2.83733 -0.96,1.08799 -2.43199,1.45066 l 1.02399,0.78933 3.712,5.90933 h -2.06933 l -4.11733,-6.44266 -2.09066,-0.32 v 6.76266 h -1.77067 z m 3.84,1.216 q -0.27733,0 -0.576,0 -0.29867,0 -0.576,0.0213 -0.27733,0.0213 -0.53333,0.0427 -0.23467,0.0213 -0.384,0.064 v 5.50399 h 1.664 q 1.47199,0 2.43199,-0.72533 0.96,-0.72534 0.96,-2.26133 0,-1.152 -0.78933,-1.89867 -0.78933,-0.74666 -2.19733,-0.74666 z"
           style="text-align:center;text-anchor:middle"
           id="path355" />
        <path
           d="m 194.77871,154.85184 q 0.81067,-0.49067 1.87733,-0.72533 1.088,-0.23467 2.26133,-0.23467 1.10933,0 1.77067,0.29867 0.68266,0.29866 1.02399,0.78933 0.36267,0.46933 0.46934,1.04533 0.128,0.576 0.128,1.152 0,1.28 -0.064,2.49599 -0.064,1.216 -0.064,2.304 0,0.78933 0.064,1.49333 0.064,0.704 0.23466,1.30133 h -1.25866 l -0.448,-1.49333 h -0.10667 q -0.192,0.29867 -0.49066,0.59733 -0.27734,0.27734 -0.68267,0.512 -0.40533,0.21334 -0.93866,0.36267 -0.53334,0.14933 -1.216,0.14933 -0.68267,0 -1.28,-0.21333 -0.576,-0.21333 -1.00267,-0.59733 -0.42666,-0.40534 -0.68266,-0.96 -0.23467,-0.55467 -0.23467,-1.25867 0,-0.93866 0.384,-1.55733 0.384,-0.64 1.06667,-1.00266 0.704,-0.384 1.66399,-0.53333 0.98134,-0.17067 2.15467,-0.17067 0.29866,0 0.576,0 0.29866,0 0.59733,0.0427 0.064,-0.64 0.064,-1.152 0,-1.17333 -0.46933,-1.64267 -0.46934,-0.46933 -1.70667,-0.46933 -0.36266,0 -0.78933,0.064 -0.40533,0.0427 -0.85333,0.14933 -0.42667,0.0853 -0.832,0.23467 -0.384,0.128 -0.68267,0.29867 z m 3.02933,8.55465 q 0.59733,0 1.06667,-0.14933 0.46933,-0.17067 0.81066,-0.40533 0.34133,-0.256 0.55467,-0.55467 0.23466,-0.29867 0.34133,-0.576 v -1.77066 q -0.29867,-0.0213 -0.61867,-0.0213 -0.29866,-0.0213 -0.59733,-0.0213 -0.66133,0 -1.30133,0.0853 -0.61867,0.064 -1.10933,0.27734 -0.46933,0.192 -0.768,0.55466 -0.27733,0.34134 -0.27733,0.87467 0,0.74666 0.53333,1.23733 0.53333,0.46933 1.36533,0.46933 z"
           style="text-align:center;text-anchor:middle"
           id="path357" />
        <path
           d="m 212.37869,164.72916 v -6.07999 q 0,-1.664 -0.49067,-2.496 -0.46933,-0.85333 -1.74933,-0.85333 -1.13066,0 -1.87733,0.61866 -0.72533,0.59734 -1.02399,1.51467 v 7.29599 h -1.70667 v -10.66665 h 1.19467 l 0.32,1.30133 h 0.0853 q 0.512,-0.68267 1.36533,-1.10933 0.87467,-0.448 2.06933,-0.448 0.87467,0 1.536,0.21333 0.66133,0.192 1.088,0.704 0.44799,0.512 0.66133,1.38666 0.23466,0.85334 0.23466,2.176 v 6.44266 z"
           style="text-align:center;text-anchor:middle"
           id="path359" />
        <path
           d="m 225.37069,165.21982 q 0,2.06933 -1.10933,3.05066 -1.088,0.98134 -3.24266,0.98134 -1.28,0 -2.06933,-0.17067 -0.768,-0.14933 -1.32267,-0.40533 l 0.448,-1.45067 q 0.49067,0.192 1.088,0.36267 0.59733,0.17067 1.55733,0.17067 0.896,0 1.45066,-0.17067 0.576,-0.14933 0.91734,-0.53333 0.34133,-0.36267 0.46933,-0.96 0.128,-0.576 0.128,-1.38667 v -1.024 h -0.0853 q -0.42667,0.61867 -1.088,0.96 -0.66134,0.32 -1.728,0.32 -2.15466,0 -3.17866,-1.344 -1.00267,-1.34399 -1.00267,-4.18132 0,-2.73066 1.30133,-4.13866 1.30134,-1.42933 3.84,-1.42933 1.216,0 2.06933,0.192 0.87466,0.192 1.55733,0.448 z m -4.28799,-1.74933 q 1.08799,0 1.70666,-0.53333 0.61867,-0.55467 0.87467,-1.70666 v -5.46133 q -0.85334,-0.40533 -2.176,-0.40533 -1.45067,0 -2.28266,0.98133 -0.832,0.98133 -0.832,3.07199 0,0.896 0.14933,1.64267 0.14933,0.74666 0.46933,1.28 0.32,0.53333 0.832,0.832 0.512,0.29866 1.25867,0.29866 z"
           style="text-align:center;text-anchor:middle"
           id="path361" />
        <path
           d="m 236.44268,163.87582 q -0.64,0.512 -1.62133,0.81067 -0.96,0.29867 -2.04799,0.29867 -1.216,0 -2.112,-0.384 -0.896,-0.40534 -1.472,-1.13067 -0.576,-0.74666 -0.85333,-1.77066 -0.27733,-1.024 -0.27733,-2.304 0,-2.73066 1.21599,-4.15999 1.216,-1.42933 3.47733,-1.42933 0.72533,0 1.45067,0.17066 0.72533,0.14934 1.30133,0.59734 0.576,0.448 0.93866,1.27999 0.36267,0.81067 0.36267,2.15467 0,0.704 -0.128,1.55733 h -6.84799 q 0,0.93866 0.192,1.664 0.192,0.72533 0.59733,1.23733 0.40534,0.49066 1.04533,0.768 0.66134,0.256 1.6,0.256 0.72533,0 1.45067,-0.256 0.72533,-0.256 1.08799,-0.59734 z m -3.66932,-8.57598 q -1.25867,0 -2.02667,0.66133 -0.74666,0.66133 -0.896,2.26133 h 5.29066 q 0,-1.62133 -0.61866,-2.26133 -0.61867,-0.66133 -1.74933,-0.66133 z"
           style="text-align:center;text-anchor:middle"
           id="path363" />
        <path
           d="m 245.55199,154.06251 h 1.70667 v 10.66665 h -1.70667 z m -0.36266,-3.24266 q 0,-0.49067 0.32,-0.832 0.34133,-0.36267 0.85333,-0.36267 0.512,0 0.87466,0.36267 0.36267,0.34133 0.36267,0.832 0,0.49066 -0.36267,0.81066 -0.36266,0.32 -0.87466,0.32 -0.512,0 -0.85333,-0.32 -0.32,-0.32 -0.32,-0.81066 z"
           style="text-align:center;text-anchor:middle"
           id="path365" />
        <path
           d="m 257.75463,164.72916 v -6.07999 q 0,-1.664 -0.49066,-2.496 -0.46934,-0.85333 -1.74933,-0.85333 -1.13067,0 -1.87733,0.61866 -0.72534,0.59734 -1.024,1.51467 v 7.29599 h -1.70667 v -10.66665 h 1.19467 l 0.32,1.30133 h 0.0853 q 0.512,-0.68267 1.36533,-1.10933 0.87467,-0.448 2.06933,-0.448 0.87467,0 1.536,0.21333 0.66133,0.192 1.088,0.704 0.448,0.512 0.66133,1.38666 0.23467,0.85334 0.23467,2.176 v 6.44266 z"
           style="text-align:center;text-anchor:middle"
           id="path367" />
        <path
           d="m 268.93331,163.15049 h 2.98666 v -10.32531 l 0.21333,-1.25867 -0.85333,1.00267 -2.34666,1.68533 -0.81067,-1.088 4.69333,-3.62666 h 0.768 v 13.61064 h 2.92266 v 1.57867 h -7.57332 z"
           style="text-align:center;text-anchor:middle"
           id="path369" />
        <path
           d="m 279.17329,157.2625 q 0,-3.83999 1.23733,-5.78132 1.25867,-1.94133 3.648,-1.94133 2.58133,0 3.73333,1.91999 1.17333,1.89867 1.17333,5.80266 0,3.84 -1.25867,5.78133 -1.23733,1.94133 -3.64799,1.94133 -2.53866,0 -3.712,-2.02667 -1.17333,-2.02666 -1.17333,-5.69599 z m 1.77067,0 q 0,1.38667 0.17066,2.53866 0.192,1.13067 0.576,1.96267 0.384,0.81066 0.96,1.28 0.59733,0.448 1.408,0.448 1.62133,0 2.36799,-1.49334 0.768,-1.51466 0.768,-4.73599 0,-1.36533 -0.17066,-2.51733 -0.14934,-1.152 -0.53334,-1.98399 -0.36266,-0.832 -0.95999,-1.28 -0.59734,-0.448 -1.472,-0.448 -1.6,0 -2.368,1.51466 -0.74666,1.51467 -0.74666,4.71466 z"
           style="text-align:center;text-anchor:middle"
           id="path371" />
        <path
           d="m 290.79994,157.2625 q 0,-3.83999 1.23733,-5.78132 1.25867,-1.94133 3.648,-1.94133 2.58133,0 3.73332,1.91999 1.17334,1.89867 1.17334,5.80266 0,3.84 -1.25867,5.78133 -1.23733,1.94133 -3.64799,1.94133 -2.53867,0 -3.712,-2.02667 -1.17333,-2.02666 -1.17333,-5.69599 z m 1.77066,0 q 0,1.38667 0.17067,2.53866 0.192,1.13067 0.576,1.96267 0.384,0.81066 0.96,1.28 0.59733,0.448 1.408,0.448 1.62133,0 2.36799,-1.49334 0.768,-1.51466 0.768,-4.73599 0,-1.36533 -0.17067,-2.51733 -0.14933,-1.152 -0.53333,-1.98399 -0.36266,-0.832 -0.96,-1.28 -0.59733,-0.448 -1.47199,-0.448 -1.6,0 -2.368,1.51466 -0.74667,1.51467 -0.74667,4.71466 z"
           style="text-align:center;text-anchor:middle"
           id="path373" />
        <path
           d="m 309.40259,164.72916 v -6.03733 q 0,-0.85333 -0.0853,-1.47199 -0.064,-0.64 -0.27733,-1.06667 -0.21333,-0.42667 -0.61867,-0.64 -0.384,-0.21333 -1.024,-0.21333 -0.98133,0 -1.64266,0.59733 -0.64,0.59733 -0.896,1.49333 v 7.33866 h -1.70666 v -10.66665 h 1.19466 l 0.32,1.30133 h 0.0853 q 0.57599,-0.68267 1.32266,-1.10933 0.768,-0.448 1.984,-0.448 1.024,0 1.66399,0.40533 0.66134,0.384 1.024,1.36533 0.49067,-0.832 1.344,-1.30133 0.87467,-0.46933 1.96266,-0.46933 0.896,0 1.51467,0.21333 0.61866,0.192 1.024,0.704 0.40533,0.512 0.576,1.38666 0.192,0.87467 0.192,2.21867 v 6.39999 h -1.70667 v -6.42133 q 0,-0.768 -0.0853,-1.32266 -0.064,-0.576 -0.29867,-0.93867 -0.21333,-0.384 -0.61866,-0.55466 -0.384,-0.192 -1.024,-0.192 -1.06667,0 -1.664,0.59733 -0.59733,0.59733 -0.85333,1.70666 v 7.12533 z"
           style="text-align:center;text-anchor:middle"
           id="path375" />
      </g>
      <rect
         style="fill:#000000;fill-opacity:0;fill-rule:evenodd;stroke:#f1372a;stroke-width:3.40925;stroke-dasharray:none;stroke-dashoffset:0;stroke-opacity:1"
         id="rect11577"
         width="16.712738"
         height="16.712738"
         x="-202.69173"
         y="353.89352"
         transform="rotate(-45)" />
      <g
         id="g11643"
         transform="matrix(0,-4.0198431,4.2951119,0,-337.23248,1730.4672)">
        <path
           style="fill:none;fill-opacity:1;fill-rule:evenodd;stroke:#f1372a;stroke-width:1.05833;stroke-dasharray:none;stroke-dashoffset:0;stroke-opacity:1"
           d="m 321.15477,106.15928 h 8.48104"
           id="path11639"
           sodipodi:nodetypes="cc" />
        <path
           style="fill:none;fill-opacity:1;fill-rule:evenodd;stroke:#f1372a;stroke-width:1.05833;stroke-dasharray:none;stroke-dashoffset:0;stroke-opacity:1"
           d="m 329.63581,106.15928 v 0"
           id="path11641"
           sodipodi:nodetypes="cc" />
      </g>
      <g
         id="g11649"
         transform="matrix(4.1169811,0,0,4.2951119,-1002.7145,-18.76341)">
        <path
           style="fill:none;fill-opacity:1;fill-rule:evenodd;stroke:#f1372a;stroke-width:1.05833;stroke-dasharray:none;stroke-dashoffset:0;stroke-opacity:1"
           d="m 275.00019,106.15928 h 54.63562"
           id="path11645"
           sodipodi:nodetypes="cc" />
        <path
           style="fill:none;fill-opacity:1;fill-rule:evenodd;stroke:#f1372a;stroke-width:1.05833;stroke-dasharray:none;stroke-dashoffset:0;stroke-opacity:1"
           d="m 272.39573,106.15928 h 57.24008"
           id="path11647"
           sodipodi:nodetypes="cc" />
      </g>
      <g
         aria-label="Target Height Indicator"
         id="text11653"
         style="font-size:21.3333px;font-family:'PT Sans';-inkscape-font-specification:'PT Sans';text-align:end;text-anchor:end;fill:#f1372a;fill-rule:evenodd;stroke-width:20.7454">
        <path
           d="m 156.09078,414.3652 h -4.65066 v 13.35465 h -1.77066 V 414.3652 h -4.65066 v -1.57866 h 11.07198 z"
           style="text-align:center;text-anchor:middle"
           id="path378" />
        <path
           d="m 155.7068,417.84253 q 0.81066,-0.49066 1.87733,-0.72533 1.088,-0.23467 2.26133,-0.23467 1.10933,0 1.77066,0.29867 0.68267,0.29866 1.024,0.78933 0.36267,0.46933 0.46933,1.04533 0.128,0.576 0.128,1.152 0,1.28 -0.064,2.496 -0.064,1.21599 -0.064,2.30399 0,0.78934 0.064,1.49333 0.064,0.704 0.23467,1.30134 h -1.25866 l -0.448,-1.49334 h -0.10667 q -0.192,0.29867 -0.49067,0.59734 -0.27733,0.27733 -0.68266,0.512 -0.40533,0.21333 -0.93867,0.36266 -0.53333,0.14934 -1.216,0.14934 -0.68266,0 -1.27999,-0.21334 -0.576,-0.21333 -1.00267,-0.59733 -0.42666,-0.40533 -0.68266,-0.96 -0.23467,-0.55466 -0.23467,-1.25866 0,-0.93867 0.384,-1.55733 0.384,-0.64 1.06666,-1.00267 0.704,-0.384 1.664,-0.53333 0.98133,-0.17067 2.15466,-0.17067 0.29867,0 0.576,0 0.29867,0 0.59734,0.0427 0.064,-0.64 0.064,-1.152 0,-1.17333 -0.46934,-1.64266 -0.46933,-0.46934 -1.70666,-0.46934 -0.36267,0 -0.78933,0.064 -0.40534,0.0427 -0.85333,0.14934 -0.42667,0.0853 -0.832,0.23466 -0.384,0.128 -0.68267,0.29867 z m 3.02933,8.55465 q 0.59733,0 1.06666,-0.14933 0.46933,-0.17067 0.81067,-0.40533 0.34133,-0.256 0.55466,-0.55467 0.23467,-0.29866 0.34134,-0.576 v -1.77066 q -0.29867,-0.0213 -0.61867,-0.0213 -0.29867,-0.0213 -0.59733,-0.0213 -0.66133,0 -1.30133,0.0853 -0.61867,0.064 -1.10933,0.27733 -0.46934,0.192 -0.768,0.55466 -0.27734,0.34134 -0.27734,0.87467 0,0.74667 0.53334,1.23733 0.53333,0.46933 1.36533,0.46933 z"
           style="text-align:center;text-anchor:middle"
           id="path380" />
        <path
           d="m 171.49345,418.69586 q -0.64,-0.21333 -1.216,-0.21333 -0.91733,0 -1.45067,0.512 -0.53333,0.49066 -0.66133,1.25866 v 7.46666 h -1.70666 V 417.0532 h 1.19466 l 0.32,1.30133 h 0.0853 q 0.40533,-0.72533 0.95999,-1.10933 0.576,-0.40533 1.45067,-0.40533 0.61866,0 1.38666,0.21333 z"
           style="text-align:center;text-anchor:middle"
           id="path382" />
        <path
           d="m 181.88277,428.21051 q 0,2.06933 -1.10934,3.05067 -1.08799,0.98133 -3.24266,0.98133 -1.28,0 -2.06933,-0.17067 -0.768,-0.14933 -1.32266,-0.40533 l 0.448,-1.45067 q 0.49066,0.192 1.088,0.36267 0.59733,0.17067 1.55733,0.17067 0.896,0 1.45066,-0.17067 0.576,-0.14933 0.91733,-0.53333 0.34134,-0.36267 0.46934,-0.96 0.128,-0.576 0.128,-1.38666 v -1.024 h -0.0853 q -0.42666,0.61866 -1.088,0.96 -0.66133,0.31999 -1.72799,0.31999 -2.15467,0 -3.17867,-1.34399 -1.00266,-1.344 -1.00266,-4.18133 0,-2.73066 1.30133,-4.13866 1.30133,-1.42933 3.84,-1.42933 1.21599,0 2.06933,0.192 0.87466,0.192 1.55733,0.448 z m -4.288,-1.74933 q 1.088,0 1.70667,-0.53333 0.61866,-0.55466 0.87466,-1.70666 v -5.46133 q -0.85333,-0.40533 -2.17599,-0.40533 -1.45067,0 -2.28267,0.98133 -0.832,0.98133 -0.832,3.072 0,0.896 0.14934,1.64266 0.14933,0.74667 0.46933,1.28 0.32,0.53333 0.832,0.832 0.512,0.29866 1.25866,0.29866 z"
           style="text-align:center;text-anchor:middle"
           id="path384" />
        <path
           d="m 192.95476,426.86652 q -0.64,0.512 -1.62133,0.81066 -0.96,0.29867 -2.048,0.29867 -1.21599,0 -2.11199,-0.384 -0.896,-0.40533 -1.472,-1.13067 -0.576,-0.74666 -0.85333,-1.77066 -0.27733,-1.024 -0.27733,-2.304 0,-2.73066 1.21599,-4.15999 1.216,-1.42933 3.47733,-1.42933 0.72533,0 1.45067,0.17067 0.72533,0.14933 1.30133,0.59733 0.576,0.448 0.93866,1.28 0.36267,0.81066 0.36267,2.15466 0,0.704 -0.128,1.55733 h -6.84799 q 0,0.93867 0.192,1.664 0.192,0.72533 0.59733,1.23733 0.40533,0.49066 1.04533,0.768 0.66134,0.256 1.6,0.256 0.72533,0 1.45066,-0.256 0.72534,-0.256 1.088,-0.59733 z m -3.66933,-8.57599 q -1.25866,0 -2.02666,0.66133 -0.74666,0.66133 -0.896,2.26133 h 5.29066 q 0,-1.62133 -0.61866,-2.26133 -0.61867,-0.66133 -1.74934,-0.66133 z"
           style="text-align:center;text-anchor:middle"
           id="path386" />
        <path
           d="m 194.59741,417.0532 h 1.664 v -2.112 l 1.70666,-0.49066 v 2.60266 h 2.90133 v 1.49333 h -2.90133 v 5.90932 q 0,1.10934 0.27734,1.57867 0.27733,0.448 0.93866,0.448 0.55467,0 0.93867,-0.10667 0.384,-0.128 0.85333,-0.32 l 0.384,1.30133 q -0.576,0.27734 -1.25867,0.448 -0.68266,0.17067 -1.47199,0.17067 -1.30133,0 -1.83467,-0.72533 -0.53333,-0.74667 -0.53333,-2.47467 v -6.22932 h -1.664 z"
           style="text-align:center;text-anchor:middle"
           id="path388" />
        <path
           d="m 218.04273,420.87186 h -7.16799 v 6.84799 h -1.77066 v -14.93331 h 1.77066 v 6.50666 h 7.16799 v -6.50666 h 1.77067 v 14.93331 h -1.77067 z"
           style="text-align:center;text-anchor:middle"
           id="path390" />
        <path
           d="m 231.05606,426.86652 q -0.64,0.512 -1.62133,0.81066 -0.96,0.29867 -2.048,0.29867 -1.21599,0 -2.11199,-0.384 -0.896,-0.40533 -1.472,-1.13067 -0.576,-0.74666 -0.85333,-1.77066 -0.27734,-1.024 -0.27734,-2.304 0,-2.73066 1.216,-4.15999 1.216,-1.42933 3.47733,-1.42933 0.72533,0 1.45067,0.17067 0.72533,0.14933 1.30133,0.59733 0.576,0.448 0.93866,1.28 0.36267,0.81066 0.36267,2.15466 0,0.704 -0.128,1.55733 h -6.84799 q 0,0.93867 0.192,1.664 0.192,0.72533 0.59733,1.23733 0.40533,0.49066 1.04533,0.768 0.66133,0.256 1.6,0.256 0.72533,0 1.45066,-0.256 0.72534,-0.256 1.088,-0.59733 z m -3.66933,-8.57599 q -1.25866,0 -2.02666,0.66133 -0.74667,0.66133 -0.896,2.26133 h 5.29066 q 0,-1.62133 -0.61867,-2.26133 -0.61866,-0.66133 -1.74933,-0.66133 z"
           style="text-align:center;text-anchor:middle"
           id="path392" />
        <path
           d="m 234.46938,417.0532 h 1.70666 v 10.66665 h -1.70666 z m -0.36267,-3.24266 q 0,-0.49067 0.32,-0.832 0.34133,-0.36267 0.85333,-0.36267 0.512,0 0.87467,0.36267 0.36266,0.34133 0.36266,0.832 0,0.49066 -0.36266,0.81066 -0.36267,0.32 -0.87467,0.32 -0.512,0 -0.85333,-0.32 -0.32,-0.32 -0.32,-0.81066 z"
           style="text-align:center;text-anchor:middle"
           id="path394" />
        <path
           d="m 247.99468,428.21051 q 0,2.06933 -1.10933,3.05067 -1.088,0.98133 -3.24266,0.98133 -1.28,0 -2.06933,-0.17067 -0.768,-0.14933 -1.32267,-0.40533 l 0.448,-1.45067 q 0.49067,0.192 1.088,0.36267 0.59733,0.17067 1.55733,0.17067 0.896,0 1.45066,-0.17067 0.576,-0.14933 0.91734,-0.53333 0.34133,-0.36267 0.46933,-0.96 0.128,-0.576 0.128,-1.38666 v -1.024 h -0.0853 q -0.42667,0.61866 -1.088,0.96 -0.66133,0.31999 -1.728,0.31999 -2.15466,0 -3.17866,-1.34399 -1.00267,-1.344 -1.00267,-4.18133 0,-2.73066 1.30133,-4.13866 1.30134,-1.42933 3.84,-1.42933 1.216,0 2.06933,0.192 0.87466,0.192 1.55733,0.448 z m -4.28799,-1.74933 q 1.08799,0 1.70666,-0.53333 0.61867,-0.55466 0.87467,-1.70666 v -5.46133 q -0.85334,-0.40533 -2.176,-0.40533 -1.45067,0 -2.28266,0.98133 -0.832,0.98133 -0.832,3.072 0,0.896 0.14933,1.64266 0.14933,0.74667 0.46933,1.28 0.32,0.53333 0.832,0.832 0.512,0.29866 1.25867,0.29866 z"
           style="text-align:center;text-anchor:middle"
           id="path396" />
        <path
           d="m 258.12802,427.71985 v -6.07999 q 0,-0.832 -0.10667,-1.45067 -0.0853,-0.64 -0.34133,-1.04533 -0.256,-0.42666 -0.704,-0.64 -0.42667,-0.21333 -1.13067,-0.21333 -1.00266,0 -1.81333,0.66133 -0.81066,0.64 -1.04533,1.664 v 7.10399 h -1.70666 v -14.93331 h 1.70666 v 5.46132 h 0.0853 q 0.55467,-0.66133 1.32267,-1.04533 0.78933,-0.40533 1.94133,-0.40533 0.896,0 1.55733,0.21333 0.66133,0.192 1.088,0.704 0.448,0.512 0.64,1.38667 0.21333,0.85333 0.21333,2.17599 v 6.44266 z"
           style="text-align:center;text-anchor:middle"
           id="path398" />
        <path
           d="m 261.54136,417.0532 h 1.66399 v -2.112 l 1.70667,-0.49066 v 2.60266 h 2.90133 v 1.49333 h -2.90133 v 5.90932 q 0,1.10934 0.27733,1.57867 0.27733,0.448 0.93867,0.448 0.55466,0 0.93866,-0.10667 0.384,-0.128 0.85333,-0.32 l 0.384,1.30133 q -0.576,0.27734 -1.25866,0.448 -0.68267,0.17067 -1.472,0.17067 -1.30133,0 -1.83466,-0.72533 -0.53334,-0.74667 -0.53334,-2.47467 v -6.22932 h -1.66399 z"
           style="text-align:center;text-anchor:middle"
           id="path400" />
        <path
           d="m 276.45336,412.78654 h 1.77067 v 14.93331 h -1.77067 z"
           style="text-align:center;text-anchor:middle"
           id="path402" />
        <path
           d="m 288.93334,427.71985 v -6.07999 q 0,-1.664 -0.49066,-2.496 -0.46933,-0.85333 -1.74933,-0.85333 -1.13067,0 -1.87733,0.61867 -0.72533,0.59733 -1.024,1.51466 v 7.29599 h -1.70666 V 417.0532 h 1.19466 l 0.32,1.30133 h 0.0853 q 0.512,-0.68267 1.36533,-1.10933 0.87467,-0.448 2.06933,-0.448 0.87467,0 1.536,0.21333 0.66133,0.192 1.088,0.704 0.448,0.512 0.66133,1.38667 0.23467,0.85333 0.23467,2.17599 v 6.44266 z"
           style="text-align:center;text-anchor:middle"
           id="path404" />
        <path
           d="m 301.94667,424.05052 q 0,1.088 0.0213,1.984 0.0213,0.87466 0.192,1.728 h -1.152 l -0.42666,-1.51467 h -0.0853 q -0.42667,0.74667 -1.23734,1.23733 -0.81066,0.49067 -1.89866,0.49067 -2.13333,0 -3.17866,-1.344 -1.024,-1.344 -1.024,-4.20266 0,-2.73066 1.28,-4.13866 1.30133,-1.42933 3.56266,-1.42933 0.78933,0 1.23733,0.0853 0.46933,0.0853 1.00267,0.27734 v -4.43733 h 1.70666 z m -4.30933,2.432 q 1.088,0 1.728,-0.55467 0.64,-0.576 0.87467,-1.728 v -5.29065 q -0.384,-0.29867 -0.87467,-0.42667 -0.49067,-0.128 -1.30133,-0.128 -1.472,0 -2.304,0.98133 -0.832,0.96 -0.832,3.09333 0,0.87467 0.128,1.62133 0.14934,0.74667 0.46934,1.28 0.32,0.53333 0.83199,0.85333 0.53334,0.29867 1.28,0.29867 z"
           style="text-align:center;text-anchor:middle"
           id="path406" />
        <path
           d="m 305.59467,417.0532 h 1.70667 v 10.66665 h -1.70667 z m -0.36266,-3.24266 q 0,-0.49067 0.32,-0.832 0.34133,-0.36267 0.85333,-0.36267 0.512,0 0.87466,0.36267 0.36267,0.34133 0.36267,0.832 0,0.49066 -0.36267,0.81066 -0.36266,0.32 -0.87466,0.32 -0.512,0 -0.85333,-0.32 -0.32,-0.32 -0.32,-0.81066 z"
           style="text-align:center;text-anchor:middle"
           id="path408" />
        <path
           d="m 318.22398,427.01585 q -0.64,0.46933 -1.51467,0.704 -0.87466,0.256 -1.83466,0.256 -1.23733,0 -2.09066,-0.384 -0.85333,-0.40533 -1.408,-1.13067 -0.53333,-0.74666 -0.78933,-1.77066 -0.23467,-1.04533 -0.23467,-2.304 0,-2.70933 1.19467,-4.13866 1.19466,-1.45066 3.43466,-1.45066 1.024,0 1.72799,0.17067 0.72534,0.14933 1.30134,0.44799 l -0.49067,1.472 q -0.49067,-0.27733 -1.088,-0.42666 -0.59733,-0.17067 -1.28,-0.17067 -3.02933,0 -3.02933,4.09599 0,0.81067 0.14934,1.55733 0.17066,0.72534 0.53333,1.30134 0.384,0.55466 0.98133,0.89599 0.61867,0.34134 1.51467,0.34134 0.768,0 1.36533,-0.23467 0.61866,-0.23467 1.00266,-0.53333 z"
           style="text-align:center;text-anchor:middle"
           id="path410" />
        <path
           d="m 320.39998,417.84253 q 0.81067,-0.49066 1.87733,-0.72533 1.088,-0.23467 2.26133,-0.23467 1.10933,0 1.77066,0.29867 0.68267,0.29866 1.024,0.78933 0.36267,0.46933 0.46933,1.04533 0.128,0.576 0.128,1.152 0,1.28 -0.064,2.496 -0.064,1.21599 -0.064,2.30399 0,0.78934 0.064,1.49333 0.064,0.704 0.23467,1.30134 h -1.25866 l -0.448,-1.49334 h -0.10667 q -0.192,0.29867 -0.49067,0.59734 -0.27733,0.27733 -0.68266,0.512 -0.40533,0.21333 -0.93867,0.36266 -0.53333,0.14934 -1.21599,0.14934 -0.68267,0 -1.28,-0.21334 -0.576,-0.21333 -1.00267,-0.59733 -0.42666,-0.40533 -0.68266,-0.96 -0.23467,-0.55466 -0.23467,-1.25866 0,-0.93867 0.384,-1.55733 0.384,-0.64 1.06667,-1.00267 0.70399,-0.384 1.66399,-0.53333 0.98133,-0.17067 2.15467,-0.17067 0.29866,0 0.57599,0 0.29867,0 0.59734,0.0427 0.064,-0.64 0.064,-1.152 0,-1.17333 -0.46934,-1.64266 -0.46933,-0.46934 -1.70666,-0.46934 -0.36267,0 -0.78933,0.064 -0.40533,0.0427 -0.85333,0.14934 -0.42667,0.0853 -0.832,0.23466 -0.384,0.128 -0.68267,0.29867 z m 3.02933,8.55465 q 0.59733,0 1.06666,-0.14933 0.46934,-0.17067 0.81067,-0.40533 0.34133,-0.256 0.55466,-0.55467 0.23467,-0.29866 0.34134,-0.576 v -1.77066 q -0.29867,-0.0213 -0.61867,-0.0213 -0.29866,-0.0213 -0.59733,-0.0213 -0.66133,0 -1.30133,0.0853 -0.61867,0.064 -1.10933,0.27733 -0.46934,0.192 -0.768,0.55466 -0.27734,0.34134 -0.27734,0.87467 0,0.74667 0.53334,1.23733 0.53333,0.46933 1.36533,0.46933 z"
           style="text-align:center;text-anchor:middle"
           id="path412" />
        <path
           d="m 329.74398,417.0532 h 1.664 v -2.112 l 1.70666,-0.49066 v 2.60266 h 2.90133 v 1.49333 h -2.90133 v 5.90932 q 0,1.10934 0.27733,1.57867 0.27733,0.448 0.93867,0.448 0.55466,0 0.93866,-0.10667 0.384,-0.128 0.85333,-0.32 l 0.384,1.30133 q -0.576,0.27734 -1.25866,0.448 -0.68267,0.17067 -1.472,0.17067 -1.30133,0 -1.83466,-0.72533 -0.53333,-0.74667 -0.53333,-2.47467 v -6.22932 h -1.664 z"
           style="text-align:center;text-anchor:middle"
           id="path414" />
        <path
           d="m 337.55197,422.38652 q 0,-2.70933 1.19467,-4.13866 1.216,-1.45066 3.47733,-1.45066 1.19466,0 2.06933,0.40533 0.89599,0.384 1.47199,1.13067 0.576,0.72533 0.85334,1.77066 0.27733,1.024 0.27733,2.28266 0,2.70933 -1.216,4.16 -1.19466,1.42933 -3.45599,1.42933 -1.19467,0 -2.09067,-0.384 -0.87466,-0.40533 -1.45066,-1.13067 -0.576,-0.74666 -0.85333,-1.77066 -0.27734,-1.04533 -0.27734,-2.304 z m 1.77067,0 q 0,0.81067 0.14933,1.55733 0.17067,0.74667 0.512,1.30134 0.34133,0.55466 0.896,0.89599 0.55466,0.34134 1.344,0.34134 2.90132,0.0213 2.90132,-4.096 0,-0.83199 -0.17066,-1.57866 -0.14934,-0.74667 -0.49067,-1.30133 -0.34133,-0.55467 -0.896,-0.87467 -0.55466,-0.34133 -1.34399,-0.34133 -2.90133,-0.0213 -2.90133,4.09599 z"
           style="text-align:center;text-anchor:middle"
           id="path416" />
        <path
           d="m 354.61861,418.69586 q -0.64,-0.21333 -1.216,-0.21333 -0.91733,0 -1.45066,0.512 -0.53333,0.49066 -0.66133,1.25866 v 7.46666 h -1.70667 V 417.0532 h 1.19467 l 0.32,1.30133 h 0.0853 q 0.40533,-0.72533 0.96,-1.10933 0.576,-0.40533 1.45066,-0.40533 0.61867,0 1.38667,0.21333 z"
           style="text-align:center;text-anchor:middle"
           id="path418" />
      </g>
    </g>
  </g>
</svg>
