<?xml version="1.0" encoding="UTF-8" standalone="no"?>
<!-- Created with Inkscape (http://www.inkscape.org/) -->

<svg
   width="1000"
   height="1000"
   viewBox="0 0 1000 1000"
   version="1.1"
   id="SVGRoot"
   sodipodi:docname="C:\Users\Ido\AppData\Local\Temp\ink_ext_XXXXXX.svgX4LHW1"
   xml:space="preserve"
   inkscape:export-filename="RPG7.svg"
   inkscape:export-xdpi="96"
   inkscape:export-ydpi="96"
   xmlns:inkscape="http://www.inkscape.org/namespaces/inkscape"
   xmlns:sodipodi="http://sodipodi.sourceforge.net/DTD/sodipodi-0.dtd"
   xmlns="http://www.w3.org/2000/svg"
   xmlns:svg="http://www.w3.org/2000/svg"><sodipodi:namedview
     id="namedview540"
     pagecolor="#ffffff"
     bordercolor="#000000"
     borderopacity="0.25"
     inkscape:showpageshadow="2"
     inkscape:pageopacity="0.0"
     inkscape:pagecheckerboard="0"
     inkscape:deskcolor="#d1d1d1"
     inkscape:document-units="px"
     showgrid="false"
     inkscape:zoom="0.25"
     inkscape:cx="1889.5"
     inkscape:cy="1889.5"
     inkscape:window-width="2560"
     inkscape:window-height="1369"
     inkscape:window-x="3832"
     inkscape:window-y="-8"
     inkscape:window-maximized="0"
     inkscape:current-layer="layer1" /><defs
     id="defs535" /><g
     inkscape:label="Layer 1"
     inkscape:groupmode="layer"
     id="layer1"><circle
       style="fill:#eaebee;fill-opacity:1;fill-rule:evenodd;stroke-width:5.18974"
       id="path681"
       cx="500"
       cy="500"
       r="500" /><path
       style="fill:#000000"
       d="M 446,666.5 V 651 h 14 14 v -8.5 -8.5 h 25.5 25.5 v 8.47327 8.47326 l 14.75,0.27674 14.75,0.27673 0.27605,15.25 c 0.23758,13.12516 0.0634,15.25 -1.25,15.25 C 552.22815,682 552,679.83221 552,667.5 V 653 H 537.5 523 v -8.5 -8.5 h -23 -23 v 8.5 8.5 H 462.5 448 v 14.5 c 0,9 -0.37931,14.5 -1,14.5 -0.62366,0 -1,-5.83333 -1,-15.5 z m 445,-8 c 0,-0.92366 -0.93789,-1.5 -2.44098,-1.5 -3.58586,0 -3.72864,-1.11443 -0.7416,-5.78822 3.29338,-5.1531 5.18258,-5.43408 5.18258,-0.7708 0,1.89254 0.45,3.7191 1,4.05902 0.56716,0.35052 1,-0.48962 1,-1.94098 0,-3.61014 3.47442,-6.91067 5.90527,-5.60972 1.02269,0.54733 2.18245,1.79514 2.57724,2.77292 0.64523,1.59802 0.80554,1.55028 1.58543,-0.47222 0.95753,-2.48318 4.71312,-3.06894 6.73206,-1.05 1.7224,1.7224 1.48078,8.37636 -0.37143,10.22857 -2.17267,2.17268 -4.03898,1.96574 -5.87187,-0.65108 l -1.5567,-2.2225 -1.5567,2.2225 c -1.97181,2.81515 -3.81411,2.81424 -6.43894,-0.003 l -2.07356,-2.2257 -0.58203,2.2257 C 892.69367,660.27943 891,660.80272 891,658.5 Z m 10,-5.55902 C 901,650.10455 900.57959,649 899.5,649 c -1.07246,0 -1.5,1.09259 -1.5,3.83333 0,2.10834 0.28777,4.1211 0.63948,4.47282 1.33294,1.33293 2.36052,-0.56731 2.36052,-4.36517 z m 9,-0.0833 c 0,-2.77169 -0.38908,-3.89656 -1.25,-3.61386 -1.38399,0.45444 -2.21831,5.09342 -1.33164,7.40406 1.01338,2.64081 2.58164,0.33838 2.58164,-3.7902 z M 891,653 c 0,-0.55 -0.19844,-1 -0.44098,-1 -0.24254,0 -0.7191,0.45 -1.05902,1 -0.33992,0.55 -0.14148,1 0.44098,1 0.58246,0 1.05902,-0.45 1.05902,-1 z m -392,3.5 c 0,-2.12613 -0.46111,-2.5 -3.08333,-2.5 -3.82597,0 -3.48268,-2.35554 0.41045,-2.81642 2.07827,-0.24603 2.67288,-0.8578 2.67288,-2.75 0,-1.33847 0.45,-2.43358 1,-2.43358 0.55,0 1,1.09511 1,2.43358 0,1.8922 0.59461,2.50397 2.67288,2.75 3.89313,0.46088 4.23642,2.81642 0.41045,2.81642 -2.62222,0 -3.08333,0.37387 -3.08333,2.5 0,1.375 -0.45,2.5 -1,2.5 -0.55,0 -1,-1.125 -1,-2.5 z m -71,-31 V 605 h 19 19 V 593.5 582 h 34 34 v 11.5 11.5 h 19 19 v 20.5 c 0,13 -0.36585,20.5 -1,20.5 -0.63248,0 -1,-7.16667 -1,-19.5 V 607 H 550.5 531 V 595.5 584 H 500 469 V 595.5 607 H 449.5 430 v 19.5 c 0,12.33333 -0.36752,19.5 -1,19.5 -0.63415,0 -1,-7.5 -1,-20.5 z M 286,571 v -59 h 58 58 v -35 -35 h 98 98 v 35 35 h 57.5 57.5 v 59 c 0,38.66667 -0.34463,59 -1,59 -0.65507,0 -1,-19.83333 -1,-57.5 V 515 h -58 -58 v -35 -35 h -95 -95 v 35 35 h -58 -58 v 57.5 c 0,50.44444 -0.18406,57.5 -1.5,57.5 -1.31638,0 -1.5,-7.22222 -1.5,-59 z m 105,17.5 V 558 h 30 30 v -17 -17 h 49.5 49.5 v 16.98466 16.98467 l 28.75,0.26533 28.75,0.26534 v 29.91667 c 0,23.04444 -0.28714,30.01238 -1.25,30.33333 -0.9809,0.32697 -1.25,-5.84444 -1.25,-28.66667 V 561 H 576 547 V 543.5 526 h -47 -47 v 17.5 17.5 h -30 -30 v 29 c 0,18.66667 -0.35632,29 -1,29 -0.64481,0 -1,-10.83333 -1,-30.5 z M 499,610 c 0,-2.67953 -0.32678,-3 -3.05902,-3 -1.7847,0 -2.80156,-0.41658 -2.44098,-1 0.33992,-0.55 1.71648,-1 3.05902,-1 1.93705,0 2.44098,-0.51612 2.44098,-2.5 0,-1.375 0.45,-2.5 1,-2.5 0.55,0 1,1.125 1,2.5 0,1.98388 0.50393,2.5 2.44098,2.5 1.34254,0 2.7191,0.45 3.05902,1 0.36058,0.58342 -0.65628,1 -2.44098,1 -2.73224,0 -3.05902,0.32047 -3.05902,3 0,1.65 -0.45,3 -1,3 -0.55,0 -1,-1.35 -1,-3 z m 387.34508,1.45687 c -0.8262,-2.15304 0.31714,-2.98209 2.08695,-1.51328 0.8142,0.67572 1.95007,0.93829 2.52417,0.58348 C 892.68499,609.45862 892.13308,608 890,608 c -2.41895,0 -2.61735,-1.55513 -0.3596,-2.81863 1.01036,-0.56543 1.33581,-1.41084 0.84735,-2.20118 -0.61618,-0.99701 -1.07211,-0.90152 -2.04439,0.42816 -0.79651,1.08929 -1.48945,1.3261 -1.90638,0.65149 -1.08765,-1.75986 0.40869,-3.05984 3.52204,-3.05984 2.44385,0 2.94098,0.40876 2.94098,2.41821 0,1.33002 0.33605,3.24252 0.74678,4.25 0.56035,1.37449 0.8724,0.83321 1.25,-2.16821 0.47918,-3.80891 0.67042,-4 4.00322,-4 3.24769,0 3.52333,0.24427 3.82368,3.38837 0.55715,5.83243 -0.49252,8.11163 -3.73574,8.11163 -1.812,0 -3.12464,-0.64665 -3.55237,-1.75 -0.64611,-1.66667 -0.73978,-1.66667 -1.96723,0 -1.595,2.16573 -6.41857,2.30388 -7.22326,0.20687 z M 900.5,606.66667 c 0,-3.98834 -1.19775,-5.09295 -2.78827,-2.57145 -1.27123,2.01533 -0.0458,7.18282 1.57515,6.64249 0.66722,-0.22241 1.21312,-2.05438 1.21312,-4.07104 z m 4.74298,5.17631 c -1.40711,-1.40711 -1.64572,-7.65939 -0.36916,-9.67306 0.47605,-0.75092 2.085,-1.18635 3.69514,-1 3.23479,0.37439 4.45014,3.30515 3.45439,8.33008 -0.44456,2.24344 -1.21775,3.07388 -3.06594,3.29298 -1.3593,0.16113 -3.0308,-0.26637 -3.71443,-0.95 z m 4.57098,-4.1446 c 0.17268,-1.45606 -0.11048,-3.40581 -0.62924,-4.33278 -0.8467,-1.51298 -1.06656,-1.45491 -2.14899,0.56764 -1.4026,2.62078 -0.52576,7.39388 1.25115,6.81068 0.66722,-0.21899 1.3544,-1.58948 1.52708,-3.04554 z M 499,564 c 0,-2.66667 -0.33333,-3 -3,-3 -1.65,0 -3,-0.45 -3,-1 0,-0.55 1.35,-1 3,-1 2.53333,0 3,-0.38889 3,-2.5 0,-1.375 0.45,-2.5 1,-2.5 0.55,0 1,1.125 1,2.5 0,2.11111 0.46667,2.5 3,2.5 1.65,0 3,0.45 3,1 0,0.55 -1.35,1 -3,1 -2.66667,0 -3,0.33333 -3,3 0,1.65 -0.45,3 -1,3 -0.55,0 -1,-1.35 -1,-3 z m 387,1.85511 c 0,-0.69294 1.43912,-2.74469 3.19805,-4.55945 2.41923,-2.49601 2.91661,-3.581 2.04239,-4.45522 -0.87423,-0.87423 -1.53718,-0.83906 -2.72222,0.14444 -2.01134,1.66926 -3.19953,0.54098 -1.53828,-1.46071 1.62045,-1.95252 4.42008,-1.95203 6.041,10e-4 1.13448,1.36697 1.4407,1.36697 2.95118,0 3.9216,-3.549 7.30699,-0.80217 6.83899,5.54902 -0.53989,7.32688 -6.91761,8.19134 -7.62753,1.03387 l -0.31642,-3.19019 -2.39148,2.29104 c -2.32094,2.22346 -2.33199,2.30578 -0.37456,2.79103 3.57799,0.887 2.52025,2.49122 -1.85112,2.8075 -2.91384,0.21082 -4.25,-0.0886 -4.25,-0.95239 z m 14.82284,-5.90094 c -0.17756,-1.81508 -0.82928,-3.46612 -1.44827,-3.66897 -1.50184,-0.49218 -2.25348,3.80985 -1.175,6.72524 1.21173,3.27562 3.03491,1.15151 2.62327,-3.05627 z m 4.21234,5.11157 C 902.64854,560.60626 904.72583,554 908.51472,554 c 1.79879,0 4.48528,3.89322 4.48528,6.5 0,5.21971 -5.82713,8.56004 -7.96482,4.56574 z m 4.78766,-5.18858 c -0.17756,-1.85744 -0.77284,-3.27865 -1.32284,-3.15825 -1.20902,0.26467 -1.8858,4.83334 -1.04179,7.03278 1.0197,2.65729 2.72235,-0.13256 2.36463,-3.87453 z M 499,518 c 0,-2.66667 -0.33333,-3 -3,-3 -1.65,0 -3,-0.45 -3,-1 0,-0.55 1.35,-1 3,-1 2.53333,0 3,-0.38889 3,-2.5 0,-1.375 0.45,-2.5 1,-2.5 0.55,0 1,1.125 1,2.5 0,2.11111 0.46667,2.5 3,2.5 1.65,0 3,0.45 3,1 0,0.55 -1.35,1 -3,1 -2.66667,0 -3,0.33333 -3,3 0,1.65 -0.45,3 -1,3 -0.55,0 -1,-1.35 -1,-3 z m 396.62748,1.71687 c -1.35294,-0.98929 -1.68295,-2.4205 -1.44113,-6.25 0.30219,-4.78544 0.43111,-4.97822 3.52934,-5.27767 2.75353,-0.26613 3.31043,0.0667 3.87494,2.31588 l 0.65925,2.62668 1.15018,-2.30702 c 1.34529,-2.69839 4.08787,-3.49461 6.14798,-1.78487 2.25829,1.87422 1.92015,9.63919 -0.4756,10.92136 -2.47941,1.32694 -4.82008,0.40926 -5.65346,-2.2165 -0.63803,-2.01026 -0.68758,-2.01484 -1.7026,-0.15762 -1.90681,3.48894 -3.47836,4.03864 -6.0889,2.12976 z m 4.18289,-5.46687 c -0.35148,-4.2467 -3.08795,-5.31986 -3.63945,-1.42727 -0.45108,3.18382 0.45686,5.17727 2.35806,5.17727 1.22787,0 1.5208,-0.85728 1.28139,-3.75 z m 9,0.0773 c -0.34785,-4.11626 -2.29538,-5.52525 -3.2929,-2.38235 -0.87731,2.76416 0.26962,6.05505 2.11028,6.05505 1.10931,0 1.41322,-0.94383 1.18262,-3.6727 z M 888,515.94098 c 0,-2.45136 -0.39607,-3.81423 -1,-3.44098 -1.52528,0.94267 -1.19118,-1.45167 0.42857,-3.07143 C 890.11866,506.73848 891,507.86659 891,514 c 0,4.66667 -0.33333,6 -1.5,6 -1.08697,0 -1.5,-1.11767 -1.5,-4.05902 z M 498,429.28377 c -6.07661,-2.18082 -7.93706,-9.43762 -3.54545,-13.82922 C 499.53469,410.3744 508,414.01519 508,421.28023 c 0,4.95827 -5.72283,9.53856 -10,8.00354 z m 5.83219,-2.87879 c 3.33022,-2.33257 2.71177,-8.26079 -1.08219,-10.37356 -2.46952,-1.37523 -3.03048,-1.37523 -5.5,0 -3.79396,2.11277 -4.41241,8.04099 -1.08219,10.37356 C 497.42027,427.28224 499.14476,428 500,428 c 0.85524,0 2.57973,-0.71776 3.83219,-1.59502 z"
       id="path3513" /></g></svg>
