<?xml version="1.0" encoding="UTF-8" standalone="no"?>
<!-- Created with Inkscape (http://www.inkscape.org/) -->

<svg
   width="1500"
   height="1000"
   viewBox="0 0 396.875 264.58333"
   version="1.1"
   id="svg5"
   xml:space="preserve"
   inkscape:version="1.2.1 (9c6d41e410, 2022-07-14)"
   sodipodi:docname="RPG7_Scope.svg"
   inkscape:export-filename="..\..\Downloads\RPG7_Scope_Alt.svg"
   inkscape:export-xdpi="96"
   inkscape:export-ydpi="96"
   xmlns:inkscape="http://www.inkscape.org/namespaces/inkscape"
   xmlns:sodipodi="http://sodipodi.sourceforge.net/DTD/sodipodi-0.dtd"
   xmlns="http://www.w3.org/2000/svg"
   xmlns:svg="http://www.w3.org/2000/svg"><sodipodi:namedview
     id="namedview7"
     pagecolor="#4d4c4c"
     bordercolor="#000000"
     borderopacity="0.25"
     inkscape:showpageshadow="2"
     inkscape:pageopacity="0"
     inkscape:pagecheckerboard="0"
     inkscape:deskcolor="#d1d1d1"
     inkscape:document-units="mm"
     showgrid="false"
     inkscape:zoom="0.82448651"
     inkscape:cx="610.07669"
     inkscape:cy="389.33323"
     inkscape:window-width="2560"
     inkscape:window-height="1369"
     inkscape:window-x="3832"
     inkscape:window-y="-8"
     inkscape:window-maximized="1"
     inkscape:current-layer="layer1" /><defs
     id="defs2" /><g
     inkscape:label="Sight"
     inkscape:groupmode="layer"
     id="layer1"
     transform="translate(-24.999997)"><circle
       style="fill:#eaebee;fill-opacity:1;fill-rule:evenodd;stroke-width:1.37312"
       id="path681"
       cx="223.4375"
       cy="132.29167"
       r="132.29167"
       inkscape:label="Circle" /><path
       style="display:inline;fill:#2d2c2d;fill-opacity:1;stroke-width:0.264583"
       d="m 215.16059,232.44221 v -1.98437 h 0.90714 c 0.99908,0 1.73869,0.56274 1.73869,1.32291 0,0.68554 -0.71022,1.32292 -1.47411,1.32292 -0.50901,0 -0.64256,0.13748 -0.64256,0.66146 0,0.3638 -0.11906,0.66146 -0.26458,0.66146 -0.15287,0 -0.26458,-0.83785 -0.26458,-1.98438 z m 1.85208,-0.66146 c 0,-0.38805 -0.17639,-0.52916 -0.66146,-0.52916 -0.48507,0 -0.66146,0.14111 -0.66146,0.52916 0,0.38806 0.17639,0.52917 0.66146,0.52917 0.48507,0 0.66146,-0.14111 0.66146,-0.52917 z m 5.81969,-33.2493 c -5.3e-4,-17.72929 -0.0791,-44.92883 -0.17438,-60.44344 -0.0953,-15.5146 -0.0909,-28.42302 0.01,-28.68539 0.11283,-0.29403 0.27743,-0.38264 0.42908,-0.23099 0.39538,0.39538 0.44686,121.35814 0.0517,121.48986 -0.24257,0.0809 -0.31534,-7.31375 -0.31623,-32.13004 z m 1.0558,-12.19288 c -0.002,-24.41112 -0.0788,-51.71826 -0.17068,-60.68254 -0.12472,-12.17236 -0.0898,-16.34638 0.13784,-16.48708 0.16766,-0.10362 0.36273,-0.032 0.43349,0.1591 0.0708,0.19112 0.15921,12.43234 0.19657,27.2027 l 0.0679,26.85521 6.21771,0.13966 6.21771,0.13966 -6.12325,0.0588 c -4.61507,0.0443 -6.1526,0.14024 -6.24238,0.38951 -0.0655,0.1819 -0.0628,6.59616 0.006,14.25391 l 0.12525,13.92318 2.01609,-0.0663 c 1.10886,-0.0365 4.24852,-0.0809 6.97704,-0.0987 4.21894,-0.0275 4.96093,-0.0917 4.96093,-0.42925 0,-0.21828 0.1786,-0.39688 0.39688,-0.39688 0.21828,0 0.39687,0.1786 0.39687,0.39688 0,0.34349 1.01424,0.39687 7.54063,0.39687 6.52639,0 7.54062,-0.0534 7.54062,-0.39687 0,-0.21828 0.11906,-0.39688 0.26459,-0.39688 0.14552,0 0.26458,0.1786 0.26458,0.39688 0,0.34349 1.01423,0.39687 7.54062,0.39687 6.52639,0 7.54063,-0.0534 7.54063,-0.39687 0,-0.21828 0.1228,-0.39688 0.27288,-0.39688 0.1501,0 0.34143,0.1786 0.42519,0.39688 0.13033,0.33965 1.21637,0.39687 7.53232,0.39687 6.38363,0 7.38003,-0.0536 7.38003,-0.39687 0,-0.21828 0.17859,-0.39688 0.39687,-0.39688 0.21828,0 0.39688,0.1786 0.39688,0.39688 0,0.34365 1.02893,0.39687 7.67291,0.39687 6.64398,0 7.67292,-0.0532 7.67292,-0.39687 0,-0.62146 0.688,-0.46538 1.16629,0.26458 l 0.43341,0.66146 -4.83475,0.0171 c -2.65911,0.009 -20.40216,0.0199 -39.42901,0.0234 l -34.59427,0.006 -0.0342,4.14383 c -0.079,9.58215 -0.0852,13.97032 -0.0272,19.15893 l 0.0614,5.49009 h 7.01145 c 6.83507,0 7.01146,-0.0133 7.01146,-0.52916 0,-0.29398 0.17639,-0.52917 0.39688,-0.52917 0.22048,0 0.39687,0.23519 0.39687,0.52917 0,0.51674 0.17639,0.52916 7.51123,0.52916 6.80456,0 7.50777,-0.0409 7.47448,-0.43454 -0.0556,-0.6579 0.63775,-0.76337 0.80534,-0.1225 0.14362,0.54919 0.24763,0.55704 7.37302,0.55704 6.99498,0 7.23276,-0.017 7.39531,-0.52916 0.0924,-0.29104 0.29013,-0.52917 0.43947,-0.52917 0.14934,0 0.3338,0.23813 0.40991,0.52917 0.1342,0.5132 0.36089,0.52916 7.51585,0.52916 6.24708,0 7.37748,-0.0584 7.37748,-0.38126 0,-0.67584 0.59856,-0.78139 1.07744,-0.19 0.45329,0.55979 0.60618,0.57126 7.61224,0.57126 6.91728,0 7.15512,-0.0172 7.31761,-0.52916 0.23169,-0.73001 0.52954,-0.66382 1.19062,0.26458 l 0.5652,0.79375 H 264.1264 224.68547 v 4.36563 c 0,3.70416 -0.0601,4.36562 -0.39688,4.36562 -0.35119,0 -0.3973,-5.10956 -0.40055,-44.38385 z m -8.39684,41.736 c -0.86126,-0.35519 -0.73843,-0.91288 0.49603,-2.25211 0.9082,-0.98528 1.03597,-1.2507 0.76135,-1.58159 -0.47152,-0.56815 -0.771,-0.49353 -1.05895,0.26384 -0.33739,0.88741 -0.84987,0.84327 -0.74517,-0.0642 0.17908,-1.55226 2.3794,-1.68967 2.76022,-0.17237 0.1358,0.54108 -0.0203,0.86827 -0.79062,1.65716 -1.21768,1.24702 -1.2204,1.62211 -0.0117,1.62211 0.63999,0 0.91281,0.10748 0.83952,0.33073 -0.13476,0.41051 -1.45262,0.52553 -2.25063,0.19642 z m -72.03282,-6.35958 c 0,-0.1519 0.20836,-0.2412 0.46302,-0.19844 0.30912,0.0519 0.49113,-0.12013 0.54757,-0.51757 0.10479,-0.73783 0.46831,-0.77462 0.65358,-0.0661 0.13423,0.51328 0.36089,0.52916 7.55365,0.52916 7.40577,0 7.41551,-7.9e-4 7.59987,-0.5816 l 0.18459,-0.58161 0.47096,0.58161 c 0.46452,0.57365 0.57078,0.5816 7.77074,0.5816 7.12338,0 7.29977,-0.0128 7.29977,-0.52916 0,-0.29104 0.13021,-0.52917 0.28936,-0.52917 0.15914,0 0.35162,0.23813 0.42773,0.52917 0.13419,0.51314 0.3609,0.52916 7.485,0.52916 7.1241,0 7.3508,-0.016 7.48499,-0.52916 0.0761,-0.29104 0.26859,-0.52917 0.42774,-0.52917 0.15914,0 0.28935,0.23813 0.28935,0.52917 0,0.51679 0.17639,0.52916 7.54062,0.52916 7.36424,0 7.54063,-0.0124 7.54063,-0.52916 0,-0.29104 0.13021,-0.52917 0.28935,-0.52917 0.15915,0 0.35163,0.23813 0.42774,0.52917 0.13387,0.51193 0.36089,0.52916 6.97107,0.52916 4.26973,0 6.89403,0.0992 6.99621,0.26459 0.10874,0.17593 -13.05003,0.26458 -39.275,0.26458 -27.22014,0 -39.43854,-0.0856 -39.43854,-0.27618 z m 95.25,-18.8905 c 0,-0.20969 0.12222,-0.45679 0.2716,-0.54911 0.14938,-0.0923 0.23868,-0.36293 0.19844,-0.60134 -0.0402,-0.23841 0.12547,-0.47441 0.36823,-0.52445 0.33364,-0.0688 0.42341,0.0729 0.36772,0.58018 -0.1185,1.07952 -1.20599,2.06667 -1.20599,1.09472 z m -2.7648,-1.4134 c -0.36633,-0.36633 -0.061,-1.1529 0.93135,-2.39923 0.59232,-0.74394 1.00202,-1.47386 0.91042,-1.62207 -0.2788,-0.4511 -0.97034,-0.301 -1.11218,0.24141 -0.1435,0.54874 -0.8752,0.46406 -0.8752,-0.10129 0,-0.38087 0.72225,-1.05064 1.38716,-1.28637 0.57382,-0.20342 1.52325,0.75299 1.52325,1.53445 0,0.30683 -0.47625,1.02292 -1.05833,1.59131 -0.58208,0.56838 -1.05833,1.12833 -1.05833,1.24432 0,0.11599 0.40398,0.21088 0.89773,0.21088 0.49625,0 0.95724,0.15508 1.0308,0.34676 0.0979,0.2551 -0.20584,0.35188 -1.14899,0.36611 -0.70514,0.0106 -1.34759,-0.0462 -1.42768,-0.12628 z m 6.54563,-0.58659 c -0.10841,-0.41456 -0.36089,-0.52916 -1.16585,-0.52916 -0.89814,0 -1.02748,-0.0772 -1.02748,-0.61344 0,-1.04608 0.79613,-3.35531 1.15678,-3.35531 0.62974,0 0.65924,0.30485 0.14548,1.50339 -0.53018,1.23687 -0.48462,1.67161 0.17518,1.67161 0.21931,0 0.45687,-0.34496 0.54663,-0.79375 0.2755,-1.37751 0.62177,-0.86179 0.62177,0.92604 0,1.70906 -0.18775,2.20306 -0.45251,1.19062 z m -25.55803,0.0824 c -0.0914,-0.14797 -0.005,-0.48994 0.1927,-0.75995 0.19744,-0.27 0.29995,-0.64473 0.2278,-0.83273 -0.0816,-0.21271 0.0794,-0.34181 0.42631,-0.34181 0.30958,0 0.55748,0.16992 0.55748,0.38212 0,0.54722 -1.20336,1.87747 -1.40429,1.55237 z m -1.0197,-1.71827 c -0.23199,-0.71546 -0.0836,-4.71122 0.17503,-4.71424 0.33701,-0.004 0.50347,4.49726 0.17834,4.82239 -0.1441,0.1441 -0.28563,0.10078 -0.35337,-0.10815 z m 2.73299,-0.23115 c -0.47842,-0.78272 0.005,-1.29654 0.63074,-0.67062 0.59542,0.59542 1.02577,0.40846 1.13146,-0.49156 0.10663,-0.90807 -0.26054,-1.30912 -1.21272,-1.32461 -0.66937,-0.0109 -0.71897,-0.0843 -0.63385,-0.93786 0.0508,-0.50933 0.14711,-1.01534 0.21405,-1.12448 0.17873,-0.2914 2.14892,-0.24212 2.33465,0.0584 0.17268,0.27941 -0.85432,0.62033 -1.46747,0.48714 -0.2089,-0.0454 -0.37982,0.0961 -0.37982,0.31436 0,0.21829 0.26552,0.43461 0.59004,0.48074 0.67877,0.0965 1.65892,1.22312 1.65892,1.90688 0,0.71756 -0.84165,1.56366 -1.7198,1.7289 -0.62665,0.11791 -0.86794,0.028 -1.1462,-0.42728 z m -74.72307,-6.6079 c 0.32743,-0.13161 0.59532,-0.42171 0.59532,-0.64469 0,-0.5263 0.46455,-0.52734 0.57591,-0.001 0.0741,0.34995 1.0431,0.40586 7.2293,0.41713 8.58109,0.0156 7.8052,0.0578 7.8052,-0.42437 0,-0.50916 0.51695,-0.51191 0.89688,-0.005 0.24615,0.32857 1.42983,0.39419 7.30521,0.405 3.8563,0.007 7.16028,0.009 7.34218,0.005 0.18191,-0.004 0.33073,-0.18673 0.33073,-0.40501 0,-0.21828 0.1786,-0.39687 0.39688,-0.39687 0.21828,0 0.39687,0.17859 0.39687,0.39687 0,0.34333 0.99954,0.39688 7.40834,0.39688 6.40879,0 7.40833,-0.0536 7.40833,-0.39688 0,-0.21828 0.17859,-0.39687 0.39687,-0.39687 0.21829,0 0.39688,0.17859 0.39688,0.39687 0,0.34276 0.95303,0.39688 6.98982,0.39688 3.8444,0 7.18525,0.075 7.42412,0.16665 0.3007,0.1154 0.47962,-0.007 0.58166,-0.39687 0.167,-0.63859 0.8794,-0.77359 0.8794,-0.16662 0,0.34258 0.93901,0.39687 6.86355,0.39687 4.2903,0 6.92486,0.0992 7.02707,0.26459 0.10876,0.17596 -13.06782,0.25896 -39.34115,0.24781 -23.83275,-0.0101 -39.26851,-0.1117 -38.90937,-0.25606 z m 147.55578,-3.5586 c -0.44178,-0.33706 -0.45851,-0.42794 -0.11968,-0.64998 0.75355,-0.49379 3.13633,0.20246 2.76256,0.80722 -0.23422,0.37897 -2.08434,0.2689 -2.64288,-0.15724 z m -6.66515,-0.46024 c -0.63401,-0.30577 -0.75395,-0.60614 -0.34337,-0.85989 0.46762,-0.28901 4.99941,0.43155 5.14791,0.81852 0.11203,0.29196 -0.29197,0.36073 -2.03472,0.34638 -1.19598,-0.01 -2.4424,-0.1471 -2.76982,-0.30501 z m -3.93487,-0.23845 c -0.2733,-0.10735 -0.95121,-0.20356 -1.50648,-0.21378 -1.17188,-0.0216 -2.12341,-0.45222 -1.8777,-0.84979 0.15057,-0.24363 1.9403,-0.16686 3.94561,0.16924 0.29104,0.0488 0.66526,0.0986 0.83159,0.11074 0.16633,0.0121 0.36624,0.18836 0.44425,0.39164 0.16707,0.43537 -1.06021,0.69719 -1.83727,0.39195 z m -7.77294,-0.8584 c -1.84179,-0.33274 -2.38125,-0.56184 -2.38125,-1.01128 0,-0.19169 0.60109,-0.22393 1.8609,-0.0998 2.53527,0.24982 2.96071,0.34776 3.20883,0.7387 0.52721,0.83071 0.14307,0.88392 -2.68848,0.37237 z m 20.22136,0.01 c -0.23657,-0.61646 0.009,-4.94058 0.28384,-5.00774 0.15979,-0.039 0.29445,1.00966 0.33999,2.64743 0.0498,1.79126 -0.0204,2.71198 -0.20674,2.71198 -0.15518,0 -0.34287,-0.15825 -0.41709,-0.35167 z m -6.39689,-0.11033 c -0.41454,-0.13945 -0.47038,-4.03591 -0.0578,-4.03591 0.43714,0 0.55221,0.59799 0.46772,2.43056 -0.0567,1.23044 -0.17281,1.6851 -0.40988,1.60535 z m -6.87916,-0.50697 c -0.40321,-0.1627 -0.47163,-5.26271 -0.0739,-5.50852 0.14126,-0.0873 0.31557,0.11403 0.38737,0.44741 0.18385,0.85375 0.30966,5.24081 0.14956,5.21549 -0.0728,-0.0115 -0.28112,-0.081 -0.46302,-0.15438 z m -13.69219,-0.45586 c -2.16208,-0.36129 -2.65911,-0.5945 -2.26897,-1.06459 0.21372,-0.25752 0.70084,-0.25252 2.32795,0.0239 2.54003,0.43145 2.71915,0.49746 2.71915,1.00206 0,0.46221 -0.22484,0.46534 -2.77813,0.0387 z m 6.65868,-0.60364 c -0.26717,-0.26717 -0.21123,-4.05694 0.0599,-4.05694 0.3641,0 0.47471,0.50852 0.53234,2.4474 0.0485,1.63102 -0.11808,2.0837 -0.59223,1.60954 z m -11.57746,-0.3732 c -0.20509,-0.12983 -0.61917,-0.23788 -0.92018,-0.2401 -1.08698,-0.008 -3.28916,-0.81478 -3.28916,-1.20493 0,-0.44594 0.54077,-0.48609 1.85208,-0.1375 0.50932,0.13539 1.41981,0.37414 2.02332,0.53056 1.10391,0.28611 1.67317,0.9172 1.04483,1.15831 -0.1859,0.0713 -0.50581,0.0235 -0.71089,-0.10634 z m 4.73467,-2.95613 c -0.0952,-2.60706 -0.0538,-2.94081 0.33469,-2.70068 0.32142,0.19865 0.3219,5.14807 5.2e-4,5.14807 -0.13519,0 -0.28602,-1.10133 -0.33517,-2.44739 z m -12.64818,0.68356 c -3.03567,-1.19979 -3.175,-1.27035 -3.175,-1.60805 0,-0.43944 0.93432,-0.4229 1.81126,0.0321 0.38625,0.20039 1.29666,0.59095 2.02312,0.8679 0.77081,0.29386 1.35732,0.69302 1.40846,0.95856 0.11183,0.5807 0.001,0.56731 -2.06784,-0.25048 z m 5.82083,-1.52784 c 0,-1.08282 0.11906,-2.04235 0.26459,-2.13229 0.16465,-0.10176 0.26594,0.417 0.26819,1.37345 0.002,0.84533 0.0754,1.80486 0.16315,2.13228 0.11729,0.43766 0.0463,0.59531 -0.26819,0.59531 -0.3556,0 -0.42774,-0.33201 -0.42774,-1.96875 z m -6.70277,-0.3243 c -0.097,-0.097 -0.17639,-1.23803 -0.17639,-2.53559 0,-1.76943 0.0827,-2.3318 0.33072,-2.24961 0.22479,0.0745 0.3551,0.88669 0.40681,2.53559 0.0693,2.2083 -0.0649,2.7459 -0.56114,2.24961 z m 41.09861,-0.35278 c -0.42541,-0.42541 -0.52917,-0.88194 -0.52917,-2.32833 0,-1.04658 0.13281,-1.93198 0.3175,-2.11667 0.47356,-0.47356 1.65741,-0.38352 2.15265,0.16372 0.5602,0.61901 0.65628,3.41339 0.14549,4.2313 -0.45135,0.72273 -1.39122,0.74524 -2.08647,0.05 z m 1.48742,-0.58129 c 0.25895,-0.419 0.12469,-2.92451 -0.17311,-3.23073 -0.44081,-0.45324 -1.04973,0.4056 -1.04973,1.48056 0,1.58914 0.70169,2.59341 1.22284,1.75017 z m -4.4169,0.80178 c -0.0105,-0.0485 -0.0403,-1.19253 -0.0661,-2.54227 -0.0385,-2.00492 0.0223,-2.4407 0.33197,-2.38106 0.51114,0.0985 0.59048,4.72784 0.084,4.89946 -0.1819,0.0616 -0.33931,0.0724 -0.34979,0.0239 z m -44.60471,-1.76249 c -1.32515,-0.87015 -2.48494,-1.70437 -2.57732,-1.85384 -0.348,-0.56308 0.45071,-0.61419 1.12386,-0.0719 0.38565,0.31067 0.99721,0.712 1.35902,0.89184 0.3618,0.17983 0.83805,0.48194 1.05833,0.67134 0.22028,0.18941 0.6853,0.55542 1.03337,0.81337 0.34808,0.25795 0.5832,0.61802 0.52249,0.80015 -0.0717,0.21504 -0.95509,-0.22352 -2.51975,-1.25093 z m 32.71007,0.60699 c -0.52009,-0.62667 -0.35055,-4.09478 0.22127,-4.52642 0.49681,-0.37502 1.27613,-0.23372 1.94499,0.35264 0.31898,0.27963 0.3846,0.57853 0.23999,1.09318 -0.10946,0.38958 -0.14498,1.15644 -0.0789,1.70415 0.0693,0.57495 -0.0178,1.16203 -0.20624,1.38906 -0.4254,0.51258 -1.69147,0.50505 -2.12109,-0.0126 z m 1.56718,-0.86518 c 0.3579,-0.66876 -0.0418,-1.20778 -0.73295,-0.98842 -0.59343,0.18835 -0.66228,0.36786 -0.4016,1.04718 0.2155,0.56158 0.81929,0.53031 1.13455,-0.0588 z m 0.0278,-2.52134 c 0,-0.55873 -0.29383,-0.70852 -0.82854,-0.42235 -0.69943,0.37432 -0.61304,0.77513 0.16708,0.77513 0.37483,0 0.66146,-0.15287 0.66146,-0.35278 z m -14.68438,2.41787 c -0.81766,-0.46367 -0.91793,-0.74707 -0.91793,-2.59426 0,-1.89704 0.12561,-2.2279 0.94251,-2.48251 0.70441,-0.21955 2.14301,0.81763 1.72034,1.24031 -0.19322,0.19321 -0.44432,0.12596 -0.82878,-0.22197 -0.47108,-0.42632 -0.58654,-0.44278 -0.79122,-0.11281 -0.18302,0.29506 -0.0556,0.43466 0.53921,0.59078 0.97927,0.25702 1.40838,1.03277 1.17613,2.1262 -0.16984,0.79959 -0.81153,1.77986 -1.15366,1.76238 -0.0866,-0.004 -0.39555,-0.14308 -0.6866,-0.30812 z m 1.14034,-1.58653 c 0.0562,-0.48481 -0.0786,-0.79352 -0.42823,-0.98062 -0.28063,-0.15019 -0.58542,-0.19789 -0.67732,-0.10599 -0.2262,0.2262 -0.21253,1.53274 0.0185,1.76372 0.38807,0.38807 1.00842,0.002 1.08709,-0.67711 z m -21.03462,0.24905 c -0.36742,-0.56771 -0.27514,-3.63803 0.10935,-3.63803 0.38886,0 0.40603,0.0897 0.44293,2.31396 0.0269,1.6201 -0.125,1.98424 -0.55228,1.32407 z m 7.40324,-2.31511 c -0.0833,-0.31857 -0.36302,-0.53078 -0.70284,-0.53322 -1.26565,-0.009 -1.39614,-0.34487 -0.88753,-2.28402 0.52035,-1.98398 0.56662,-2.07125 0.96694,-1.82385 0.37647,0.23268 0.33842,1.11098 -0.1016,2.34481 -0.31546,0.88455 -0.31129,0.99212 0.0332,0.8599 0.2166,-0.0831 0.4436,-0.15112 0.50446,-0.15112 0.0609,0 0.11066,-0.35719 0.11066,-0.79375 0,-0.75008 0.33636,-1.05518 0.63341,-0.57455 0.0745,0.12056 0.21383,0.954 0.30961,1.85208 0.15255,1.43036 0.1182,1.63289 -0.27691,1.63289 -0.24809,0 -0.51334,-0.23813 -0.58945,-0.52917 z m -13.10739,-1.31587 c -1.24608,-1.56272 -1.56302,-2.26773 -0.92604,-2.0599 0.3725,0.12153 2.84427,3.10127 2.84427,3.42879 0,0.60497 -0.79892,0.0348 -1.91823,-1.36889 z m -1.08038,-2.82927 c -0.097,-0.097 -0.17639,-1.2839 -0.17639,-2.63753 0,-2.07898 0.0616,-2.43749 0.39687,-2.30884 0.3138,0.12041 0.39688,0.67251 0.39688,2.63753 0,2.27824 -0.13671,2.7895 -0.61736,2.30884 z m -23.26739,-0.55121 c -0.0569,-0.10914 -0.0937,-1.20055 -0.0818,-2.42536 0.0149,-1.53009 0.1252,-2.26141 0.35244,-2.33715 0.24925,-0.0831 0.33073,0.51448 0.33073,2.42536 0,2.19168 -0.22378,3.06134 -0.60141,2.33715 z m 22.20905,-5.00504 c -0.4598,-0.45979 -0.11673,-1.53718 0.74965,-2.35429 1.39154,-1.31238 1.19307,-2.23653 -0.27389,-1.27535 -0.61666,0.40406 -0.65215,0.39909 -0.65215,-0.0913 0,-0.28522 0.24626,-0.74145 0.54725,-1.01384 0.49549,-0.44841 0.61257,-0.45855 1.23793,-0.10716 0.37988,0.21346 0.77738,0.7126 0.88334,1.1092 0.16198,0.60628 0.0276,0.90121 -0.84408,1.85209 l -1.03673,1.13098 0.92906,0.0821 c 1.42519,0.12597 1.24019,0.84392 -0.21746,0.84392 -0.63059,0 -1.22591,-0.0794 -1.32292,-0.17639 z m -94.16962,-1.94852 c 0.32743,-0.13161 0.59532,-0.42172 0.59532,-0.64469 0,-0.58809 0.44336,-0.49751 0.60583,0.12377 0.13423,0.51332 0.36089,0.52916 7.57148,0.52916 7.44489,0 7.59743,-0.0176 7.46444,-0.85989 -0.0731,-0.46323 0.82439,-0.15088 0.95033,0.33073 0.13412,0.51287 0.3609,0.52916 7.36574,0.52916 6.99498,0 7.23275,-0.017 7.3953,-0.52916 0.0924,-0.29104 0.33852,-0.52917 0.547,-0.52917 0.20847,0 0.37904,0.23813 0.37904,0.52917 0,0.51657 0.17639,0.52916 7.40834,0.52916 7.23194,0 7.40833,-0.0126 7.40833,-0.52916 0,-0.29104 0.16471,-0.52917 0.36602,-0.52917 0.2013,0 0.42828,0.23813 0.50439,0.52917 0.13424,0.51332 0.3609,0.52916 7.57149,0.52916 7.25671,0 7.4331,-0.0126 7.4331,-0.52916 0,-0.29398 0.17639,-0.52917 0.39687,-0.52917 0.22623,0 0.39688,0.23785 0.39688,0.55315 0,0.54923 0.0486,0.55251 6.85703,0.46302 3.77137,-0.0496 6.94637,-8e-4 7.05555,0.10831 0.10919,0.10914 -17.59139,0.19089 -39.33463,0.18167 -23.84973,-0.0101 -39.29699,-0.1117 -38.93785,-0.25606 z m 97.49411,0.12334 c 0.0822,-0.0822 2.98933,-0.21431 6.46024,-0.29353 4.99722,-0.11405 6.3548,-0.22062 6.52234,-0.51196 0.28244,-0.49116 0.97904,-0.47057 0.97904,0.0289 0,0.34303 0.97425,0.39687 7.18073,0.39687 6.52529,0 7.21358,-0.0423 7.54063,-0.46302 0.34276,-0.44097 0.37703,-0.44097 0.71979,0 0.32733,0.42112 1.02163,0.46302 7.67292,0.46302 6.32407,0 7.31302,-0.0537 7.31302,-0.39687 0,-0.22253 0.2361,-0.39688 0.53746,-0.39688 0.29562,0 0.60601,0.1786 0.68977,0.39688 0.13023,0.33936 1.19853,0.39687 7.37172,0.39687 6.1732,0 7.2415,-0.0575 7.37173,-0.39687 0.23006,-0.59956 0.8494,-0.47683 1.33519,0.26458 l 0.43341,0.66146 h -31.13874 c -17.12631,0 -31.07147,-0.0673 -30.98925,-0.14949 z m -97.97233,-10.46225 c -0.42139,-0.78737 0.12714,-1.33983 0.63741,-0.64199 0.4649,0.63578 1.23122,0.35711 1.22583,-0.44578 -0.006,-0.93782 -0.37301,-1.30543 -1.2123,-1.21528 -0.74609,0.0801 -0.76803,0.0485 -0.76803,-1.10813 v -1.19062 l 1.25677,-0.0806 c 0.97464,-0.0625 1.25677,0.008 1.25677,0.31476 0,0.2604 -0.31807,0.42344 -0.93156,0.47752 -1.10424,0.0973 -1.20598,0.53225 -0.18819,0.80445 0.93467,0.24997 1.38434,0.88632 1.38434,1.95907 0,1.47463 -2.01763,2.32887 -2.66104,1.12665 z m 17.69454,-0.0377 c -0.0725,-0.5106 -0.22274,-0.58465 -1.05566,-0.52034 -0.53412,0.0412 -1.02857,-0.0183 -1.09877,-0.1323 -0.0702,-0.11399 0.14235,-1.04069 0.47235,-2.05934 0.40018,-1.23526 0.7526,-1.88221 1.05817,-1.94255 0.49844,-0.0984 0.44989,0.2432 -0.29215,2.05554 -0.40605,0.99172 -0.16225,1.52635 0.56821,1.24605 0.28668,-0.11001 0.40484,-0.40562 0.34851,-0.87194 -0.10473,-0.86714 0.46698,-1.14291 0.62136,-0.29972 0.16351,0.89304 -0.0634,3.11991 -0.31793,3.11991 -0.12075,0 -0.25759,-0.26789 -0.30409,-0.59531 z m 140.35781,-0.0477 c -0.60831,-0.52694 -0.68065,-0.7057 -0.40061,-0.98998 0.2165,-0.21977 0.41043,-0.25076 0.52917,-0.0846 0.10308,0.14431 0.38747,0.41889 0.63199,0.61019 0.37799,0.29572 0.48492,0.27241 0.71402,-0.15567 0.14819,-0.27691 0.20214,-0.76084 0.11988,-1.07541 -0.11591,-0.44323 -0.34989,-0.57195 -1.03971,-0.57195 -0.72107,0 -0.92067,-0.12166 -1.0509,-0.64053 -0.32001,-1.27501 -0.0725,-1.60227 1.27754,-1.68907 0.99285,-0.0638 1.25439,0.005 1.25439,0.33073 0,0.29557 -0.26688,0.41137 -0.94809,0.41137 -1.08209,0 -1.15354,0.60102 -0.0895,0.75296 1.00664,0.14375 1.30219,0.54728 1.30219,1.77798 0,0.88144 -0.13465,1.23754 -0.58804,1.5551 -0.76618,0.53666 -0.83694,0.5271 -1.71231,-0.23117 z m -126.23423,0.061 c -0.37969,-0.37969 -0.41754,-1.17694 -0.0662,-1.39409 0.13822,-0.0854 0.38053,0.0861 0.53847,0.38126 0.15795,0.29512 0.46157,0.53658 0.67474,0.53658 0.61237,0 0.4631,-1.20521 -0.20775,-1.67739 l -0.59531,-0.41901 0.59531,-0.17329 c 0.61704,-0.1796 0.81416,-1.00341 0.31406,-1.31249 -0.15469,-0.0956 -0.51469,0.0374 -0.8,0.29563 -0.34583,0.31298 -0.60694,0.38127 -0.78333,0.20488 -0.33742,-0.33742 0.41195,-1.0185 1.3706,-1.24569 0.58526,-0.1387 0.74283,-0.0492 0.98558,0.55978 0.42444,1.0648 0.45563,3.66072 0.0498,4.14965 -0.4051,0.48812 -1.62668,0.54353 -2.07603,0.0942 z m 15.5575,-0.39895 c 0,-0.46681 0.33503,-1.05956 0.96151,-1.70113 0.61092,-0.62564 0.90337,-1.13619 0.80206,-1.40021 -0.22657,-0.59041 -0.99331,-0.51516 -1.15774,0.11362 -0.1513,0.57857 -0.87041,0.7365 -0.87041,0.19117 0,-0.70546 0.82758,-1.51409 1.54958,-1.51409 1.62356,0 1.853,1.53584 0.43479,2.91042 -0.50932,0.49366 -0.92604,0.99326 -0.92604,1.11024 0,0.11697 0.41672,0.21268 0.92604,0.21268 0.64676,0 0.92604,0.11969 0.92604,0.39687 0,0.29986 -0.32338,0.39688 -1.32291,0.39688 -1.2618,0 -1.32292,-0.0331 -1.32292,-0.71645 z m 16.93333,-1.79709 c 0,-1.92852 0.0813,-2.53053 0.33073,-2.4474 0.2313,0.0771 0.33073,0.81286 0.33073,2.4474 0,1.63453 -0.0994,2.37029 -0.33073,2.44739 -0.24938,0.0831 -0.33073,-0.51887 -0.33073,-2.44739 z m 45.96151,2.34935 c -0.43647,-0.43647 -0.11472,-1.36592 0.8568,-2.47511 0.74176,-0.84687 0.96113,-1.27566 0.77027,-1.50563 -0.3155,-0.38015 -0.92128,-0.2031 -1.12544,0.32893 -0.20581,0.53633 -0.69022,0.46627 -0.69022,-0.0998 0,-0.93545 1.07323,-1.39351 2.22732,-0.95065 0.71442,0.27415 0.48653,1.53133 -0.5037,2.77873 l -0.92221,1.16172 0.93097,0.13229 c 0.51204,0.0728 0.9568,0.25135 0.98836,0.39687 0.066,0.30439 -2.24782,0.51702 -2.53215,0.23269 z m 15.85971,-0.31967 c -0.46546,-0.51432 -0.59376,-1.36823 -0.20557,-1.36823 0.12777,0 0.42221,0.2679 0.65431,0.59532 0.4149,0.58529 0.42881,0.58666 0.82602,0.0817 0.55496,-0.70547 0.5104,-0.91427 -0.25744,-1.2062 -0.79698,-0.30302 -0.85452,-0.68155 -0.13229,-0.87041 0.56386,-0.14746 0.71553,-0.83527 0.24791,-1.12427 -0.15469,-0.0956 -0.50939,0.0326 -0.78823,0.28498 -0.47609,0.43086 -0.51752,0.43135 -0.67992,0.008 -0.20791,-0.54182 0.0686,-0.8513 0.95566,-1.06964 1.17709,-0.28974 1.57191,0.29919 1.64987,2.46097 0.0599,1.66188 -0.003,1.99247 -0.44367,2.3151 -0.69457,0.509 -1.30104,0.47332 -1.82665,-0.10748 z m -30.68858,0.0429 c -0.097,-0.097 -0.17639,-1.16857 -0.17639,-2.38124 0,-1.78349 0.0759,-2.20487 0.39688,-2.20487 0.32338,0 0.39687,0.44098 0.39687,2.38125 0,2.18402 -0.1396,2.68262 -0.61736,2.20486 z m 48.43025,-0.35313 c -0.10711,-0.40961 -0.36089,-0.52917 -1.12328,-0.52917 H 285.207 l 0.17686,-1.33327 c 0.23585,-1.77791 0.58577,-2.63548 1.07539,-2.63548 0.5015,0 0.50246,0.18193 0.008,1.58241 -0.41438,1.17449 -0.34569,1.59259 0.26164,1.59259 0.21783,0 0.39785,-0.346 0.4474,-0.85989 0.14278,-1.48077 0.60841,-0.81313 0.69031,0.98979 0.0741,1.63158 -0.25244,2.33766 -0.55177,1.19302 z m -149.29509,-4.61515 c -0.55777,-0.85127 -0.30908,-1.1962 0.39986,-0.55461 0.65848,0.59591 1.22579,0.38813 1.39785,-0.51199 0.17491,-0.91495 -0.43491,-1.56503 -1.12277,-1.19689 -0.91472,0.48954 -1.08973,0.31679 -1.0057,-0.99272 l 0.0806,-1.25677 h 1.25677 c 1.45289,0 1.72195,0.48914 0.33626,0.61129 -1.08813,0.0959 -1.33356,0.84392 -0.27691,0.84392 0.45736,0 0.77633,0.23527 1.05834,0.78061 0.71633,1.38523 0.33742,2.4663 -0.98036,2.79704 -0.55617,0.13959 -0.7779,0.0388 -1.14398,-0.51988 z m 168.30836,-0.034 c -0.45184,-0.45185 -0.5677,-1.43631 -0.16902,-1.43631 0.13572,0 0.32454,0.24507 0.4196,0.54459 0.23826,0.75069 1.28828,0.59089 1.40252,-0.21343 0.062,-0.43656 -0.0965,-0.66368 -0.59532,-0.85335 -0.37389,-0.14215 -0.6798,-0.39321 -0.6798,-0.5579 0,-0.16469 0.1725,-0.23325 0.38333,-0.15234 0.49446,0.18974 0.83805,-0.82866 0.41889,-1.2416 -0.23305,-0.22959 -0.39249,-0.19065 -0.65076,0.15893 -0.40139,0.54329 -0.94521,0.61179 -0.94521,0.11906 0,-0.88065 1.74563,-1.37037 2.31064,-0.64823 0.38781,0.49566 0.58163,1.50134 0.32046,1.66275 -0.12826,0.0793 -0.12018,0.42979 0.0183,0.79401 0.59714,1.57061 -1.10059,2.95686 -2.23363,1.82382 z m -98.75715,-1.1451 c -0.14326,-0.54784 -0.25052,-0.55579 -7.4945,-0.55579 -6.28852,0 -7.37115,0.0573 -7.50147,0.39687 -0.0838,0.21828 -0.32188,0.39688 -0.52916,0.39688 -0.20728,0 -0.44541,-0.1786 -0.52917,-0.39688 -0.13028,-0.3395 -1.20748,-0.39687 -7.45226,-0.39687 -4.83339,0 -7.24431,0.09 -7.13528,0.26645 0.0906,0.14655 -0.0362,0.34354 -0.28172,0.43775 -0.27748,0.10648 -0.5391,0.006 -0.69138,-0.26645 -0.21881,-0.39099 -1.03486,-0.43775 -7.64016,-0.43775 -6.39711,0 -7.39519,0.0536 -7.39519,0.39687 0,0.21828 -0.10448,0.39688 -0.23218,0.39688 -0.12771,0 -0.38041,-0.1786 -0.56157,-0.39688 -0.27836,-0.33541 -1.4717,-0.39687 -7.70531,-0.39687 -6.38,0 -7.37594,0.0536 -7.37594,0.39687 0,0.21828 -0.10632,0.39688 -0.23627,0.39688 -0.12995,0 -0.30481,-0.1786 -0.38857,-0.39688 -0.0838,-0.21828 -0.33463,-0.39687 -0.55748,-0.39687 -0.53625,0 -0.51117,-0.17294 0.12399,-0.8547 0.49309,-0.52928 0.52917,-0.93372 0.52917,-5.93276 0,-5.1674 -0.0203,-5.37562 -0.55183,-5.66009 -0.5462,-0.29231 -0.48525,-0.64933 0.11085,-0.64933 0.22267,0 0.32864,-1.49298 0.38031,-5.35781 0.0675,-5.05083 0.3128,-6.61497 0.68459,-4.36562 0.0902,0.5457 0.16531,2.9288 0.16691,5.29578 l 0.003,4.3036 7.47448,-0.0703 7.47448,-0.0703 v -5.22575 c 0,-4.00433 0.0773,-5.2257 0.33073,-5.22552 0.1819,1.3e-4 0.33451,0.14906 0.33913,0.33096 0.005,0.1819 0.0469,1.87854 0.0939,3.77031 0.047,1.89177 0.10277,4.12419 0.12389,4.96094 l 0.0384,1.52135 h 7.40833 7.40833 v -5.29166 c 0,-4.52732 0.0573,-5.29167 0.39688,-5.29167 0.45846,0 0.43925,-0.28416 0.39796,5.88698 l -0.0314,4.69635 h 7.49446 7.49447 l 0.0702,-5.21233 c 0.0386,-2.86678 0.11781,-5.25996 0.17601,-5.31816 0.0582,-0.0582 0.23282,-0.0273 0.38802,0.0686 0.1842,0.11385 0.28218,1.96048 0.28218,5.31816 v 5.14376 h 7.40834 7.40833 v -5.29166 c 0,-4.52732 0.0573,-5.29167 0.39687,-5.29167 0.33955,0 0.39688,0.76435 0.39688,5.29167 v 5.29166 h 7.01146 c 6.05602,0 7.01146,0.0541 7.01146,0.39688 0,0.34279 -0.95544,0.39687 -7.01146,0.39687 h -7.01146 v 5.82083 5.82084 h 6.90121 c 5.40332,0 6.87732,0.0718 6.7911,0.33073 -0.0834,0.25064 -1.75464,0.34783 -6.90121,0.40134 -5.66623,0.0589 -6.7911,0.13302 -6.7911,0.44741 0,0.6305 -0.55496,0.76341 -0.71013,0.17006 z m -31.56904,-7.17843 v -5.81278 h -7.38002 c -6.48555,0 -7.39949,0.0507 -7.54063,0.41852 -0.17786,0.46351 -0.22567,11.06968 -0.0507,11.2452 0.0604,0.0606 3.45373,0.0769 7.54062,0.036 l 7.43071,-0.0742 z m -15.6551,0.33465 c 0.0111,-3.02183 -0.0717,-5.64312 -0.18421,-5.8251 -0.15745,-0.25477 -1.90422,-0.31467 -7.59456,-0.26045 l -7.39008,0.0704 -0.0713,5.75469 -0.0713,5.75469 h 7.64559 7.6456 l 0.0203,-5.49424 z m 31.47058,-0.26045 -0.0728,-5.75469 -7.47448,-0.0703 -7.47448,-0.0703 v 5.64857 c 0,3.10671 0.0794,5.72794 0.17639,5.82495 0.097,0.097 3.49328,0.17639 7.54725,0.17639 h 7.37086 z m 15.66994,-0.0662 v -5.82083 h -7.40833 -7.40834 v 5.82083 5.82084 h 7.40834 7.40833 z m 31.48542,7.01586 c 0,-0.33517 -1.01435,-0.40279 -6.94532,-0.46303 -4.40679,-0.0447 -6.94531,-0.16724 -6.94531,-0.33512 0,-0.16787 2.53852,-0.29036 6.94531,-0.33512 l 6.94532,-0.0705 v -5.81212 -5.81211 l -7.07761,-0.0705 c -9.4728,-0.0943 -9.51431,-0.55366 -0.0661,-0.73193 l 7.01145,-0.13229 0.009,-4.89479 c 0.0102,-5.56327 0.0158,-5.63621 0.42264,-5.50058 0.21018,0.0701 0.29275,1.65217 0.27729,5.31371 l -0.022,5.21395 h 7.52792 7.52791 v -5.29166 c 0,-5.03658 0.0244,-5.29167 0.50657,-5.29167 0.4836,0 0.50459,0.23993 0.46302,5.29176 l -0.0435,5.29175 7.34219,-9e-5 7.34219,-9e-5 v -5.31106 c 0,-4.68105 0.0492,-5.30092 0.41444,-5.22552 0.35708,0.0737 0.42117,0.79979 0.46303,5.24492 l 0.0486,5.15937 7.31025,0.0703 c 7.25472,0.0697 7.31136,0.066 7.45698,-0.49082 0.0807,-0.3086 0.0766,-2.6917 -0.009,-5.29579 -0.14118,-4.29179 -0.11479,-4.73471 0.28207,-4.73471 0.55083,0 0.50604,-0.38402 0.57128,4.89811 0.0306,2.47568 0.14014,4.76763 0.24348,5.09323 l 0.18789,0.59199 h 7.39051 7.3905 v -5.42396 c 0,-2.98317 0.0893,-5.42213 0.19844,-5.4199 0.83346,0.017 0.90255,0.47316 0.81528,5.38295 -0.0482,2.71275 -0.006,4.93216 0.0929,4.93201 0.38337,-5.2e-4 0.47501,1.00883 0.14869,1.63782 -0.23666,0.45615 -0.36646,2.24902 -0.4204,5.80635 l -0.078,5.14643 0.67987,0.36386 c 0.81279,0.43499 0.88192,0.80361 0.15071,0.80361 -0.29398,0 -0.52917,0.17639 -0.52917,0.39687 0,0.21828 -0.17859,0.39688 -0.39687,0.39688 -0.21828,0 -0.39688,-0.1786 -0.39688,-0.39688 0,-0.34349 -1.01423,-0.39687 -7.54062,-0.39687 -6.52639,0 -7.54063,0.0534 -7.54063,0.39687 0,0.21828 -0.18233,0.39688 -0.40518,0.39688 -0.22285,0 -0.47371,-0.1786 -0.55747,-0.39688 -0.23189,-0.60429 -14.25763,-0.5925 -14.92621,0.0125 -0.4083,0.36951 -0.49233,0.36951 -0.86183,0 -0.3491,-0.34908 -1.45201,-0.40941 -7.4851,-0.40941 -6.17982,0 -7.13623,0.0548 -7.554,0.43289 -0.44288,0.4008 -0.49066,0.4008 -0.64446,0 -0.1483,-0.38648 -0.9573,-0.43289 -7.54614,-0.43289 -6.38363,0 -7.38002,0.0536 -7.38002,0.39687 0,0.21828 -0.1786,0.39688 -0.39688,0.39688 -0.21828,0 -0.39687,-0.17662 -0.39687,-0.39248 z m 15.61041,-7.01997 v -5.82496 l -7.43973,0.0703 -7.43974,0.0703 -0.0794,2.51354 c -0.0437,1.38245 -0.0121,3.97206 0.0701,5.75469 l 0.14945,3.24115 h 7.36967 7.36967 z m 15.71044,0.99522 c -0.0178,-2.65516 -0.0475,-5.27405 -0.0661,-5.81975 l -0.0339,-0.99219 h -7.2662 -7.26621 l -0.076,5.82107 -0.076,5.82107 7.40834,-0.001 7.40833,-0.001 z m 15.77498,-0.99522 v -5.82496 l -7.47448,0.0703 -7.47448,0.0703 -0.0718,5.41682 c -0.0395,2.97925 -0.0135,5.56886 0.0578,5.75469 0.10092,0.26299 1.77342,0.33787 7.54629,0.33787 h 7.41664 z m 16.01586,4.43589 c -0.0199,-0.76399 -0.0598,-3.38336 -0.0886,-5.82084 l -0.0523,-4.43177 h -7.54063 -7.54062 v 5.82083 5.82084 h 7.62919 7.62919 z m -162.33044,-8.64306 c 0,-0.4545 -0.16393,-0.55122 -0.93435,-0.55122 -0.54491,0 -0.99205,-0.15037 -1.07279,-0.36078 -0.21941,-0.57178 1.05291,-3.463 1.56756,-3.56211 0.3869,-0.0745 0.34703,0.13112 -0.26894,1.38706 -0.54072,1.10252 -0.64719,1.55054 -0.42199,1.77574 0.45691,0.45691 1.13051,0.0645 1.13051,-0.6585 0,-0.3528 0.18423,-0.71215 0.40941,-0.79856 0.347,-0.13316 0.39741,0.0912 0.33072,1.47205 -0.0487,1.00817 -0.20474,1.67077 -0.4094,1.73834 -0.19369,0.064 -0.33073,-0.1192 -0.33073,-0.44202 z m 166.46106,0.29935 c -0.60586,-0.20195 -0.27802,-1.15378 0.80033,-2.32365 1.00328,-1.08843 1.06541,-1.23434 0.68685,-1.6129 -0.45531,-0.45531 -0.99616,-0.27968 -0.99616,0.32348 0,0.20969 -0.1786,0.38125 -0.39688,0.38125 -0.48046,0 -0.52722,-0.88925 -0.0661,-1.25813 0.74674,-0.59743 1.48932,-0.62598 2.03699,-0.0783 0.76847,0.76848 0.68835,1.13634 -0.5613,2.57713 l -1.10399,1.27287 1.10399,0.0814 c 0.6072,0.0447 1.104,0.1913 1.104,0.32568 0,0.43163 -1.6542,0.62906 -2.60769,0.31123 z m 1.55771,-11.08755 c -0.005,-0.31884 0.11265,-0.65449 0.26054,-0.74589 0.14789,-0.0914 0.2004,-0.27702 0.11668,-0.41249 -0.23604,-0.38191 0.11642,-0.76928 0.54894,-0.60331 0.56622,0.21728 0.47707,0.75588 -0.2647,1.59903 -0.62408,0.70937 -0.65347,0.7166 -0.66146,0.16266 z m -169.45508,-1.29129 c -0.4445,-0.44449 -0.57021,-1.43631 -0.18205,-1.43631 0.12855,0 0.29846,0.24755 0.37758,0.5501 0.20145,0.77036 1.34137,0.59913 1.45756,-0.21894 0.062,-0.43656 -0.0964,-0.66368 -0.59531,-0.85335 -0.72312,-0.27493 -0.9275,-0.80072 -0.31124,-0.80072 0.47771,0 0.78553,-0.80382 0.44011,-1.14925 -0.17962,-0.17961 -0.43678,-0.11335 -0.78575,0.20246 -0.69898,0.63256 -1.27803,0.27984 -0.66061,-0.4024 0.5331,-0.58907 1.76273,-0.66325 2.20288,-0.13289 0.1689,0.2035 0.29266,0.76905 0.27503,1.25677 -0.0176,0.48772 0.0495,1.14794 0.14915,1.46715 0.1329,0.42567 7.9e-4,0.76069 -0.49519,1.25677 -0.77859,0.7786 -1.28384,0.84893 -1.87216,0.26061 z m 168.35737,-0.16175 c -0.22087,-0.76008 -0.0865,-4.58563 0.16331,-4.6496 0.33808,-0.0866 0.50733,4.42875 0.17834,4.75775 -0.1441,0.14409 -0.28093,0.10078 -0.34165,-0.10815 z m 2.71826,-0.3633 c -0.1683,-0.36937 -0.30599,-0.7255 -0.30599,-0.79142 0,-0.26899 0.59353,-0.0933 0.97565,0.28885 0.5617,0.5617 0.99198,0.35453 1.09555,-0.52747 0.10208,-0.86926 -0.25595,-1.3082 -1.08042,-1.32461 -0.68556,-0.0136 -0.7262,-0.0883 -0.7262,-1.33473 0,-0.91932 0.009,-0.92604 1.17501,-0.92604 0.64626,0 1.2486,0.11906 1.33853,0.26458 0.0989,0.16008 -0.2683,0.26458 -0.92982,0.26458 -0.88817,0 -1.07704,0.0847 -1.00642,0.45142 0.0478,0.24828 0.37324,0.51901 0.72316,0.60161 1.52968,0.36111 2.06193,2.51362 0.78988,3.1944 -1.1155,0.59699 -1.72535,0.54903 -2.04893,-0.16117 z m -165.49418,-1.08765 c -0.097,-0.097 -0.17639,-0.27365 -0.17639,-0.39252 0,-0.11887 17.62125,-0.20583 39.15833,-0.19324 33.33726,0.0195 39.15833,0.0778 39.15833,0.39252 0,0.31478 -5.78477,0.36963 -38.98194,0.36963 -21.44007,0 -39.06132,-0.0794 -39.15833,-0.17639 z m 81.25632,0.0427 c -0.10518,-0.11261 -0.13013,-0.30363 -0.0554,-0.4245 0.20399,-0.33005 78.62159,-0.30488 78.82565,0.0253 0.0912,0.14754 0.129,0.27117 0.084,0.27473 -1.79213,0.14178 -78.72466,0.26321 -78.85426,0.12446 z m -81.30104,-1.19026 c -0.0909,-0.14703 -0.009,-0.32684 0.18229,-0.39958 0.70362,-0.2678 78.00126,-0.002 78.06886,0.26828 0.0923,0.36922 -78.0231,0.50029 -78.25115,0.1313 z m 81.28275,0.10014 c -0.0951,-0.0951 -0.10963,-0.27541 -0.0322,-0.40063 0.20266,-0.32791 78.69073,-0.29582 78.69073,0.0322 0,0.27751 -8.5396,0.35394 -52.80267,0.47258 -14.12558,0.0379 -25.7607,-0.009 -25.85582,-0.10411 z m -33.09106,-1.07648 c -0.0931,-0.0931 -0.1692,-2.23483 -0.1692,-4.75949 v -4.5903 l -7.34218,0.0703 -7.34219,0.0703 -0.0724,4.56406 c -0.0695,4.37958 -0.094,4.56406 -0.60711,4.56406 -0.51917,0 -0.53245,-0.13466 -0.45678,-4.63053 l 0.0779,-4.63054 -7.47448,3.3e-4 -7.47448,3.3e-4 -0.0384,1.52135 c -0.0377,1.49443 -0.0509,1.95275 -0.16791,5.83645 -0.0364,1.20852 -0.15749,1.87251 -0.32284,1.77032 -0.15954,-0.0986 -0.26458,-1.94303 -0.26458,-4.64582 v -4.4823 l -0.72761,-0.002 c -0.40018,-0.001 -3.74529,-0.0791 -7.43357,-0.17322 -5.60564,-0.14302 -6.74457,-0.11012 -6.94126,0.20056 -0.12941,0.20441 -0.23712,2.37298 -0.23935,4.81904 -0.003,2.89655 -0.0963,4.39036 -0.26863,4.28386 -0.15957,-0.0986 -0.26458,-1.94579 -0.26458,-4.65412 0,-3.74758 -0.0657,-4.51581 -0.39688,-4.6429 -0.21828,-0.0838 -0.39687,-0.25862 -0.39687,-0.38858 0,-0.12995 0.17859,-0.23627 0.39687,-0.23627 0.21828,0 0.39688,-0.11906 0.39688,-0.26459 0,-0.3404 0.72156,-0.34657 0.83785,-0.007 0.12673,0.36992 14.86448,0.39288 14.98765,0.0234 0.11874,-0.35623 0.84325,-0.37013 0.84325,-0.0162 0,0.17007 2.6364,0.26459 7.38002,0.26459 6.31595,0 7.40199,-0.0572 7.53232,-0.39688 0.0838,-0.21828 0.2751,-0.39687 0.42519,-0.39687 0.15009,0 0.27288,0.17859 0.27288,0.39687 0,0.3435 1.01424,0.39688 7.54063,0.39688 6.52639,0 7.54062,-0.0534 7.54062,-0.39688 0,-0.5446 0.45565,-0.49945 0.76343,0.0756 0.23402,0.43726 0.79049,0.46984 7.45818,0.43676 6.48459,-0.0322 7.23858,-0.0813 7.53815,-0.49098 0.29612,-0.40496 0.35825,-0.40987 0.56274,-0.0445 0.19692,0.35189 1.21451,0.42088 7.10108,0.48148 4.35727,0.0448 6.87121,0.16753 6.87121,0.33531 0,0.16769 -2.48897,0.29043 -6.79659,0.33516 -7.60704,0.079 -7.18321,-0.0456 -6.96123,2.04609 0.179,1.68671 -0.18018,7.30434 -0.46104,7.21072 -0.14757,-0.0492 -0.23691,-1.78825 -0.21537,-4.19191 0.0202,-2.25932 -0.0405,-4.3093 -0.13497,-4.55552 -0.15555,-0.40535 -0.85368,-0.44766 -7.38645,-0.44766 h -7.21466 l -0.16536,0.82682 c -0.0909,0.45475 -0.16537,2.53132 -0.16537,4.61459 0,3.44837 -0.14855,4.376 -0.62455,3.9 z m 46.89612,-0.41173 c -0.0168,-0.1819 -0.0582,-0.44979 -0.092,-0.59531 -0.0338,-0.14552 -0.0796,-2.08029 -0.10177,-4.29948 l -0.0403,-4.03489 h -6.87916 c -4.40973,0 -6.87917,-0.095 -6.87917,-0.26459 0,-0.16946 2.42224,-0.26458 6.73757,-0.26458 6.46677,0 6.74894,-0.0213 7.02076,-0.52917 0.36244,-0.67722 0.71219,-0.67379 0.92894,0.009 0.16712,0.52656 0.32906,0.53664 7.43599,0.46302 6.11543,-0.0633 7.30418,-0.13806 7.51183,-0.47213 0.20336,-0.32719 0.34039,-0.3388 0.78033,-0.0661 0.67647,0.41926 14.82833,0.48239 14.82833,0.0662 0,-0.14552 0.2311,-0.26458 0.51355,-0.26458 0.28245,0 0.58714,0.11906 0.67707,0.26458 0.10247,0.1658 2.82497,0.26459 7.29166,0.26459 6.15973,0 7.12814,-0.0539 7.12814,-0.39688 0,-0.21828 0.16401,-0.39687 0.36447,-0.39687 0.20047,0 0.5127,0.17859 0.69386,0.39687 0.47354,0.57058 14.58686,0.5957 15.059,0.0268 0.24377,-0.29373 0.46876,-0.30905 1.09073,-0.0743 0.8042,0.30355 1.08262,0.97351 0.40456,0.97351 -0.58934,0 -0.67161,0.63397 -0.63981,4.93029 0.0163,2.20233 -0.0537,4.13904 -0.1555,4.30379 -0.49165,0.79552 -0.67773,-0.35791 -0.67773,-4.20097 0,-2.30784 -0.0723,-4.38441 -0.1606,-4.61459 -0.14112,-0.36775 -1.05323,-0.41852 -7.5196,-0.41852 h -7.35901 l -0.18139,0.8259 c -0.0998,0.45425 -0.10419,2.44855 -0.01,4.43177 0.0999,2.1005 0.0688,3.7581 -0.0746,3.9705 -0.59597,0.88265 -0.78003,-0.13739 -0.78577,-4.35478 -0.003,-2.4143 -0.0661,-4.44976 -0.13958,-4.52324 -0.17547,-0.17546 -14.21679,-0.10436 -14.5045,0.0734 -0.12175,0.0752 -0.22135,2.15384 -0.22135,4.6191 0,3.80788 -0.0597,4.4823 -0.39688,4.4823 -0.33615,0 -0.39687,-0.64435 -0.39687,-4.21169 0,-2.31643 -0.0723,-4.40003 -0.1606,-4.63021 -0.14103,-0.36752 -1.04287,-0.41851 -7.40208,-0.41851 h -7.24149 l -0.0724,4.54226 c -0.0533,3.34579 -0.15951,4.57124 -0.40312,4.65226 -0.25621,0.0852 -0.33073,-0.93819 -0.33073,-4.54227 v -4.65225 h -7.56494 -7.56495 l 0.0585,1.25677 c 0.1428,3.06962 -0.0264,8.00364 -0.2744,8.00364 -0.14552,0 -0.27832,-0.14883 -0.2951,-0.33073 z m -100.6054,-6.75037 c -0.72048,-0.16471 -0.36862,-1.55266 0.66358,-2.61762 0.5329,-0.54983 0.76482,-1.00286 0.6571,-1.2836 -0.18817,-0.49036 -1.09414,-0.43084 -1.09414,0.0719 0,0.45742 -0.51189,0.43751 -0.60853,-0.0237 -0.10253,-0.48932 0.64624,-1.23671 1.239,-1.23671 0.50334,0 1.61849,0.92267 1.61849,1.33913 0,0.14311 -0.47625,0.77686 -1.05833,1.40835 -0.58209,0.63148 -1.05834,1.27648 -1.05834,1.43332 0,0.15685 0.44649,0.32212 0.99219,0.36729 0.5457,0.0452 0.99219,0.20118 0.99219,0.3467 0,0.27217 -1.47034,0.39449 -2.34321,0.19494 z M 306.6754,112.1406 c -0.22087,-0.76008 -0.0865,-4.58563 0.16331,-4.6496 0.33808,-0.0866 0.50733,4.42875 0.17834,4.75775 -0.1441,0.14409 -0.28093,0.10078 -0.34165,-0.10815 z m -174.15666,-6.59396 c -0.30641,-0.65083 -0.0887,-3.75067 0.27176,-3.86961 0.18388,-0.0607 0.50676,0.51417 0.78555,1.39859 l 0.47334,1.50161 0.30322,-1.18865 c 0.65221,-2.55662 1.16839,-2.40224 1.16839,0.34946 0,1.35414 -0.0965,2.0726 -0.26458,1.96876 -0.14552,-0.0899 -0.27381,-0.66251 -0.28509,-1.27239 l -0.0205,-1.10886 -0.46482,1.3213 c -0.41381,1.17633 -0.49522,1.26342 -0.74194,0.79375 -0.15242,-0.29015 -0.37843,-0.94427 -0.50225,-1.45359 -0.22313,-0.91782 -0.22646,-0.91312 -0.37412,0.52916 -0.0963,0.94086 -0.21967,1.30508 -0.34896,1.03047 z m 177.89185,-0.34961 c 0,-0.22895 0.11906,-0.41627 0.26458,-0.41627 0.14699,0 0.26458,-0.70556 0.26458,-1.5875 v -1.5875 h 1.05834 1.05833 v 1.98437 c 0,1.14653 -0.11171,1.98438 -0.26458,1.98438 -0.14926,0 -0.26459,-0.74966 -0.26459,-1.7198 0,-1.52939 -0.0572,-1.71979 -0.51654,-1.71979 -0.44873,0 -0.52688,0.21674 -0.59531,1.65099 -0.0632,1.3244 -0.17036,1.66844 -0.54179,1.73919 -0.28216,0.0537 -0.46302,-0.0744 -0.46302,-0.32807 z M 223.27448,82.11478 c -0.097,-0.097 -0.17639,-1.57425 -0.17639,-3.28275 v -3.106361 l -3.06342,0.04442 c -1.68488,0.02442 -3.19947,-0.03967 -3.36577,-0.142447 -0.67126,-0.414858 0.26992,-0.614521 3.07777,-0.652925 1.625,-0.02222 3.04384,-0.05199 3.15298,-0.06615 0.10914,-0.01415 0.19844,-1.514017 0.19844,-3.333028 0,-2.028473 0.1023,-3.307291 0.26458,-3.307291 0.2263,0 0.37567,2.295197 0.3702,5.688541 -7.9e-4,0.436563 0.11071,0.870445 0.24758,0.964182 0.13687,0.09374 1.62655,0.18806 3.31039,0.209608 1.68384,0.02154 3.12251,0.100155 3.19704,0.174686 0.4001,0.400095 -0.97365,0.613251 -3.61974,0.561655 -1.82998,-0.03569 -2.98958,0.04388 -3.00995,0.206536 -0.0182,0.145521 -0.009,1.604036 0.0212,3.241144 0.0494,2.70503 -0.0837,3.32139 -0.60496,2.80018 z"
       id="path679"
       inkscape:label="Sight" /><text
       xml:space="preserve"
       style="font-size:9.87778px;font-family:'PT Sans';-inkscape-font-specification:'PT Sans';text-align:center;text-anchor:middle;fill:#eaebee;fill-opacity:1;fill-rule:evenodd;stroke:none;stroke-width:4.83;stroke-opacity:1"
       x="55.102535"
       y="42.90591"
       id="text5228"><tspan
         sodipodi:role="line"
         id="tspan5226"
         style="font-size:9.87778px;fill:#eaebee;fill-opacity:1;stroke-width:4.83"
         x="55.102535"
         y="42.90591">50m Boresight</tspan></text><text
       xml:space="preserve"
       style="font-size:9.87777px;font-family:'PT Sans';-inkscape-font-specification:'PT Sans';text-align:center;text-anchor:middle;fill:#eaebee;fill-opacity:1;fill-rule:evenodd;stroke:none;stroke-width:4.83;stroke-opacity:1"
       x="408.17947"
       y="90.174942"
       id="text6060"><tspan
         sodipodi:role="line"
         id="tspan6058"
         style="stroke-width:4.83"
         x="408.17947"
         y="90.174942">OG-7V</tspan></text><text
       xml:space="preserve"
       style="font-size:9.87777px;font-family:'PT Sans';-inkscape-font-specification:'PT Sans';text-align:center;text-anchor:middle;fill:#eaebee;fill-opacity:1;fill-rule:evenodd;stroke:none;stroke-width:4.83;stroke-opacity:1"
       x="406.52493"
       y="125.28107"
       id="text6064"><tspan
         sodipodi:role="line"
         id="tspan6062"
         style="stroke-width:4.83"
         x="406.52493"
         y="125.28107">PG-7VL</tspan></text><text
       xml:space="preserve"
       style="font-size:9.87777px;font-family:'PT Sans';-inkscape-font-specification:'PT Sans';text-align:center;text-anchor:middle;fill:#eaebee;fill-opacity:1;fill-rule:evenodd;stroke:none;stroke-width:4.83;stroke-opacity:1"
       x="37.134846"
       y="125.28107"
       id="text6068"><tspan
         sodipodi:role="line"
         id="tspan6066"
         style="stroke-width:4.83"
         x="37.134846"
         y="125.28107">PG-7V</tspan></text><text
       xml:space="preserve"
       style="font-size:9.87777px;font-family:'PT Sans';-inkscape-font-specification:'PT Sans';text-align:center;text-anchor:middle;fill:#eaebee;fill-opacity:1;fill-rule:evenodd;stroke:none;stroke-width:4.83;stroke-opacity:1"
       x="24.999996"
       y="177.15088"
       id="text6072"><tspan
         sodipodi:role="line"
         id="tspan6070"
         style="text-align:start;text-anchor:start;stroke-width:4.83"
         x="24.999996"
         y="177.15088"
         dy="2.5">PG-7VR</tspan><tspan
         sodipodi:role="line"
         style="text-align:start;text-anchor:start;stroke-width:4.83"
         x="24.999996"
         y="189.49809"
         id="tspan6074">TBG-7V</tspan></text><text
       xml:space="preserve"
       style="font-size:4.93888889px;font-family:'PT Sans';-inkscape-font-specification:'PT Sans';text-align:start;text-anchor:start;fill:#eaebee;fill-opacity:1;fill-rule:evenodd;stroke:none;stroke-width:4.83;stroke-opacity:1"
       x="362.19623"
       y="172.24823"
       id="text6804"><tspan
         sodipodi:role="line"
         id="tspan6802"
         style="stroke-width:4.83;font-size:4.93888889px"
         x="362.19623"
         y="172.24823" /></text><text
       xml:space="preserve"
       style="font-size:9.87778px;font-family:'PT Sans';-inkscape-font-specification:'PT Sans';text-align:start;text-anchor:start;fill:#eaebee;fill-opacity:1;fill-rule:evenodd;stroke:none;stroke-width:4.83;stroke-opacity:1"
       x="421.97437"
       y="163.0753"
       id="text6808"><tspan
         sodipodi:role="line"
         id="tspan6806"
         style="font-size:9.87778px;text-align:end;text-anchor:end;stroke-width:4.83"
         x="421.97437"
         y="163.0753"
         dy="2.5">Stadiametric</tspan><tspan
         sodipodi:role="line"
         style="font-size:9.87778px;text-align:end;text-anchor:end;stroke-width:4.83"
         x="421.97437"
         y="175.42253"
         id="tspan8335">Rangefinder</tspan></text></g><g
     inkscape:groupmode="layer"
     id="layer2"
     inkscape:label="Lines"
     transform="translate(-24.999997)"><path
       style="fill:none;fill-opacity:1;fill-rule:evenodd;stroke:#f1372a;stroke-width:0.914177;stroke-dasharray:none;stroke-dashoffset:0;stroke-opacity:1"
       d="M 223.33631,60 V 45.457088 l -198.336313,0"
       id="path3201"
       sodipodi:nodetypes="ccc" /><path
       style="fill:none;fill-opacity:1;fill-rule:evenodd;stroke:#f1372a;stroke-width:1.07077;stroke-dasharray:none;stroke-dashoffset:0;stroke-opacity:1"
       d="M 223.52275,107.26903 V 92.804415 l 198.35225,2.4e-4"
       id="path3900"
       sodipodi:nodetypes="ccc" /><g
       id="g4223"
       transform="matrix(1.06136,0,0,1,0.80098421,3.56043)"><path
         style="fill:none;fill-opacity:1;fill-rule:evenodd;stroke:#f1372a;stroke-width:1.05833;stroke-dasharray:none;stroke-dashoffset:0;stroke-opacity:1"
         d="m 297.70822,139.47052 v -15.12661 l 99.0224,-2e-5"
         id="path3902"
         sodipodi:nodetypes="ccc" /><path
         style="fill:none;fill-opacity:1;fill-rule:evenodd;stroke:#f1372a;stroke-width:1.05833;stroke-dasharray:none;stroke-dashoffset:0;stroke-opacity:1"
         d="m 297.70822,109.21726 v 15.12663"
         id="path4211"
         sodipodi:nodetypes="cc" /></g><g
       id="g4229"
       transform="matrix(-1.0780629,0,0,1,450.95796,3.5604365)"><path
         style="fill:none;fill-opacity:1;fill-rule:evenodd;stroke:#f1372a;stroke-width:1.05833;stroke-dasharray:none;stroke-dashoffset:0;stroke-opacity:1"
         d="m 297.70822,139.47052 v -15.12661 l 97.40598,0"
         id="path4225"
         sodipodi:nodetypes="ccc" /><path
         style="fill:none;fill-opacity:1;fill-rule:evenodd;stroke:#f1372a;stroke-width:1.05833;stroke-dasharray:none;stroke-dashoffset:0;stroke-opacity:1"
         d="m 297.70822,109.21726 v 15.12663"
         id="path4227"
         sodipodi:nodetypes="cc" /></g><g
       id="g4235"
       transform="matrix(1.0564279,0,0,1,-4.848579,53.702684)"><path
         style="fill:none;fill-opacity:1;fill-rule:evenodd;stroke:#f1372a;stroke-width:1.05833;stroke-dasharray:none;stroke-dashoffset:0;stroke-opacity:1"
         d="m 297.70822,135.94066 v -11.597 l 106.2224,0.11346"
         id="path4231"
         sodipodi:nodetypes="ccc" /><path
         style="fill:none;fill-opacity:1;fill-rule:evenodd;stroke:#f1372a;stroke-width:1.05833;stroke-dasharray:none;stroke-dashoffset:0;stroke-opacity:1"
         d="m 297.70822,112.74723 v 11.59666"
         id="path4233"
         sodipodi:nodetypes="cc" /></g><g
       id="g4241"
       transform="matrix(-1.0560351,0,0,1,452.14624,67.777489)"><path
         style="fill:none;fill-opacity:1;fill-rule:evenodd;stroke:#f1372a;stroke-width:1.05833;stroke-dasharray:none;stroke-dashoffset:0;stroke-opacity:1"
         d="m 297.70822,150.19086 v -25.847 l 106.77288,3e-5"
         id="path4237"
         sodipodi:nodetypes="ccc" /><path
         style="fill:none;fill-opacity:1;fill-rule:evenodd;stroke:#f1372a;stroke-width:1.05833;stroke-dasharray:none;stroke-dashoffset:0;stroke-opacity:1"
         d="M 297.70822,98.496948 V 124.34389"
         id="path4239"
         sodipodi:nodetypes="cc" /></g><rect
       style="fill:#000000;fill-opacity:0;fill-rule:evenodd;stroke:#f1372a;stroke-width:0.79375;stroke-dasharray:none;stroke-dashoffset:0;stroke-opacity:1"
       id="rect12446"
       width="3.8911068"
       height="3.8911068"
       x="144.23767"
       y="299.83829"
       transform="rotate(-45)" /><rect
       style="fill:#000000;fill-opacity:0;fill-rule:evenodd;stroke:#f1372a;stroke-width:0.79375;stroke-dasharray:none;stroke-dashoffset:0;stroke-opacity:1"
       id="rect12448"
       width="3.8911068"
       height="3.8911068"
       x="118.95427"
       y="325.12167"
       transform="rotate(-45)" /><rect
       style="fill:#000000;fill-opacity:0;fill-rule:evenodd;stroke:#f1372a;stroke-width:0.79375;stroke-dasharray:none;stroke-dashoffset:0;stroke-opacity:1"
       id="rect12450"
       width="3.8911068"
       height="3.8911068"
       x="101.25348"
       y="332.75809"
       transform="rotate(-45)" /><rect
       style="fill:#000000;fill-opacity:0;fill-rule:evenodd;stroke:#f1372a;stroke-width:0.79375;stroke-dasharray:none;stroke-dashoffset:0;stroke-opacity:1"
       id="rect12452"
       width="3.8911068"
       height="3.8911068"
       x="80.962143"
       y="353.04941"
       transform="rotate(-45)" /><rect
       style="fill:#000000;fill-opacity:0;fill-rule:evenodd;stroke:#f1372a;stroke-width:0.79375;stroke-dasharray:none;stroke-dashoffset:0;stroke-opacity:1"
       id="rect12454"
       width="3.8911068"
       height="3.8911068"
       x="-60.609867"
       y="251.53503"
       transform="rotate(-45)" /><rect
       style="fill:#000000;fill-opacity:0;fill-rule:evenodd;stroke:#f1372a;stroke-width:0.79375;stroke-dasharray:none;stroke-dashoffset:0;stroke-opacity:1"
       id="rect12456"
       width="3.8911068"
       height="3.8911068"
       x="-20.165638"
       y="211.09081"
       transform="rotate(-45)" /><rect
       style="fill:#000000;fill-opacity:0;fill-rule:evenodd;stroke:#f1372a;stroke-width:0.79375;stroke-dasharray:none;stroke-dashoffset:0;stroke-opacity:1"
       id="rect12458"
       width="3.8911068"
       height="3.8911068"
       x="-13.098471"
       y="193.06895"
       transform="rotate(-45)" /><rect
       style="fill:#000000;fill-opacity:0;fill-rule:evenodd;stroke:#f1372a;stroke-width:0.79375;stroke-dasharray:none;stroke-dashoffset:0;stroke-opacity:1"
       id="rect12460"
       width="3.8911068"
       height="3.8911068"
       x="12.184921"
       y="167.78555"
       transform="rotate(-45)" /><rect
       style="fill:#000000;fill-opacity:0;fill-rule:evenodd;stroke:#f1372a;stroke-width:0.79375;stroke-dasharray:none;stroke-dashoffset:0;stroke-opacity:1"
       id="rect12471"
       width="3.8911068"
       height="3.8911068"
       x="111.60511"
       y="200.34903"
       transform="rotate(-45)" /><rect
       style="fill:#ffffff;fill-opacity:0;fill-rule:evenodd;stroke:#f1372a;stroke-width:0.79375;stroke-dasharray:none;stroke-dashoffset:0;stroke-opacity:1"
       id="rect501"
       width="3.8911068"
       height="3.8911068"
       x="78.252403"
       y="233.84483"
       transform="rotate(-45)" /><rect
       style="fill:#ffffff;fill-opacity:0;fill-rule:evenodd;stroke:#f1372a;stroke-width:0.79375;stroke-dasharray:none;stroke-dashoffset:0;stroke-opacity:1"
       id="rect1088"
       width="3.8911068"
       height="3.8911068"
       x="70.450356"
       y="241.64688"
       transform="rotate(-45)" /><rect
       style="fill:#ffffff;fill-opacity:0;fill-rule:evenodd;stroke:#f1372a;stroke-width:0.79375;stroke-dasharray:none;stroke-dashoffset:0;stroke-opacity:1"
       id="rect1816"
       width="3.8911068"
       height="3.8911068"
       x="61.665527"
       y="250.4317"
       transform="rotate(-45)" /><rect
       style="fill:#ffffff;fill-opacity:0;fill-rule:evenodd;stroke:#f1372a;stroke-width:0.79375;stroke-dasharray:none;stroke-dashoffset:0;stroke-opacity:1"
       id="rect1818"
       width="3.8911068"
       height="3.8911068"
       x="40.296295"
       y="271.8009"
       transform="rotate(-45)" /><rect
       style="fill:#ffffff;fill-opacity:0;fill-rule:evenodd;stroke:#f1372a;stroke-width:0.79375;stroke-dasharray:none;stroke-dashoffset:0;stroke-opacity:1"
       id="rect1820"
       width="3.8911068"
       height="3.8911068"
       x="19.880873"
       y="292.21631"
       transform="rotate(-45)" /><text
       xml:space="preserve"
       style="font-size:4.93889px;font-family:'PT Sans';-inkscape-font-specification:'PT Sans';text-align:center;text-anchor:middle;fill:#f1372a;fill-opacity:1;fill-rule:evenodd;stroke:none;stroke-width:4.83;stroke-opacity:1"
       x="232.4472"
       y="106.64849"
       id="text3384"><tspan
         sodipodi:role="line"
         id="tspan3382"
         style="font-size:4.93889px;fill:#f1372a;fill-opacity:1;stroke:none;stroke-width:4.83;stroke-opacity:1"
         x="232.4472"
         y="106.64849">100m</tspan></text><text
       xml:space="preserve"
       style="font-size:4.93889px;font-family:'PT Sans';-inkscape-font-specification:'PT Sans';text-align:center;text-anchor:middle;fill:#f1372a;fill-opacity:1;fill-rule:evenodd;stroke:none;stroke-width:4.83;stroke-opacity:1"
       x="232.4472"
       y="117.68225"
       id="text3594"><tspan
         sodipodi:role="line"
         id="tspan3592"
         style="font-size:4.93889px;fill:#f1372a;fill-opacity:1;stroke:none;stroke-width:4.83;stroke-opacity:1"
         x="232.4472"
         y="117.68225">130m</tspan></text><text
       xml:space="preserve"
       style="font-size:4.93889px;font-family:'PT Sans';-inkscape-font-specification:'PT Sans';text-align:center;text-anchor:middle;fill:#f1372a;fill-opacity:1;fill-rule:evenodd;stroke:none;stroke-width:4.83;stroke-opacity:1"
       x="232.4472"
       y="130.10585"
       id="text3598"><tspan
         sodipodi:role="line"
         id="tspan3596"
         style="font-size:4.93889px;fill:#f1372a;fill-opacity:1;stroke:none;stroke-width:4.83;stroke-opacity:1"
         x="232.4472"
         y="130.10585">160m</tspan></text><text
       xml:space="preserve"
       style="font-size:4.93889px;font-family:'PT Sans';-inkscape-font-specification:'PT Sans';text-align:center;text-anchor:middle;fill:#f1372a;fill-opacity:1;fill-rule:evenodd;stroke:none;stroke-width:4.83;stroke-opacity:1"
       x="232.4472"
       y="160.32654"
       id="text3602"><tspan
         sodipodi:role="line"
         id="tspan3600"
         style="font-size:4.93889px;fill:#f1372a;fill-opacity:1;stroke:none;stroke-width:4.83;stroke-opacity:1"
         x="232.4472"
         y="160.32654">220m</tspan></text><rect
       style="fill:#ffffff;fill-opacity:0;fill-rule:evenodd;stroke:#f1372a;stroke-width:0.79375;stroke-dasharray:none;stroke-dashoffset:0;stroke-opacity:1"
       id="rect4330"
       width="3.8911068"
       height="3.8911068"
       x="52.880714"
       y="259.21652"
       transform="rotate(-45)" /><text
       xml:space="preserve"
       style="font-size:4.93889px;font-family:'PT Sans';-inkscape-font-specification:'PT Sans';text-align:center;text-anchor:middle;fill:#f1372a;fill-opacity:1;fill-rule:evenodd;stroke:none;stroke-width:4.83;stroke-opacity:1"
       x="232.4472"
       y="142.52948"
       id="text4334"><tspan
         sodipodi:role="line"
         id="tspan4332"
         style="font-size:4.93889px;fill:#f1372a;fill-opacity:1;stroke:none;stroke-width:4.83;stroke-opacity:1"
         x="232.4472"
         y="142.52948">190m</tspan></text><text
       xml:space="preserve"
       style="font-size:4.93889px;font-family:'PT Sans';-inkscape-font-specification:'PT Sans';text-align:center;text-anchor:middle;fill:#f1372a;fill-opacity:1;fill-rule:evenodd;stroke:none;stroke-width:4.83;stroke-opacity:1"
       x="232.4472"
       y="189.1983"
       id="text4338"><tspan
         sodipodi:role="line"
         id="tspan4336"
         style="font-size:4.93889px;fill:#f1372a;fill-opacity:1;stroke:none;stroke-width:4.83;stroke-opacity:1"
         x="232.4472"
         y="189.1983">280m</tspan></text><rect
       style="fill:#ffffff;fill-opacity:0;fill-rule:evenodd;stroke:#f1372a;stroke-width:0.79375;stroke-dasharray:none;stroke-dashoffset:0;stroke-opacity:1"
       id="rect5070"
       width="3.8911068"
       height="3.8911068"
       x="-0.53454202"
       y="312.63171"
       transform="rotate(-45)" /><text
       xml:space="preserve"
       style="font-size:4.93889px;font-family:'PT Sans';-inkscape-font-specification:'PT Sans';text-align:center;text-anchor:middle;fill:#f1372a;fill-opacity:1;fill-rule:evenodd;stroke:none;stroke-width:4.83;stroke-opacity:1"
       x="232.4472"
       y="218.07005"
       id="text5074"><tspan
         sodipodi:role="line"
         id="tspan5072"
         style="font-size:4.93889px;fill:#f1372a;fill-opacity:1;stroke:none;stroke-width:4.83;stroke-opacity:1"
         x="232.4472"
         y="218.07005">340m</tspan></text></g><g
     inkscape:groupmode="layer"
     id="layer3"
     inkscape:label="Text"
     transform="translate(-24.999997)"><text
       xml:space="preserve"
       style="font-size:11.2889px;font-family:'PT Sans';-inkscape-font-specification:'PT Sans';text-align:center;text-anchor:middle;fill:#ffffff;fill-opacity:0;fill-rule:evenodd;stroke:#eaebee;stroke-width:4.83"
       x="231.94682"
       y="103.30053"
       id="text3330"><tspan
         sodipodi:role="line"
         id="tspan3328"
         style="stroke-width:4.83"
         x="231.94682"
         y="103.30053" /></text></g></svg>
