<?xml version="1.0" encoding="UTF-8" standalone="no"?>
<!-- Created with Inkscape (http://www.inkscape.org/) -->

<svg
   width="1571.73"
   height="1000"
   viewBox="0 0 415.85356 264.58333"
   version="1.1"
   id="svg5"
   xml:space="preserve"
   inkscape:version="1.2.1 (9c6d41e410, 2022-07-14)"
   sodipodi:docname="RPG7_Scope_Alt.svg"
   inkscape:export-filename="..\..\Downloads\RPG7_Scope_Alt.svg"
   inkscape:export-xdpi="96"
   inkscape:export-ydpi="96"
   xmlns:inkscape="http://www.inkscape.org/namespaces/inkscape"
   xmlns:sodipodi="http://sodipodi.sourceforge.net/DTD/sodipodi-0.dtd"
   xmlns="http://www.w3.org/2000/svg"
   xmlns:svg="http://www.w3.org/2000/svg"><sodipodi:namedview
     id="namedview7"
     pagecolor="#4d4c4c"
     bordercolor="#000000"
     borderopacity="0.25"
     inkscape:showpageshadow="2"
     inkscape:pageopacity="0"
     inkscape:pagecheckerboard="0"
     inkscape:deskcolor="#d1d1d1"
     inkscape:document-units="mm"
     showgrid="false"
     inkscape:zoom="0.82448651"
     inkscape:cx="210.43401"
     inkscape:cy="716.80979"
     inkscape:window-width="2560"
     inkscape:window-height="1369"
     inkscape:window-x="3832"
     inkscape:window-y="-8"
     inkscape:window-maximized="1"
     inkscape:current-layer="layer3" /><defs
     id="defs2" /><g
     inkscape:label="Sight"
     inkscape:groupmode="layer"
     id="layer1"
     transform="translate(-24.999997)"><circle
       style="fill:#eaebee;fill-opacity:1;fill-rule:evenodd;stroke-width:5.18974"
       id="path681"
       cx="500"
       cy="500"
       r="500"
       inkscape:label="Circle"
       transform="matrix(0.26458333,0,0,0.26458333,66.145836,0)" /><path
       style="display:inline;fill:#2d2c2d;fill-opacity:1"
       d="M 471,877.5 V 870 h 3.42857 c 3.77607,0 6.57143,2.1269 6.57143,5 0,2.59102 -2.68429,5 -5.57143,5 -1.92381,0 -2.42857,0.51961 -2.42857,2.5 0,1.375 -0.45,2.5 -1,2.5 -0.57778,0 -1,-3.16667 -1,-7.5 z m 7,-2.5 c 0,-1.46667 -0.66667,-2 -2.5,-2 -1.83333,0 -2.5,0.53333 -2.5,2 0,1.46667 0.66667,2 2.5,2 1.83333,0 2.5,-0.53333 2.5,-2 z m 21.99567,-125.66667 c -0.002,-67.00833 -0.29896,-169.80976 -0.65906,-228.44763 -0.36011,-58.63786 -0.3434,-107.42561 0.0371,-108.41722 0.42645,-1.1113 1.04855,-1.44621 1.62172,-0.87304 1.49436,1.49436 1.68894,458.67643 0.19542,459.17427 -0.91679,0.3056 -1.19186,-27.64251 -1.19519,-121.43638 z M 503.98611,703.25 c -0.008,-92.2625 -0.29793,-195.47059 -0.64508,-229.35132 -0.47138,-46.00576 -0.33949,-61.7816 0.52096,-62.31338 0.63367,-0.39164 1.37094,-0.12104 1.63838,0.60132 0.26743,0.72236 0.60175,46.98838 0.74293,102.81338 l 0.2567,101.5 23.5,0.52785 23.5,0.52785 -23.14301,0.22215 c -17.44276,0.16743 -23.25391,0.53003 -23.59325,1.47215 -0.24763,0.6875 -0.23721,24.93037 0.0231,53.87306 l 0.47338,52.62305 7.61987,-0.25067 C 519.07106,725.35757 530.9375,725.1897 541.25,725.12238 557.19561,725.0183 560,724.77565 560,723.5 c 0,-0.825 0.675,-1.5 1.5,-1.5 0.825,0 1.5,0.675 1.5,1.5 0,1.29825 3.83333,1.5 28.5,1.5 24.66667,0 28.5,-0.20175 28.5,-1.5 0,-0.825 0.45,-1.5 1,-1.5 0.55,0 1,0.675 1,1.5 0,1.29825 3.83333,1.5 28.5,1.5 24.66667,0 28.5,-0.20175 28.5,-1.5 0,-0.825 0.46412,-1.5 1.03138,-1.5 0.56727,0 1.29041,0.675 1.60699,1.5 0.49261,1.28372 4.59732,1.5 28.46862,1.5 C 734.23411,725 738,724.79748 738,723.5 c 0,-0.825 0.675,-1.5 1.5,-1.5 0.825,0 1.5,0.675 1.5,1.5 0,1.29885 3.88889,1.5 29,1.5 25.11111,0 29,-0.20115 29,-1.5 0,-2.34883 2.60033,-1.75892 4.40804,1 l 1.63807,2.5 -18.27306,0.0647 C 776.72287,727.1003 709.6625,727.14 637.75,727.153 l -130.75,0.0236 -0.12909,15.66172 c -0.29851,36.21603 -0.32207,52.80122 -0.10286,72.41172 L 507,836 h 26.5 c 25.83333,0 26.5,-0.0503 26.5,-2 0,-1.11111 0.66667,-2 1.5,-2 0.83333,0 1.5,0.88889 1.5,2 0,1.95303 0.66667,2 28.38889,2 25.71802,0 28.37582,-0.15452 28.25,-1.64237 -0.21028,-2.48654 2.4104,-2.88516 3.04381,-0.46299 0.5428,2.07566 0.93592,2.10536 27.86654,2.10536 26.43773,0 27.33639,-0.0643 27.95076,-2 0.34913,-1.1 1.09658,-2 1.66101,-2 0.56442,0 1.26158,0.9 1.54924,2 0.50724,1.93968 1.36402,2 28.40638,2 23.611,0 27.88337,-0.22079 27.88337,-1.44098 0,-2.55436 2.2623,-2.95331 4.07224,-0.71813 1.71323,2.11575 2.29107,2.15911 28.77066,2.15911 26.14407,0 27.04296,-0.065 27.6571,-2 0.8757,-2.75908 2.00143,-2.50892 4.5,1 l 2.13619,3 H 656.06809 L 507,838 v 16.5 c 0,14 -0.22727,16.5 -1.5,16.5 -1.32732,0 -1.5016,-19.31173 -1.51389,-167.75 z M 472.25,860.99238 c -3.25514,-1.34246 -2.79089,-3.45027 1.87477,-8.51192 3.43257,-3.72389 3.91547,-4.72704 2.87756,-5.97765 -1.78212,-2.14733 -2.91401,-1.86532 -4.00233,0.99719 -1.27519,3.35399 -3.21212,3.18714 -2.81642,-0.24261 0.67687,-5.86682 8.99304,-6.38617 10.43235,-0.6515 0.51327,2.04503 -0.0767,3.28168 -2.98819,6.26329 -4.60225,4.71314 -4.61252,6.13082 -0.0444,6.13082 2.41885,0 3.44999,0.40621 3.17299,1.25 -0.50934,1.55155 -5.49023,1.98625 -8.50632,0.74238 z M 200,836.95616 c 0,-0.57411 0.7875,-0.91161 1.75,-0.75 1.16831,0.19617 1.85622,-0.45405 2.06955,-1.95616 0.39605,-2.78867 1.76996,-2.92772 2.4702,-0.25 0.50732,1.93998 1.36401,2 28.54924,2 27.99032,0 28.02713,-0.003 28.72392,-2.1982 l 0.69768,-2.19821 1.78,2.19821 C 267.79624,835.96994 268.19787,836 295.41029,836 322.33333,836 323,835.9517 323,834 c 0,-1.1 0.49213,-2 1.09362,-2 0.60149,0 1.32897,0.9 1.61663,2 0.50717,1.93942 1.36402,2 28.28975,2 26.92573,0 27.78258,-0.0606 28.28975,-2 0.28766,-1.1 1.01514,-2 1.61663,-2 0.60149,0 1.09362,0.9 1.09362,2 0,1.95322 0.66667,2 28.5,2 27.83333,0 28.5,-0.0468 28.5,-2 0,-1.1 0.49213,-2 1.09362,-2 0.60149,0 1.32897,0.9 1.61663,2 0.50598,1.93487 1.36402,2 26.34736,2 16.13755,0 26.05618,0.3751 26.44239,1 0.41097,0.66496 -49.32295,1 -148.44098,1 C 246.17977,838 200,837.67661 200,836.95616 Z m 360,-71.39714 c 0,-0.79254 0.46193,-1.72648 1.02652,-2.07541 0.56459,-0.34893 0.90209,-1.37168 0.75,-2.27277 -0.15209,-0.90108 0.4742,-1.79306 1.39174,-1.98217 1.261,-0.2599 1.60029,0.27543 1.38982,2.19282 C 564.1102,765.50156 560,769.23253 560,765.55902 Z m -10.44964,-5.342 c -1.38457,-1.38456 -0.23055,-4.35743 3.52004,-9.06797 2.23872,-2.81172 3.78716,-5.5705 3.44098,-6.13063 -1.05373,-1.70498 -3.66743,-1.13767 -4.20354,0.91238 C 551.76548,748.00479 549,747.68475 549,745.548 c 0,-1.43952 2.72978,-3.97095 5.24284,-4.86187 2.16874,-0.76886 5.75716,2.84594 5.75716,5.79948 0,1.15967 -1.8,3.86615 -4,6.01439 -2.2,2.14824 -4,4.26457 -4,4.70295 0,0.43838 1.52686,0.79705 3.39301,0.79705 1.87558,0 3.61793,0.58613 3.89593,1.31059 0.36998,0.96414 -0.77798,1.32991 -4.34265,1.38369 -2.66507,0.0402 -5.09324,-0.17456 -5.39593,-0.47726 z M 574.28975,758 c -0.40975,-1.56687 -1.36402,-2 -4.40638,-2 C 566.48884,756 566,755.70814 566,753.6815 566,749.72779 569.00899,741 570.37207,741 c 2.38012,0 2.49161,1.1522 0.54986,5.68212 -2.00385,4.67479 -1.83166,6.31788 0.66209,6.31788 0.82887,0 1.72674,-1.30379 2.06598,-3 1.04127,-5.20634 2.35,-3.25716 2.35,3.5 0,6.45946 -0.70959,8.32653 -1.71025,4.5 z m -96.59727,0.31145 c -0.34563,-0.55925 -0.0179,-1.85175 0.72831,-2.87224 0.7462,-1.02048 1.13364,-2.43678 0.86098,-3.14732 -0.30851,-0.80395 0.30005,-1.29189 1.61124,-1.29189 1.17006,0 2.10699,0.64222 2.10699,1.44424 0,2.06821 -4.54812,7.09594 -5.30752,5.86721 z m -3.85402,-6.49423 c -0.87681,-2.70411 -0.31609,-17.80619 0.66154,-17.81763 1.27375,-0.0149 1.90289,16.99752 0.67403,18.22638 -0.54462,0.54462 -1.07952,0.38091 -1.33557,-0.40875 z m 10.32944,-0.87364 c -1.80823,-2.95834 0.0182,-4.90031 2.38389,-2.53465 2.25042,2.25042 3.87694,1.54379 4.27639,-1.85787 0.40302,-3.43207 -0.98471,-4.94783 -4.58351,-5.00639 -2.5299,-0.0412 -2.71736,-0.31854 -2.39566,-3.54467 0.19196,-1.925 0.55602,-3.8375 0.80902,-4.25 0.67549,-1.10134 8.12189,-0.91511 8.82385,0.22068 0.65267,1.05605 -3.22893,2.34458 -5.54635,1.84116 C 487.14599,735.64033 486.5,736.175 486.5,737 c 0,0.825 1.00353,1.64262 2.23007,1.81694 2.56545,0.3646 6.26993,4.62282 6.26993,7.20713 0,2.71204 -3.18101,5.90988 -6.5,6.5344 -2.36847,0.44565 -3.28042,0.10571 -4.3321,-1.61489 z M 201.75,725.96884 c 1.2375,-0.49742 2.25,-1.59389 2.25,-2.43662 0,-1.98919 1.75579,-1.9931 2.17668,-0.005 0.27998,1.32264 3.94241,1.53396 27.32332,1.57654 32.43247,0.0591 29.5,0.2185 29.5,-1.60391 0,-1.92438 1.9538,-1.93477 3.38976,-0.018 0.93034,1.24185 5.40409,1.48987 27.61024,1.53073 14.575,0.0268 27.0625,0.0349 27.75,0.018 0.6875,-0.0169 1.25,-0.70572 1.25,-1.53072 0,-0.825 0.675,-1.5 1.5,-1.5 0.825,0 1.5,0.675 1.5,1.5 0,1.29762 3.77778,1.5 28,1.5 24.22222,0 28,-0.20238 28,-1.5 0,-0.825 0.675,-1.5 1.5,-1.5 0.825,0 1.5,0.675 1.5,1.5 0,1.29548 3.60202,1.5 26.41821,1.5 14.53002,0 27.15686,0.28345 28.05966,0.62988 1.13653,0.43613 1.81277,-0.0253 2.19842,-1.5 C 442.30748,721.71619 445,721.20593 445,723.5 c 0,1.29478 3.549,1.5 25.94098,1.5 16.2153,0 26.1727,0.37492 26.55902,1 0.41104,0.66507 -49.3902,0.97877 -148.69098,0.93661 C 258.73249,726.89837 200.3926,726.51445 201.75,725.96884 Z M 759.44113,712.519 c -1.66973,-1.27393 -1.73297,-1.6174 -0.45233,-2.4566 2.84805,-1.86632 11.85384,0.76517 10.44117,3.05091 -0.88523,1.43233 -7.87784,1.0163 -9.98884,-0.59431 z M 734.25,710.77951 c -2.39624,-1.15567 -2.84956,-2.29093 -1.29776,-3.24999 1.76739,-1.09231 18.89541,1.63108 19.45665,3.09365 0.42344,1.10346 -1.10349,1.36339 -7.69027,1.30915 -4.52024,-0.0372 -9.23112,-0.55599 -10.46862,-1.15281 z m -14.87193,-0.90121 c -1.03294,-0.40575 -3.59515,-0.76936 -5.69381,-0.80801 -4.42912,-0.0816 -8.02546,-1.70919 -7.09679,-3.21181 0.56908,-0.9208 7.33339,-0.63066 14.91253,0.63964 1.1,0.18437 2.51436,0.37271 3.14301,0.41855 0.62866,0.0458 1.38423,0.71194 1.67906,1.48024 0.63143,1.64549 -4.00708,2.63504 -6.944,1.48139 z M 690,706.63394 c -6.96109,-1.25759 -9,-2.12349 -9,-3.82217 0,-0.72451 2.27184,-0.84633 7.03333,-0.37714 9.58215,0.9442 11.19011,1.31436 12.12786,2.79194 1.99261,3.13969 0.54074,3.34078 -10.16119,1.40737 z m 76.42719,0.0369 c -0.89409,-2.32996 0.0323,-18.67307 1.07281,-18.92691 0.6039,-0.14732 1.11288,3.81603 1.28498,10.00605 0.18823,6.77012 -0.077,10.25 -0.78138,10.25 -0.5865,0 -1.29589,-0.59811 -1.57641,-1.32914 z M 742.25,706.25383 C 740.68321,705.72677 740.47215,691 742.03138,691 c 1.65216,0 2.08708,2.26013 1.76775,9.18638 -0.21441,4.65046 -0.65315,6.36885 -1.54913,6.06745 z m -26,-1.91611 c -1.52393,-0.61492 -1.78254,-19.89056 -0.27932,-20.8196 0.53388,-0.32995 1.19269,0.43099 1.46404,1.69098 0.69489,3.22678 1.17039,19.80782 0.56528,19.7121 -0.275,-0.0435 -1.0625,-0.30607 -1.75,-0.58348 z M 664.5,702.6148 c -8.17166,-1.36552 -10.0502,-2.24693 -8.57563,-4.02367 0.80775,-0.97328 2.64883,-0.9544 8.79856,0.0902 9.6001,1.63068 10.27707,1.88015 10.27707,3.78729 0,1.74694 -0.84976,1.75877 -10.5,0.14618 z m 25.16667,-2.28147 C 688.65688,699.32355 688.86832,685 689.89301,685 c 1.37614,0 1.79419,1.92195 2.01201,9.25 0.18324,6.16448 -0.44629,7.8754 -2.23835,6.08333 z m -43.75735,-1.41054 c -0.77513,-0.49069 -2.34014,-0.89906 -3.47782,-0.90748 C 638.32321,697.9849 630,694.93584 630,693.46126 c 0,-1.68544 2.04388,-1.83719 7,-0.5197 1.925,0.51172 5.36623,1.4141 7.64718,2.00528 4.17227,1.08138 6.32381,3.46658 3.94899,4.37788 -0.70264,0.26963 -1.91173,0.0888 -2.68685,-0.40193 z M 663.80416,687.75 c -0.35982,-9.85343 -0.2035,-11.11484 1.26494,-10.20729 1.21485,0.75081 1.21665,19.45729 0.002,19.45729 -0.51097,0 -1.08103,-4.1625 -1.26681,-9.25 z M 616,690.33355 c -11.47339,-4.53462 -12,-4.80133 -12,-6.07766 0,-1.6609 3.53128,-1.59838 6.84571,0.1212 1.45986,0.7574 4.90075,2.23352 7.64642,3.28026 2.91333,1.11066 5.13005,2.6193 5.32333,3.62291 0.42267,2.19475 0.005,2.14415 -7.81546,-0.94671 z m 22,-5.77453 c 0,-4.09254 0.45,-7.7191 1,-8.05902 0.6223,-0.3846 1.00516,1.57605 1.01365,5.19098 0.008,3.19496 0.285,6.82152 0.61664,8.05902 0.44329,1.65413 0.17484,2.25 -1.01366,2.25 C 638.27263,692 638,690.74515 638,684.55902 Z m -25.33333,-1.22569 C 612.3,682.96667 612,678.65417 612,673.75 c 0,-6.68759 0.31249,-8.81311 1.25,-8.50244 0.8496,0.28154 1.3421,3.35126 1.53753,9.58333 0.26172,8.34631 -0.24511,10.37819 -2.12086,8.50244 z M 768,682 c -1.60784,-1.60784 -2,-3.33333 -2,-8.8 0,-3.95556 0.50196,-7.30196 1.2,-8 1.78982,-1.78982 6.26422,-1.44952 8.136,0.61878 2.11729,2.33958 2.48045,12.90102 0.5499,15.99232 -1.70589,2.73156 -5.25815,2.81665 -7.8859,0.1889 z m 5.62177,-2.19702 c 0.97871,-1.5836 0.47128,-11.05324 -0.6543,-12.2106 -1.66603,-1.71305 -3.96747,1.53295 -3.96747,5.59581 0,6.00618 2.65205,9.80186 4.62177,6.61479 z m -16.69381,3.03035 c -0.0396,-0.18333 -0.15212,-4.50718 -0.25,-9.60855 -0.14539,-7.57765 0.0842,-9.22471 1.25467,-8.99928 1.93187,0.3721 2.23174,17.86898 0.31737,18.51763 -0.6875,0.23294 -1.28242,0.27354 -1.32204,0.0902 z m -168.58471,-6.66138 c -5.00845,-3.28873 -9.39193,-6.44171 -9.74107,-7.00663 -1.31528,-2.12816 1.70348,-2.32136 4.24765,-0.27185 1.45759,1.17419 3.769,2.69101 5.13646,3.37071 1.36745,0.6797 3.16745,1.82152 4,2.53737 0.83254,0.71586 2.59009,2.09923 3.90566,3.07416 1.31557,0.97493 2.20421,2.3358 1.97476,3.02417 -0.27093,0.81277 -3.60979,-0.84481 -9.52346,-4.72793 z m 123.62861,2.29414 c -1.9657,-2.36852 -1.32494,-15.47633 0.83628,-17.10773 1.8777,-1.41738 4.82316,-0.88335 7.35115,1.33282 1.2056,1.05689 1.45361,2.18659 0.90705,4.13171 -0.41373,1.47241 -0.54795,4.37081 -0.29827,6.44088 0.26209,2.17303 -0.0674,4.39193 -0.7795,5.25 -1.60781,1.9373 -6.39295,1.90884 -8.01671,-0.0477 z m 5.92318,-3.26997 c 1.35271,-2.52757 -0.15799,-4.56483 -2.77019,-3.73574 -2.24291,0.71187 -2.50311,1.39033 -1.51786,3.95783 0.81449,2.12252 3.09651,2.00433 4.28805,-0.22209 z M 718,665.66667 c 0,-2.11176 -1.11055,-2.67787 -3.13148,-1.5963 C 712.225,665.48513 712.55153,667 715.5,667 c 1.41667,0 2.5,-0.57778 2.5,-1.33333 z m -55.5,9.13838 c -3.09038,-1.75244 -3.46937,-2.82355 -3.46937,-9.80505 0,-7.16993 0.47476,-8.42044 3.56224,-9.38274 2.66235,-0.82979 8.09959,3.09028 6.50208,4.68779 -0.73026,0.73026 -1.67932,0.47608 -3.13237,-0.83892 -1.78048,-1.61131 -2.21685,-1.67352 -2.99045,-0.42637 -0.69174,1.11519 -0.21017,1.6428 2.03797,2.23285 3.70115,0.9714 5.32299,3.90338 4.44518,8.03604 -0.64191,3.02207 -3.06718,6.72703 -4.36027,6.66094 -0.32725,-0.0167 -1.49501,-0.54077 -2.59501,-1.16454 z m 4.30993,-5.99634 c 0.21236,-1.83232 -0.29717,-2.99911 -1.61851,-3.70627 -1.06065,-0.56764 -2.21262,-0.74791 -2.55994,-0.40059 -0.85494,0.85494 -0.80327,5.79303 0.0698,6.66605 1.46671,1.46672 3.81136,0.006 4.10869,-2.55919 z M 587.30902,669.75 c -1.38869,-2.14565 -1.03991,-13.75 0.41327,-13.75 1.46972,0 1.53459,0.33889 1.67408,8.74566 0.1016,6.12323 -0.47246,7.49949 -2.08735,5.00434 z M 615.28975,661 c -0.31486,-1.20404 -1.37205,-2.00609 -2.65638,-2.01531 -4.78359,-0.0343 -5.27675,-1.30345 -3.35448,-8.63252 1.96671,-7.49853 2.14158,-7.82837 3.65458,-6.89329 1.42291,0.87941 1.27908,4.19895 -0.38399,8.86228 -1.19227,3.34317 -1.17654,3.74971 0.12568,3.25 C 613.49379,655.25702 614.35177,655 614.58179,655 614.8118,655 615,653.65 615,652 c 0,-2.83494 1.27129,-3.98809 2.39399,-2.17153 0.28161,0.45566 0.80821,3.60566 1.17021,7 0.57656,5.40606 0.44674,6.17153 -1.04662,6.17153 -0.93765,0 -1.94017,-0.9 -2.22783,-2 z M 565.75,656.02662 c -4.70957,-5.90632 -5.90747,-8.57093 -3.5,-7.78545 1.40788,0.45934 10.75,11.72135 10.75,12.95922 0,2.2865 -3.01953,0.13169 -7.25,-5.17377 z m -4.08333,-10.69329 C 561.3,644.96667 561,640.48079 561,635.36472 c 0,-7.85756 0.23292,-9.21257 1.5,-8.72635 1.18602,0.45512 1.5,2.54177 1.5,9.96862 0,8.61069 -0.51668,10.543 -2.33333,8.72634 z M 473.72695,643.25 c -0.21509,-0.4125 -0.35415,-4.53751 -0.30901,-9.1667 0.0564,-5.78304 0.4732,-8.54706 1.33206,-8.83333 0.94203,-0.31399 1.25,1.94449 1.25,9.1667 0,8.28353 -0.84581,11.57044 -2.27305,8.83333 z m 83.93972,-18.91667 c -1.73782,-1.73781 -0.44121,-5.80981 2.83333,-8.8981 5.25933,-4.96019 4.50921,-8.45305 -1.03518,-4.82022 C 557.13411,612.14215 557,612.12338 557,610.27 c 0,-1.07801 0.93075,-2.80234 2.06834,-3.83185 1.87271,-1.69477 2.31524,-1.73308 4.67879,-0.40498 1.43575,0.80676 2.93813,2.69327 3.33861,4.19225 0.61219,2.29142 0.10417,3.40612 -3.19022,7 l -3.91836,4.27458 3.51142,0.31037 c 5.38655,0.4761 4.68732,3.18963 -0.82191,3.18963 -2.38334,0 -4.63334,-0.3 -5,-0.66667 z M 201.75,616.96884 c 1.2375,-0.49742 2.25,-1.59389 2.25,-2.43662 0,-2.22269 1.6757,-1.88036 2.28975,0.46778 0.50735,1.94013 1.36401,2 28.61663,2 28.13818,0 28.71471,-0.0664 28.21204,-3.25 -0.27644,-1.7508 3.11582,-0.57025 3.59183,1.25 0.50691,1.93842 1.36402,2 27.83899,2 26.43773,0 27.33639,-0.0643 27.95076,-2 0.34913,-1.1 1.27945,-2 2.06739,-2 0.78793,0 1.43261,0.9 1.43261,2 0,1.95238 0.66667,2 28,2 27.33333,0 28,-0.0476 28,-2 0,-1.1 0.62252,-2 1.38337,-2 0.76085,0 1.61872,0.9 1.90638,2 0.50735,1.94013 1.36401,2 28.61663,2 C 441.33333,617 442,616.9525 442,615 c 0,-1.11111 0.66667,-2 1.5,-2 0.85501,0 1.5,0.89896 1.5,2.09063 0,2.07583 0.18355,2.08822 25.91634,1.75 14.25398,-0.18735 26.25398,-0.003 26.66666,0.40937 0.41268,0.4125 -66.48717,0.72148 -148.66633,0.68661 -90.14071,-0.0382 -148.52406,-0.42217 -147.16667,-0.96777 z m 368.48166,0.46616 c 0.31075,-0.31075 11.29825,-0.80997 24.41667,-1.10938 18.88711,-0.43108 24.01812,-0.83384 24.65136,-1.935 1.0675,-1.85633 3.70031,-1.7785 3.70031,0.10938 0,1.29649 3.6822,1.5 27.13976,1.5 24.66253,0 27.26391,-0.15973 28.5,-1.75 1.29547,-1.66667 1.42501,-1.66667 2.72048,0 1.23716,1.59165 3.86128,1.75 29,1.75 C 734.26225,616 738,615.79715 738,614.5 c 0,-0.84106 0.89238,-1.5 2.03138,-1.5 1.11727,0 2.29041,0.675 2.60699,1.5 0.49219,1.28262 4.52988,1.5 27.86163,1.5 23.33175,0 27.36944,-0.21738 27.86163,-1.5 0.86955,-2.26603 3.21036,-1.80217 5.04641,1 l 1.63807,2.5 H 687.35639 c -64.72935,0 -117.43547,-0.25425 -117.12473,-0.565 z M 199.94254,577.89264 c -1.59264,-2.97588 0.48051,-5.06392 2.40911,-2.42641 1.75709,2.40296 4.65341,1.3497 4.63304,-1.68485 -0.0238,-3.54452 -1.40978,-4.93391 -4.5819,-4.59318 C 199.58292,569.49109 199.5,569.37145 199.5,565 v -4.5 l 4.75,-0.30479 c 3.68365,-0.23637 4.75,0.0307 4.75,1.18963 0,0.98417 -1.20217,1.6004 -3.52089,1.80479 -4.17348,0.36789 -4.558,2.01166 -0.71125,3.04044 3.53262,0.94477 5.23214,3.34987 5.23214,7.40436 0,5.57341 -7.62567,8.80204 -10.05746,4.25821 z M 266.81955,577.75 c -0.27408,-1.92981 -0.84186,-2.20968 -3.98992,-1.96665 -2.01871,0.15584 -3.88748,-0.0692 -4.15283,-0.5 -0.26535,-0.43084 0.53803,-3.93335 1.78528,-7.78335 1.51248,-4.66868 2.84446,-7.11388 3.99939,-7.34192 1.88386,-0.37197 1.70035,0.91917 -1.10421,7.76897 -1.53467,3.74824 -0.61322,5.76889 2.14758,4.70947 1.08351,-0.41579 1.53008,-1.53306 1.31721,-3.29553 -0.39583,-3.27735 1.76494,-4.31963 2.34842,-1.1328 0.618,3.37529 -0.23967,11.79181 -1.20161,11.79181 -0.45637,0 -0.97356,-1.0125 -1.14931,-2.25 z m 530.48621,-0.18044 c -2.29914,-1.99158 -2.57254,-2.66719 -1.51412,-3.74164 0.81826,-0.83065 1.55125,-0.94777 2,-0.31956 0.3896,0.5454 1.46448,1.58319 2.38862,2.30621 1.42864,1.11771 1.83277,1.0296 2.69866,-0.58833 0.56012,-1.04659 0.76402,-2.87565 0.45311,-4.06457 C 802.89395,569.48648 802.00961,569 799.40242,569 c -2.7253,0 -3.47972,-0.45982 -3.97192,-2.42091 -1.20948,-4.81894 -0.27394,-6.05585 4.82849,-6.38388 3.75251,-0.24124 4.74101,0.0194 4.74101,1.25 0,1.11712 -1.00869,1.55479 -3.58333,1.55479 -4.08977,0 -4.35983,2.27154 -0.33834,2.84582 3.80464,0.54331 4.92167,2.06847 4.92167,6.71992 0,3.33143 -0.50893,4.67732 -2.22251,5.87756 -2.89579,2.02829 -3.16323,1.99218 -6.47173,-0.87374 z M 320.2,577.8 c -1.43504,-1.43504 -1.57811,-4.44828 -0.25017,-5.26899 0.5224,-0.32287 1.43823,0.32558 2.03518,1.44098 0.59695,1.11541 1.74452,2.02801 2.55017,2.02801 2.31447,0 1.75032,-4.55511 -0.78518,-6.33973 l -2.25,-1.58368 2.25,-0.65493 c 2.3321,-0.67882 3.07713,-3.79243 1.18699,-4.9606 -0.58466,-0.36134 -1.94529,0.14147 -3.02363,1.11735 -1.30708,1.18289 -2.29395,1.441 -2.96062,0.77433 -1.27528,-1.27528 1.557,-3.84944 5.18022,-4.70811 2.21201,-0.52422 2.80755,-0.18598 3.72503,2.11569 1.60421,4.02447 1.72209,13.8358 0.18843,15.68375 -1.53108,1.84483 -6.14808,2.05427 -7.84642,0.35593 z m 58.8,-1.50784 c 0,-1.7643 1.26627,-4.00462 3.63406,-6.42945 2.309,-2.36463 3.41431,-4.29427 3.03139,-5.29216 -0.8563,-2.23146 -3.75423,-1.94705 -4.3757,0.42945 C 380.71791,567.18671 378,567.78363 378,565.72251 378,563.05622 381.12789,560 383.8567,560 c 6.13629,0 7.00346,5.80473 1.6433,11 -1.925,1.86578 -3.5,3.75406 -3.5,4.19617 0,0.44211 1.575,0.80383 3.5,0.80383 2.44444,0 3.5,0.45238 3.5,1.5 0,1.13333 -1.22222,1.5 -5,1.5 -4.76901,0 -5,-0.1251 -5,-2.70784 z M 443,569.5 c 0,-7.28889 0.30747,-9.56418 1.25,-9.25 0.87421,0.2914 1.25,3.07222 1.25,9.25 0,6.17778 -0.37579,8.9586 -1.25,9.25 -0.94253,0.31418 -1.25,-1.96111 -1.25,-9.25 z m 173.71277,8.87943 c -1.64963,-1.64963 -0.43359,-5.16251 3.23831,-9.35473 2.80349,-3.20076 3.63261,-4.8214 2.91127,-5.69056 -1.19245,-1.43681 -3.48202,-0.76765 -4.25365,1.24318 C 617.83084,566.60441 616,566.3396 616,564.2 c 0,-3.53556 4.05629,-5.26684 8.41821,-3.59301 2.70018,1.03615 1.83887,5.7877 -1.90373,10.50228 l -3.48551,4.39073 3.51863,0.5 c 1.93525,0.275 3.61623,0.95 3.73552,1.5 0.24951,1.15045 -8.49572,1.95407 -9.57035,0.87943 z m 59.94222,-1.20817 C 674.89577,575.22734 674.41087,572 675.87803,572 c 0.48291,0 1.59576,1.0125 2.473,2.25 1.56812,2.21212 1.62068,2.21732 3.12197,0.30887 2.09749,-2.66634 1.92906,-3.45551 -0.973,-4.55887 -3.01223,-1.14525 -3.22968,-2.57592 -0.5,-3.28975 2.13112,-0.5573 2.70435,-3.1569 0.93699,-4.24919 -0.58466,-0.36134 -1.92528,0.12335 -2.97915,1.0771 -1.7994,1.62843 -1.95597,1.6303 -2.56977,0.0307 -0.78581,-2.04779 0.25925,-3.21749 3.61193,-4.04273 4.44885,-1.09505 5.9411,1.1308 6.23575,9.3013 0.22652,6.28113 -0.0129,7.5306 -1.67688,8.75 -2.62513,1.92379 -4.91731,1.78892 -6.90388,-0.40621 z m -115.98832,0.16207 C 560.3,576.96667 560,572.91667 560,568.33333 560,561.59259 560.28667,560 561.5,560 c 1.22222,0 1.5,1.66667 1.5,9 0,8.25453 -0.52765,10.13901 -2.33333,8.33333 z M 743.71025,576 c -0.40485,-1.54814 -1.36401,-2 -4.24546,-2 h -3.72245 l 0.66847,-5.03915 C 737.3022,562.24121 738.62475,559 740.47525,559 c 1.89544,0 1.89907,0.68761 0.0315,5.98075 -1.56617,4.43901 -1.30656,6.01925 0.98887,6.01925 0.8233,0 1.50371,-1.30773 1.69098,-3.25 0.53962,-5.59661 2.2995,-3.07322 2.60905,3.74094 0.28013,6.16661 -0.95411,8.83525 -2.08544,4.50906 z M 179.44534,558.55692 c -2.10811,-3.21738 -1.16819,-4.52106 1.51128,-2.09617 2.48875,2.25228 4.63288,1.46696 5.28322,-1.93506 0.66105,-3.45808 -1.64376,-5.91507 -4.24354,-4.52371 -3.45723,1.85025 -4.11867,1.19735 -3.80109,-3.75198 L 178.5,541.5 h 4.75 c 5.49121,0 6.50815,1.8487 1.27089,2.31037 -4.11262,0.36252 -5.04024,3.18963 -1.04657,3.18963 1.72858,0 2.93415,0.88921 4,2.95034 2.70739,5.23551 1.27528,9.32145 -3.70529,10.57149 -2.10206,0.52759 -2.94008,0.14675 -4.32369,-1.96491 z m 636.12609,-0.12835 C 813.86366,556.7208 813.4258,553 814.93261,553 c 0.51294,0 1.22659,0.92623 1.58589,2.0583 0.90051,2.83723 4.86907,2.23329 5.30084,-0.80669 0.23435,-1.64997 -0.3645,-2.50838 -2.25,-3.22525 C 818.1562,550.48909 817,549.54022 817,548.91776 c 0,-0.62245 0.65196,-0.88156 1.44881,-0.57578 1.86881,0.71713 3.16742,-3.13195 1.58321,-4.69264 -0.88083,-0.86775 -1.48343,-0.72059 -2.45958,0.60066 -1.51707,2.05338 -3.57244,2.31229 -3.57244,0.45 0,-3.32843 6.59766,-5.17934 8.73312,-2.45 1.46574,1.87336 2.19831,5.67434 1.21121,6.28441 -0.48476,0.2996 -0.45424,1.62441 0.0691,3.00099 2.25692,5.93615 -4.15969,11.17551 -8.44203,6.89317 z M 442.31606,554.10062 C 441.7746,552.03006 441.36921,552 413.99036,552 c -23.76763,0 -27.85945,0.21648 -28.35199,1.5 -0.31658,0.825 -1.21658,1.5 -2,1.5 -0.78341,0 -1.68341,-0.675 -2,-1.5 -0.4924,-1.28318 -4.56369,-1.5 -28.166,-1.5 -18.26796,0 -27.3801,0.34027 -26.968,1.00706 0.34231,0.55389 -0.13683,1.29841 -1.06478,1.65449 -1.04873,0.40244 -2.03754,0.0214 -2.61307,-1.00706 C 321.99952,552.17672 318.91524,552 293.95031,552 269.77226,552 266,552.20244 266,553.5 c 0,0.825 -0.3949,1.5 -0.87756,1.5 -0.48265,0 -1.43775,-0.675 -2.12244,-1.5 -1.05209,-1.26769 -5.56235,-1.5 -29.12244,-1.5 C 209.76417,552 206,552.20254 206,553.5 c 0,0.825 -0.40186,1.5 -0.89301,1.5 -0.49116,0 -1.15203,-0.675 -1.46862,-1.5 -0.31658,-0.825 -1.26472,-1.5 -2.10699,-1.5 -2.02679,0 -1.93197,-0.65364 0.46862,-3.23037 1.86366,-2.00041 2,-3.529 2,-22.42301 0,-19.53034 -0.0767,-20.31731 -2.08565,-21.39246 -2.06436,-1.10481 -1.834,-2.45416 0.41898,-2.45416 0.84157,0 1.2421,-5.64278 1.43738,-20.25 0.25519,-19.08976 1.18224,-25.00147 2.58744,-16.5 0.34091,2.0625 0.62479,11.06951 0.63084,20.01557 l 0.011,16.26558 28.25,-0.26558 28.25,-0.26557 v -19.75086 c 0,-15.13449 0.29216,-19.75067 1.25,-19.75 0.6875,4.7e-4 1.26428,0.56336 1.28174,1.25086 0.0174,0.6875 0.17715,7.1 0.35489,14.25 0.17773,7.15 0.38845,15.5875 0.46826,18.75 L 267,502 h 28 28 v -20 c 0,-17.11111 0.21667,-20 1.5,-20 1.73275,0 1.66015,-1.07397 1.5041,22.25 L 325.88534,502 h 28.32554 28.32554 l 0.26528,-19.70015 c 0.1459,-10.83509 0.44527,-19.88015 0.66526,-20.10014 0.21999,-0.21999 0.87992,-0.10336 1.46651,0.25917 0.6962,0.43028 1.06653,7.40967 1.06653,20.10014 V 502 h 28 28 v -20 c 0,-17.11111 0.21667,-20 1.5,-20 1.28333,0 1.5,2.88889 1.5,20 v 20 h 26.5 c 22.88889,0 26.5,0.2044 26.5,1.5 0,1.2956 -3.61111,1.5 -26.5,1.5 H 445 v 22 22 h 26.08333 c 20.42197,0 25.993,0.27131 25.66715,1.25 -0.3154,0.9473 -6.63171,1.31463 -26.08333,1.51688 C 449.25149,551.98956 445,552.26965 445,553.45787 c 0,2.38302 -2.09749,2.88533 -2.68394,0.64275 z M 323,526.96957 V 505 h -27.89301 c -24.51229,0 -27.96658,0.19172 -28.5,1.58179 -0.67225,1.75185 -0.85293,41.83819 -0.19157,42.50154 0.22848,0.22917 13.05348,0.29048 28.5,0.13624 L 323,548.93914 Z m -59.16888,1.26481 c 0.0421,-11.42109 -0.27116,-21.32835 -0.69624,-22.01614 -0.5951,-0.96289 -7.19706,-1.1893 -28.70387,-0.98438 L 206.5,505.5 206.2305,527.25 205.961,549 h 28.89675 28.89675 l 0.0766,-20.76562 z M 382.77503,527.25 382.5,505.5 354.25,505.23443 326,504.96885 v 21.34891 c 0,11.7419 0.3,21.64891 0.66667,22.01557 C 327.03333,548.7 339.8696,549 355.1917,549 h 27.85836 z M 442,527 v -22 h -28 -28 v 22 22 h 28 28 z m 119,26.5166 c 0,-1.26675 -3.83373,-1.52233 -26.25,-1.75 -16.6556,-0.16916 -26.25,-0.6321 -26.25,-1.2666 0,-0.6345 9.5944,-1.09744 26.25,-1.2666 L 561,548.96679 v -21.96706 -21.96706 l -26.75,-0.26634 C 498.4473,504.40987 498.2904,502.67377 534,502 l 26.5,-0.5 0.0338,-18.5 c 0.0384,-21.02654 0.0596,-21.30219 1.59739,-20.7896 0.7944,0.2648 1.10644,6.24444 1.04804,20.08333 L 563.09606,502 H 591.54803 620 v -20 c 0,-19.03588 0.0923,-20 1.91458,-20 1.82777,0 1.90711,0.90682 1.75,20.00034 L 623.5,502.00067 651.25,502.00034 679,502 v -20.07332 c 0,-17.69213 0.18582,-20.03497 1.56641,-19.75 1.34956,0.27856 1.59182,3.02284 1.75,19.82332 l 0.18359,19.5 27.62929,0.26561 c 27.41942,0.26359 27.6335,0.2495 28.18385,-1.85505 0.30501,-1.16635 0.28969,-10.17337 -0.034,-20.0156 C 737.74555,463.67405 737.84529,462 739.34524,462 c 2.08187,0 1.91259,-1.45141 2.15915,18.51255 0.11556,9.3569 0.52967,18.0194 0.92025,19.25 L 743.13478,502 H 771.06739 799 v -20.5 c 0,-11.275 0.3375,-20.49311 0.75,-20.48469 3.15011,0.0643 3.41122,1.78835 3.08137,20.34501 -0.18226,10.25294 -0.0242,18.64126 0.35124,18.6407 1.44898,-0.002 1.79534,3.81288 0.56199,6.19015 -0.89445,1.72405 -1.38506,8.50024 -1.58891,21.94528 l -0.2949,19.45109 2.56961,1.37521 C 807.50236,550.60681 807.76363,552 805,552 c -1.11111,0 -2,0.66667 -2,1.5 0,0.825 -0.675,1.5 -1.5,1.5 -0.825,0 -1.5,-0.675 -1.5,-1.5 0,-1.29825 -3.83333,-1.5 -28.5,-1.5 -24.66667,0 -28.5,0.20175 -28.5,1.5 0,0.825 -0.68912,1.5 -1.53138,1.5 -0.84227,0 -1.79041,-0.675 -2.10699,-1.5 -0.87644,-2.28396 -53.88712,-2.2394 -56.41403,0.0474 -1.54319,1.39656 -1.86075,1.39656 -3.25732,0 C 678.37087,552.22801 674.20239,552 651.40017,552 c -23.3568,0 -26.97159,0.20715 -28.55058,1.63612 -1.67386,1.51483 -1.85444,1.51483 -2.43573,0 C 619.85333,552.1754 616.79569,552 591.89301,552 567.76589,552 564,552.20252 564,553.5 c 0,0.825 -0.675,1.5 -1.5,1.5 -0.825,0 -1.5,-0.66753 -1.5,-1.4834 z m 59,-26.53217 v -22.01558 l -28.11869,0.26558 -28.1187,0.26557 -0.30002,9.5 c -0.16502,5.225 -0.0458,15.0125 0.26481,21.75 L 564.29225,549 H 592.14612 620 Z m 59.37802,3.76147 c -0.0671,-10.03524 -0.17959,-19.9334 -0.25,-21.9959 L 679,505 h -27.46281 -27.46282 l -0.28718,22.0009 -0.28719,22.0009 28,-0.005 28,-0.005 z M 739,526.98443 v -22.01558 l -28.25,0.26558 -28.25,0.26557 -0.27142,20.473 c -0.14927,11.26015 -0.0509,21.04765 0.21862,21.75 0.38142,0.99398 6.7027,1.277 28.52142,1.277 H 739 Z M 799.53238,543.75 c -0.0754,-2.8875 -0.22602,-12.7875 -0.33473,-22 L 799,505 H 770.5 742 v 22 22 h 28.83473 28.83473 z M 186,511.08333 C 186,509.36552 185.38042,509 182.46862,509 c -2.05952,0 -3.74948,-0.56834 -4.05465,-1.3636 -0.82927,-2.16104 3.9795,-13.08849 5.92462,-13.46309 1.46232,-0.28162 1.31163,0.49556 -1.01646,5.24245 -2.04367,4.16697 -2.44608,5.86029 -1.59493,6.71144 1.72691,1.72691 4.2728,0.24397 4.2728,-2.48883 0,-1.33341 0.69632,-2.69159 1.54737,-3.01818 1.31153,-0.50327 1.50205,0.34475 1.25,5.56365 -0.18402,3.81041 -0.77383,6.31473 -1.54737,6.57012 -0.73206,0.2417 -1.25,-0.45052 -1.25,-1.67063 z m 629.14417,1.13139 c -2.28984,-0.76328 -1.05077,-4.36073 3.02488,-8.7823 3.79192,-4.11374 4.02675,-4.66519 2.59596,-6.09598 C 819.04417,495.61559 817,496.27938 817,498.55902 817,499.35156 816.325,500 815.5,500 c -1.81593,0 -1.99264,-3.36098 -0.25,-4.75517 2.82233,-2.25799 5.62894,-2.36589 7.69885,-0.29598 2.90446,2.90446 2.60165,4.2948 -2.12142,9.74033 l -4.17257,4.81082 4.17257,0.3075 c 2.29491,0.16912 4.17257,0.72305 4.17257,1.23095 0,1.63134 -6.25209,2.37752 -9.85583,1.17627 z m 5.88743,-41.9057 c -0.0174,-1.20504 0.42574,-2.47364 0.98471,-2.8191 0.55897,-0.34546 0.75742,-1.04702 0.44098,-1.55902 -0.89209,-1.44344 0.44004,-2.90753 2.07474,-2.28024 2.14006,0.82122 1.80309,2.85689 -1.00043,6.04358 -2.35873,2.6811 -2.4698,2.70842 -2.5,0.61478 z M 180.57143,465.42857 C 178.89145,463.74859 178.41632,460 179.88337,460 c 0.48585,0 1.12803,0.9356 1.42707,2.07911 0.7614,2.91159 5.06975,2.26443 5.5089,-0.8275 0.23435,-1.64997 -0.3645,-2.50838 -2.25,-3.22525 C 181.83628,456.98726 181.06385,455 183.39301,455 c 1.8055,0 2.96894,-3.03805 1.6634,-4.34359 -0.67887,-0.67887 -1.65083,-0.42844 -2.96977,0.76518 -2.6418,2.39079 -4.83035,1.05768 -2.4968,-1.52087 2.01487,-2.22639 6.6623,-2.50676 8.32588,-0.50227 0.63834,0.76915 1.1061,2.90665 1.03947,4.75 -0.0666,1.84335 0.18704,4.33866 0.56371,5.54513 0.50229,1.60883 0.003,2.87504 -1.87157,4.75 -2.94273,2.94273 -4.85234,3.20855 -7.0759,0.98499 z m 636.31135,-0.61135 c -0.83481,-2.87272 -0.32698,-17.33151 0.61722,-17.57327 1.2778,-0.32718 1.91748,16.73857 0.67403,17.98202 -0.54462,0.54462 -1.06177,0.38091 -1.29125,-0.40875 z m 10.27372,-1.37309 C 826.52042,462.0481 826,460.70207 826,460.45295 c 0,-1.01667 2.24326,-0.35255 3.6875,1.09169 2.12296,2.12296 3.74922,1.33997 4.14068,-1.99358 0.38579,-3.28538 -0.96739,-4.94439 -4.08351,-5.00639 C 827.15358,454.49311 827,454.21083 827,449.5 c 0,-3.47459 0.0322,-3.5 4.44098,-3.5 2.44254,0 4.7191,0.45 5.05902,1 0.37394,0.60504 -1.01406,1 -3.51431,1 -3.35683,0 -4.07067,0.32019 -3.80376,1.70615 0.18071,0.93839 1.41064,1.9616 2.73317,2.27381 5.78148,1.36482 7.79314,9.50027 2.98538,12.0733 -4.21607,2.25637 -6.52098,2.07507 -7.74398,-0.60913 z m -625.48983,-4.1108 C 201.3,458.96667 201,458.29907 201,457.8498 c 0,-0.44928 66.6,-0.77794 148,-0.73036 125.99911,0.0736 148,0.29418 148,1.48354 C 497,459.79269 475.13631,460 349.66667,460 c -81.03334,0 -147.63334,-0.3 -148,-0.66667 z m 307.11052,0.16154 c -0.39755,-0.42561 -0.49182,-1.14759 -0.20949,-1.60441 0.77097,-1.24745 297.15244,-1.1523 297.92371,0.0956 0.34464,0.55765 0.48757,1.0249 0.31761,1.03835 -6.77339,0.53586 -297.542,0.99482 -298.03183,0.47042 z m -307.27952,-4.49864 c -0.34344,-0.55569 -0.0334,-1.2353 0.68895,-1.51023 2.65935,-1.01214 294.80791,-0.008 295.06341,1.014 0.34882,1.39547 -294.89044,1.89084 -295.75236,0.49623 z m 307.21037,0.37848 c -0.35952,-0.35952 -0.41434,-1.0409 -0.12184,-1.51419 C 509.35215,452.6212 806,452.74245 806,453.98208 c 0,1.04885 -32.27567,1.33772 -199.56914,1.78612 -53.38803,0.1431 -97.3633,-0.034 -97.72282,-0.39349 z M 383.63948,451.30615 C 383.28777,450.95443 383,442.85955 383,433.31751 v -17.34915 l -27.75,0.26582 -27.75,0.26582 -0.27361,17.25 c -0.26256,16.55275 -0.35531,17.25 -2.29459,17.25 -1.9622,0 -2.01241,-0.50895 -1.72639,-17.50124 L 323.5,415.99753 295.25,415.99876 267,416 l -0.14518,5.75 c -0.14261,5.64823 -0.19244,7.38048 -0.63464,22.05902 -0.1376,4.56764 -0.59525,7.07721 -1.22018,6.69098 -0.60299,-0.37267 -1,-7.34372 -1,-17.55902 V 416 l -2.75,-0.008 c -1.5125,-0.004 -14.15542,-0.29901 -28.09538,-0.65468 -21.18668,-0.54057 -25.49131,-0.41619 -26.23469,0.75801 -0.48912,0.77257 -0.8962,8.96874 -0.90462,18.2137 -0.01,10.94761 -0.36402,16.5935 -1.01531,16.19098 -0.60311,-0.37274 -1,-7.35418 -1,-17.5904 0,-14.16406 -0.2482,-17.06761 -1.5,-17.54797 -0.825,-0.31659 -1.5,-0.97746 -1.5,-1.46862 0,-0.49115 0.675,-0.89301 1.5,-0.89301 0.825,0 1.5,-0.45 1.5,-1 0,-1.28657 2.72716,-1.30989 3.16667,-0.0271 0.47901,1.39811 56.18072,1.4849 56.64627,0.0883 C 264.26172,410.71485 267,410.66229 267,412 c 0,0.64277 9.96434,1 27.89301,1 23.8713,0 27.97601,-0.21628 28.46862,-1.5 0.31658,-0.825 1.03972,-1.5 1.60699,-1.5 0.56726,0 1.03138,0.675 1.03138,1.5 0,1.29825 3.83333,1.5 28.5,1.5 24.66667,0 28.5,-0.20175 28.5,-1.5 0,-2.05832 1.72214,-1.8877 2.88541,0.28588 0.88446,1.65263 2.98765,1.77579 28.18837,1.65074 24.50871,-0.12162 27.35843,-0.30722 28.49067,-1.85565 1.11917,-1.53056 1.354,-1.54912 2.12687,-0.16807 0.74429,1.32998 4.59027,1.59075 26.83873,1.81977 16.46842,0.16952 25.96995,0.6332 25.96995,1.26733 0,0.63379 -9.40715,1.09769 -25.68793,1.26676 -28.75102,0.29856 -27.14911,-0.17228 -26.31015,7.73324 0.67653,6.37498 -0.68101,27.60697 -1.74252,27.25313 -0.55772,-0.1859 -0.89541,-6.75876 -0.81399,-15.84345 0.0765,-8.53916 -0.15302,-16.28713 -0.51012,-17.21771 C 441.84739,416.15992 439.20878,416 414.51801,416 H 387.25 l -0.625,3.125 c -0.34375,1.71875 -0.625,9.56719 -0.625,17.44098 0,13.0332 -0.56146,16.53922 -2.36052,14.74017 z M 560.88465,449.75 c -0.0634,-0.6875 -0.2199,-1.7 -0.34769,-2.25 -0.12778,-0.55 -0.30087,-7.8625 -0.38465,-16.25 L 560,416 h -26 c -16.66667,0 -26,-0.35897 -26,-1 0,-0.64049 9.15494,-1 25.46482,-1 24.44136,0 25.50783,-0.0804 26.53518,-2 1.36984,-2.55958 2.69174,-2.54661 3.51093,0.0344 0.63165,1.99014 1.24372,2.02825 28.10453,1.75 23.11346,-0.23944 27.60636,-0.52183 28.39117,-1.78445 0.76862,-1.2366 1.28652,-1.2805 2.94929,-0.25 C 625.51265,413.33454 679,413.57313 679,412 c 0,-0.55 0.87344,-1 1.94098,-1 1.06754,0 2.2191,0.45 2.55902,1 0.38728,0.62663 10.67705,1 27.55902,1 C 734.33989,413 738,412.79622 738,411.5 c 0,-0.825 0.6199,-1.5 1.37756,-1.5 0.75765,0 1.93775,0.675 2.62244,1.5 1.78975,2.15651 55.13143,2.25148 56.9159,0.10134 0.92134,-1.11016 1.7717,-1.16807 4.12244,-0.28077 3.03953,1.1473 4.0918,3.67943 1.52905,3.67943 -2.22742,0 -2.53836,2.39609 -2.41818,18.63415 0.0616,8.32379 -0.20285,15.64363 -0.58769,16.26632 C 799.7033,452.90713 799,448.54771 799,434.02277 c 0,-8.72256 -0.27314,-16.571 -0.60699,-17.44098 C 797.85965,415.19187 794.4123,415 769.97247,415 h -27.81356 l -0.6856,3.12152 c -0.37708,1.71684 -0.39379,9.25434 -0.0371,16.75 0.37774,7.93889 0.25999,14.20381 -0.28205,15.0066 -2.25251,3.33599 -2.94815,-0.51928 -2.96985,-16.45903 -0.0124,-9.12491 -0.24982,-16.81797 -0.52755,-17.09569 -0.66318,-0.66318 -53.73276,-0.39444 -54.82016,0.2776 C 682.37646,416.88537 682,424.74148 682,434.05902 682,448.451 681.7743,451 680.5,451 c -1.27051,0 -1.5,-2.43536 -1.5,-15.91821 0,-8.75502 -0.27314,-16.63002 -0.60699,-17.5 C 677.85998,416.19272 674.45145,416 650.41663,416 h -27.3694 l -0.27362,17.16762 c -0.20154,12.64549 -0.60287,17.27712 -1.52361,17.58333 -0.96837,0.32205 -1.25,-3.5459 -1.25,-17.16762 V 416 h -28.59192 -28.59193 l 0.22097,4.75 C 563.57684,432.35172 562.93748,451 562,451 c -0.55,0 -1.05191,-0.5625 -1.11535,-1.25 z M 180.64376,424.23679 c -2.72305,-0.62252 -1.39321,-5.86834 2.50802,-9.89339 2.01414,-2.07807 2.89069,-3.79034 2.48353,-4.85139 -0.71119,-1.85333 -4.13531,-1.62836 -4.13531,0.27169 0,1.72883 -1.9347,1.65355 -2.29995,-0.0895 -0.38753,-1.8494 2.44247,-4.6742 4.68282,-4.6742 1.90237,0 6.11713,3.48728 6.11713,5.0613 0,0.54086 -1.8,2.93616 -4,5.32287 -2.2,2.38672 -4,4.8245 -4,5.4173 0,0.59279 1.6875,1.21746 3.75,1.38816 2.0625,0.17071 3.75,0.76037 3.75,1.31037 0,1.02867 -5.55719,1.491 -8.85624,0.73679 z m 636.23902,-1.41957 c -0.83481,-2.87272 -0.32698,-17.33151 0.61722,-17.57327 1.2778,-0.32718 1.91748,16.73857 0.67403,17.98202 -0.54462,0.54462 -1.06177,0.38091 -1.29125,-0.40875 z M 158.65285,397.89467 c -1.15809,-2.4598 -0.33528,-14.17574 1.02714,-14.6253 0.69499,-0.22933 1.9153,1.94333 2.96899,5.28602 l 1.78901,5.67538 1.14605,-4.49252 c 2.46501,-9.66284 4.41596,-9.07933 4.41596,1.32077 0,5.11803 -0.36493,7.83347 -1,7.44098 -0.55,-0.33992 -1.03488,-2.50398 -1.0775,-4.80902 L 167.845,389.5 l -1.75677,4.99391 c -1.56402,4.44595 -1.87171,4.77512 -2.80419,3 -0.57607,-1.09665 -1.43031,-3.56891 -1.89829,-5.49391 -0.84333,-3.46891 -0.8559,-3.45114 -1.41399,2 -0.36407,3.55601 -0.83024,4.93259 -1.3189,3.89467 z M 831,396.57332 C 831,395.708 831.45,395 832,395 c 0.55556,0 1,-2.66667 1,-6 v -6 h 4 4 v 7.5 c 0,4.33333 -0.42222,7.5 -1,7.5 -0.5641,0 -1,-2.83333 -1,-6.5 0,-5.78038 -0.21614,-6.5 -1.95228,-6.5 -1.69599,0 -1.99137,0.81917 -2.25,6.23996 -0.23883,5.00561 -0.64389,6.3059 -2.04772,6.57332 -1.0664,0.20314 -1.75,-0.28122 -1.75,-1.23996 z M 501.66667,309.33333 C 501.3,308.96667 501,303.38341 501,296.92609 V 285.1855 l -11.57826,0.1679 c -6.36805,0.0923 -12.09251,-0.14993 -12.72104,-0.53838 -2.53703,-1.56797 1.02017,-2.3226 11.63253,-2.46775 6.14173,-0.084 11.50427,-0.19651 11.91677,-0.25 0.4125,-0.0535 0.75,-5.72227 0.75,-12.59727 0,-7.66667 0.38667,-12.5 1,-12.5 0.8553,0 1.41984,8.67476 1.39919,21.5 -0.003,1.65 0.41843,3.28987 0.93574,3.64415 0.51731,0.35428 6.14758,0.71078 12.51171,0.79222 6.36412,0.0814 11.80161,0.37854 12.08329,0.66023 1.51218,1.51217 -3.67993,2.3178 -13.68089,2.12279 -6.91648,-0.13487 -11.2992,0.16586 -11.3762,0.78061 -0.0689,0.55 -0.0328,6.0625 0.0803,12.25 0.18675,10.22374 -0.31652,12.55326 -2.28644,10.58333 z"
       id="path679"
       inkscape:label="Sight"
       transform="matrix(0.26458333,0,0,0.26458333,66.145836,0)" /></g><g
     inkscape:groupmode="layer"
     id="layer2"
     inkscape:label="Lines"
     transform="translate(-24.999997)"><path
       style="fill:none;fill-opacity:1;fill-rule:evenodd;stroke:#f1372a;stroke-width:1.05833333;stroke-dasharray:none;stroke-dashoffset:0;stroke-opacity:1;marker-start:"
       d="M 198.94031,59.729666 V 39.610895 H 25"
       id="path3201"
       sodipodi:nodetypes="ccc" /><path
       style="fill:none;fill-opacity:1;fill-rule:evenodd;stroke:#f1372a;stroke-width:1.05833;stroke-dasharray:none;stroke-dashoffset:0;stroke-opacity:1"
       d="M 278.1329,100.54911 V 80.43 l 126.04531,3.41e-4"
       id="path3900"
       sodipodi:nodetypes="ccc" /><g
       id="g4223"
       transform="translate(-5.343644,3.2900901)"><path
         style="fill:none;fill-opacity:1;fill-rule:evenodd;stroke:#f1372a;stroke-width:1.05833;stroke-dasharray:none;stroke-dashoffset:0;stroke-opacity:1;marker-start:"
         d="M 297.70822,139.47052 V 124.34391 H 376.5752"
         id="path3902"
         sodipodi:nodetypes="ccc" /><path
         style="fill:none;fill-opacity:1;fill-rule:evenodd;stroke:#f1372a;stroke-width:1.05833;stroke-dasharray:none;stroke-dashoffset:0;stroke-opacity:1;marker-start:"
         d="m 297.70822,109.21726 v 15.12663"
         id="path4211"
         sodipodi:nodetypes="cc" /></g><g
       id="g4229"
       transform="matrix(-1,0,0,1,402.67226,3.2900901)"><path
         style="fill:none;fill-opacity:1;fill-rule:evenodd;stroke:#f1372a;stroke-width:1.05833;stroke-dasharray:none;stroke-dashoffset:0;stroke-opacity:1;marker-start:"
         d="m 297.70822,139.47052 v -15.12661 h 79.96404"
         id="path4225"
         sodipodi:nodetypes="ccc" /><path
         style="fill:none;fill-opacity:1;fill-rule:evenodd;stroke:#f1372a;stroke-width:1.05833;stroke-dasharray:none;stroke-dashoffset:0;stroke-opacity:1;marker-start:"
         d="m 297.70822,109.21726 v 15.12663"
         id="path4227"
         sodipodi:nodetypes="cc" /></g><g
       id="g4235"
       transform="translate(-12.460255,53.432344)"><path
         style="fill:none;fill-opacity:1;fill-rule:evenodd;stroke:#f1372a;stroke-width:1.05833;stroke-dasharray:none;stroke-dashoffset:0;stroke-opacity:1;marker-start:"
         d="m 297.70822,135.94066 v -11.597 h 155.60559"
         id="path4231"
         sodipodi:nodetypes="ccc" /><path
         style="fill:none;fill-opacity:1;fill-rule:evenodd;stroke:#f1372a;stroke-width:1.05833;stroke-dasharray:none;stroke-dashoffset:0;stroke-opacity:1"
         d="m 297.70822,112.74723 v 11.59666"
         id="path4233"
         sodipodi:nodetypes="cc" /></g><g
       id="g4241"
       transform="matrix(-1,0,0,1,411.06813,67.507143)"><path
         style="fill:none;fill-opacity:1;fill-rule:evenodd;stroke:#f1372a;stroke-width:1.05833;stroke-dasharray:none;stroke-dashoffset:0;stroke-opacity:1"
         d="m 297.70822,150.19086 v -25.847 h 88.35991"
         id="path4237"
         sodipodi:nodetypes="ccc" /><path
         style="fill:none;fill-opacity:1;fill-rule:evenodd;stroke:#f1372a;stroke-width:1.05833;stroke-dasharray:none;stroke-dashoffset:0;stroke-opacity:1;marker-start:"
         d="M 297.70822,98.496948 V 124.34389"
         id="path4239"
         sodipodi:nodetypes="cc" /></g><rect
       style="fill:#000000;fill-opacity:0;fill-rule:evenodd;stroke:#f1372a;stroke-width:0.79375;stroke-dasharray:none;stroke-dashoffset:0;stroke-opacity:1"
       id="rect11337"
       width="3.8911068"
       height="3.8911068"
       x="121.6796"
       y="267.76862"
       transform="rotate(-45)" /><rect
       style="fill:#000000;fill-opacity:0;fill-rule:evenodd;stroke:#f1372a;stroke-width:0.79375;stroke-dasharray:none;stroke-dashoffset:0;stroke-opacity:1"
       id="rect12446"
       width="3.8911068"
       height="3.8911068"
       x="127.17826"
       y="282.39658"
       transform="rotate(-45)" /><rect
       style="fill:#000000;fill-opacity:0;fill-rule:evenodd;stroke:#f1372a;stroke-width:0.79375;stroke-dasharray:none;stroke-dashoffset:0;stroke-opacity:1"
       id="rect12448"
       width="3.8911068"
       height="3.8911068"
       x="101.89487"
       y="307.67996"
       transform="rotate(-45)" /><rect
       style="fill:#000000;fill-opacity:0;fill-rule:evenodd;stroke:#f1372a;stroke-width:0.79375;stroke-dasharray:none;stroke-dashoffset:0;stroke-opacity:1"
       id="rect12450"
       width="3.8911068"
       height="3.8911068"
       x="84.194069"
       y="315.31638"
       transform="rotate(-45)" /><rect
       style="fill:#000000;fill-opacity:0;fill-rule:evenodd;stroke:#f1372a;stroke-width:0.79375;stroke-dasharray:none;stroke-dashoffset:0;stroke-opacity:1"
       id="rect12452"
       width="3.8911068"
       height="3.8911068"
       x="63.902729"
       y="335.6077"
       transform="rotate(-45)" /><rect
       style="fill:#000000;fill-opacity:0;fill-rule:evenodd;stroke:#f1372a;stroke-width:0.79375;stroke-dasharray:none;stroke-dashoffset:0;stroke-opacity:1"
       id="rect12454"
       width="3.8911068"
       height="3.8911068"
       x="-77.669281"
       y="234.09329"
       transform="rotate(-45)" /><rect
       style="fill:#000000;fill-opacity:0;fill-rule:evenodd;stroke:#f1372a;stroke-width:0.79375;stroke-dasharray:none;stroke-dashoffset:0;stroke-opacity:1"
       id="rect12456"
       width="3.8911068"
       height="3.8911068"
       x="-37.225056"
       y="193.64906"
       transform="rotate(-45)" /><rect
       style="fill:#000000;fill-opacity:0;fill-rule:evenodd;stroke:#f1372a;stroke-width:0.79375;stroke-dasharray:none;stroke-dashoffset:0;stroke-opacity:1"
       id="rect12458"
       width="3.8911068"
       height="3.8911068"
       x="-30.617317"
       y="175.16779"
       transform="rotate(-45)" /><rect
       style="fill:#000000;fill-opacity:0;fill-rule:evenodd;stroke:#f1372a;stroke-width:0.79375;stroke-dasharray:none;stroke-dashoffset:0;stroke-opacity:1"
       id="rect12460"
       width="3.8911068"
       height="3.8911068"
       x="-5.3339257"
       y="149.88438"
       transform="rotate(-45)" /><rect
       style="fill:#000000;fill-opacity:0;fill-rule:evenodd;stroke:#f1372a;stroke-width:0.79375;stroke-dasharray:none;stroke-dashoffset:0;stroke-opacity:1"
       id="rect12471"
       width="3.8911068"
       height="3.8911068"
       x="94.545685"
       y="182.90729"
       transform="rotate(-45)" /></g><g
     inkscape:groupmode="layer"
     id="layer3"
     inkscape:label="Text"
     transform="translate(-24.999997)"><g
       aria-label="50 m Boresight"
       id="text4306"
       style="font-size:11.2889px;font-family:'PT Sans';-inkscape-font-specification:'PT Sans';text-align:center;text-anchor:middle;fill:#eaebee;fill-rule:evenodd;stroke-width:1.05833"><path
         d="m 26.535292,36.033728 q 0.778934,0 1.286935,-0.451556 0.508,-0.451556 0.508,-1.309512 0,-0.82409 -0.508,-1.230491 -0.496712,-0.4064 -1.377246,-0.4064 l -0.948268,0.05644 v -3.905959 h 3.522137 v 0.835379 h -2.675469 v 2.246491 l 0.485423,-0.02258 q 1.117601,0.01129 1.761068,0.620889 0.643467,0.609601 0.643467,1.74978 0,0.632178 -0.214489,1.12889 -0.214489,0.485423 -0.587023,0.812801 -0.361244,0.327378 -0.857956,0.496711 -0.496712,0.169334 -1.061157,0.169334 -0.508,0 -0.857956,-0.05645 -0.349956,-0.05644 -0.654756,-0.169333 l 0.237067,-0.767645 q 0.259644,0.1016 0.553156,0.158044 0.3048,0.04516 0.745067,0.04516 z"
         id="path10975" /><path
         d="m 30.768631,32.737369 q 0,-2.032002 0.654756,-3.059292 0.666045,-1.02729 1.930402,-1.02729 1.365957,0 1.975557,1.016001 0.62089,1.004712 0.62089,3.070581 0,2.032002 -0.666045,3.059292 -0.654757,1.02729 -1.930402,1.02729 -1.343379,0 -1.964269,-1.072446 -0.620889,-1.072445 -0.620889,-3.014136 z m 0.936978,0 q 0,0.733779 0.09031,1.343379 0.101601,0.598312 0.304801,1.038579 0.2032,0.428978 0.508,0.677334 0.31609,0.237067 0.745068,0.237067 0.857956,0 1.253068,-0.790223 0.4064,-0.801512 0.4064,-2.506136 0,-0.72249 -0.09031,-1.33209 -0.07902,-0.609601 -0.282223,-1.049868 -0.191911,-0.440267 -0.508,-0.677334 -0.316089,-0.237067 -0.778934,-0.237067 -0.846668,0 -1.253068,0.801512 -0.395112,0.801512 -0.395112,2.494847 z"
         id="path10977" /><path
         d="m 41.318108,36.688484 v -3.194759 q 0,-0.451556 -0.04516,-0.778934 -0.03387,-0.338667 -0.146756,-0.564445 -0.112889,-0.225778 -0.327378,-0.338667 -0.2032,-0.112889 -0.541867,-0.112889 -0.51929,0 -0.869246,0.316089 -0.338667,0.31609 -0.474133,0.790223 v 3.883382 h -0.903112 v -5.64445 h 0.632178 l 0.169334,0.688623 h 0.04516 q 0.3048,-0.361245 0.699912,-0.587023 0.4064,-0.237067 1.049868,-0.237067 0.541867,0 0.880534,0.214489 0.349956,0.203201 0.541867,0.72249 0.259645,-0.440267 0.711201,-0.688623 0.462845,-0.248356 1.038579,-0.248356 0.474134,0 0.801512,0.112889 0.327378,0.1016 0.541867,0.372534 0.214489,0.270934 0.3048,0.733778 0.1016,0.462845 0.1016,1.174046 v 3.38667 h -0.903112 v -3.397959 q 0,-0.4064 -0.04516,-0.699912 -0.03387,-0.3048 -0.158045,-0.496711 -0.112889,-0.2032 -0.327378,-0.293512 -0.2032,-0.1016 -0.541867,-0.1016 -0.564445,0 -0.880535,0.316089 -0.316089,0.31609 -0.451556,0.903112 v 3.770493 z"
         id="path10979" /><path
         d="m 55.045416,30.592478 q 0,0.282222 -0.09031,0.575734 -0.09031,0.293511 -0.270934,0.553156 -0.180622,0.248356 -0.462845,0.440267 -0.282223,0.191911 -0.666045,0.293512 v 0.04516 q 0.338667,0.05645 0.643467,0.191911 0.316089,0.135467 0.553156,0.372534 0.237067,0.237067 0.383823,0.575734 0.146756,0.338667 0.146756,0.801512 0,0.609601 -0.259645,1.061157 -0.248356,0.440267 -0.666045,0.722489 -0.406401,0.282223 -0.936979,0.41769 -0.530578,0.135466 -1.083734,0.135466 -0.191912,0 -0.451556,0 -0.259645,0 -0.541868,-0.02258 -0.282222,-0.01129 -0.564445,-0.04516 -0.282222,-0.02258 -0.496711,-0.07902 v -7.778053 q 0.417689,-0.06773 0.970845,-0.112889 0.553156,-0.04516 1.207913,-0.04516 0.440267,0 0.891823,0.07902 0.462845,0.06773 0.835378,0.282223 0.372534,0.2032 0.609601,0.575733 0.248356,0.372534 0.248356,0.959557 z m -2.619025,5.373517 q 0.361245,0 0.699912,-0.07902 0.338667,-0.09031 0.598311,-0.270933 0.259645,-0.191912 0.406401,-0.462845 0.158044,-0.270934 0.158044,-0.643468 0,-0.462844 -0.191911,-0.745067 -0.180622,-0.282223 -0.485423,-0.440267 -0.293511,-0.158045 -0.666045,-0.214489 -0.372533,-0.05645 -0.745067,-0.05645 h -0.982135 v 2.833514 q 0.07902,0.02258 0.225779,0.03387 0.146755,0.01129 0.316089,0.02258 0.169333,0.01129 0.349956,0.02258 0.180622,0 0.316089,0 z m -0.62089,-3.70276 q 0.191912,0 0.462845,-0.01129 0.270934,-0.01129 0.451556,-0.03387 0.270934,-0.09031 0.508001,-0.214489 0.237067,-0.135467 0.417689,-0.304801 0.191911,-0.180622 0.293511,-0.4064 0.112889,-0.237067 0.112889,-0.508001 0,-0.372533 -0.146755,-0.6096 -0.135467,-0.248356 -0.372534,-0.395112 -0.237067,-0.146756 -0.541867,-0.2032 -0.3048,-0.06773 -0.62089,-0.06773 -0.372533,0 -0.688623,0.02258 -0.3048,0.01129 -0.462845,0.04516 v 2.686758 z"
         id="path10981" /><path
         d="m 56.467814,33.866259 q 0,-1.43369 0.632178,-2.190047 0.643467,-0.767645 1.840091,-0.767645 0.632178,0 1.095023,0.214489 0.474134,0.203201 0.778934,0.598312 0.304801,0.383823 0.451556,0.936979 0.146756,0.541867 0.146756,1.207912 0,1.43369 -0.643467,2.201336 -0.632179,0.756356 -1.828802,0.756356 -0.632179,0 -1.106312,-0.2032 -0.462845,-0.214489 -0.767646,-0.598312 -0.3048,-0.395111 -0.451556,-0.936979 -0.146755,-0.553156 -0.146755,-1.219201 z m 0.936978,0 q 0,0.428978 0.07902,0.82409 0.09031,0.395111 0.270933,0.688623 0.180623,0.293511 0.474134,0.474134 0.293512,0.180622 0.711201,0.180622 1.53529,0.01129 1.53529,-2.167469 0,-0.440267 -0.09031,-0.835379 -0.07902,-0.395111 -0.259645,-0.688622 -0.180622,-0.293512 -0.474133,-0.462845 -0.293512,-0.180623 -0.711201,-0.180623 -1.535291,-0.01129 -1.535291,2.167469 z"
         id="path10983" /><path
         d="m 65.498926,31.913279 q -0.338667,-0.112889 -0.643468,-0.112889 -0.485422,0 -0.767645,0.270934 -0.282222,0.259645 -0.349956,0.666045 v 3.951115 h -0.903112 v -5.64445 h 0.632179 l 0.169333,0.688623 h 0.04516 q 0.214489,-0.383823 0.508,-0.587023 0.304801,-0.214489 0.767645,-0.214489 0.327379,0 0.733779,0.112889 z"
         id="path10985" /><path
         d="m 70.793424,36.236928 q -0.338667,0.270934 -0.857957,0.428978 -0.508,0.158045 -1.083734,0.158045 -0.643467,0 -1.117601,-0.2032 -0.474134,-0.214489 -0.778934,-0.598312 -0.304801,-0.395111 -0.451556,-0.936979 -0.146756,-0.541867 -0.146756,-1.219201 0,-1.444979 0.643467,-2.201335 0.643468,-0.756357 1.840091,-0.756357 0.383823,0 0.767645,0.09031 0.383823,0.07902 0.688623,0.31609 0.304801,0.237067 0.496712,0.677334 0.191911,0.428978 0.191911,1.140179 0,0.372533 -0.06773,0.824089 h -3.623737 q 0,0.496712 0.1016,0.880535 0.1016,0.383822 0.316089,0.654756 0.214489,0.259644 0.553156,0.4064 0.349956,0.135467 0.846668,0.135467 0.383822,0 0.767645,-0.135467 0.383823,-0.135467 0.575734,-0.316089 z M 68.851733,31.69879 q -0.666045,0 -1.072445,0.349956 -0.395112,0.349956 -0.474134,1.196624 h 2.799647 q 0,-0.857957 -0.327378,-1.196624 -0.327378,-0.349956 -0.92569,-0.349956 z"
         id="path10987" /><path
         d="m 74.891286,35.153194 q 0,-0.338667 -0.2032,-0.530579 -0.2032,-0.191911 -0.508001,-0.316089 -0.293511,-0.135467 -0.654756,-0.248356 -0.349956,-0.124177 -0.654756,-0.3048 -0.293512,-0.191911 -0.496712,-0.485423 -0.2032,-0.293511 -0.2032,-0.790223 0,-0.8128 0.462845,-1.185334 0.462845,-0.383823 1.286935,-0.383823 0.6096,0 1.016001,0.112889 0.417689,0.1016 0.722489,0.248356 l -0.214489,0.745067 q -0.259645,-0.124177 -0.632178,-0.214489 -0.361245,-0.1016 -0.778934,-0.1016 -0.496712,0 -0.733779,0.169334 -0.225778,0.169333 -0.225778,0.587023 0,0.293511 0.2032,0.462844 0.2032,0.158045 0.496712,0.293512 0.3048,0.124178 0.654756,0.248356 0.361245,0.124178 0.654756,0.327378 0.304801,0.2032 0.508001,0.519289 0.2032,0.304801 0.2032,0.812801 0,0.361245 -0.124178,0.677334 -0.112889,0.316089 -0.361245,0.541867 -0.248355,0.225778 -0.620889,0.349956 -0.361245,0.135467 -0.857957,0.135467 -0.643467,0 -1.095023,-0.124178 -0.451556,-0.124178 -0.756356,-0.293511 l 0.270933,-0.767646 q 0.259645,0.146756 0.677334,0.270934 0.41769,0.124178 0.846668,0.124178 0.485423,0 0.801512,-0.191911 0.316089,-0.191912 0.316089,-0.688623 z"
         id="path10989" /><path
         d="m 77.35226,31.044034 h 0.903112 v 5.64445 H 77.35226 Z m -0.191911,-1.715913 q 0,-0.259645 0.169333,-0.440267 0.180623,-0.191911 0.451556,-0.191911 0.270934,0 0.462845,0.191911 0.191911,0.180622 0.191911,0.440267 0,0.259645 -0.191911,0.428978 -0.191911,0.169334 -0.462845,0.169334 -0.270933,0 -0.451556,-0.169334 -0.169333,-0.169333 -0.169333,-0.428978 z"
         id="path10991" /><path
         d="m 84.509422,36.948129 q 0,1.095023 -0.587022,1.614313 -0.575734,0.519289 -1.715913,0.519289 -0.677334,0 -1.095024,-0.09031 -0.4064,-0.07902 -0.699911,-0.214489 l 0.237067,-0.767645 q 0.259644,0.1016 0.575733,0.191911 0.31609,0.09031 0.82409,0.09031 0.474134,0 0.767645,-0.09031 0.304801,-0.07902 0.485423,-0.282223 0.180623,-0.191911 0.248356,-0.508 0.06773,-0.3048 0.06773,-0.733779 v -0.541867 h -0.04515 q -0.225778,0.327378 -0.575734,0.508001 -0.349956,0.169333 -0.914401,0.169333 -1.140179,0 -1.682046,-0.711201 -0.530579,-0.7112 -0.530579,-2.212624 0,-1.444979 0.688623,-2.190047 0.688623,-0.756356 2.032002,-0.756356 0.643468,0 1.095024,0.1016 0.462845,0.1016 0.824089,0.237067 z m -2.269069,-0.92569 q 0.575734,0 0.903112,-0.282222 0.327379,-0.293512 0.462845,-0.903112 v -2.889959 q -0.451556,-0.214489 -1.151467,-0.214489 -0.767646,0 -1.207913,0.519289 -0.440267,0.51929 -0.440267,1.625602 0,0.474134 0.07902,0.869245 0.07902,0.395112 0.248356,0.677334 0.169334,0.282223 0.440267,0.440267 0.270934,0.158045 0.666045,0.158045 z"
         id="path10993" /><path
         d="m 89.871656,36.688484 v -3.217336 q 0,-0.440268 -0.05644,-0.767646 -0.04516,-0.338667 -0.180622,-0.553156 -0.135467,-0.225778 -0.372534,-0.338667 -0.225778,-0.112889 -0.598311,-0.112889 -0.530579,0 -0.959557,0.349956 -0.428978,0.338667 -0.553156,0.880534 v 3.759204 h -0.903112 v -7.90223 h 0.903112 v 2.889958 h 0.04515 q 0.293512,-0.349955 0.699912,-0.553156 0.41769,-0.214489 1.02729,-0.214489 0.474134,0 0.82409,0.112889 0.349956,0.1016 0.575734,0.372534 0.237067,0.270934 0.338667,0.733778 0.112889,0.451556 0.112889,1.151468 v 3.409248 z"
         id="path10995" /><path
         d="m 91.677893,31.044034 h 0.880534 v -1.117601 l 0.903112,-0.259645 v 1.377246 h 1.53529 v 0.790223 h -1.53529 v 3.127025 q 0,0.587023 0.146756,0.835379 0.146755,0.237067 0.496711,0.237067 0.293512,0 0.496712,-0.05645 0.2032,-0.06773 0.451556,-0.169333 l 0.2032,0.688623 q -0.3048,0.146756 -0.666045,0.237067 -0.361245,0.09031 -0.778934,0.09031 -0.688623,0 -0.970846,-0.383823 -0.282222,-0.395111 -0.282222,-1.309512 v -3.296359 h -0.880534 z"
         id="path10997" /></g><g
       aria-label="OG-7V (100 m)"
       id="text4306-3"
       style="font-size:11.2889px;font-family:'PT Sans';-inkscape-font-specification:'PT Sans';text-align:center;text-anchor:middle;fill:#eaebee;fill-rule:evenodd;stroke-width:1.05833"><path
         d="m 336.90199,73.466159 q 0,-1.975557 0.83538,-3.025425 0.83538,-1.061157 2.38196,-1.061157 0.83538,0 1.44498,0.293512 0.6096,0.293511 1.00471,0.835378 0.4064,0.530579 0.59831,1.286935 0.19191,0.745068 0.19191,1.670757 0,1.975558 -0.84667,3.036715 -0.83537,1.049867 -2.39324,1.049867 -0.82409,0 -1.43369,-0.293511 -0.59831,-0.293512 -1.00471,-0.82409 -0.39512,-0.541867 -0.58703,-1.286935 -0.19191,-0.756356 -0.19191,-1.682046 z m 0.99342,0 q 0,0.654757 0.12418,1.241779 0.13547,0.587023 0.4064,1.038579 0.27094,0.440267 0.68863,0.711201 0.42897,0.259645 1.00471,0.259645 1.04987,0 1.64818,-0.790223 0.59831,-0.801512 0.59831,-2.460981 0,-0.643467 -0.13547,-1.23049 -0.12418,-0.598312 -0.4064,-1.038579 -0.27093,-0.451556 -0.69991,-0.7112 -0.41769,-0.270934 -1.00471,-0.270934 -1.03858,0 -1.63689,0.801512 -0.58703,0.790223 -0.58703,2.449691 z"
         id="path11000" /><path
         d="m 347.61516,73.477448 h 2.65289 v 3.476982 q -0.18062,0.135466 -0.44027,0.248355 -0.24835,0.112889 -0.54187,0.191912 -0.28222,0.07902 -0.59831,0.112889 -0.3048,0.04515 -0.59831,0.04515 -0.75635,0 -1.38853,-0.237067 -0.63218,-0.248355 -1.09503,-0.745067 -0.46284,-0.508001 -0.72249,-1.275646 -0.25964,-0.778934 -0.25964,-1.828802 0,-1.095023 0.31609,-1.873957 0.31609,-0.778934 0.82409,-1.264357 0.508,-0.496712 1.14018,-0.72249 0.63218,-0.225778 1.26435,-0.225778 0.67734,0 1.1176,0.07902 0.44027,0.06773 0.74507,0.191911 l -0.23706,0.82409 q -0.54187,-0.259645 -1.54658,-0.259645 -0.47414,0 -0.94827,0.169334 -0.46285,0.158044 -0.83538,0.541867 -0.37253,0.383822 -0.6096,1.004712 -0.23707,0.620889 -0.23707,1.53529 0,0.835379 0.19191,1.44498 0.19191,0.6096 0.53058,1.016001 0.34996,0.395111 0.83538,0.598311 0.48542,0.191912 1.06116,0.191912 0.72249,0 1.23049,-0.282223 v -2.201335 l -1.85138,-0.225778 z"
         id="path11002" /><path
         d="m 351.56627,73.748382 h 2.73191 v 0.835378 h -2.73191 z"
         id="path11004" /><path
         d="m 356.20601,77.417274 2.83352,-6.615295 0.49671,-0.553156 -0.66605,0.1016 h -3.21733 v -0.835379 h 4.71876 v 0.304801 l -3.25121,7.597429 z"
         id="path11006" /><path
         d="m 364.13082,74.945005 0.27093,1.196624 h 0.0113 l 0.29352,-1.219202 1.90782,-5.407383 h 0.93698 l -2.99156,8.026408 h -0.41769 l -3.048,-8.026408 h 1.02729 z"
         id="path11008" /><path
         d="m 372.76683,79.900833 q -0.51929,-0.541868 -0.88053,-1.196624 -0.36125,-0.643467 -0.58702,-1.320801 -0.21449,-0.688623 -0.31609,-1.377246 -0.1016,-0.699912 -0.1016,-1.33209 0,-0.62089 0.1016,-1.309513 0.1016,-0.688623 0.32738,-1.377246 0.22577,-0.699911 0.58702,-1.365957 0.37253,-0.666045 0.90311,-1.241779 l 0.54187,0.395112 q -0.45156,0.575734 -0.75636,1.196623 -0.29351,0.609601 -0.47413,1.241779 -0.18063,0.632179 -0.25965,1.264357 -0.0677,0.62089 -0.0677,1.196624 0,0.541867 0.079,1.185334 0.0903,0.632179 0.27094,1.275646 0.19191,0.632178 0.48542,1.241779 0.3048,0.609601 0.72249,1.106312 z"
         id="path11010" /><path
         d="m 374.58435,76.581896 h 1.58045 v -5.463828 l 0.11289,-0.666045 -0.45156,0.530578 -1.24178,0.891823 -0.42897,-0.575734 2.48355,-1.919113 h 0.4064 v 7.202319 h 1.54658 v 0.835378 h -4.00756 z"
         id="path11012" /><path
         d="m 380.00303,73.466159 q 0,-2.032002 0.65475,-3.059292 0.66605,-1.02729 1.9304,-1.02729 1.36596,0 1.97556,1.016001 0.62089,1.004713 0.62089,3.070581 0,2.032002 -0.66604,3.059292 -0.65476,1.02729 -1.93041,1.02729 -1.34337,0 -1.96426,-1.072445 -0.62089,-1.072446 -0.62089,-3.014137 z m 0.93698,0 q 0,0.733779 0.0903,1.343379 0.1016,0.598312 0.3048,1.038579 0.2032,0.428979 0.508,0.677334 0.31609,0.237067 0.74506,0.237067 0.85796,0 1.25307,-0.790223 0.4064,-0.801512 0.4064,-2.506136 0,-0.722489 -0.0903,-1.33209 -0.079,-0.609601 -0.28222,-1.049868 -0.19191,-0.440267 -0.508,-0.677334 -0.31609,-0.237067 -0.77894,-0.237067 -0.84666,0 -1.25306,0.801512 -0.39511,0.801512 -0.39511,2.494847 z"
         id="path11014" /><path
         d="m 386.15548,73.466159 q 0,-2.032002 0.65475,-3.059292 0.66605,-1.02729 1.93041,-1.02729 1.36595,0 1.97555,1.016001 0.62089,1.004713 0.62089,3.070581 0,2.032002 -0.66604,3.059292 -0.65476,1.02729 -1.9304,1.02729 -1.34338,0 -1.96427,-1.072445 -0.62089,-1.072446 -0.62089,-3.014137 z m 0.93698,0 q 0,0.733779 0.0903,1.343379 0.1016,0.598312 0.3048,1.038579 0.2032,0.428979 0.508,0.677334 0.31609,0.237067 0.74507,0.237067 0.85795,0 1.25306,-0.790223 0.4064,-0.801512 0.4064,-2.506136 0,-0.722489 -0.0903,-1.33209 -0.079,-0.609601 -0.28222,-1.049868 -0.19191,-0.440267 -0.508,-0.677334 -0.31609,-0.237067 -0.77893,-0.237067 -0.84667,0 -1.25307,0.801512 -0.39511,0.801512 -0.39511,2.494847 z"
         id="path11016" /><path
         d="m 396.70496,77.417274 v -3.194758 q 0,-0.451556 -0.0452,-0.778934 -0.0339,-0.338667 -0.14675,-0.564445 -0.11289,-0.225778 -0.32738,-0.338667 -0.2032,-0.112889 -0.54187,-0.112889 -0.51929,0 -0.86925,0.316089 -0.33866,0.316089 -0.47413,0.790223 v 3.883381 h -0.90311 v -5.64445 h 0.63218 l 0.16933,0.688623 h 0.0452 q 0.3048,-0.361245 0.69991,-0.587023 0.4064,-0.237067 1.04987,-0.237067 0.54186,0 0.88053,0.21449 0.34996,0.2032 0.54187,0.722489 0.25964,-0.440267 0.7112,-0.688623 0.46284,-0.248356 1.03858,-0.248356 0.47413,0 0.80151,0.112889 0.32738,0.101601 0.54187,0.372534 0.21449,0.270934 0.3048,0.733779 0.1016,0.462845 0.1016,1.174045 v 3.38667 h -0.90312 v -3.397959 q 0,-0.4064 -0.0452,-0.699911 -0.0339,-0.304801 -0.15805,-0.496712 -0.11288,-0.2032 -0.32737,-0.293511 -0.2032,-0.1016 -0.54187,-0.1016 -0.56445,0 -0.88054,0.316089 -0.31608,0.316089 -0.45155,0.903112 v 3.770492 z"
         id="path11018" /><path
         d="m 402.29297,69.379577 q 0.51929,0.541868 0.88053,1.196624 0.36125,0.643467 0.57574,1.33209 0.22577,0.677334 0.32737,1.377246 0.1016,0.688623 0.1016,1.320801 0,0.62089 -0.1016,1.309513 -0.1016,0.688623 -0.32737,1.388534 -0.22578,0.688623 -0.59832,1.354669 -0.36124,0.666045 -0.89182,1.241779 l -0.54187,-0.395112 q 0.45156,-0.575734 0.75636,-1.196623 0.3048,-0.62089 0.47413,-1.253068 0.18063,-0.632179 0.24836,-1.253068 0.079,-0.62089 0.079,-1.196624 0,-0.541867 -0.0903,-1.174045 -0.0903,-0.632179 -0.28222,-1.275646 -0.18062,-0.643467 -0.47414,-1.253068 -0.29351,-0.609601 -0.7112,-1.106312 z"
         id="path11020" /></g><g
       aria-label="OG-7V (200 m - 240 m)"
       id="text4306-3-1"
       style="font-size:11.2889px;font-family:'PT Sans';-inkscape-font-specification:'PT Sans';text-align:center;text-anchor:middle;fill:#eaebee;fill-rule:evenodd;stroke-width:1.05833"><path
         d="m 336.90201,170.81216 q 0,-1.97556 0.83538,-3.02543 0.83537,-1.06115 2.38195,-1.06115 0.83538,0 1.44498,0.29351 0.6096,0.29351 1.00472,0.83538 0.4064,0.53058 0.59831,1.28693 0.19191,0.74507 0.19191,1.67076 0,1.97556 -0.84667,3.03671 -0.83538,1.04987 -2.39325,1.04987 -0.82409,0 -1.43369,-0.29351 -0.59831,-0.29351 -1.00471,-0.82409 -0.39511,-0.54187 -0.58702,-1.28693 -0.19191,-0.75636 -0.19191,-1.68205 z m 0.99342,0 q 0,0.65476 0.12418,1.24178 0.13547,0.58702 0.4064,1.03858 0.27093,0.44027 0.68862,0.7112 0.42898,0.25964 1.00471,0.25964 1.04987,0 1.64818,-0.79022 0.59832,-0.80151 0.59832,-2.46098 0,-0.64347 -0.13547,-1.23049 -0.12418,-0.59831 -0.4064,-1.03858 -0.27094,-0.45155 -0.69991,-0.7112 -0.41769,-0.27093 -1.00472,-0.27093 -1.03857,0 -1.63689,0.80151 -0.58702,0.79022 -0.58702,2.44969 z"
         id="path14007" /><path
         d="m 347.61517,170.82345 h 2.6529 v 3.47698 q -0.18063,0.13547 -0.44027,0.24836 -0.24836,0.11289 -0.54187,0.19191 -0.28222,0.079 -0.59831,0.11289 -0.3048,0.0452 -0.59831,0.0452 -0.75636,0 -1.38854,-0.23706 -0.63217,-0.24836 -1.09502,-0.74507 -0.46284,-0.508 -0.72249,-1.27565 -0.25964,-0.77893 -0.25964,-1.8288 0,-1.09502 0.31608,-1.87396 0.31609,-0.77893 0.82409,-1.26435 0.50801,-0.49672 1.14018,-0.72249 0.63218,-0.22578 1.26436,-0.22578 0.67733,0 1.1176,0.079 0.44027,0.0677 0.74507,0.19191 l -0.23707,0.82409 q -0.54187,-0.25964 -1.54658,-0.25964 -0.47413,0 -0.94826,0.16933 -0.46285,0.15804 -0.83538,0.54187 -0.37254,0.38382 -0.6096,1.00471 -0.23707,0.62089 -0.23707,1.53529 0,0.83538 0.19191,1.44498 0.19191,0.6096 0.53058,1.016 0.34995,0.39511 0.83538,0.59831 0.48542,0.19191 1.06115,0.19191 0.72249,0 1.23049,-0.28222 v -2.20133 l -1.85138,-0.22578 z"
         id="path14009" /><path
         d="m 351.56628,171.09438 h 2.73192 v 0.83538 h -2.73192 z"
         id="path14011" /><path
         d="m 356.20603,174.76328 2.83351,-6.6153 0.49671,-0.55316 -0.66604,0.1016 h -3.21734 v -0.83538 h 4.71876 v 0.30481 l -3.2512,7.59743 z"
         id="path14013" /><path
         d="m 364.13084,172.29101 0.27093,1.19662 h 0.0113 l 0.29351,-1.2192 1.90783,-5.40739 h 0.93697 l -2.99155,8.02641 h -0.41769 l -3.04801,-8.02641 h 1.02729 z"
         id="path14015" /><path
         d="m 372.76685,177.24683 q -0.51929,-0.54186 -0.88053,-1.19662 -0.36125,-0.64347 -0.58703,-1.3208 -0.21449,-0.68862 -0.31609,-1.37725 -0.1016,-0.69991 -0.1016,-1.33209 0,-0.62089 0.1016,-1.30951 0.1016,-0.68862 0.32738,-1.37725 0.22578,-0.69991 0.58702,-1.36595 0.37254,-0.66605 0.90312,-1.24178 l 0.54186,0.39511 q -0.45155,0.57573 -0.75635,1.19662 -0.29351,0.6096 -0.47414,1.24178 -0.18062,0.63218 -0.25964,1.26436 -0.0677,0.62089 -0.0677,1.19662 0,0.54187 0.079,1.18534 0.0903,0.63218 0.27093,1.27564 0.19191,0.63218 0.48542,1.24178 0.3048,0.6096 0.72249,1.10631 z"
         id="path14017" /><path
         d="m 378.40002,168.65598 q 0,0.59831 -0.22578,1.23049 -0.21449,0.62089 -0.57573,1.25307 -0.34996,0.63218 -0.79023,1.24178 -0.44026,0.59831 -0.88053,1.14018 l -0.55316,0.48542 v 0.0451 l 0.72249,-0.12417 h 2.46098 v 0.83538 h -4.49298 v -0.32738 q 0.24836,-0.25965 0.59831,-0.64347 0.34996,-0.38382 0.72249,-0.84667 0.38383,-0.47413 0.74507,-0.99342 0.37253,-0.53058 0.66605,-1.07245 0.3048,-0.54186 0.48542,-1.07244 0.18062,-0.53058 0.18062,-1.00471 0,-0.55316 -0.31609,-0.91441 -0.31609,-0.37253 -0.95955,-0.37253 -0.42898,0 -0.83538,0.18062 -0.4064,0.16934 -0.69992,0.39512 l -0.37253,-0.64347 q 0.39511,-0.33867 0.93698,-0.53058 0.54187,-0.19191 1.16276,-0.19191 0.48542,0 0.85795,0.14675 0.37254,0.13547 0.63218,0.39512 0.25965,0.25964 0.39511,0.62088 0.13547,0.34996 0.13547,0.76765 z"
         id="path14019" /><path
         d="m 380.00304,170.81216 q 0,-2.032 0.65476,-3.05929 0.66604,-1.02729 1.9304,-1.02729 1.36596,0 1.97556,1.016 0.62089,1.00471 0.62089,3.07058 0,2.032 -0.66605,3.05929 -0.65475,1.02729 -1.9304,1.02729 -1.34338,0 -1.96427,-1.07244 -0.62089,-1.07245 -0.62089,-3.01414 z m 0.93698,0 q 0,0.73378 0.0903,1.34338 0.1016,0.59831 0.3048,1.03858 0.2032,0.42898 0.508,0.67733 0.31609,0.23707 0.74507,0.23707 0.85796,0 1.25307,-0.79022 0.4064,-0.80152 0.4064,-2.50614 0,-0.72249 -0.0903,-1.33209 -0.079,-0.6096 -0.28222,-1.04987 -0.19192,-0.44027 -0.508,-0.67733 -0.31609,-0.23707 -0.77894,-0.23707 -0.84667,0 -1.25307,0.80151 -0.39511,0.80151 -0.39511,2.49485 z"
         id="path14021" /><path
         d="m 386.15549,170.81216 q 0,-2.032 0.65476,-3.05929 0.66605,-1.02729 1.9304,-1.02729 1.36596,0 1.97556,1.016 0.62089,1.00471 0.62089,3.07058 0,2.032 -0.66605,3.05929 -0.65475,1.02729 -1.9304,1.02729 -1.34338,0 -1.96427,-1.07244 -0.62089,-1.07245 -0.62089,-3.01414 z m 0.93698,0 q 0,0.73378 0.0903,1.34338 0.1016,0.59831 0.3048,1.03858 0.2032,0.42898 0.508,0.67733 0.31609,0.23707 0.74507,0.23707 0.85796,0 1.25307,-0.79022 0.4064,-0.80152 0.4064,-2.50614 0,-0.72249 -0.0903,-1.33209 -0.079,-0.6096 -0.28222,-1.04987 -0.19191,-0.44027 -0.508,-0.67733 -0.31609,-0.23707 -0.77894,-0.23707 -0.84667,0 -1.25307,0.80151 -0.39511,0.80151 -0.39511,2.49485 z"
         id="path14023" /><path
         d="m 396.70497,174.76328 v -3.19476 q 0,-0.45156 -0.0451,-0.77894 -0.0339,-0.33866 -0.14676,-0.56444 -0.11289,-0.22578 -0.32738,-0.33867 -0.2032,-0.11289 -0.54186,-0.11289 -0.51929,0 -0.86925,0.31609 -0.33867,0.31609 -0.47413,0.79022 v 3.88339 h -0.90311 v -5.64446 h 0.63217 l 0.16934,0.68863 h 0.0451 q 0.3048,-0.36125 0.69992,-0.58702 0.4064,-0.23707 1.04986,-0.23707 0.54187,0 0.88054,0.21449 0.34995,0.2032 0.54186,0.72249 0.25965,-0.44027 0.7112,-0.68863 0.46285,-0.24835 1.03858,-0.24835 0.47414,0 0.80152,0.11289 0.32737,0.1016 0.54186,0.37253 0.21449,0.27093 0.3048,0.73378 0.1016,0.46284 0.1016,1.17405 v 3.38667 h -0.90311 v -3.39796 q 0,-0.4064 -0.0452,-0.69992 -0.0339,-0.3048 -0.15805,-0.49671 -0.11289,-0.2032 -0.32738,-0.29351 -0.2032,-0.1016 -0.54186,-0.1016 -0.56445,0 -0.88054,0.31609 -0.31609,0.31609 -0.45155,0.90311 v 3.7705 z"
         id="path14025" /><path
         d="m 404.47174,171.09438 h 2.73191 v 0.83538 h -2.73191 z"
         id="path14027" /><path
         d="m 415.01559,168.65598 q 0,0.59831 -0.22578,1.23049 -0.21449,0.62089 -0.57574,1.25307 -0.34995,0.63218 -0.79022,1.24178 -0.44027,0.59831 -0.88053,1.14018 l -0.55316,0.48542 v 0.0451 l 0.72249,-0.12417 h 2.46098 v 0.83538 h -4.49298 v -0.32738 q 0.24835,-0.25965 0.59831,-0.64347 0.34996,-0.38382 0.72249,-0.84667 0.38382,-0.47413 0.74507,-0.99342 0.37253,-0.53058 0.66604,-1.07245 0.3048,-0.54186 0.48542,-1.07244 0.18063,-0.53058 0.18063,-1.00471 0,-0.55316 -0.31609,-0.91441 -0.31609,-0.37253 -0.95956,-0.37253 -0.42898,0 -0.83538,0.18062 -0.4064,0.16934 -0.69991,0.39512 l -0.37253,-0.64347 q 0.39511,-0.33867 0.93698,-0.53058 0.54186,-0.19191 1.16275,-0.19191 0.48543,0 0.85796,0.14675 0.37253,0.13547 0.63218,0.39512 0.25964,0.25964 0.39511,0.62088 0.13547,0.34996 0.13547,0.76765 z"
         id="path14029" /><path
         d="m 422.04857,172.33616 h -1.33209 v 2.42712 h -0.88053 v -2.42712 h -3.47699 v -0.37253 l 3.74792,-5.22676 h 0.6096 v 4.80907 h 1.33209 z m -2.21262,-3.2512 0.11289,-0.92569 h -0.0339 l -0.39511,0.76764 -1.59174,2.15618 -0.54187,0.55316 0.79023,-0.0903 h 1.65947 z"
         id="path14031" /><path
         d="m 422.77106,170.81216 q 0,-2.032 0.65476,-3.05929 0.66604,-1.02729 1.9304,-1.02729 1.36596,0 1.97556,1.016 0.62089,1.00471 0.62089,3.07058 0,2.032 -0.66605,3.05929 -0.65476,1.02729 -1.9304,1.02729 -1.34338,0 -1.96427,-1.07244 -0.62089,-1.07245 -0.62089,-3.01414 z m 0.93698,0 q 0,0.73378 0.0903,1.34338 0.1016,0.59831 0.3048,1.03858 0.2032,0.42898 0.508,0.67733 0.31609,0.23707 0.74507,0.23707 0.85795,0 1.25307,-0.79022 0.4064,-0.80152 0.4064,-2.50614 0,-0.72249 -0.0903,-1.33209 -0.079,-0.6096 -0.28223,-1.04987 -0.19191,-0.44027 -0.508,-0.67733 -0.31609,-0.23707 -0.77893,-0.23707 -0.84667,0 -1.25307,0.80151 -0.39511,0.80151 -0.39511,2.49485 z"
         id="path14033" /><path
         d="m 433.32054,174.76328 v -3.19476 q 0,-0.45156 -0.0452,-0.77894 -0.0339,-0.33866 -0.14675,-0.56444 -0.11289,-0.22578 -0.32738,-0.33867 -0.2032,-0.11289 -0.54187,-0.11289 -0.51929,0 -0.86924,0.31609 -0.33867,0.31609 -0.47414,0.79022 v 3.88339 h -0.90311 v -5.64446 h 0.63218 l 0.16933,0.68863 h 0.0452 q 0.3048,-0.36125 0.69991,-0.58702 0.4064,-0.23707 1.04987,-0.23707 0.54187,0 0.88053,0.21449 0.34996,0.2032 0.54187,0.72249 0.25965,-0.44027 0.7112,-0.68863 0.46285,-0.24835 1.03858,-0.24835 0.47413,0 0.80151,0.11289 0.32738,0.1016 0.54187,0.37253 0.21449,0.27093 0.3048,0.73378 0.1016,0.46284 0.1016,1.17405 v 3.38667 h -0.90311 v -3.39796 q 0,-0.4064 -0.0452,-0.69992 -0.0339,-0.3048 -0.15804,-0.49671 -0.11289,-0.2032 -0.32738,-0.29351 -0.2032,-0.1016 -0.54187,-0.1016 -0.56444,0 -0.88053,0.31609 -0.31609,0.31609 -0.45156,0.90311 v 3.7705 z"
         id="path14035" /><path
         d="m 438.90855,166.72558 q 0.51929,0.54187 0.88053,1.19662 0.36125,0.64347 0.57573,1.33209 0.22578,0.67734 0.32738,1.37725 0.1016,0.68862 0.1016,1.3208 0,0.62089 -0.1016,1.30951 -0.1016,0.68862 -0.32738,1.38854 -0.22577,0.68862 -0.59831,1.35466 -0.36124,0.66605 -0.89182,1.24178 l -0.54187,-0.39511 q 0.45156,-0.57573 0.75636,-1.19662 0.3048,-0.62089 0.47413,-1.25307 0.18062,-0.63218 0.24836,-1.25307 0.079,-0.62089 0.079,-1.19662 0,-0.54187 -0.0903,-1.17405 -0.0903,-0.63218 -0.28222,-1.27564 -0.18063,-0.64347 -0.47414,-1.25307 -0.29351,-0.6096 -0.7112,-1.10631 z"
         id="path14037" /></g><g
       aria-label="PG-7VL"
       id="text4306-3-9"
       style="font-size:11.2889px;font-family:'PT Sans';-inkscape-font-specification:'PT Sans';text-align:center;text-anchor:middle;fill:#eaebee;fill-rule:evenodd;stroke-width:1.05833"><path
         d="m 336.902,117.1465 q 0.42898,-0.1016 0.92569,-0.13547 0.49671,-0.0339 0.98213,-0.0339 0.51929,0 1.04987,0.1016 0.54187,0.1016 0.98213,0.37254 0.44027,0.27093 0.71121,0.74506 0.28222,0.47414 0.28222,1.20792 0,0.72249 -0.25965,1.2192 -0.25964,0.49671 -0.68862,0.8128 -0.42898,0.3048 -0.98213,0.44026 -0.55316,0.13547 -1.14018,0.13547 -0.0565,0 -0.19191,0 -0.12418,0 -0.27094,0 -0.13547,-0.0113 -0.27093,-0.0226 -0.13547,-0.0113 -0.19191,-0.0226 v 3.00284 H 336.902 Z m 1.9304,0.64346 q -0.29351,0 -0.56444,0.0113 -0.27094,0.0113 -0.42898,0.0564 v 3.27378 q 0.0564,0.0226 0.18062,0.0339 0.12418,0 0.25964,0.0113 0.13547,0 0.25965,0 0.12418,0 0.18062,0 0.38382,0 0.75636,-0.0677 0.38382,-0.079 0.68862,-0.27093 0.3048,-0.19192 0.48542,-0.54187 0.19191,-0.34996 0.19191,-0.89182 0,-0.46285 -0.18062,-0.76765 -0.16933,-0.31609 -0.46284,-0.49671 -0.28223,-0.19191 -0.64347,-0.27093 -0.36125,-0.079 -0.72249,-0.079 z"
         id="path13994" /><path
         d="m 345.68476,121.02988 h 2.65289 v 3.47698 q -0.18062,0.13547 -0.44027,0.24835 -0.24835,0.11289 -0.54186,0.19192 -0.28222,0.079 -0.59831,0.11288 -0.3048,0.0452 -0.59832,0.0452 -0.75635,0 -1.38853,-0.23707 -0.63218,-0.24835 -1.09502,-0.74506 -0.46285,-0.508 -0.72249,-1.27565 -0.25965,-0.77893 -0.25965,-1.8288 0,-1.09502 0.31609,-1.87396 0.31609,-0.77893 0.82409,-1.26436 0.508,-0.49671 1.14018,-0.72249 0.63218,-0.22577 1.26436,-0.22577 0.67733,0 1.1176,0.079 0.44026,0.0677 0.74507,0.19191 l -0.23707,0.82409 q -0.54187,-0.25964 -1.54658,-0.25964 -0.47414,0 -0.94827,0.16933 -0.46284,0.15804 -0.83538,0.54187 -0.37253,0.38382 -0.6096,1.00471 -0.23707,0.62089 -0.23707,1.53529 0,0.83538 0.19192,1.44498 0.19191,0.6096 0.53057,1.016 0.34996,0.39511 0.83538,0.59831 0.48543,0.19191 1.06116,0.19191 0.72249,0 1.23049,-0.28222 v -2.20134 l -1.85138,-0.22577 z"
         id="path13996" /><path
         d="m 349.63587,121.30081 h 2.73191 v 0.83538 h -2.73191 z"
         id="path13998" /><path
         d="m 354.27562,124.9697 2.83351,-6.61529 0.49671,-0.55316 -0.66604,0.1016 h -3.21734 v -0.83538 h 4.71876 v 0.3048 l -3.2512,7.59743 z"
         id="path14000" /><path
         d="m 362.20042,122.49743 0.27094,1.19663 h 0.0113 l 0.29351,-1.2192 1.90782,-5.40739 h 0.93698 l -2.99156,8.02641 h -0.41769 l -3.048,-8.02641 h 1.02729 z"
         id="path14002" /><path
         d="m 371.23155,124.9697 h -4.6736 v -7.90223 h 0.93698 v 7.06686 h 3.73662 z"
         id="path14004" /></g><g
       aria-label="PG-7V"
       id="text4306-9"
       style="font-size:11.2889px;font-family:'PT Sans';-inkscape-font-specification:'PT Sans';text-align:center;text-anchor:middle;fill:#eaebee;fill-rule:evenodd;stroke-width:1.05833"><path
         d="m 25.000001,117.1465 q 0.428978,-0.1016 0.92569,-0.13547 0.496711,-0.0339 0.982134,-0.0339 0.51929,0 1.049868,0.1016 0.541867,0.1016 0.982134,0.37254 0.440267,0.27093 0.711201,0.74506 0.282222,0.47414 0.282222,1.20792 0,0.72249 -0.259644,1.2192 -0.259645,0.49671 -0.688623,0.8128 -0.428978,0.3048 -0.982135,0.44026 -0.553156,0.13547 -1.140178,0.13547 -0.05645,0 -0.191912,0 -0.124178,0 -0.270933,0 -0.135467,-0.0113 -0.270934,-0.0226 -0.135467,-0.0113 -0.191911,-0.0226 v 3.00284 h -0.936979 z m 1.930402,0.64346 q -0.293511,0 -0.564445,0.0113 -0.270934,0.0113 -0.428978,0.0564 v 3.27378 q 0.05644,0.0226 0.180622,0.0339 0.124178,0 0.259645,0.0113 0.135467,0 0.259645,0 0.124177,0 0.180622,0 0.383823,0 0.756356,-0.0677 0.383823,-0.079 0.688623,-0.27093 0.3048,-0.19192 0.485423,-0.54187 0.191911,-0.34996 0.191911,-0.89182 0,-0.46285 -0.180622,-0.76765 -0.169334,-0.31609 -0.462845,-0.49671 -0.282223,-0.19191 -0.643467,-0.27093 -0.361245,-0.079 -0.72249,-0.079 z"
         id="path14066" /><path
         d="m 33.782763,121.02988 h 2.652892 v 3.47698 q -0.180623,0.13547 -0.440267,0.24835 -0.248356,0.11289 -0.541868,0.19192 -0.282222,0.079 -0.598311,0.11288 -0.304801,0.0452 -0.598312,0.0452 -0.756356,0 -1.388535,-0.23707 -0.632178,-0.24835 -1.095023,-0.74506 -0.462845,-0.508 -0.72249,-1.27565 -0.259644,-0.77893 -0.259644,-1.8288 0,-1.09502 0.316089,-1.87396 0.316089,-0.77893 0.82409,-1.26436 0.508,-0.49671 1.140179,-0.72249 0.632178,-0.22577 1.264356,-0.22577 0.677334,0 1.117601,0.079 0.440268,0.0677 0.745068,0.19191 l -0.237067,0.82409 q -0.541867,-0.25964 -1.546579,-0.25964 -0.474134,0 -0.948268,0.16933 -0.462845,0.15804 -0.835379,0.54187 -0.372533,0.38382 -0.6096,1.00471 -0.237067,0.62089 -0.237067,1.53529 0,0.83538 0.191911,1.44498 0.191911,0.6096 0.530578,1.016 0.349956,0.39511 0.835379,0.59831 0.485423,0.19191 1.061157,0.19191 0.722489,0 1.23049,-0.28222 v -2.20134 l -1.85138,-0.22577 z"
         id="path14068" /><path
         d="m 37.733873,121.30081 h 2.731914 v 0.83538 h -2.731914 z"
         id="path14070" /><path
         d="m 42.373618,124.9697 2.833514,-6.61529 0.496712,-0.55316 -0.666046,0.1016 h -3.217336 v -0.83538 h 4.71876 v 0.3048 l -3.251203,7.59743 z"
         id="path14072" /><path
         d="m 50.298428,122.49743 0.270933,1.19663 h 0.01129 l 0.293512,-1.2192 1.907824,-5.40739 h 0.936979 l -2.991559,8.02641 h -0.417689 l -3.048003,-8.02641 h 1.027289 z"
         id="path14074" /></g><g
       aria-label="PG-7VR
"
       id="text4306-9-1"
       style="font-size:11.2889px;font-family:'PT Sans';-inkscape-font-specification:'PT Sans';text-align:center;text-anchor:middle;fill:#eaebee;fill-rule:evenodd;stroke-width:1.05833"><path
         d="m 24.999997,171.19049 q 0.428979,-0.1016 0.92569,-0.13546 0.496712,-0.0339 0.982135,-0.0339 0.519289,0 1.049867,0.1016 0.541868,0.1016 0.982135,0.37253 0.440267,0.27094 0.7112,0.74507 0.282223,0.47414 0.282223,1.20791 0,0.72249 -0.259645,1.21921 -0.259645,0.49671 -0.688623,0.8128 -0.428978,0.3048 -0.982134,0.44026 -0.553156,0.13547 -1.140179,0.13547 -0.05645,0 -0.191911,0 -0.124178,0 -0.270934,0 -0.135467,-0.0113 -0.270934,-0.0226 -0.135466,-0.0113 -0.191911,-0.0226 v 3.00285 h -0.936979 z m 1.930402,0.64347 q -0.293511,0 -0.564445,0.0113 -0.270933,0.0113 -0.428978,0.0565 v 3.27378 q 0.05645,0.0226 0.180623,0.0339 0.124177,0 0.259644,0.0113 0.135467,0 0.259645,0 0.124178,0 0.180622,0 0.383823,0 0.756357,-0.0677 0.383822,-0.079 0.688623,-0.27094 0.3048,-0.19191 0.485422,-0.54186 0.191912,-0.34996 0.191912,-0.89183 0,-0.46284 -0.180623,-0.76764 -0.169333,-0.31609 -0.462845,-0.49671 -0.282222,-0.19191 -0.643467,-0.27094 -0.361245,-0.079 -0.72249,-0.079 z"
         id="path14040" /><path
         d="m 33.78276,175.07388 h 2.652891 v 3.47698 q -0.180622,0.13546 -0.440267,0.24835 -0.248356,0.11289 -0.541867,0.19191 -0.282223,0.079 -0.598312,0.11289 -0.3048,0.0452 -0.598312,0.0452 -0.756356,0 -1.388534,-0.23707 -0.632179,-0.24835 -1.095024,-0.74507 -0.462845,-0.508 -0.722489,-1.27564 -0.259645,-0.77894 -0.259645,-1.8288 0,-1.09503 0.316089,-1.87396 0.316089,-0.77893 0.82409,-1.26436 0.508001,-0.49671 1.140179,-0.72249 0.632178,-0.22577 1.264357,-0.22577 0.677334,0 1.117601,0.079 0.440267,0.0677 0.745067,0.19191 l -0.237067,0.82409 q -0.541867,-0.25965 -1.546579,-0.25965 -0.474134,0 -0.948268,0.16934 -0.462844,0.15804 -0.835378,0.54186 -0.372534,0.38383 -0.609601,1.00472 -0.237067,0.62089 -0.237067,1.53529 0,0.83538 0.191912,1.44498 0.191911,0.6096 0.530578,1.016 0.349956,0.39511 0.835379,0.59831 0.485422,0.19191 1.061156,0.19191 0.72249,0 1.23049,-0.28222 v -2.20134 l -1.851379,-0.22578 z"
         id="path14042" /><path
         d="m 37.73387,175.34481 h 2.731914 v 0.83538 H 37.73387 Z"
         id="path14044" /><path
         d="m 42.373614,179.0137 2.833514,-6.61529 0.496712,-0.55316 -0.666045,0.1016 h -3.217337 v -0.83538 h 4.718761 v 0.3048 l -3.251204,7.59743 z"
         id="path14046" /><path
         d="m 50.298424,176.54143 0.270934,1.19663 h 0.01129 l 0.293511,-1.2192 1.907824,-5.40739 h 0.936979 l -2.991559,8.02641 H 50.309713 L 47.26171,171.11147 H 48.289 Z"
         id="path14048" /><path
         d="m 54.655948,171.19049 q 0.428978,-0.079 0.982134,-0.12417 0.564445,-0.0452 1.02729,-0.0452 0.51929,0 0.982135,0.11289 0.474133,0.11289 0.824089,0.37253 0.361245,0.25965 0.575734,0.67734 0.214489,0.41769 0.214489,1.016 0,0.92569 -0.508,1.50142 -0.508001,0.57574 -1.286935,0.76765 l 0.541867,0.41769 1.964269,3.12702 h -1.095023 l -2.178758,-3.40925 -1.106312,-0.16933 v 3.57858 h -0.936979 z m 2.032002,0.64347 q -0.146756,0 -0.3048,0 -0.158045,0 -0.304801,0.0113 -0.146755,0.0113 -0.282222,0.0226 -0.124178,0.0113 -0.2032,0.0339 v 2.91253 h 0.880534 q 0.778934,0 1.286935,-0.38382 0.508,-0.38382 0.508,-1.19662 0,-0.60961 -0.417689,-1.00472 -0.41769,-0.39511 -1.162757,-0.39511 z"
         id="path14050" /></g><g
       aria-label="TBG-7V
"
       id="text4306-9-1-0"
       style="font-size:11.2889px;font-family:'PT Sans';-inkscape-font-specification:'PT Sans';text-align:center;text-anchor:middle;fill:#eaebee;fill-rule:evenodd;stroke-width:1.05833"><path
         d="m 30.858937,182.11984 h -2.46098 v 7.06685 h -0.936979 v -7.06685 h -2.46098 v -0.83538 h 5.858939 z"
         id="path14053" /><path
         d="m 36.785614,183.09069 q 0,0.28222 -0.09031,0.57573 -0.09031,0.29351 -0.270933,0.55316 -0.180623,0.24835 -0.462845,0.44026 -0.282223,0.19191 -0.666045,0.29351 v 0.0452 q 0.338667,0.0564 0.643467,0.19191 0.316089,0.13547 0.553156,0.37253 0.237067,0.23707 0.383823,0.57574 0.146756,0.33867 0.146756,0.80151 0,0.6096 -0.259645,1.06116 -0.248356,0.44026 -0.666045,0.72249 -0.406401,0.28222 -0.936979,0.41769 -0.530578,0.13546 -1.083734,0.13546 -0.191912,0 -0.451556,0 -0.259645,0 -0.541868,-0.0226 -0.282222,-0.0113 -0.564445,-0.0452 -0.282222,-0.0226 -0.496711,-0.079 v -7.77806 q 0.417689,-0.0677 0.970845,-0.11288 0.553156,-0.0452 1.207912,-0.0452 0.440268,0 0.891824,0.079 0.462845,0.0677 0.835378,0.28222 0.372534,0.2032 0.609601,0.57574 0.248356,0.37253 0.248356,0.95956 z m -2.619025,5.37351 q 0.361245,0 0.699912,-0.079 0.338667,-0.0903 0.598311,-0.27093 0.259645,-0.19192 0.406401,-0.46285 0.158044,-0.27093 0.158044,-0.64347 0,-0.46284 -0.191911,-0.74506 -0.180622,-0.28223 -0.485423,-0.44027 -0.293511,-0.15805 -0.666045,-0.21449 -0.372534,-0.0564 -0.745067,-0.0564 h -0.982135 v 2.83351 q 0.07902,0.0226 0.225778,0.0339 0.146756,0.0113 0.31609,0.0226 0.169333,0.0113 0.349956,0.0226 0.180622,0 0.316089,0 z m -0.62089,-3.70276 q 0.191912,0 0.462845,-0.0113 0.270934,-0.0113 0.451556,-0.0339 0.270934,-0.0903 0.508001,-0.21449 0.237067,-0.13547 0.417689,-0.3048 0.191911,-0.18063 0.293511,-0.4064 0.112889,-0.23707 0.112889,-0.508 0,-0.37254 -0.146755,-0.6096 -0.135467,-0.24836 -0.372534,-0.39512 -0.237067,-0.14675 -0.541867,-0.2032 -0.304801,-0.0677 -0.62089,-0.0677 -0.372533,0 -0.688623,0.0226 -0.3048,0.0113 -0.462845,0.0452 v 2.68676 z"
         id="path14055" /><path
         d="m 41.278592,185.24687 h 2.652892 v 3.47698 q -0.180623,0.13546 -0.440267,0.24835 -0.248356,0.11289 -0.541868,0.19191 -0.282222,0.079 -0.598311,0.11289 -0.304801,0.0452 -0.598312,0.0452 -0.756356,0 -1.388535,-0.23707 -0.632178,-0.24835 -1.095023,-0.74507 -0.462845,-0.508 -0.72249,-1.27564 -0.259645,-0.77894 -0.259645,-1.8288 0,-1.09503 0.31609,-1.87396 0.316089,-0.77894 0.824089,-1.26436 0.508001,-0.49671 1.140179,-0.72249 0.632179,-0.22578 1.264357,-0.22578 0.677334,0 1.117601,0.079 0.440267,0.0677 0.745068,0.19191 l -0.237067,0.82409 q -0.541867,-0.25965 -1.54658,-0.25965 -0.474133,0 -0.948267,0.16934 -0.462845,0.15804 -0.835379,0.54186 -0.372534,0.38383 -0.6096,1.00472 -0.237067,0.62089 -0.237067,1.53529 0,0.83537 0.191911,1.44498 0.191911,0.6096 0.530578,1.016 0.349956,0.39511 0.835379,0.59831 0.485423,0.19191 1.061157,0.19191 0.722489,0 1.23049,-0.28222 v -2.20134 l -1.85138,-0.22578 z"
         id="path14057" /><path
         d="m 45.229702,185.5178 h 2.731914 v 0.83538 h -2.731914 z"
         id="path14059" /><path
         d="m 49.869447,189.18669 2.833514,-6.61529 0.496711,-0.55316 -0.666045,0.1016 h -3.217336 v -0.83538 h 4.71876 v 0.3048 l -3.251203,7.59743 z"
         id="path14061" /><path
         d="m 57.794257,186.71442 0.270933,1.19663 h 0.01129 l 0.293511,-1.21921 1.907825,-5.40738 h 0.936978 l -2.991558,8.02641 h -0.41769 l -3.048003,-8.02641 h 1.02729 z"
         id="path14063" /></g></g></svg>
