<?xml version="1.0" encoding="UTF-8" standalone="no"?>
<!-- Created with Inkscape (http://www.inkscape.org/) -->

<svg
   width="215.77307"
   height="250"
   viewBox="0 0 215.77307 250"
   version="1.1"
   id="SVGRoot"
   sodipodi:docname="Feature_5.svg"
   xml:space="preserve"
   inkscape:export-filename="..\..\..\..\Downloads\Feature_5.svg"
   inkscape:export-xdpi="60"
   inkscape:export-ydpi="60"
   inkscape:version="1.2.1 (9c6d41e410, 2022-07-14)"
   xmlns:inkscape="http://www.inkscape.org/namespaces/inkscape"
   xmlns:sodipodi="http://sodipodi.sourceforge.net/DTD/sodipodi-0.dtd"
   xmlns="http://www.w3.org/2000/svg"
   xmlns:svg="http://www.w3.org/2000/svg"><sodipodi:namedview
     id="namedview4149"
     pagecolor="#ffffff"
     bordercolor="#444444"
     borderopacity="0.25"
     inkscape:showpageshadow="2"
     inkscape:pageopacity="1"
     inkscape:pagecheckerboard="0"
     inkscape:deskcolor="#d1d1d1"
     inkscape:document-units="px"
     showgrid="false"
     inkscape:zoom="1.4142136"
     inkscape:cx="185.96908"
     inkscape:cy="202.93965"
     inkscape:window-width="2560"
     inkscape:window-height="1369"
     inkscape:window-x="3840"
     inkscape:window-y="0"
     inkscape:window-maximized="0"
     inkscape:current-layer="SVGRoot"
     inkscape:pageshadow="0" /><defs
     id="defs4144" /><path
     style="fill:#eaebee;fill-opacity:1;stroke-width:0.7354"
     d="M 53.834936,218.92946 0,187.89188 7.4312506e-4,125.0154 0.00148625,62.138926 53.971767,31.069461 107.94207,0 l 53.9155,31.130881 53.9155,31.130878 v 62.763281 62.7633 l -53.91675,31.12232 C 132.2021,236.02793 107.87883,250.01813 107.80462,250 107.73039,249.98179 83.443925,236.00013 53.834691,218.92946 Z M 128.01799,205.6528 c 3.91103,-1.00933 9.70229,-2.96477 12.86946,-4.34546 6.9934,-3.04867 15.24161,-8.02712 14.93803,-9.0163 -0.12189,-0.3972 -19.19727,-15.55272 -42.3897,-33.67894 -23.192432,-18.12623 -42.168068,-33.20586 -42.168068,-33.5103 0,-0.30445 5.640888,-2.80239 12.535301,-5.55096 6.894416,-2.74859 12.43748,-5.26796 12.317915,-5.59862 -0.119572,-0.33066 -11.949053,-9.77132 -26.287735,-20.979248 l -26.070334,-20.378061 -2.090018,2.49367 c -1.149507,1.371531 -3.544763,4.97565 -5.322782,8.009163 -16.023835,27.338516 -15.006715,61.128646 2.656363,88.247696 4.005856,6.15041 16.550707,18.69526 22.70112,22.70112 10.049088,6.54513 22.906364,11.54743 34.195982,13.30443 7.888156,1.22762 24.098826,0.37041 32.114466,-1.69819 z m 38.05297,-21.62176 c 4.34629,-4.34803 9.29932,-10.05655 11.00673,-12.6856 18.70852,-28.807 18.70514,-63.92735 -0.009,-92.660077 C 173.06285,72.534956 160.518,59.990101 154.36759,55.984245 138.77863,45.830903 121.66401,41.179881 103.62516,42.194612 c -9.91143,0.557542 -12.707564,1.0654 -12.261786,2.227085 0.178893,0.466198 12.305566,18.605764 26.948156,40.31014 14.64258,21.704373 26.67704,39.706453 26.74323,40.004603 0.0662,0.29817 -5.58816,2.86807 -12.56525,5.71094 -6.97708,2.84283 -12.6856,5.44475 -12.6856,5.78202 0,1.01882 37.03452,55.70717 37.72446,55.70717 0.35212,0 4.19627,-3.55749 8.54255,-7.90553 z"
     id="path4667"
     inkscape:label="Zeus" /></svg>
