<?xml version="1.0" encoding="UTF-8" standalone="no"?>
<!-- Created with Inkscape (http://www.inkscape.org/) -->

<svg
   width="250.05847"
   height="121.79934"
   viewBox="0 0 250.05847 121.79934"
   version="1.1"
   id="SVGRoot"
   sodipodi:docname="C:\Users\Ido\AppData\Local\Temp\ink_ext_XXXXXX.svgSMFCW1"
   xml:space="preserve"
   inkscape:export-filename="Medical_Training_Logo.svg"
   inkscape:export-xdpi="96"
   inkscape:export-ydpi="96"
   xmlns:inkscape="http://www.inkscape.org/namespaces/inkscape"
   xmlns:sodipodi="http://sodipodi.sourceforge.net/DTD/sodipodi-0.dtd"
   xmlns="http://www.w3.org/2000/svg"
   xmlns:svg="http://www.w3.org/2000/svg"><sodipodi:namedview
     id="namedview621"
     pagecolor="#2d2c2d"
     bordercolor="#000000"
     borderopacity="0.25"
     inkscape:showpageshadow="2"
     inkscape:pageopacity="0"
     inkscape:pagecheckerboard="0"
     inkscape:deskcolor="#d1d1d1"
     inkscape:document-units="px"
     showgrid="false"
     inkscape:zoom="0.25"
     inkscape:cx="755.5"
     inkscape:cy="755.5"
     inkscape:window-width="2560"
     inkscape:window-height="1369"
     inkscape:window-x="3832"
     inkscape:window-y="-8"
     inkscape:window-maximized="0"
     inkscape:current-layer="layer1" /><defs
     id="defs616" /><g
     id="g2603"
     transform="matrix(6.8919888,0,0,-6.8919888,122.73254,10.659124)"><path
       d="m 0,0 4.249,-0.129 0.171,-1.96 -0.973,-0.158 -0.343,-1.159 -3.175,0.1 z m -5.378,0.114 4.363,-0.129 -0.057,-3.205 -4.491,0.029 z m 21.799,-8.171 h 1.831 c 0.129,0 0.257,-1.1 0.214,-1.214 -0.1,-0.315 -0.657,-2.291 -0.93,-2.291 h -1.115 c -0.114,0 -0.215,0.101 -0.215,0.215 v 2.076 c 0,0.114 0.101,1.214 0.215,1.214 m -4.392,-6.295 c -1.13,0 -2.045,0.93 -2.045,2.061 0,1.131 0.915,2.047 2.045,2.047 1.131,0 2.046,-0.916 2.046,-2.047 0,-1.131 -0.915,-2.061 -2.046,-2.061 m 0,-1.774 c -2.116,0 -3.833,1.717 -3.833,3.835 0,2.103 1.717,4.821 3.833,4.821 2.117,0 3.82,-2.718 3.82,-4.821 0,-2.118 -1.703,-3.835 -3.82,-3.835 m -23.214,1.774 c -1.129,0 -2.045,0.93 -2.045,2.061 0,1.131 0.916,2.047 2.045,2.047 1.13,0 2.045,-0.916 2.045,-2.047 0,-1.131 -0.915,-2.061 -2.045,-2.061 m 0,-1.774 c -2.117,0 -3.834,1.717 -3.834,3.835 0,2.103 1.717,4.821 3.834,4.821 2.117,0 3.819,-2.718 3.819,-4.821 0,-2.118 -1.702,-3.835 -3.819,-3.835 M -15.49,-3.22 h 7.637 l 0.788,3.706 c 0.329,0.845 0.357,1.074 1.201,1.06 3.576,-0.072 7.152,-0.144 10.727,-0.23 0.573,0 0.873,-0.658 0.959,-1.344 l 0.315,-2.762 5.922,-0.845 4.047,-0.93 1.101,-3.105 c -0.228,0 -1.701,0.014 -1.931,0.014 -0.415,0.572 -0.757,1.331 -1.33,1.345 l -5.206,0.086 -1.988,-5.794 -13.374,0.158 -0.486,1.331 c -0.215,0.701 -0.472,2.373 -0.702,3.074 -0.314,1.017 -0.772,1.518 -1.373,1.603 -1.087,0.043 -3.046,0.072 -4.119,0.115 -0.557,-0.043 -0.958,-0.187 -1.302,-0.773 l -1.015,-1.603 c 0.043,-0.043 0.071,-1.1 0.071,-1.157 v -2.076 c 0,-0.114 -0.099,-0.215 -0.214,-0.215 h -1.831 c -0.129,0 -0.215,0.101 -0.215,0.215 v 2.076 c 0,0.114 0.086,1.214 0.215,1.214 h 1.388 c -0.043,0.072 -0.058,0.186 -0.058,0.344 0,1.145 0.015,2.719 0.015,3.863 0,0.544 0.414,0.63 0.758,0.63 m 7.538,2.333 -2.074,-1.861 h -0.915 l 3.275,2.92 C -7.709,0.071 -7.752,-0.043 -7.795,-0.172 Z M -6.265,-12.72 H 6.408 c 0.187,0 0.344,-0.172 0.344,-0.358 0,-0.2 -0.157,-0.358 -0.344,-0.358 H -6.265 c -0.185,0 -0.357,0.158 -0.357,0.358 0,0.186 0.172,0.358 0.357,0.358"
       style="fill:#eaebee;fill-opacity:1;fill-rule:evenodd;stroke:none"
       id="path2605" /></g></svg>
