<?xml version="1.0" encoding="UTF-8" standalone="no"?>
<!-- Created with Inkscape (http://www.inkscape.org/) -->

<svg
   width="23.727978mm"
   height="33.866589mm"
   viewBox="0 0 23.727978 33.866589"
   version="1.1"
   id="svg5813"
   inkscape:version="1.2.1 (9c6d41e410, 2022-07-14, custom)"
   sodipodi:docname="casualty-carry.svg"
   xmlns:inkscape="http://www.inkscape.org/namespaces/inkscape"
   xmlns:sodipodi="http://sodipodi.sourceforge.net/DTD/sodipodi-0.dtd"
   xmlns="http://www.w3.org/2000/svg"
   xmlns:svg="http://www.w3.org/2000/svg">
  <sodipodi:namedview
     id="namedview5815"
     pagecolor="#ffffff"
     bordercolor="#000000"
     borderopacity="0.25"
     inkscape:showpageshadow="2"
     inkscape:pageopacity="0.0"
     inkscape:pagecheckerboard="0"
     inkscape:deskcolor="#d1d1d1"
     inkscape:document-units="mm"
     showgrid="false"
     inkscape:zoom="0.7500982"
     inkscape:cx="-191.30828"
     inkscape:cy="230.63647"
     inkscape:window-width="1920"
     inkscape:window-height="1015"
     inkscape:window-x="0"
     inkscape:window-y="29"
     inkscape:window-maximized="1"
     inkscape:current-layer="layer1" />
  <defs
     id="defs5810" />
  <g
     inkscape:label="Layer 1"
     inkscape:groupmode="layer"
     id="layer1"
     transform="translate(-153.91986,-87.475257)">
    <g
       id="Medeivac"
       transform="matrix(0.05783077,0,0,0.05783077,151.22683,84.705876)"
       style="clip-rule:evenodd;fill:#eaebee;fill-opacity:1;fill-rule:evenodd;stroke-miterlimit:2">
        <path
   d="m 275.35,47.889 c -5.208,0.034 -10.73,0.756 -15.069,2.416 -0.925,2.925 -3.375,7.787 -16.627,13.131 -13.251,5.343 -40.584,9.405 -52.422,11.488 -8.081,1.422 -16.054,-3.211 -24.617,0 -8.562,3.211 -31.933,24.437 -42.814,24.437 -10.882,0 -7.314,0.537 -8.563,1.25 -1.248,0.714 -8.383,11.418 -8.74,16.412 -0.357,4.995 2.497,12.486 -1.605,16.411 -4.103,3.924 -29.435,18.374 -35.143,27.472 -5.708,9.098 -5.709,29.79 8.027,42.278 13.736,12.487 21.407,9.633 29.256,7.849 -3.924,10.168 -5.174,15.698 -9.277,20.871 -4.103,5.174 -33.359,42.814 -34.608,49.414 -1.248,6.601 3.211,8.741 0.536,12.487 -2.676,3.746 -14.45,15.877 -16.59,21.763 -2.141,5.887 2.302,32.835 12.308,39.246 4.544,-2.469 3.092,-7.728 3.092,-7.728 0,0 2.695,-2.646 4.824,-5.106 2.505,-2.893 3.013,-6.383 4.5,-9.117 1.488,-2.734 2.081,-8.019 2.393,-10.338 1.249,-9.276 0.357,-12.307 1.605,-14.804 1.249,-2.498 7.134,-10.884 8.918,-11.776 1.784,-0.892 12.666,-4.815 14.985,-6.599 2.319,-1.784 27.649,-42.099 29.433,-46.559 1.784,-4.46 11.952,-28.186 12.844,-30.148 2.676,4.638 0.001,30.861 1.963,35.677 1.962,4.817 6.245,7.849 9.812,8.028 3.568,0.178 4.46,0 5.887,-0.535 -6.779,18.552 -28.722,74.031 -30.506,75.994 -1.784,1.962 -6.421,4.637 -7.67,9.81 -1.248,5.174 -1.069,9.098 -0.712,12.309 0.356,3.211 -12.31,9.098 -12.489,12.666 -0.178,3.568 0,3.745 -1.07,4.994 -1.07,1.249 -18.373,19.979 -19.443,21.406 -0.09,2.052 -0.358,3.658 0.712,4.907 1.071,1.248 2.586,0.892 4.459,0.625 2.141,-0.892 34.306,-41.573 32.825,-39.424 0.089,3.389 0.662,6.834 0.582,7.843 -1.019,0.482 -1.359,0.049 -2.965,0.485 -0.306,1.478 0.085,3.354 0.765,3.094 0.681,-0.261 2.376,-0.543 2.934,-0.373 1.562,0.474 1.973,1.794 3.936,1.437 1.248,-3.924 -2.933,-11.773 0.457,-13.914 3.389,-2.141 8.741,-8.028 9.9,-9.188 0.386,-3.275 0.535,-5.974 0.803,-9.453 1.962,-2.497 31.943,-29.46 33.357,-30.773 2.498,-2.319 -2.934,12.558 0.535,16.412 3.211,3.568 5.532,4.461 5.532,4.461 0,0 5.528,1.426 5.707,1.248 0.178,-0.178 -1.419,47.788 11.418,57.441 1.922,1.446 -6.423,2.854 -8.385,9.098 l -1.131,18.842 c 0,0 3.279,2.523 3.279,5.551 0,3.027 -3.027,25.983 -1.513,28.505 1.513,2.523 2.523,22.959 2.523,22.959 l 4.289,1.766 c 0,0 2.017,5.801 2.27,8.576 0.252,2.775 -2.522,7.317 -2.522,7.317 0,0 -5.299,3.279 -4.795,4.793 0.505,1.513 -0.504,5.551 1.01,6.56 1.514,1.009 5.803,5.549 5.803,5.549 l 3.549,57.686 c 0,0 -11.67,19.134 -13.135,23.927 0.793,8.9 6.054,12.615 11.099,13.371 5.046,0.757 17.66,2.144 21.444,1.387 5.928,-6.181 10.47,-9.964 10.722,-13.244 -0.252,-19.047 4.163,-23.337 3.911,-44.023 -0.253,-20.687 3.783,-20.686 3.783,-20.686 l 0.758,-11.102 c 0,0 6.559,-0.252 7.316,-4.793 0.757,-4.541 1.26,-44.4 1.26,-44.4 l 7.316,-8.578 c 0,0 1.766,62.312 0,65.592 -1.766,3.279 -2.774,1.261 -3.783,7.568 -1.009,6.307 -1.009,16.4 1.262,17.156 2.27,0.757 8.071,5.298 8.576,7.569 0.504,2.27 -0.504,61.05 -0.504,61.05 0,0 6.56,15.893 13.119,17.155 6.559,1.261 19.929,10e-4 23.461,-0.756 3.532,-0.757 6.307,-9.334 6.307,-10.848 0,-1.513 -10.09,-18.416 -11.352,-19.677 -1.261,-1.262 0.252,-44.655 0.252,-44.655 0,0 5.803,-6.055 5.803,-13.371 0,-7.316 -1.514,-41.121 -1.514,-41.121 0,0 3.783,-0.505 3.783,-8.83 0,-8.325 0.506,-48.184 0.506,-48.184 0,0 8.884,-1.228 7.41,-21.255 5.007,-3.481 4.109,-3.069 6.717,-6.245 1.817,-11.596 1.513,-14.631 0.252,-17.154 -1.261,-2.523 -3.783,-2.775 -3.783,-2.775 l 0.756,-33.049 c 0,0 6.812,-6.559 7.316,-16.902 0.505,-10.344 0.504,-20.688 0.504,-20.688 l -3.531,-1.766 0.252,-60.798 c 0,0 35.823,37.337 36.832,39.355 1.009,2.018 -0.756,12.362 4.037,14.885 4.793,2.523 7.82,11.857 11.1,16.902 3.279,5.046 16.904,12.11 16.904,12.11 l -0.506,19.425 8.074,-0.504 c 0,0 1.513,13.119 -2.271,19.678 -3.785,6.559 -3.28,9.334 -3.28,9.334 0,0 -13.37,12.11 -15.388,16.147 -2.019,4.036 0.503,15.387 2.521,16.144 2.018,0.757 17.661,1.01 41.627,-20.182 1.009,-1.009 2.776,-11.605 2.776,-11.605 l 14.884,-0.252 c 0,0 12.075,-9.45 12.866,-11.605 0.79,-2.155 0.699,-4.128 -0.252,-6.559 -0.952,-2.431 -19.678,-24.723 -19.678,-24.723 0,0 25.252,-21.961 26.236,-25.228 0.984,-3.268 1.644,-6.075 0,-9.586 -1.644,-3.511 -28.76,-31.031 -28.76,-31.031 l -2.017,-7.065 -2.776,-1.008 c 0,0 1.315,-20.473 -1.765,-25.48 -3.08,-5.007 -25.889,-21.953 -28.002,-25.733 -2.113,-3.779 1.863,-32.088 -0.254,-38.093 -2.117,-6.005 -20.15,-17.302 -23.209,-25.733 -3.059,-8.43 -2.523,-39.861 -2.523,-39.861 0,0 -37.648,-49.182 -39.86,-50.959 -2.211,-1.777 -4.288,-2.019 -12.361,-3.785 -8.073,-1.766 -9.237,-1.001 -11.606,-2.776 -2.368,-1.774 -8.572,-12.162 -11.248,-15.73 -1.588,-2.118 -8.526,-3.537 -16.136,-3.486 z m -100.53,199.892 1.428,29.791 -35.857,44.596 z M 61.703,330.537 c 0,0 1.192,0.06 1.817,2.379 0.624,2.319 -2.053,7.496 -2.053,7.496 0,0 -0.138,-1.965 -0.227,-4.195 -0.089,-2.23 0.463,-5.68 0.463,-5.68 z"
   style="fill:#eaebee;fill-opacity:1;fill-rule:nonzero"
   id="path211" />

    </g>
  </g>
</svg>
