<?xml version="1.0" encoding="UTF-8" standalone="no"?>
<!-- Created with Inkscape (http://www.inkscape.org/) -->

<svg
   width="33.866623mm"
   height="33.537743mm"
   viewBox="0 0 33.866623 33.537743"
   version="1.1"
   id="svg25019"
   inkscape:version="1.2.1 (9c6d41e410, 2022-07-14, custom)"
   sodipodi:docname="compass.svg"
   xmlns:inkscape="http://www.inkscape.org/namespaces/inkscape"
   xmlns:sodipodi="http://sodipodi.sourceforge.net/DTD/sodipodi-0.dtd"
   xmlns="http://www.w3.org/2000/svg"
   xmlns:svg="http://www.w3.org/2000/svg">
  <sodipodi:namedview
     id="namedview25021"
     pagecolor="#ffffff"
     bordercolor="#000000"
     borderopacity="0.25"
     inkscape:showpageshadow="2"
     inkscape:pageopacity="0.0"
     inkscape:pagecheckerboard="0"
     inkscape:deskcolor="#d1d1d1"
     inkscape:document-units="mm"
     showgrid="false"
     inkscape:zoom="0.7500982"
     inkscape:cx="161.97879"
     inkscape:cy="75.99005"
     inkscape:window-width="1920"
     inkscape:window-height="1015"
     inkscape:window-x="0"
     inkscape:window-y="29"
     inkscape:window-maximized="1"
     inkscape:current-layer="layer1" />
  <defs
     id="defs25016" />
  <g
     inkscape:label="Layer 1"
     inkscape:groupmode="layer"
     id="layer1"
     transform="translate(-60.282628,-128.24411)">
    <g
       id="Compass"
       transform="matrix(0.3355922,0,0,0.3355922,-53.832815,54.403092)"
       style="clip-rule:evenodd;fill:#eaebee;fill-opacity:1;fill-rule:evenodd;stroke-miterlimit:2">
        <path
   d="m 346.059,264.219 v 0.56 l 1.504,0.278 c -0.109,0.559 -0.334,1.173 -0.555,1.787 l -1.952,6.09 -2.227,-7.877 1.504,-0.278 v -0.56 h -4.291 v 0.56 l 1.224,0.278 2.954,10.447 h 0.836 l 2.787,-8.269 2.62,8.269 h 0.836 l 3.343,-10.447 1.057,-0.278 v -0.56 h -3.619 v 0.56 l 1.613,0.278 -2.449,7.821 -2.452,-7.821 1.558,-0.278 v -0.56 z m 43.967,-9.441 c -4.513,0.838 -10.643,5.642 -11.42,11.509 l -15.941,3.518 v 0.111 l 15.941,3.521 c 0.777,5.864 6.907,10.669 11.42,11.45 l 3.514,15.978 h 0.109 l 3.51,-15.978 c 4.516,-0.781 10.646,-5.586 11.424,-11.45 l 15.937,-3.521 v -0.167 l -15.937,-3.519 c -0.778,-5.866 -6.908,-10.669 -11.424,-11.452 l -3.51,-15.976 h -0.109 z m -11.42,17.765 -12.093,-2.57 v -0.111 h 12.093 z m 1.337,-2.681 c 0,-7.653 4.901,-13.687 13.651,-13.687 8.75,0 13.652,6.034 13.652,13.687 0,7.653 -4.902,13.685 -13.652,13.685 -8.75,0 -13.651,-6.032 -13.651,-13.685 z m 16.212,-49.83 v 0.559 l 1.451,0.279 v 7.766 l -7.468,-8.604 h -3.063 v 0.559 l 1.392,0.279 v 9.385 l -1.392,0.224 v 0.559 h 4.066 v -0.559 l -1.558,-0.224 v -8.267 c 1.726,1.9 7.019,7.988 8.077,9.161 h 1.061 V 220.87 l 1.392,-0.279 v -0.559 z m 0.113,88.708 c -0.781,-0.055 -1.558,-0.335 -2.34,-0.335 -2.172,0 -3.622,1.34 -3.622,3.018 0,4.021 5.294,3.183 5.294,5.864 0,1.397 -0.89,2.067 -2.228,2.067 -0.668,0 -1.896,-0.335 -2.231,-1.005 -0.221,-0.447 -0.447,-1.118 -0.556,-2.011 l -0.501,0.168 0.167,2.624 c 0.778,0.559 2.173,0.838 3.23,0.838 2.341,0 3.79,-1.452 3.79,-3.408 0,-3.24 -5.294,-2.681 -5.294,-5.529 0,-1.173 0.669,-1.843 1.839,-1.843 1.395,0 1.896,0.892 2.173,2.011 h 0.501 z m -5.348,-53.962 2.561,-12.12 h 0.113 v 12.12 z m 5.348,30.109 -2.561,12.122 h -0.113 v -12.122 z m 12.315,-17.708 12.15,2.57 v 0.113 h -12.15 z m 29.701,2.794 0.279,1.229 h 0.502 c -0.113,-0.894 -0.113,-2.346 0,-3.183 h -0.502 l -0.279,1.172 h -2.783 v -3.966 h 3.343 l 0.443,1.451 h 0.501 l -0.221,-2.457 h -7.246 v 0.56 l 1.504,0.278 v 9.385 l -1.504,0.279 v 0.502 h 7.968 l 0.669,-2.68 h -0.61 l -0.614,1.618 h -4.233 v -4.245 z"
   style="fill:#eaebee;fill-opacity:1"
   id="path59" />

    </g>
  </g>
</svg>
