<?xml version="1.0" encoding="UTF-8" standalone="no"?>
<!-- Created with Inkscape (http://www.inkscape.org/) -->

<svg
   width="33.866955mm"
   height="33.81794mm"
   viewBox="0 0 33.866955 33.81794"
   version="1.1"
   id="svg31215"
   inkscape:version="1.2.1 (9c6d41e410, 2022-07-14, custom)"
   sodipodi:docname="crosshair-slanted.svg"
   xmlns:inkscape="http://www.inkscape.org/namespaces/inkscape"
   xmlns:sodipodi="http://sodipodi.sourceforge.net/DTD/sodipodi-0.dtd"
   xmlns="http://www.w3.org/2000/svg"
   xmlns:svg="http://www.w3.org/2000/svg">
  <sodipodi:namedview
     id="namedview31217"
     pagecolor="#ffffff"
     bordercolor="#000000"
     borderopacity="0.25"
     inkscape:showpageshadow="2"
     inkscape:pageopacity="0.0"
     inkscape:pagecheckerboard="0"
     inkscape:deskcolor="#d1d1d1"
     inkscape:document-units="mm"
     showgrid="false"
     inkscape:zoom="0.7500982"
     inkscape:cx="93.987693"
     inkscape:cy="91.987955"
     inkscape:window-width="1920"
     inkscape:window-height="1015"
     inkscape:window-x="0"
     inkscape:window-y="29"
     inkscape:window-maximized="1"
     inkscape:current-layer="layer1" />
  <defs
     id="defs31212" />
  <g
     inkscape:label="Layer 1"
     inkscape:groupmode="layer"
     id="layer1"
     transform="translate(-78.304054,-124.18366)">
    <g
       id="Target"
       transform="matrix(0.39209662,0,0,0.39209662,17.599655,39.512358)"
       style="clip-rule:evenodd;fill-rule:evenodd;stroke-miterlimit:2;fill:#eaebee;fill-opacity:1">
        <path
   d="M 241.055,300.765 227.73,287.44 c 14.988,-15.82 14.95,-40.714 -0.118,-56.485 l 13.582,-13.582 -1.42,-1.419 -13.586,13.586 c -15.776,-14.977 -40.6,-14.988 -56.39,-0.031 l -13.563,-13.564 -1.415,1.415 13.555,13.555 c -15.115,15.781 -15.15,40.727 -0.12,56.558 l -13.301,13.301 1.419,1.42 13.296,-13.296 c 15.826,15.119 40.843,15.111 56.655,-0.034 l 13.316,13.316 z m -16.282,-69.811 -13.442,13.442 c -7.576,-6.814 -19.087,-6.823 -26.675,-0.03 l 13.355,13.355 13.331,-13.331 1.415,1.416 -13.331,13.331 13.449,13.448 c 6.822,-7.621 6.784,-19.197 -0.119,-26.774 l 13.442,-13.442 c 14.291,14.993 14.322,38.614 0.115,53.654 l -13.408,-13.408 -1.414,1.413 -13.478,-13.478 -13.519,13.519 -1.416,-1.416 13.519,-13.519 -13.371,-13.371 1.413,-1.414 -13.423,-13.423 c 15.008,-14.179 38.562,-14.171 53.557,0.028 z m -54.98,1.378 13.44,13.44 c -6.945,7.586 -6.987,19.212 -0.123,26.845 l -13.442,13.442 c -14.25,-15.051 -14.213,-38.727 0.125,-53.727 z m 1.29,55.152 13.442,-13.442 c 7.634,6.953 19.327,6.942 26.944,-0.034 l 13.438,13.438 c -15.031,14.369 -38.777,14.381 -53.824,0.038 z"
   style="fill:#eaebee;fill-opacity:1"
   id="path39" />

    </g>
  </g>
</svg>
