<svg xmlns="http://www.w3.org/2000/svg" version="1.1" xmlns:xlink="http://www.w3.org/1999/xlink" xmlns:svgjs="http://svgjs.com/svgjs" width="512" height="512" x="0" y="0" viewBox="0 0 511.999 511.999" style="enable-background:new 0 0 512 512" xml:space="preserve" class=""><g>
<g>
	<g>
		<path d="M256,157.144c-15.772,0-30.691,3.719-43.933,10.317c18.57-2.676,38.307,0.327,57.735,9.417
			c43.329,20.275,62.085,72.022,41.809,115.352c-12.295,26.276-38.457,41.729-65.716,41.73c-10.268,0-20.69-2.192-30.588-6.824
			c-30.452-14.25-43.632-50.617-29.383-81.068c5.864-12.533,16.259-22.033,29.268-26.748c13.011-4.715,27.076-4.083,39.609,1.784
			c7.57,3.543,10.834,12.549,7.292,20.118c-3.543,7.57-12.552,10.832-20.118,7.292c-5.211-2.438-11.06-2.701-16.47-0.74
			c-5.409,1.96-9.731,5.909-12.17,11.121c-7.176,15.337-0.538,33.654,14.8,40.832c21.06,9.857,46.214,0.738,56.068-20.323
			c13.203-28.216,0.99-61.912-27.225-75.115c-36.661-17.154-80.354-1.676-98.324,34.47c-0.99,5.601-1.508,11.362-1.508,17.242
			c0,54.51,44.347,98.857,98.857,98.857c54.507,0,98.854-44.347,98.854-98.857C354.856,201.49,310.509,157.144,256,157.144z" fill="#eaebee" data-original="#000000" class=""></path>
	</g>
</g>
<g>
	<g>
		<path d="M126.88,255.999c0-52.451,31.439-97.693,76.461-117.884c-50.536,9.818-94.575,31.812-125.626,51.039
			c-44.573,27.598-72.137,54.999-73.288,56.151c-5.902,5.907-5.902,15.48,0,21.387c1.152,1.153,28.717,28.553,73.288,56.152
			c31.051,19.227,75.09,41.22,125.627,51.039C158.32,353.694,126.88,308.45,126.88,255.999z" fill="#eaebee" data-original="#000000" class=""></path>
	</g>
</g>
<g>
	<g>
		<path d="M507.573,245.305c-1.152-1.153-28.716-28.552-73.287-56.151c-31.051-19.227-75.091-41.22-125.628-51.039
			c45.021,20.19,76.461,65.433,76.461,117.884c0,52.452-31.439,97.695-76.461,117.885c50.537-9.818,94.576-31.812,125.628-51.039
			c44.573-27.599,72.136-54.999,73.287-56.152C513.475,260.785,513.475,251.214,507.573,245.305z" fill="#eaebee" data-original="#000000" class=""></path>
	</g>
</g>
<g>
</g>
<g>
</g>
<g>
</g>
<g>
</g>
<g>
</g>
<g>
</g>
<g>
</g>
<g>
</g>
<g>
</g>
<g>
</g>
<g>
</g>
<g>
</g>
<g>
</g>
<g>
</g>
<g>
</g>
</g></svg>