<svg xmlns="http://www.w3.org/2000/svg" version="1.1" xmlns:xlink="http://www.w3.org/1999/xlink" xmlns:svgjs="http://svgjs.com/svgjs" width="512" height="512" x="0" y="0" viewBox="0 0 609.818 609.818" style="enable-background:new 0 0 512 512" xml:space="preserve" class=""><g><g><g><path d="m534.257 438.64c-4.598-4.736-7.279-10.997-7.564-17.636l-.507-11.729c-9.777 12.733-25.5 29.896-37.991 27.811-11.306-1.884-20.473-20.095-26.188-35.094-3.162 13.131-8.71 28.927-17.813 34.45-9.634 5.843-20.434 4.215-27.855 1.775.757 7.559.3 18.295-5.793 27.786-9.31 14.513-63.869 14.223-87.977 13.377 1.22 15.211-3.113 30.84-12.924 46.666 14.341-3.315 34.952-5.606 42.835 5.862 7.249 10.554 2.026 21.673-1.79 29.798-1.972 4.2-4.205 8.956-3.31 11.016.925 2.11 5.798 2.734 12.413 1.603 1.313-.226 2.641-.334 3.969-.334 4.962 0 9.905 1.549 13.992 4.461 18.083 12.875 66.078 39.388 121.055 7.357 75.569-44.021 51.938-123.131 51.678-123.918-2.115-6.392-7.879-14.649-16.23-23.251zm-60.078 136.105c-21.767 9.167-49.868-17.646-49.868-17.646 24.629-4.387 45.393-14.041 61.686-29.793-.005-.005 9.949 38.272-11.818 47.439z" fill="#eaebee" data-original="#000000" class=""></path><path d="m279.138 538.888c-.718-2.621-3.447-4.141-6.044-3.447l-58.337 15.959c-2.621.718-4.165 3.423-3.447 6.044.6 2.184 2.577 3.62 4.741 3.62.433 0 .87-.059 1.303-.172l58.337-15.959c2.621-.724 4.161-3.424 3.447-6.045z" fill="#eaebee" data-original="#000000" class=""></path><path d="m7.082 490.854c-1.918 0-3.654.984-4.426 2.562-3.59 7.279-3.541 14.365.148 21.649.826 1.633 2.557 2.552 4.706 2.611l202.443-7.333-202.33-19.464c-.182-.015-.359-.025-.541-.025z" fill="#eaebee" data-original="#000000" class=""></path><path d="m25.746 249.373c-3.044-1.766-6.959-1.333-9.536 1.072-5.611 5.238-8.98 11.542-10.313 19.273-.61 3.561 1.323 7.092 4.702 8.602l275.341 122.639z" fill="#eaebee" data-original="#000000" class=""></path><path d="m339.551 327.436-156.495-307.097c-1.431-2.808-4.338-4.52-7.554-4.52-.27 0-.541.01-.811.034-10.534.934-18.496 5.267-24.339 13.244-2.016 2.754-2.09 6.556-.182 9.462z" fill="#eaebee" data-original="#000000" class=""></path><path d="m406.494 306.279-30.669-293.214c-.32-3.044-2.646-5.464-5.656-5.892-1.82-.256-3.61-.384-5.375-.384-5.665 0-11.11 1.323-16.51 3.993-2.43 1.205-3.747 4.2-3.123 7.116z" fill="#eaebee" data-original="#000000" class=""></path><path d="m533.146 12.338c-3.615-.875-7.274-1.17-10.839-.875-2.966.246-5.267 2.705-5.356 5.724l-7.308 248.101 28.101-246.498c.334-2.966-1.638-5.739-4.598-6.452z" fill="#eaebee" data-original="#000000" class=""></path><path d="m564.242 251.419-30.767 122.791c-.664 2.636.939 5.306 3.575 5.965.403.103.802.148 1.2.148 2.198 0 4.205-1.49 4.766-3.723l30.767-122.791c.664-2.636-.939-5.306-3.575-5.965-2.646-.645-5.312.939-5.966 3.575z" fill="#eaebee" data-original="#000000" class=""></path><path d="m474.086 365.058h.098c2.675 0 4.864-2.144 4.918-4.82l4.18-217.708c.054-2.715-2.11-4.957-4.82-5.011-.034 0-.069 0-.098 0-2.675 0-4.864 2.139-4.918 4.825l-4.18 217.703c-.059 2.714 2.105 4.957 4.82 5.011z" fill="#eaebee" data-original="#000000" class=""></path><path d="m436.67 257.532c.074 0 .143 0 .216-.005 2.715-.113 4.815-2.41 4.702-5.124l-6.949-163.276c-.108-2.715-2.429-4.746-5.125-4.706-2.715.113-4.815 2.41-4.702 5.125l6.949 163.276c.114 2.639 2.293 4.71 4.909 4.71z" fill="#eaebee" data-original="#000000" class=""></path><path d="m306.654 153.502c1.756.816 3.295.998 4.549.536 4.716-1.731 6.629-12.89 2.129-25.234-2.98-8.174-8.203-14.985-13.293-17.346-1.131-.521-2.164-.787-3.093-.787-.516 0-1.003.084-1.456.251-4.721 1.731-6.629 12.895-2.125 25.234 2.981 8.17 8.194 14.981 13.289 17.346z" fill="#eaebee" data-original="#000000" class=""></path><path d="m313.048 172.741 67.223 174.563c.752 1.952 2.616 3.152 4.593 3.152.59 0 1.185-.103 1.766-.325 2.538-.979 3.797-3.821 2.823-6.359l-67.219-174.568c-.979-2.538-3.836-3.787-6.359-2.823-2.537.98-3.801 3.828-2.827 6.36z" fill="#eaebee" data-original="#000000" class=""></path><path d="m331.465 373.409c.969 1.062 2.302 1.603 3.634 1.603 1.18 0 2.366-.423 3.315-1.284 2.007-1.829 2.154-4.943.32-6.949l-197.505-216.709c-1.825-2.002-4.933-2.144-6.949-.32-2.007 1.829-2.154 4.943-.32 6.949z" fill="#eaebee" data-original="#000000" class=""></path><path d="m327.959 395.677c.866.615 1.859.91 2.843.91 1.539 0 3.054-.718 4.013-2.07 1.569-2.213 1.052-5.282-1.161-6.861l-325.549-231.306c-2.213-1.579-5.282-1.057-6.861 1.161-1.569 2.213-1.052 5.282 1.161 6.856z" fill="#eaebee" data-original="#000000" class=""></path><path d="m275.558 463.132-27.285-22.829 4.623 34.415z" fill="#eaebee" data-original="#000000" class=""></path><path d="m152.683 420.336c-2.602-.752-5.336.728-6.103 3.339-.762 2.602.728 5.336 3.339 6.103l72.23 21.201c.462.133.925.197 1.382.197 2.129 0 4.092-1.387 4.721-3.536.762-2.602-.728-5.336-3.339-6.103z" fill="#eaebee" data-original="#000000" class=""></path><path d="m298.904 462.832c-2.621-.693-5.316.88-6.005 3.507-.693 2.626.88 5.316 3.507 6.005l2.764.723c.418.108.841.162 1.254.162 2.179 0 4.175-1.461 4.751-3.669.693-2.626-.88-5.316-3.507-6.005z" fill="#eaebee" data-original="#000000" class=""></path><path d="m23.243 439.781c-2.646-.59-5.267 1.121-5.838 3.782-.57 2.656 1.126 5.267 3.782 5.838l91.253 19.539c.344.079.693.108 1.033.108 2.272 0 4.308-1.579 4.805-3.89.57-2.656-1.126-5.267-3.782-5.838z" fill="#eaebee" data-original="#000000" class=""></path><path d="m133.867 402.341c.811-.443 1.057-.792 1.077-.861 0-.005 0-.005 0-.005.654-2.203-8.764-11.956-30.354-18.383-9.197-2.739-17.473-3.885-23.793-3.885-4.805 0-8.469.664-10.549 1.785-.816.443-1.062.797-1.082.87-.654 2.203 8.769 11.951 30.359 18.383 16.175 4.82 29.523 4.702 34.342 2.096z" fill="#eaebee" data-original="#000000" class=""></path><path d="m188.574 565.504c-1.392-.718-3.595-1.185-6.354-1.185-2.749 0-6.044.462-9.629 1.603-10.047 3.192-14.223 8.882-13.706 10.5.103.325.561.728 1.225 1.077 2.774 1.436 8.793 1.874 15.983-.418 10.047-3.192 14.223-8.882 13.706-10.5-.108-.325-.561-.728-1.225-1.077z" fill="#eaebee" data-original="#000000" class=""></path><path d="m33.551 577.13c-1.338-.767-3.605-1.392-6.536-1.392-1.864 0-3.993.256-6.324.89-7.756 2.115-11.985 6.92-11.37 9.167.197.718.949 1.279 1.554 1.623 2.184 1.249 6.861 2.134 12.86.502 7.756-2.115 11.985-6.915 11.375-9.162-.197-.728-.959-1.284-1.559-1.628z" fill="#eaebee" data-original="#000000" class=""></path><path d="m98.168 164.017c2.459 0 4.303-.605 5.488-1.79 4.898-4.918-.192-21.024-14.341-35.222-9.797-9.826-21.413-16.18-29.591-16.175-2.454 0-4.298.6-5.484 1.79-4.903 4.918.187 21.024 14.341 35.222 9.802 9.826 21.413 16.175 29.587 16.175z" fill="#eaebee" data-original="#000000" class=""></path><path d="m458.216 74.555c2.12 0 7.288-7.957 7.288-22.711s-5.174-22.711-7.288-22.711c-2.115 0-7.288 7.957-7.288 22.711-.001 14.753 5.168 22.711 7.288 22.711z" fill="#eaebee" data-original="#000000" class=""></path><path d="m565.299 201.241c3.32-1.107 8.37-5.641 12.177-13.274 4.992-10.018 4.249-18.373 2.198-19.401-.177-.089-.393-.123-.625-.123-.467 0-.984.143-1.318.251-3.325 1.111-8.37 5.641-12.172 13.274-4.997 10.018-4.254 18.373-2.198 19.401.394.197 1.097.152 1.938-.128z" fill="#eaebee" data-original="#000000" class=""></path><path d="m587.489 65.038c.787.275 1.707-.034 2.341-.339 1.977-.954 4.657-3.585 6.241-8.115 2.174-6.251.585-11.277-1.471-11.995-.211-.074-.438-.108-.664-.108-.6 0-1.21.221-1.672.443-1.977.954-4.657 3.59-6.241 8.115-2.173 6.245-.585 11.281 1.466 11.999z" fill="#eaebee" data-original="#000000" class=""></path><path d="m571.161 367.674-3.103 26.985 23.97-11.415z" fill="#eaebee" data-original="#000000" class=""></path><path d="m608.636 410.19c-1.77-2.07-4.874-2.297-6.934-.536l-26.891 23.031c-2.066 1.766-2.307 4.874-.536 6.934.974 1.136 2.356 1.721 3.738 1.721 1.131 0 2.272-.389 3.197-1.18l26.891-23.031c2.06-1.77 2.301-4.878.535-6.939z" fill="#eaebee" data-original="#000000" class=""></path><path d="m439.4 323.629 11.222-13.775-15.427-3.172z" fill="#eaebee" data-original="#000000" class=""></path><path d="m268.894 581.118 15.428 21.909c6.413-7.224 16.451-10.687 30.373-10.308l-15.787-24.964c-16.184 7.25-25.066 11.199-30.014 13.363z" fill="#eaebee" data-original="#000000" class=""></path></g></g></g></svg>