<?xml version="1.0" encoding="UTF-8" standalone="no"?>
<!-- Created with Inkscape (http://www.inkscape.org/) -->

<svg
   width="250"
   height="250"
   viewBox="0 0 250 250.00001"
   version="1.1"
   id="SVGRoot"
   sodipodi:docname="Feature_2.svg"
   inkscape:export-filename="Feature_3.png"
   inkscape:export-xdpi="96"
   inkscape:export-ydpi="96"
   inkscape:version="1.2.1 (9c6d41e410, 2022-07-14)"
   xmlns:inkscape="http://www.inkscape.org/namespaces/inkscape"
   xmlns:sodipodi="http://sodipodi.sourceforge.net/DTD/sodipodi-0.dtd"
   xmlns="http://www.w3.org/2000/svg"
   xmlns:svg="http://www.w3.org/2000/svg">
  <sodipodi:namedview
     id="namedview803"
     pagecolor="#ffffff"
     bordercolor="#000000"
     borderopacity="0.25"
     inkscape:showpageshadow="2"
     inkscape:pageopacity="0.0"
     inkscape:pagecheckerboard="0"
     inkscape:deskcolor="#d1d1d1"
     inkscape:document-units="px"
     showgrid="false"
     inkscape:zoom="2"
     inkscape:cx="130.5"
     inkscape:cy="221"
     inkscape:window-width="2560"
     inkscape:window-height="1369"
     inkscape:window-x="3840"
     inkscape:window-y="0"
     inkscape:window-maximized="0"
     inkscape:current-layer="SVGRoot" />
  <defs
     id="defs798">
    <clipPath
       clipPathUnits="userSpaceOnUse"
       id="clipPath6219">
      <g
         id="g6223"
         transform="translate(-387.3593,-161.9135)">
        <path
           d="M 0,472.589 H 470 V 0 H 0 Z"
           id="path6221" />
      </g>
    </clipPath>
  </defs>
  <path
     d="M 0,0 C 1.176,0.423 1.881,0.925 1.881,1.427 1.881,1.929 1.176,2.431 0,2.87 0.047,2.399 0.062,1.913 0.062,1.427 0.062,0.94 0.047,0.471 0,0 m -5.55,-1.066 c 1.725,0.125 3.261,0.376 4.499,0.72 0.079,0.581 0.126,1.177 0.126,1.773 0,0.612 -0.047,1.208 -0.126,1.772 -1.238,0.345 -2.774,0.596 -4.499,0.722 0.047,-0.8 0.063,-1.631 0.063,-2.494 0,-0.847 -0.016,-1.694 -0.063,-2.493 m -3.903,-0.047 c 0.486,-0.033 0.972,-0.033 1.458,-0.033 0.486,0 0.972,0 1.442,0.033 0.047,0.815 0.063,1.662 0.063,2.54 0,0.894 -0.016,1.741 -0.063,2.556 -0.47,0.016 -0.956,0.032 -1.442,0.032 -0.486,0 -0.972,-0.016 -1.458,-0.032 C -9.484,3.168 -9.5,2.321 -9.5,1.427 c 0,-0.878 0.016,-1.725 0.047,-2.54 M -15.99,2.87 c -1.192,-0.439 -1.881,-0.941 -1.881,-1.443 0,-0.502 0.689,-1.004 1.881,-1.427 -0.047,0.471 -0.063,0.94 -0.063,1.427 0,0.486 0.016,0.972 0.063,1.443 m 1.035,-3.216 c 1.254,-0.344 2.79,-0.595 4.515,-0.72 -0.047,0.799 -0.063,1.646 -0.063,2.493 0,0.863 0.016,1.694 0.063,2.494 -1.725,-0.126 -3.261,-0.377 -4.515,-0.722 -0.063,-0.564 -0.11,-1.16 -0.11,-1.772 0,-0.596 0.047,-1.192 0.11,-1.773 m -0.878,4.314 c -0.69,-0.22 -1.286,-0.487 -1.756,-0.769 0.423,1.255 1.285,2.384 2.445,3.294 -0.297,-0.784 -0.533,-1.632 -0.689,-2.525 m 5.439,0.957 c -1.629,-0.111 -3.119,-0.33 -4.374,-0.644 0.251,1.177 0.66,2.259 1.176,3.2 1.082,0.549 2.321,0.941 3.637,1.145 C -10.143,7.575 -10.3,6.32 -10.394,4.925 M -6.6,4.987 c -0.455,0.016 -0.924,0.032 -1.395,0.032 -0.471,0 -0.941,-0.016 -1.396,-0.032 0.111,1.396 0.267,2.666 0.455,3.701 l 0.016,0.047 c 0.298,0.016 0.611,0.032 0.925,0.032 0.313,0 0.611,-0.016 0.925,-0.032 V 8.688 C -6.866,7.653 -6.71,6.383 -6.6,4.987 M -1.223,4.281 C -2.478,4.595 -3.967,4.814 -5.597,4.925 -5.706,6.32 -5.848,7.575 -6.035,8.626 -4.719,8.422 -3.48,8.03 -2.414,7.481 -1.882,6.54 -1.474,5.458 -1.223,4.281 M 1.599,3.199 C 1.129,3.481 0.533,3.748 -0.157,3.968 -0.313,4.861 -0.549,5.709 -0.862,6.493 0.313,5.583 1.176,4.454 1.599,3.199 m -8.889,6.54 c -0.234,0.016 -0.47,0.032 -0.705,0.032 -0.235,0 -0.471,-0.016 -0.705,-0.032 0.251,1.004 0.485,1.584 0.705,1.584 0.22,0 0.455,-0.58 0.705,-1.584 m 3.825,-0.737 c -0.878,0.314 -1.818,0.534 -2.79,0.659 -0.157,0.596 -0.329,1.098 -0.517,1.506 1.238,-0.298 2.382,-1.066 3.307,-2.165 M -4.39,11.167 C -1.646,10.163 0.533,8.03 1.63,5.332 1.097,6.085 0.438,6.775 -0.36,7.371 -0.769,7.685 -1.223,7.967 -1.693,8.233 -1.866,8.517 -2.054,8.799 -2.242,9.065 -2.869,9.912 -3.59,10.634 -4.39,11.167 m -4.828,0 c -0.188,-0.408 -0.36,-0.91 -0.517,-1.506 -0.988,-0.125 -1.912,-0.345 -2.79,-0.659 0.924,1.099 2.069,1.867 3.307,2.165 M -17.62,5.332 c 1.097,2.698 3.276,4.831 6.019,5.835 -0.799,-0.533 -1.52,-1.255 -2.147,-2.102 -0.189,-0.266 -0.376,-0.548 -0.549,-0.832 -0.486,-0.266 -0.925,-0.548 -1.332,-0.862 -0.8,-0.596 -1.474,-1.286 -1.991,-2.039 m 17.463,-6.445 c 0.69,0.234 1.286,0.485 1.756,0.783 -0.423,-1.254 -1.286,-2.399 -2.461,-3.309 0.313,0.8 0.549,1.647 0.705,2.526 m -5.44,-0.957 c 1.63,0.109 3.119,0.344 4.374,0.658 -0.251,-1.176 -0.659,-2.258 -1.191,-3.199 -1.066,-0.549 -2.305,-0.942 -3.621,-1.145 0.187,1.051 0.329,2.306 0.438,3.686 m -3.794,-0.047 c 0.455,-0.016 0.925,-0.032 1.396,-0.032 0.471,0 0.94,0.016 1.395,0.032 -0.11,-1.412 -0.266,-2.667 -0.47,-3.702 v -0.047 c -0.314,-0.031 -0.612,-0.031 -0.925,-0.031 -0.314,0 -0.627,0 -0.925,0.031 l -0.016,0.047 c -0.188,1.035 -0.344,2.29 -0.455,3.702 m -5.377,0.705 c 1.255,-0.314 2.745,-0.549 4.374,-0.658 0.094,-1.38 0.251,-2.635 0.439,-3.686 -1.316,0.203 -2.555,0.596 -3.637,1.145 -0.516,0.941 -0.925,2.023 -1.176,3.199 m -2.821,1.082 c 0.47,-0.298 1.066,-0.549 1.756,-0.783 0.156,-0.879 0.392,-1.726 0.689,-2.526 -1.16,0.91 -2.022,2.055 -2.445,3.309 m 15.896,-5.034 c 0.47,0.266 0.924,0.549 1.333,0.862 0.798,0.597 1.457,1.286 1.99,2.039 -1.097,-2.697 -3.276,-4.83 -6.02,-5.85 0.8,0.549 1.521,1.255 2.148,2.102 0.188,0.267 0.376,0.549 0.549,0.847 m -4.562,-1.427 c 0.972,0.109 1.912,0.345 2.79,0.643 -0.925,-1.082 -2.069,-1.851 -3.307,-2.165 0.188,0.424 0.36,0.925 0.517,1.522 M -8.7,-6.886 c 0.234,-0.015 0.47,-0.015 0.705,-0.015 0.235,0 0.471,0 0.705,0.015 -0.25,-0.988 -0.485,-1.568 -0.705,-1.568 -0.22,0 -0.454,0.58 -0.705,1.568 m -3.825,0.738 c 0.878,-0.298 1.802,-0.534 2.79,-0.643 0.157,-0.597 0.329,-1.098 0.517,-1.522 -1.238,0.314 -2.383,1.083 -3.307,2.165 m 0.924,-2.165 c -2.743,1.02 -4.922,3.153 -6.019,5.85 0.517,-0.753 1.191,-1.442 1.991,-2.039 0.407,-0.313 0.846,-0.596 1.332,-0.862 0.173,-0.298 0.36,-0.58 0.549,-0.847 0.627,-0.847 1.348,-1.553 2.147,-2.102 m 3.606,-1.63 c -6.286,0 -11.365,5.096 -11.365,11.37 0,6.289 5.079,11.386 11.365,11.386 6.27,0 11.365,-5.097 11.365,-11.386 0,-6.274 -5.095,-11.37 -11.365,-11.37"
     style="fill:#eaebee;fill-opacity:1;fill-rule:evenodd;stroke:none"
     id="path5544"
     transform="matrix(10.986114,0,0,-10.986114,212.69117,140.76507)"
     inkscape:label="Globe" />
</svg>
