<svg xmlns="http://www.w3.org/2000/svg" version="1.1" xmlns:xlink="http://www.w3.org/1999/xlink" xmlns:svgjs="http://svgjs.com/svgjs" width="512" height="512" x="0" y="0" viewBox="0 0 512 512" style="enable-background:new 0 0 512 512" xml:space="preserve" class=""><g><g><path d="m123.201 251.084h38.858v236.571h-38.858z" transform="matrix(.707 -.707 .707 .707 -219.407 209.038)" fill="#eaebee" data-original="#000000" class=""></path><path d="m512 167.281-131.931-35.351-35.35-131.93-123.295 123.295 15.164 56.594c-13.565-2.436-27.528-2.479-41.356-.066-24.041 4.195-45.897 15.563-63.207 32.873l-38.083 38.083 167.281 167.281 38.083-38.083c17.311-17.31 28.678-39.167 32.873-63.208 2.413-13.83 2.369-27.792-.066-41.357l56.594 15.165z" fill="#eaebee" data-original="#000000" class=""></path><path d="m24.703 321.345c-16.019 20.627-24.703 45.83-24.703 72.369 0 31.595 12.304 61.299 34.646 83.641 22.34 22.341 52.044 34.645 83.64 34.645 26.539 0 51.742-8.684 72.369-24.703z" fill="#eaebee" data-original="#000000" class=""></path></g></g></svg>