<svg xmlns="http://www.w3.org/2000/svg" version="1.1" xmlns:xlink="http://www.w3.org/1999/xlink" xmlns:svgjs="http://svgjs.com/svgjs" width="512" height="512" x="0" y="0" viewBox="0 0 605.298 605.298" style="enable-background:new 0 0 512 512" xml:space="preserve" class=""><g><g><g id="Page-1_20_"><g id="_x30_21---Broken-Shield" clip-rule="evenodd" fill-rule="evenodd" transform="translate(0 -1)"><path id="Path_131_" d="m553.121 115.61v240.661c0 86.204-74.098 193.698-243.583 249.01-4.492 1.356-9.284 1.356-13.776 0-169.486-55.312-243.584-162.806-243.584-249.01v-240.661c.008-8.134 4.504-15.599 11.689-19.412l180.13-94.031c2.774-1.435 6.045-1.552 8.914-.32s5.036 3.686 5.905 6.686l5.949 19.933-169.903 87.978c-6.951 3.753-11.309 10.991-11.376 18.89v220.937c0 70.028 65.54 163.328 212.275 214.049 2.202.66 4.485 1.011 6.784 1.044 2.445-.016 4.873-.403 7.201-1.148 146.526-50.616 212.066-143.917 212.066-213.944v-220.938c-.086-7.977-4.532-15.266-11.584-18.994l-159.154-82.447c.731-7.201 1.461-14.193 2.087-20.038.363-3.441 2.409-6.478 5.461-8.109s6.714-1.642 9.776-.031l173.034 90.483c7.185 3.812 11.68 11.278 11.689 19.412z" fill="#eaebee" data-original="#000000" class=""></path><path id="Path_130_" d="m104.672 134.917 166.25-86.1 8.349 28.074c1.154 3.874.115 8.07-2.713 10.958l-31.726 31.831c-4.016 4.018-4.332 10.426-.731 14.82l105.198 124.714c1.955 2.388 2.819 5.486 2.383 8.54-.436 3.055-2.134 5.787-4.679 7.532l-79.107 53.016c-4.786 3.176-6.291 9.518-3.444 14.506l60.948 107.076c1.794 3.18 5.622 4.601 9.057 3.361s5.473-4.777 4.823-8.371l-13.672-82.656c-.671-3.993.89-8.034 4.07-10.541l83.595-65.227c2.325-1.859 3.81-4.571 4.123-7.531.314-2.96-.57-5.923-2.454-8.228l-106.344-126.173c-3.298-4.012-3.384-9.771-.209-13.88l35.901-44.98c1.254-1.64 2.047-3.586 2.296-5.636 0 0 1.044-10.332 2.4-23.69l151.953 79.003v220.937c0 62.618-61.261 146.943-197.664 194.115-.308.071-.623.106-.939.104-136.716-47.276-197.977-131.602-197.977-194.22z" fill="#eaebee" data-original="#000000" class=""></path></g></g></g></g></svg>