<svg xmlns="http://www.w3.org/2000/svg" version="1.1" xmlns:xlink="http://www.w3.org/1999/xlink" xmlns:svgjs="http://svgjs.com/svgjs" width="512" height="512" x="0" y="0" viewBox="0 0 64 64" style="enable-background:new 0 0 512 512" xml:space="preserve" class=""><g><path d="m35.82 7.88a1 1 0 0 0 -.64.91c-.12 4.54 3.92 13.21 4.13 13.69a4.59 4.59 0 0 0 3.17 2.65 5.91 5.91 0 0 0 1.88-.2l2.56-2.55a11.2 11.2 0 0 1 2-1.61l-12.02-12.65a1 1 0 0 0 -1.08-.24z" fill="#eaebee" data-original="#000000" class=""></path><path d="m50 1.08a1 1 0 0 0 -.71 1v18.51a10.81 10.81 0 0 1 5.42-1.43h.68v-11a1 1 0 0 0 -.17-.55l-4.12-6.13a1 1 0 0 0 -1.1-.4z" fill="#eaebee" data-original="#000000" class=""></path><path d="m11.27 37.85a1 1 0 0 0 .63.63l4.1 1.38 6.7 6.77c.21-.25.43-.5.66-.73l3.64-3.66-6.7-6.7-1.3-4.13a1 1 0 0 0 -.63-.63l-4.37-1.45a1 1 0 0 0 -1 .24l-2.9 2.9a1 1 0 0 0 -.24 1z" fill="#eaebee" data-original="#000000" class=""></path><path d="m.15 54.91a1 1 0 0 0 .85.47h19.31a10.63 10.63 0 0 1 -.13-1.7 11.05 11.05 0 0 1 1.32-5.25l-1.19-1.79a1 1 0 0 0 -.67-.43l-6.16-1a1 1 0 0 0 -.81.23 1 1 0 0 0 -.35.76v1h-5.16a1 1 0 0 0 -1 1v1.06h-3.16a1 1 0 0 0 -.89.55l-2 4.1a1 1 0 0 0 .04 1z" fill="#eaebee" data-original="#000000" class=""></path><path d="m25.11 60.34a9 9 0 0 0 12.73 0l23.52-23.52a9 9 0 0 0 0-12.73l-.3-.3a9 9 0 0 0 -12.73 0l-23.52 23.52a9 9 0 0 0 0 12.73zm26.7-32.77a4.08 4.08 0 1 1 0 5.77 4.09 4.09 0 0 1 0-5.77zm-12.52 21.72 12-12a1 1 0 0 1 1.41 1.41l-12 12a1 1 0 0 1 -1.41-1.41zm-10 .77a4.08 4.08 0 0 1 5.77 0 4.08 4.08 0 1 1 -5.77 0z" fill="#eaebee" data-original="#000000" class=""></path><path d="m33.67 54.42a2.08 2.08 0 0 0 0-2.94 2.08 2.08 0 1 0 0 2.94z" fill="#eaebee" data-original="#000000" class=""></path><path d="m56.16 31.92a2.08 2.08 0 1 0 -2.94 0 2.08 2.08 0 0 0 2.94 0z" fill="#eaebee" data-original="#000000" class=""></path></g></svg>