<svg xmlns="http://www.w3.org/2000/svg" version="1.1" xmlns:xlink="http://www.w3.org/1999/xlink" xmlns:svgjs="http://svgjs.com/svgjs" width="512" height="512" x="0" y="0" viewBox="0 0 512 512" style="enable-background:new 0 0 512 512" xml:space="preserve" class=""><g><g id="Bazooka"><path d="m316.96583 306.15625a13.764 13.764 0 0 0 19.42382-.03516l8.28028-8.2998a13.7468 13.7468 0 0 0 -1.58985-20.78129l-12.71582-9.33789a23.45656 23.45656 0 0 0 -1.02343-32.0625l-8.33985-8.31934h-.00098l-3.64844-3.63867 52.90991-53.03076 54.95508-27.73975a10.21859 10.21859 0 0 0 13.17114-1.10937l5.1084-5.11621a10.257 10.257 0 0 0 1.09045-13.18457l27.98182-55.72754a4.99619 4.99619 0 0 0 -.37842-5.10987l9.72021-9.74267c13.18158-13.213-6.77989-32.99352-19.90039-19.8418l-9.7102 9.73242a4.99957 4.99957 0 0 0 -5.40308-.20605l-52.40723 30.9707a10.283 10.283 0 0 0 -12.97265 1.26563l-5.11035 5.13086a10.25623 10.25623 0 0 0 -1.22962 12.95922l-30.545 51.91724-9.55078 9.572-12.448-12.40844c-13.10672-13.09287-33.09807 6.64687-19.83008 19.87988l.86328.86035-11.43655 11.46588a5.00043 5.00043 0 0 0 -1.1709 5.20605l5.01184 14.09375-44.09875 44.19727-19.51758 6.80273a5.0086 5.0086 0 0 0 -1.89356 1.18946l-6.58886 6.60229-6.69141-6.67163a5.00055 5.00055 0 0 0 -7.06934.00879l-21.57129 21.61694-3.19726-3.19213a4.99947 4.99947 0 0 0 -7.06445 7.07617l3.19885 3.19385-4.62561 4.63525a5.00112 5.00112 0 0 0 .00683 7.07129l6.49781 6.48486-53.39917 48.17822c-7.4505 6.702-7.52264 14.05764-10.18384 21.11622l-35.92407 36.001-37.30152 25.90158c-14.17168-6.078-28.37555 12.56137-16.22827 24.66968l30.31934 30.249c12.36254 12.34 30.68837-2.51325 24.63818-16.31347l25.801-37.33252 35.92443-36.01148c6.15147-2.41856 14.59864-2.64458 21.39026-11.06323l46.66431-57.87353 19.79553 1.26074 17.091 22.18117a14.39053 14.39053 0 0 0 21.56739 1.374l8.37011-8.38964a14.38957 14.38957 0 0 0 -1.42871-21.56934l-22.17459-17.00291-.01489-15.10352 17.56055-17.60058zm-179.59693 78.43262-30.05639 30.12913-13.07151-13.04564 30.05735-30.12136zm230.89356-224.13111-13.368-13.33227 27.49377-46.731 35.233 35.14844zm-66.72534 18.58912 12.74316-12.7754a5.0003 5.0003 0 0 0 -.0127-7.07421l-4.40625-4.3877a3.60436 3.60436 0 0 1 -1.22265-3.63867 4.93337 4.93337 0 0 1 3.291-3.29688 3.60267 3.60267 0 0 1 3.63965 1.2168l12.44812 12.40942-24.12268 24.17652zm-87.77832 77.20212 3.14611 3.13623-26.20178 26.25342-3.14258-3.13574zm61.1416 73.17-8.37012 8.38964a4.38229 4.38229 0 0 1 -6.56934-.41992l-15.7915-20.49472 9.76562-9.79028 20.52784 15.741a4.37959 4.37959 0 0 1 .4375 6.57428zm62.25683-44.32129a3.74242 3.74242 0 0 1 .43262 5.66113l-8.28125 8.30078a3.7481 3.7481 0 0 1 -5.28613.01172l-12.471-12.448 11.71069-11.73zm-14.86423-23.40142-.1289.12964-5.22852-3.6211a16.12474 16.12474 0 0 0 3.03711-.35913 4.99994 4.99994 0 1 0 -2.125-9.77148 4.14612 4.14612 0 0 1 -3.95447-.8252l4.68152-8.22387 3.70166 3.69262a13.43942 13.43942 0 0 1 .0166 18.97852zm114.1279-132.07813-5.11621 5.125a.24053.24053 0 0 1 -.3291.002l-47.48828-47.37895a.24275.24275 0 0 1 .00586-.33789l5.10156-5.12207a.25311.25311 0 0 1 .35059-.01074l47.47949 47.37012a.24617.24617 0 0 1 -.00391.35253zm25.59082-63.10546-24.80651 49.40283-35.23328-35.14527 46.67456-27.58276zm12.81836-20.6543-9.66015 9.6826-5.73731-5.72071 9.65723-9.67871a3.61538 3.61538 0 0 1 3.64941-1.22656 4.94436 4.94436 0 0 1 3.30469 3.29785 3.60767 3.60767 0 0 1 -1.21387 3.64553z" fill="#eaebee" data-original="#000000" class=""></path></g></g></svg>