<svg xmlns="http://www.w3.org/2000/svg" version="1.1" xmlns:xlink="http://www.w3.org/1999/xlink" xmlns:svgjs="http://svgjs.com/svgjs" width="512" height="512" x="0" y="0" viewBox="0 0 96 96" style="enable-background:new 0 0 512 512" xml:space="preserve" class=""><g><g id="Caduceus"><path d="m35.83 30.84a4.57 4.57 0 0 1 4.58 4.42h3v-6.8h-.41a5 5 0 0 1 -4.68-3.26l-.55-1.49a13.47 13.47 0 0 0 -12.65-8.84h-24.03a6.79 6.79 0 0 0 6.79 6.8h15.85a1 1 0 1 1 0 2h-15.55a6.8 6.8 0 0 0 6.5 4.79h15.84a1 1 0 0 1 0 2h-15.52a6.77 6.77 0 0 0 6.49 4.79h3.76a14.89 14.89 0 0 1 10.58-4.41z" fill="#eaebee" data-original="#000000" class=""></path><path d="m70.85 14.87a13.47 13.47 0 0 0 -12.65 8.84l-.55 1.49a5 5 0 0 1 -4.65 3.26h-.33v6.8h3a4.57 4.57 0 0 1 4.58-4.42 14.89 14.89 0 0 1 10.59 4.42h3.76a6.78 6.78 0 0 0 6.4-4.79h-15.52a1 1 0 0 1 0-2h15.84a6.8 6.8 0 0 0 6.5-4.79h-15.55a1 1 0 0 1 0-2h15.85a6.79 6.79 0 0 0 6.79-6.8z" fill="#eaebee" data-original="#000000" class=""></path><path d="m45.36 16.83v34.64h5.28v-34.64a9 9 0 0 1 -5.28 0z" fill="#eaebee" data-original="#000000" class=""></path><path d="m45.36 60.65h5.28v6.52h-5.28z" fill="#eaebee" data-original="#000000" class=""></path><path d="m45.36 94.73h5.28v-18.39l-5.28-.02z" fill="#eaebee" data-original="#000000" class=""></path><circle cx="48" cy="8.25" r="6.98" fill="#eaebee" data-original="#000000" class=""></circle><path d="m60.17 32.84a2.59 2.59 0 1 0 0 5.17 7.73 7.73 0 0 1 3.7 14.52 12.32 12.32 0 0 1 4.4 3.24 12.89 12.89 0 0 0 -8.1-22.93z" fill="#eaebee" data-original="#000000" class=""></path><path d="m58.89 53.47h-23.06a7.73 7.73 0 1 1 0-15.46 2.59 2.59 0 1 0 0-5.17 12.91 12.91 0 1 0 0 25.81h23.06a5.26 5.26 0 0 1 1.11 10.35 12.41 12.41 0 0 1 4 4 10.44 10.44 0 0 0 -5.1-19.54z" fill="#eaebee" data-original="#000000" class=""></path><path d="m61.21 72.64a10.32 10.32 0 0 0 -5.21-3.16c-1.75-.43-1.69-.31-18.85-.31a5.27 5.27 0 0 1 -3.93-8.76 14.85 14.85 0 0 1 -5-1.87 10.23 10.23 0 0 0 -1.5 5.37c0 8.92 7.48 10.36 15.84 10.4 3.59 0-3.07 0 11.24.06a5.25 5.25 0 0 1 -.29 10.5h-.83v5.13h.83a10.43 10.43 0 0 0 7.7-17.36z" fill="#eaebee" data-original="#000000" class=""></path><path d="m38.53 76.18a24.71 24.71 0 0 1 -5.47-.94 10.44 10.44 0 0 0 9.47 14.76h.83v-5.13h-.83a5.27 5.27 0 0 1 -4-8.69z" fill="#eaebee" data-original="#000000" class=""></path></g></g></svg>