<?xml version="1.0" encoding="UTF-8" standalone="no"?>
<!-- Created with Inkscape (http://www.inkscape.org/) -->

<svg
   width="250"
   height="237.55304"
   viewBox="0 0 250 237.55304"
   version="1.1"
   id="SVGRoot"
   sodipodi:docname="C:\Users\Ido\AppData\Local\Temp\ink_ext_XXXXXX.svgSMFCW1"
   xml:space="preserve"
   inkscape:export-filename="Launcher_Training_Logo.svg"
   inkscape:export-xdpi="96"
   inkscape:export-ydpi="96"
   xmlns:inkscape="http://www.inkscape.org/namespaces/inkscape"
   xmlns:sodipodi="http://sodipodi.sourceforge.net/DTD/sodipodi-0.dtd"
   xmlns="http://www.w3.org/2000/svg"
   xmlns:svg="http://www.w3.org/2000/svg"><sodipodi:namedview
     id="namedview621"
     pagecolor="#2d2c2d"
     bordercolor="#000000"
     borderopacity="0.25"
     inkscape:showpageshadow="2"
     inkscape:pageopacity="0"
     inkscape:pagecheckerboard="0"
     inkscape:deskcolor="#d1d1d1"
     inkscape:document-units="px"
     showgrid="false"
     inkscape:zoom="0.25"
     inkscape:cx="755.5"
     inkscape:cy="755.5"
     inkscape:window-width="2560"
     inkscape:window-height="1369"
     inkscape:window-x="3832"
     inkscape:window-y="-8"
     inkscape:window-maximized="0"
     inkscape:current-layer="layer1" /><defs
     id="defs616" /><g
     id="g2473"
     transform="matrix(11.408753,0,0,-11.408753,140.33907,183.66951)"
     style="stroke-width:1.00006;stroke-dasharray:none"><path
       d="m 0,0 h -2.704 v 3.334 h -3.332 v 2.705 h 3.332 V 9.373 H 0 V 6.039 H 3.333 V 3.334 H 0 Z m -4.92,12.507 h 7.151 v 1.374 c 0,0.201 -0.085,0.387 -0.214,0.53 -0.129,0.128 -0.315,0.214 -0.515,0.214 h -5.693 c -0.2,0 -0.386,-0.086 -0.515,-0.214 -0.143,-0.143 -0.214,-0.329 -0.214,-0.53 z M 6.451,-4.723 H 5.006 c -0.429,0 -0.787,0.358 -0.787,0.787 h 3.018 c 0,-0.429 -0.357,-0.787 -0.786,-0.787 m -14.16,0 H -9.14 c -0.443,0 -0.801,0.358 -0.801,0.787 h 3.032 c 0,-0.429 -0.357,-0.787 -0.8,-0.787 M 8.139,-3.12 h -18.967 c -0.815,0 -1.473,0.659 -1.473,1.474 v 12.679 c 0,0.801 0.658,1.474 1.473,1.474 h 4.42 v 1.374 c 0,0.616 0.258,1.159 0.658,1.56 0.4,0.401 0.944,0.658 1.559,0.658 h 5.693 c 0.601,0 1.158,-0.257 1.559,-0.658 0.4,-0.401 0.644,-0.944 0.644,-1.56 v -1.374 h 4.434 c 0.8,0 1.473,-0.673 1.473,-1.474 V -1.646 c 0,-0.815 -0.673,-1.474 -1.473,-1.474"
       style="fill:#eaebee;fill-opacity:1;fill-rule:evenodd;stroke:none;stroke-width:1.00006;stroke-dasharray:none"
       id="path2475" /></g></svg>
