<?xml version="1.0" encoding="UTF-8" standalone="no"?>
<!-- Created with Inkscape (http://www.inkscape.org/) -->

<svg
   version="1.1"
   id="svg2"
   width="682.66669"
   height="682.66669"
   viewBox="0 0 682.66669 682.66669"
   sodipodi:docname="menu.svg"
   inkscape:version="1.2.1 (9c6d41e410, 2022-07-14, custom)"
   xmlns:inkscape="http://www.inkscape.org/namespaces/inkscape"
   xmlns:sodipodi="http://sodipodi.sourceforge.net/DTD/sodipodi-0.dtd"
   xmlns="http://www.w3.org/2000/svg"
   xmlns:svg="http://www.w3.org/2000/svg">
  <defs
     id="defs6" />
  <sodipodi:namedview
     id="namedview4"
     pagecolor="#ffffff"
     bordercolor="#000000"
     borderopacity="0.25"
     inkscape:showpageshadow="2"
     inkscape:pageopacity="0.0"
     inkscape:pagecheckerboard="0"
     inkscape:deskcolor="#d1d1d1"
     showgrid="false"
     inkscape:zoom="1.2333984"
     inkscape:cx="321.87491"
     inkscape:cy="341.33334"
     inkscape:window-width="1920"
     inkscape:window-height="1015"
     inkscape:window-x="0"
     inkscape:window-y="29"
     inkscape:window-maximized="1"
     inkscape:current-layer="g8" />
  <g
     inkscape:groupmode="layer"
     inkscape:label="Image"
     id="g8">
    <path
       style="fill:#2d2c2d;stroke-width:1.33333;fill-opacity:1"
       d="M 318.00001,650.48459 C 257.3361,646.01875 195.27349,621.5647 147.33334,583.23816 134.5215,572.9955 110.79826,549.36848 100.39586,536.491 65.260202,492.99543 42.778882,441.12503 33.939162,383.15766 c -3.06069,-20.0708 -3.06069,-63.92921 0,-84.00001 8.72151,-57.19221 31.03707,-109.12565 65.31369,-152 C 109.49549,134.34581 133.12253,110.62257 146,100.22017 189.49557,65.084515 241.36597,42.603199 299.33334,33.76348 c 20.0708,-3.060691 63.92921,-3.060691 84.00001,0 57.96737,8.839719 109.83777,31.321035 153.33334,66.45669 12.87748,10.4024 36.5045,34.12564 46.74716,46.93748 34.27661,42.87435 56.59216,94.80779 65.31368,152 3.06068,20.0708 3.06068,63.92921 0,84.00001 -8.83972,57.96737 -31.32104,109.83777 -66.4567,153.33334 -10.4024,12.87748 -34.12564,36.5045 -46.93748,46.74716 -34.90317,27.90392 -83.04307,51.11604 -125.33334,60.43329 -28.71444,6.32627 -63.56,8.90679 -92,6.81314 z m 60,-51.50339 c 113.25393,-15.11262 204.64845,-106.38263 221.32685,-221.02536 2.77228,-19.05589 2.77228,-54.54048 0,-73.59637 C 582.65643,189.77156 492.71944,99.834573 378.13153,83.164143 c -8.7008,-1.26581 -23.47146,-2.1146 -36.79819,-2.1146 -13.32672,0 -28.09738,0.84879 -36.79818,2.1146 C 189.98053,99.829733 100.00542,189.80484 83.339822,304.35947 c -2.77228,19.05589 -2.77228,54.54048 0,73.59637 10.70257,73.56647 52.001898,138.94718 113.704598,180.00498 53.73344,35.75498 115.49472,49.75548 180.95559,41.02038 z M 194.02555,481.69362 c -9.7127,-3.55515 -17.89688,-13.80259 -19.9191,-24.94079 -2.0659,-11.37872 5.87564,-26.10012 16.97957,-31.47545 5.7298,-2.77375 6.41155,-2.78639 150.24732,-2.78639 143.83578,0 144.51753,0.012 150.24733,2.78639 11.10393,5.37533 19.04547,20.09673 16.97957,31.47545 -2.07082,11.40592 -10.24798,21.43312 -20.39949,25.01479 -8.53657,3.01188 -285.89517,2.94209 -294.1352,-0.074 z m -3.12448,-113.33555 c -8.14081,-4.05673 -14.13902,-11.85041 -16.20073,-21.05016 -2.92604,-13.0566 3.972,-27.25684 16.20073,-33.35067 l 6.95586,-3.46625 h 143.47641 143.47642 l 6.95586,3.46625 c 22.27596,11.10057 22.27596,43.30026 0,54.40083 l -6.95586,3.46625 H 341.33334 197.85693 Z m 0.0689,-111.35566 c -7.44352,-3.68448 -13.23667,-10.832 -15.75627,-19.43993 -3.23465,-11.05082 -0.0139,-22.02138 9.00776,-30.68146 9.16773,-8.80042 1.48295,-8.39004 157.11184,-8.39004 155.6289,0 147.94412,-0.41038 157.11188,8.39004 9.02157,8.66008 12.24241,19.63064 9.00776,30.68146 -2.53551,8.66228 -8.40015,15.85824 -15.87231,19.47545 -5.72991,2.7738 -6.40923,2.78639 -150.33495,2.78534 -144.51069,-10e-4 -144.58174,-0.003 -150.27574,-2.82086 z"
       id="path847" />
  </g>
</svg>
