<svg xmlns="http://www.w3.org/2000/svg" version="1.1" xmlns:xlink="http://www.w3.org/1999/xlink" xmlns:svgjs="http://svgjs.com/svgjs" width="512" height="512" x="0" y="0" viewBox="0 0 64 64" style="enable-background:new 0 0 512 512" xml:space="preserve" class=""><g><g fill="rgb(0,0,0)"><path d="m16.054 48.25c-.372-.248-.826-.392-1.301-.392-1.28 0-2.313 1.043-2.313 2.323 0 1.27 1.032 2.313 2.313 2.313 1.28 0 2.323-1.043 2.323-2.313 0-.754-.361-1.435-.929-1.858-.031-.021-.062-.042-.093-.073z" fill="#eaebee" data-original="#000000" class=""></path><path d="m39.862 47.858c0-.723-.33-1.363-.847-1.796-.062-.041-.114-.083-.176-.134-.372-.248-.816-.392-1.301-.392-.64 0-1.218.258-1.641.681-.413.423-.671 1.001-.671 1.642 0 1.27 1.032 2.313 2.313 2.313 1.28-.001 2.323-1.044 2.323-2.314z" fill="#eaebee" data-original="#000000" class=""></path><path d="m47.77 34.147c.403.33.919.527 1.476.527 1.28 0 2.313-1.043 2.313-2.323s-1.032-2.313-2.313-2.313-2.323 1.032-2.323 2.313c0 .692.299 1.311.785 1.745.021.01.042.031.062.051z" fill="#eaebee" data-original="#000000" class=""></path><path d="m23.932 37.575c.01.01.021.01.031.021.403.279.847.423 1.342.423 1.27 0 2.313-1.043 2.313-2.313 0-.372-.093-.733-.258-1.053-.692.95-1.146 1.549-1.239 1.673-.196.258-.496.413-.826.413-.32 0-.619-.155-.816-.413-.093-.124-.547-.733-1.239-1.683-.165.32-.258.692-.258 1.063 0 .733.33 1.404.929 1.848.01.011.01.011.021.021z" fill="#eaebee" data-original="#000000" class=""></path><path d="m16.354 19.59c.031.072.072.145.103.227 2.055 4.212 5.255 9.116 7.661 12.523 0 .01.01.01.01.021.021.021.031.052.052.072.01.01.021.021.031.041.382.537.754 1.043 1.084 1.497.341-.465.712-.981 1.115-1.538.01-.021.021-.031.031-.041 3.82-5.41 9.694-14.64 9.694-18.883 0-5.978-4.863-10.84-10.84-10.84-5.978 0-10.84 4.863-10.84 10.84 0 1.518.754 3.675 1.9 6.071-.001 0-.001 0-.001.01zm8.94-12.616c3.417 0 6.194 2.777 6.194 6.194s-2.777 6.195-6.194 6.195c-3.407 0-6.195-2.777-6.195-6.195.001-3.417 2.788-6.194 6.195-6.194z" fill="#eaebee" data-original="#000000" class=""></path><path d="m16.983 25.124h-9.137v32.284h48.317v-32.284h-22.558c-1.683 2.901-3.541 5.678-4.976 7.743.671.785 1.053 1.796 1.053 2.839 0 .826-.237 1.6-.64 2.261l6.205 6.164c.661-.423 1.456-.661 2.292-.661.609 0 1.177.124 1.704.351l6.525-8.817c-.568-.733-.909-1.652-.909-2.653 0-2.416 1.972-4.378 4.388-4.378s4.377 1.962 4.377 4.378-1.962 4.388-4.377 4.388c-.671 0-1.311-.155-1.879-.434l-6.473 8.734c.65.764 1.032 1.755 1.032 2.819 0 2.416-1.972 4.377-4.388 4.377s-4.377-1.962-4.377-4.377c0-.826.227-1.611.63-2.271l-6.215-6.153c-.661.413-1.445.651-2.271.651-.578 0-1.146-.114-1.683-.33l-5.524 7.588c.65.764 1.043 1.755 1.043 2.839 0 2.416-1.972 4.377-4.388 4.377s-4.378-1.962-4.378-4.377c0-2.426 1.962-4.388 4.378-4.388.588 0 1.156.113 1.672.33l5.534-7.578c-.661-.785-1.043-1.797-1.043-2.839 0-1.053.382-2.065 1.043-2.85-1.435-2.065-3.294-4.832-4.977-7.733z" fill="#eaebee" data-original="#000000" class=""></path><path d="m60.386 21.201h-24.654c-.299.619-.619 1.239-.96 1.858h22.424c.568 0 1.032.465 1.032 1.032v34.349c0 .568-.465 1.032-1.032 1.032h-50.382c-.578 0-1.032-.465-1.032-1.032v-34.348c0-.568.454-1.032 1.032-1.032h9.003c-.341-.619-.661-1.239-.96-1.858h-11.244c-1.992-.001-3.613 1.62-3.613 3.612v32.903c0 1.993 1.621 3.613 3.613 3.613h56.773c1.993 0 3.614-1.621 3.614-3.613v-32.903c0-1.992-1.621-3.613-3.614-3.613z" fill="#eaebee" data-original="#000000" class=""></path></g></g></svg>