<?xml version="1.0" encoding="UTF-8" standalone="no"?>
<!-- Created with Inkscape (http://www.inkscape.org/) -->

<svg
   width="200.44881"
   height="250"
   viewBox="0 0 200.44881 250"
   version="1.1"
   id="SVGRoot"
   sodipodi:docname="C:\Users\Ido\AppData\Local\Temp\ink_ext_XXXXXX.svgSMFCW1"
   xml:space="preserve"
   inkscape:export-filename="Medical_Training_Logo.svg"
   inkscape:export-xdpi="96"
   inkscape:export-ydpi="96"
   xmlns:inkscape="http://www.inkscape.org/namespaces/inkscape"
   xmlns:sodipodi="http://sodipodi.sourceforge.net/DTD/sodipodi-0.dtd"
   xmlns="http://www.w3.org/2000/svg"
   xmlns:svg="http://www.w3.org/2000/svg"><sodipodi:namedview
     id="namedview621"
     pagecolor="#2d2c2d"
     bordercolor="#000000"
     borderopacity="0.25"
     inkscape:showpageshadow="2"
     inkscape:pageopacity="0"
     inkscape:pagecheckerboard="0"
     inkscape:deskcolor="#d1d1d1"
     inkscape:document-units="px"
     showgrid="false"
     inkscape:zoom="0.25"
     inkscape:cx="755.5"
     inkscape:cy="755.5"
     inkscape:window-width="2560"
     inkscape:window-height="1369"
     inkscape:window-x="3832"
     inkscape:window-y="-8"
     inkscape:window-maximized="0"
     inkscape:current-layer="layer1" /><defs
     id="defs616" /><path
     d="m 79.918477,180.03125 v 0 c 7.04153,0 12.938097,5.73627 12.938097,12.78922 v 14.41513 c 0,7.20185 -5.896567,12.93812 -12.938097,12.93812 -7.201825,0 -12.938094,-5.73627 -12.938094,-12.93812 v -14.41513 c 0,-7.05295 5.736269,-12.78922 12.938094,-12.78922 m -47.493106,0 v 0 c 7.041528,0 12.938095,5.73627 12.938095,12.78922 v 14.41513 c 0,7.20185 -5.896567,12.93812 -12.938095,12.93812 -7.201818,0 -12.938087,-5.73627 -12.938087,-12.93812 v -14.41513 c 0,-7.05295 5.736269,-12.78922 12.938087,-12.78922 m 4.419563,-64.71336 h 38.653979 c 9.171161,0 16.865321,7.53383 16.865321,16.87674 v 6.3889 c 0,9.33148 -7.69416,16.87682 -16.865321,16.87682 H 36.844934 c -9.331459,0 -16.865319,-7.54534 -16.865319,-16.87682 v -6.3889 c 0,-9.34291 7.53386,-16.87674 16.865319,-16.87674 M 24.238881,76.48068 h 8.507085 8.037647 8.507077 c 4.751606,0 9.171161,-3.766874 8.518532,-8.518532 L 49.29069,8.9736335 c 0,-11.9648447 -25.051809,-11.9648447 -25.051809,0 L 15.720349,67.962148 c -0.652629,4.751658 3.766935,8.518532 8.518532,8.518532 m 47.33281,-4.923317 c -4.751597,0 -8.518532,-3.755453 -8.518532,-8.518532 0,-4.579827 3.766935,-8.518531 8.518532,-8.518531 21.284883,0 40.772169,8.690276 54.694929,22.773333 14.08305,14.094482 22.76188,33.432927 22.76188,54.900997 0,4.57991 -3.76693,8.34679 -8.51853,8.34679 -4.57985,0 -8.34679,-3.76688 -8.34679,-8.34679 0,-16.71643 -6.88123,-31.95592 -17.84999,-42.936148 C 103.33299,78.27833 88.265266,71.557363 71.571691,71.557363 m 0,-51.443259 c -4.751597,0 -8.518532,-3.766874 -8.518532,-8.518532 0,-4.5912478 3.766935,-8.3582079 8.518532,-8.3582079 35.539689,0 67.793309,14.4151249 91.047529,37.6921849 23.42597,23.425962 37.82959,55.542197 37.82959,91.265081 0,4.57991 -3.76688,8.34679 -8.50703,8.34679 -4.59133,0 -8.51856,-3.76688 -8.51856,-8.34679 0,-30.97123 -12.44576,-58.99994 -32.75742,-79.311657 C 130.35414,32.731664 102.52007,20.114104 71.571691,20.114104 m 0,25.72734 c -4.751597,0 -8.518532,-3.766874 -8.518532,-8.518532 0,-4.591248 3.766935,-8.358208 8.518532,-8.358208 28.486699,0 54.202589,11.472539 72.876949,30.14693 18.66292,18.674305 30.29575,44.573396 30.29575,73.082996 0,4.57991 -3.76693,8.34679 -8.51853,8.34679 -4.57986,0 -8.34679,-3.76688 -8.34679,-8.34679 0,-23.92969 -9.67494,-45.397764 -25.3953,-61.118152 C 116.92371,55.504997 95.318241,45.841444 71.571691,45.841444 M 16.865319,85.491603 h 78.773517 c 9.331454,0 16.865324,7.533839 16.865324,16.876747 V 233.12326 C 112.50416,242.46617 104.97029,250 95.638836,250 H 16.865319 C 7.53386,250 0,242.46617 0,233.12326 V 102.36835 C 0,93.025442 7.53386,85.491603 16.865319,85.491603"
     style="fill:#eaebee;fill-opacity:1;fill-rule:evenodd;stroke:none;stroke-width:11.4496"
     id="path2465" /></svg>
