<?xml version="1.0" encoding="UTF-8" standalone="no"?>
<!-- Created with Inkscape (http://www.inkscape.org/) -->

<svg
   width="249.99992"
   height="107.84908"
   viewBox="0 0 249.99992 107.84908"
   version="1.1"
   id="SVGRoot"
   sodipodi:docname="C:\Users\Ido\AppData\Local\Temp\ink_ext_XXXXXX.svgSMFCW1"
   xml:space="preserve"
   inkscape:export-filename="Medical_Training_Logo.svg"
   inkscape:export-xdpi="96"
   inkscape:export-ydpi="96"
   xmlns:inkscape="http://www.inkscape.org/namespaces/inkscape"
   xmlns:sodipodi="http://sodipodi.sourceforge.net/DTD/sodipodi-0.dtd"
   xmlns="http://www.w3.org/2000/svg"
   xmlns:svg="http://www.w3.org/2000/svg"
   xmlns:serif="http://www.serif.com/"><sodipodi:namedview
     id="namedview621"
     pagecolor="#2d2c2d"
     bordercolor="#000000"
     borderopacity="0.25"
     inkscape:showpageshadow="2"
     inkscape:pageopacity="0"
     inkscape:pagecheckerboard="0"
     inkscape:deskcolor="#d1d1d1"
     inkscape:document-units="px"
     showgrid="false"
     inkscape:zoom="0.25"
     inkscape:cx="755.5"
     inkscape:cy="755.5"
     inkscape:window-width="2560"
     inkscape:window-height="1369"
     inkscape:window-x="3832"
     inkscape:window-y="-8"
     inkscape:window-maximized="0"
     inkscape:current-layer="layer1" /><defs
     id="defs616" /><g
     id="Range"
     transform="matrix(0.44982283,0,0,0.49657947,-79.71997,-295.4932)"
     style="clip-rule:evenodd;fill-rule:evenodd;stroke-miterlimit:2">
        
        
        
    <g
   id="Shape-13"
   serif:id="Shape 13"
   transform="matrix(3.2886047,0,0,2.9789583,-546.26777,-60.313604)"
   style="clip-rule:evenodd;fill-rule:evenodd;stroke-miterlimit:2">
            <path
   d="m 265.901,226.249 v 24.996 h -39.642 v 41.661 H 220 v -47.91 h 39.642 V 220 h 60.506 v 6.249 z"
   style="fill:#eaebee;fill-opacity:1"
   id="path15013" />
        </g><g
   id="Shape-13-copy"
   serif:id="Shape 13 copy"
   transform="matrix(3.2886047,0,0,2.9789583,-546.26777,-60.313604)"
   style="clip-rule:evenodd;fill-rule:evenodd;stroke-miterlimit:2">
            <path
   d="m 349.358,220 v 24.996 H 389 v 47.91 h -6.259 V 251.245 H 343.099 V 226.249 H 288.852 V 220 Z"
   style="fill:#eaebee;fill-opacity:1"
   id="path15016" />
        </g><path
   d="m 962.16537,970.69509 c -11.13448,0 -20.26047,-8.10757 -20.26047,-18.36423 0,-2.80866 0.72804,-5.6286 2.00846,-7.93694 h 36.51659 c 1.26783,2.30834 2.00846,5.12828 2.00846,7.93694 0,10.25666 -8.95025,18.36423 -20.27304,18.36423 m 52.57183,0 c -11.3102,0 -20.43624,-8.10757 -20.43624,-18.36423 0,-2.80866 0.72802,-5.6286 2.00848,-7.93694 h 36.69226 c 1.2804,2.30834 2.0085,5.12828 2.0085,7.93694 0,10.25666 -9.126,18.36423 -20.273,18.36423 m 52.396,0 c -11.1345,0 -20.2605,-8.10757 -20.2605,-18.36423 0,-2.80866 0.7281,-5.6286 2.0085,-7.93694 h 36.5166 c 1.2678,2.30834 2.0085,5.12828 2.0085,7.93694 0,10.25666 -9.126,18.36423 -20.2731,18.36423 m 52.3961,0 c -11.1345,0 -20.2605,-8.10757 -20.2605,-18.36423 0,-2.80866 0.728,-5.6286 2.0085,-7.93694 h 36.5165 c 1.2679,2.30834 1.9959,5.12828 1.9959,7.93694 0,10.25666 -8.9377,18.36423 -20.2604,18.36423 m -209.74743,0 c -11.32276,0 -20.27302,-8.10757 -20.27302,-18.36423 0,-2.80866 0.74066,-5.6286 2.00847,-7.93694 h 36.51656 c 1.26785,2.30834 2.00848,5.12828 2.00848,7.93694 0,10.25666 -9.13856,18.36423 -20.26049,18.36423 M 1040.3075,848.26344 c 15.6912,-0.65949 54.028,5.29888 54.028,19.52401 0,14.06593 -38.3368,31.92979 -54.028,31.92979 h -67.92401 c -11.12193,0 -22.08066,-8.60786 -26.46164,-16.70401 h -20.44877 c -1.64445,2.30832 -4.56928,3.96848 -7.8456,3.96848 h -19.16837 c -3.28889,0 -6.21372,-1.66016 -7.85815,-3.96848 h -26.09761 c -1.64444,2.30832 -4.56928,3.96848 -7.85815,3.96848 h -19.16838 c -5.10905,0 -9.126,-3.80928 -9.126,-8.27809 v -5.2989 c 0,-4.62798 4.01695,-8.26671 9.126,-8.26671 h 19.16838 c 3.28887,0 6.21371,1.4896 7.85815,3.96848 h 26.09761 c 1.64443,-2.47888 4.56926,-3.96848 7.85815,-3.96848 h 19.16837 c 3.27632,0 6.20115,1.4896 7.8456,3.96848 h 20.44877 c 10.77044,-22.83298 71.20035,-19.85378 94.38565,-20.84305 m -137.6557,59.56132 h 225.8277 c 4.017,0 7.4816,0.98928 10.7705,3.14977 l 14.235,8.59644 c 8.0339,4.95784 10.5822,14.55492 6.2138,22.3327 l -14.0594,25.3119 c -3.4771,6.12893 -9.854,9.60845 -17.1599,9.60845 H 902.6518 c -7.11753,0 -13.507,-3.32036 -16.97161,-9.26738 l -15.15142,-25.81213 c -4.74502,-8.10757 -1.64444,-18.36423 7.11753,-23.16281 l 15.15142,-8.27805 c 3.10058,-1.66018 6.20116,-2.47889 9.85408,-2.47889"
   style="fill:#eaebee;fill-opacity:1;fill-rule:evenodd;stroke:none;stroke-width:11.9473"
   id="path10262" /><path
   d="m 451.68272,661.90379 43.72949,1.20263 1.75988,18.27242 -10.01383,1.47299 -3.53007,10.80497 -32.67617,-0.93227 z m -55.34881,-1.06279 44.90273,1.20264 -0.58662,29.87915 -46.22008,-0.27036 z m 224.34901,76.17553 h 18.84411 c 1.32764,0 2.64497,10.25494 2.20244,11.31773 -1.02918,2.93663 -6.76167,21.35823 -9.57129,21.35823 h -11.47526 c -1.17325,0 -2.21272,-0.94159 -2.21272,-2.00437 v -19.35386 c 0,-1.06278 1.03947,-11.31773 2.21272,-11.31773 m -45.2012,58.68622 c -11.62963,0 -21.04654,-8.67009 -21.04654,-19.21403 0,-10.54394 9.41691,-19.08351 21.04654,-19.08351 11.63993,0 21.05685,8.53957 21.05685,19.08351 0,10.54395 -9.41692,19.21403 -21.05685,19.21403 m 0,16.53841 c -21.77727,0 -39.44812,-16.00701 -39.44812,-35.75244 0,-19.60558 17.67086,-44.94459 39.44812,-44.94459 21.78754,0 39.31433,25.33901 39.31433,44.94459 0,19.74543 -17.52679,35.75244 -39.31433,35.75244 M 336.56995,795.70275 c -11.61934,0 -21.04654,-8.67009 -21.04654,-19.21403 0,-10.54394 9.4272,-19.08351 21.04654,-19.08351 11.62964,0 21.04655,8.53957 21.04655,19.08351 0,10.54395 -9.41691,19.21403 -21.04655,19.21403 m 0,16.53841 c -21.78755,0 -39.45841,-16.00701 -39.45841,-35.75244 0,-19.60558 17.67086,-44.94459 39.45841,-44.94459 21.78755,0 39.30404,25.33901 39.30404,44.94459 0,19.74543 -17.51649,35.75244 -39.30404,35.75244 M 292.26413,691.92279 h 78.5978 l 8.10986,-34.54981 c 3.38598,-7.87766 3.67415,-10.01255 12.36036,-9.88204 36.80315,0.67123 73.6063,1.34246 110.39917,2.14421 5.89715,0 8.98466,6.13432 9.86976,12.52967 l 3.24189,25.74921 60.9475,7.87766 41.65055,8.67009 11.33118,28.94689 c -2.3465,0 -17.50619,-0.13052 -19.87329,-0.13052 -4.27105,-5.33258 -7.79082,-12.40847 -13.68797,-12.53899 l -53.57865,-0.80175 -20.45991,54.01555 -137.64135,-1.47299 -5.00177,-12.40846 c -2.21272,-6.5352 -4.85769,-22.1227 -7.22478,-28.6579 -3.2316,-9.48115 -7.9452,-14.1518 -14.13052,-14.94423 -11.18709,-0.40088 -31.34855,-0.67124 -42.39156,-1.07211 -5.73247,0.40087 -9.85945,1.74334 -13.3998,7.20643 l -10.44609,14.94423 c 0.44255,0.40088 0.73072,10.25494 0.73072,10.78633 v 19.35387 c 0,1.06278 -1.01888,2.00437 -2.20243,2.00437 h -18.84412 c -1.32763,0 -2.21272,-0.94159 -2.21272,-2.00437 v -19.35387 c 0,-1.06278 0.88509,-11.31772 2.21272,-11.31772 h 14.2849 c -0.44255,-0.67123 -0.59692,-1.73402 -0.59692,-3.207 0,-10.67446 0.15437,-25.34834 0.15437,-36.01347 0,-5.07153 4.26077,-5.87328 7.80111,-5.87328 m 77.57892,-21.7498 -21.34501,17.34949 h -9.41692 l 33.70536,-27.22219 c -0.44255,0.94159 -0.88509,2.00438 -1.32764,3.207 z m 17.36211,110.31515 h 130.42685 c 1.92456,0 3.54036,1.60351 3.54036,3.33752 0,1.86453 -1.6158,3.33752 -3.54036,3.33752 H 387.20517 c -1.90397,0 -3.67415,-1.47299 -3.67415,-3.33752 0,-1.73401 1.77018,-3.33752 3.67415,-3.33752"
   style="fill:#eaebee;fill-opacity:1;fill-rule:evenodd;stroke:none;stroke-width:9.79516"
   id="path2605" /></g></svg>
