<?xml version="1.0" encoding="UTF-8" standalone="no"?>
<!-- Created with Inkscape (http://www.inkscape.org/) -->

<svg
   width="250"
   height="124.56455"
   viewBox="0 0 250 124.56455"
   version="1.1"
   id="SVGRoot"
   sodipodi:docname="C:\Users\Ido\AppData\Local\Temp\ink_ext_XXXXXX.svgSMFCW1"
   xml:space="preserve"
   inkscape:export-filename="Medical_Training_Logo.svg"
   inkscape:export-xdpi="96"
   inkscape:export-ydpi="96"
   xmlns:inkscape="http://www.inkscape.org/namespaces/inkscape"
   xmlns:sodipodi="http://sodipodi.sourceforge.net/DTD/sodipodi-0.dtd"
   xmlns="http://www.w3.org/2000/svg"
   xmlns:svg="http://www.w3.org/2000/svg"
   xmlns:serif="http://www.serif.com/"><sodipodi:namedview
     id="namedview621"
     pagecolor="#2d2c2d"
     bordercolor="#000000"
     borderopacity="0.25"
     inkscape:showpageshadow="2"
     inkscape:pageopacity="0"
     inkscape:pagecheckerboard="0"
     inkscape:deskcolor="#d1d1d1"
     inkscape:document-units="px"
     showgrid="false"
     inkscape:zoom="0.25"
     inkscape:cx="755.5"
     inkscape:cy="755.5"
     inkscape:window-width="2560"
     inkscape:window-height="1369"
     inkscape:window-x="3832"
     inkscape:window-y="-8"
     inkscape:window-maximized="0"
     inkscape:current-layer="layer1" /><defs
     id="defs616" /><g
     id="Range"
     transform="matrix(0.44982283,0,0,0.49657947,-79.719929,-295.92865)"
     style="clip-rule:evenodd;fill-rule:evenodd;stroke-miterlimit:2">
        
        
        
    <path
   d="m 621.48744,834.15033 c 9.27872,0 16.88372,-6.75637 16.88372,-15.30362 0,-2.3405 -0.6067,-4.6905 -1.67372,-6.61413 h -30.43048 c -1.05653,1.92363 -1.67373,4.27363 -1.67373,6.61413 0,8.54725 7.45854,15.30362 16.89421,15.30362 m -43.80987,0 c 9.42516,0 17.03019,-6.75637 17.03019,-15.30362 0,-2.3405 -0.60667,-4.6905 -1.67371,-6.61413 h -30.5769 c -1.067,1.92363 -1.67375,4.27363 -1.67375,6.61413 0,8.54725 7.60501,15.30362 16.89417,15.30362 m -43.66333,0 c 9.27875,0 16.88374,-6.75637 16.88374,-15.30362 0,-2.3405 -0.60674,-4.6905 -1.67374,-6.61413 h -30.4305 c -1.0565,1.92363 -1.67375,4.27363 -1.67375,6.61413 0,8.54725 7.605,15.30362 16.89425,15.30362 m -43.66342,0 c 9.27875,0 16.88376,-6.75637 16.88376,-15.30362 0,-2.3405 -0.60667,-4.6905 -1.67376,-6.61413 h -30.43041 c -1.05658,1.92363 -1.66325,4.27363 -1.66325,6.61413 0,8.54725 7.44808,15.30362 16.88366,15.30362 m 174.78953,0 c 9.43562,0 16.89418,-6.75637 16.89418,-15.30362 0,-2.3405 -0.61721,-4.6905 -1.67372,-6.61413 h -30.43047 c -1.05655,1.92363 -1.67374,4.27363 -1.67374,6.61413 0,8.54725 7.61547,15.30362 16.88375,15.30362 M 556.36899,732.12386 c -13.076,-0.54957 -45.02333,4.41573 -45.02333,16.27001 0,11.72161 31.94733,26.60821 45.02333,26.60821 h 56.60334 c 9.26827,0 18.40055,-7.17325 22.05137,-13.92005 h 17.04064 c 1.37037,1.92359 3.80773,3.30705 6.538,3.30705 h 15.97363 c 2.74074,0 5.17811,-1.38346 6.54848,-3.30705 h 21.748 c 1.37037,1.92359 3.80773,3.30705 6.54847,3.30705 h 15.97363 c 4.25755,0 7.605,-3.17438 7.605,-6.89841 v -4.41573 c 0,-3.85666 -3.34745,-6.88893 -7.605,-6.88893 h -15.97363 c -2.74074,0 -5.1781,1.24133 -6.54847,3.30707 h -21.748 c -1.37037,-2.06574 -3.80774,-3.30707 -6.54848,-3.30707 h -15.97363 c -2.73027,0 -5.16763,1.24133 -6.538,3.30707 H 635.0237 c -8.97537,-19.0275 -59.33363,-16.54483 -78.65471,-17.36922 m 114.71308,49.63447 H 482.89233 c -3.34751,0 -6.23467,0.82438 -8.97542,2.62475 l -11.8625,7.16375 c -6.69492,4.13138 -8.8185,12.129 -5.17817,18.6105 l 11.71617,21.09325 c 2.89758,5.1075 8.21167,8.00713 14.29992,8.00713 h 188.18974 c 5.93128,0 11.25584,-2.767 14.14301,-7.72275 l 12.62619,-21.51013 c 3.95418,-6.75637 1.37037,-15.30362 -5.93127,-19.3025 l -12.62619,-6.89825 c -2.58382,-1.3835 -5.16762,-2.06575 -8.21174,-2.06575"
   style="fill:#eaebee;fill-opacity:1;fill-rule:evenodd;stroke:none;stroke-width:9.95606"
   id="path10262" /><g
   id="Range-4"
   transform="matrix(2.5071852,0,0,2.5071856,-1103.1692,-897.58508)"
   style="clip-rule:evenodd;fill-rule:evenodd;stroke-miterlimit:2">
        <g
   id="Shape-7"
   serif:id="Shape 7"
   transform="matrix(1.0077999,0,0,1,412.93341,235.119)">
            <path
   d="M 97,459.127 H 316.957"
   style="fill:none;stroke:#eaebee;stroke-width:3px;stroke-miterlimit:10;stroke-opacity:1"
   id="path15034" />
        </g>
        <g
   id="Shape-8"
   serif:id="Shape 8"
   transform="matrix(1.002973,0,0,1.002973,412.10377,234.68719)">
            <path
   d="m 98.294,435.886 c 106.097,0 173.377,-28.405 219.956,-74.886"
   style="fill:none;stroke:#eaebee;stroke-width:3px;stroke-miterlimit:10;stroke-opacity:1"
   id="path15037" />
        </g>
        
    </g></g></svg>
