<?xml version="1.0" encoding="UTF-8" standalone="no"?>
<!-- Created with Inkscape (http://www.inkscape.org/) -->

<svg
   width="33.866619mm"
   height="33.866619mm"
   viewBox="0 0 33.866619 33.866619"
   version="1.1"
   id="svg28466"
   inkscape:version="1.2.1 (9c6d41e410, 2022-07-14, custom)"
   sodipodi:docname="sad-face.svg"
   xmlns:inkscape="http://www.inkscape.org/namespaces/inkscape"
   xmlns:sodipodi="http://sodipodi.sourceforge.net/DTD/sodipodi-0.dtd"
   xmlns="http://www.w3.org/2000/svg"
   xmlns:svg="http://www.w3.org/2000/svg"
   xmlns:serif="http://www.serif.com/">
  <sodipodi:namedview
     id="namedview28468"
     pagecolor="#ffffff"
     bordercolor="#000000"
     borderopacity="0.25"
     inkscape:showpageshadow="2"
     inkscape:pageopacity="0.0"
     inkscape:pagecheckerboard="0"
     inkscape:deskcolor="#d1d1d1"
     inkscape:document-units="mm"
     showgrid="false"
     inkscape:zoom="0.7500982"
     inkscape:cx="288.62887"
     inkscape:cy="227.97015"
     inkscape:window-width="1920"
     inkscape:window-height="1015"
     inkscape:window-x="0"
     inkscape:window-y="29"
     inkscape:window-maximized="1"
     inkscape:current-layer="layer1" />
  <defs
     id="defs28463" />
  <g
     inkscape:label="Layer 1"
     inkscape:groupmode="layer"
     id="layer1"
     transform="translate(-26.805406,-88.180708)">
    <g
       id="Sad-Face"
       serif:id="Sad Face"
       transform="matrix(0.31651045,0,0,0.31651045,-122.9455,34.523673)"
       style="clip-rule:evenodd;fill-rule:evenodd;stroke-miterlimit:2;fill:#eaebee;fill-opacity:1">
        <g
   transform="translate(0,-59.3311)"
   id="g44"
   style="fill:#eaebee;fill-opacity:1">
            <path
   d="m 526.631,228.858 c 29.528,0 53.5,23.973 53.5,53.5 0,29.528 -23.972,53.5 -53.5,53.5 -29.527,0 -53.5,-23.972 -53.5,-53.5 0,-29.527 23.973,-53.5 53.5,-53.5 z m 0,7.416 c 25.435,0 46.085,20.65 46.085,46.084 0,25.435 -20.65,46.085 -46.085,46.085 -25.434,0 -46.084,-20.65 -46.084,-46.085 0,-25.434 20.65,-46.084 46.084,-46.084 z"
   style="fill:#eaebee;fill-opacity:1"
   id="path42" />

        </g>

        <g
   transform="matrix(0,1,-1.27358,0,906.801,-277.613)"
   id="g48"
   style="fill:#eaebee;fill-opacity:1">
            <path
   d="m 527.403,286.78 c -6.471,0 -11.723,5.253 -11.723,11.723 0,6.47 5.252,11.723 11.723,11.723 z"
   style="fill:#eaebee;fill-opacity:1"
   id="path46" />

        </g>

        <g
   transform="rotate(-103.67805,482.02161,248.11076)"
   id="g52"
   style="fill:#eaebee;fill-opacity:1">
            <path
   d="m 509.044,273.288 c -5.249,0 -9.511,4.608 -9.511,10.285 0,5.677 4.262,10.285 9.511,10.285 -1.575,-2.4 -2.853,-6.182 -2.853,-10.285 0,-4.103 1.278,-7.885 2.853,-10.285 z"
   style="fill:#eaebee;fill-opacity:1"
   id="path50" />

        </g>

        <g
   transform="matrix(0.236466,-0.97164,-0.97164,-0.236466,698.334,775.132)"
   id="g56"
   style="fill:#eaebee;fill-opacity:1">
            <path
   d="m 509.044,273.288 c -5.249,0 -9.511,4.608 -9.511,10.285 0,5.677 4.262,10.285 9.511,10.285 -1.575,-2.4 -2.853,-6.182 -2.853,-10.285 0,-4.103 1.278,-7.885 2.853,-10.285 z"
   style="fill:#eaebee;fill-opacity:1"
   id="path54" />

        </g>

    </g>
  </g>
</svg>
