<?xml version="1.0" encoding="UTF-8" standalone="no"?>
<!-- Created with Inkscape (http://www.inkscape.org/) -->

<svg
   width="218.99205"
   height="250"
   viewBox="0 0 218.99205 250"
   version="1.1"
   id="SVGRoot"
   sodipodi:docname="C:\Users\Ido\AppData\Local\Temp\ink_ext_XXXXXX.svgSMFCW1"
   xml:space="preserve"
   inkscape:export-filename="Medical_Training_Logo.svg"
   inkscape:export-xdpi="96"
   inkscape:export-ydpi="96"
   xmlns:inkscape="http://www.inkscape.org/namespaces/inkscape"
   xmlns:sodipodi="http://sodipodi.sourceforge.net/DTD/sodipodi-0.dtd"
   xmlns="http://www.w3.org/2000/svg"
   xmlns:svg="http://www.w3.org/2000/svg"><sodipodi:namedview
     id="namedview621"
     pagecolor="#2d2c2d"
     bordercolor="#000000"
     borderopacity="0.25"
     inkscape:showpageshadow="2"
     inkscape:pageopacity="0"
     inkscape:pagecheckerboard="0"
     inkscape:deskcolor="#d1d1d1"
     inkscape:document-units="px"
     showgrid="false"
     inkscape:zoom="0.25"
     inkscape:cx="755.5"
     inkscape:cy="755.5"
     inkscape:window-width="2560"
     inkscape:window-height="1369"
     inkscape:window-x="3832"
     inkscape:window-y="-8"
     inkscape:window-maximized="0"
     inkscape:current-layer="layer1" /><defs
     id="defs616" /><g
     id="g12166"
     transform="matrix(6.7611424,0,0,6.7611424,-443.43271,-159.03875)"><path
       d="m 68.338936,34.184067 c -0.582667,2.365333 -1.008,4.888 -1.066667,7.410666 h 14.504 v 17.169333 c 5.506667,-1.533333 10.917333,-4.328 13.244,-9.855999 0.736,-1.726667 1.104,-3.588 1.221333,-5.489334 v -1.824 H 81.776269 V 25.220067 c -1.958667,0 -3.897333,0.369334 -5.7,1.125334 -0.349333,1.901333 -1.822666,3.763999 -3.102666,5.005333 -1.184,1.125333 -2.889334,2.406666 -4.634667,2.833333 M 81.776269,60.432066 C 65.644269,56.1254 63.684269,45.300067 67.038936,32.7094 c 2.793333,0.136 7.776,-4.657333 7.485333,-7.430666 2.190667,-1.086667 4.653333,-1.686667 7.252,-1.686667 2.618667,0 5.08,0.6 7.272,1.686667 -0.290667,2.773333 4.673333,7.566666 7.464,7.430666 3.374666,12.590667 1.396,23.416 -14.736,27.722666"
       style="fill:#eaebee;fill-opacity:1;fill-rule:evenodd;stroke:none;stroke-width:1.33333"
       id="path10408" /><path
       d="M 67.342806,41.526467 H 81.708139 V 25.287801 c -1.957333,0.008 -3.832,0.38 -5.573333,1.105333 -0.404,2.12 -2.121334,4.045333 -3.114667,5.005333 -0.897333,0.854667 -2.682666,2.352 -4.624,2.841334 -0.650666,2.653333 -0.996,5.037333 -1.053333,7.286666 M 81.844139,41.6638 v 17.009333 c 6.861333,-1.925333 11.152,-5.130666 13.113333,-9.790666 0.682667,-1.601333 1.092,-3.44 1.216,-5.468 V 41.6638 Z m -0.06667,17.168 c -0.01467,0 -0.03067,-0.004 -0.04267,-0.01333 -0.016,-0.01333 -0.02667,-0.03333 -0.02667,-0.05467 v -17.1 h -14.436 c -0.01733,0 -0.036,-0.0093 -0.048,-0.02133 -0.01333,-0.01333 -0.02,-0.032 -0.02,-0.04933 0.052,-2.289334 0.402667,-4.718667 1.069334,-7.426667 0.0067,-0.02267 0.02667,-0.044 0.04933,-0.04933 1.926667,-0.470667 3.710667,-1.965333 4.602667,-2.817333 0.985333,-0.954667 2.698666,-2.869334 3.083999,-4.966667 0.0027,-0.02133 0.01733,-0.04133 0.04,-0.04933 1.788,-0.750667 3.714667,-1.130667 5.728,-1.130667 0.03733,0 0.06667,0.02933 0.06667,0.068 v 16.305333 h 14.396 c 0.04,0 0.06933,0.02933 0.06933,0.068 v 1.824 c -0.126667,2.048 -0.538667,3.902667 -1.228,5.516 -1.985333,4.722666 -6.332,7.956 -13.286666,9.896 -0.0067,0.0013 -0.012,0.0013 -0.01733,0.0013 M 67.092139,32.779801 c -1.849333,6.970666 -1.828,12.489333 0.07067,16.870666 2.241333,5.177333 7.022666,8.681333 14.614666,10.710666 7.593333,-2.029333 12.376,-5.533333 14.62,-10.710666 1.901333,-4.385333 1.924,-9.905333 0.06267,-16.870666 h -0.064 c -1.609334,0 -3.736,-1.488 -5.162667,-2.994667 -1.517333,-1.606667 -2.356,-3.269333 -2.257333,-4.466667 -2.237333,-1.1 -4.658667,-1.658666 -7.198667,-1.658666 -2.529333,0 -4.945333,0.558666 -7.182666,1.658666 0.09867,1.190667 -0.736,2.846667 -2.248,4.446667 -1.433333,1.517333 -3.573333,3.014667 -5.188,3.014667 z m 14.685333,27.718666 c 0,0 -0.01333,0 -0.01867,-0.0013 -7.644,-2.04 -12.46,-5.570666 -14.721333,-10.792 -1.916,-4.423999 -1.934667,-9.985333 -0.06267,-17.013332 0.0067,-0.032 0.032,-0.05733 0.06933,-0.04933 0.036,0.0013 0.072,0.0013 0.110667,0.0013 1.370667,0 3.398667,-1.177334 5.094667,-2.973334 1.504,-1.590666 2.327999,-3.230666 2.205333,-4.384 -0.0013,-0.02933 0.01333,-0.056 0.03867,-0.06667 2.268,-1.126667 4.718667,-1.697334 7.284,-1.697334 2.576,0 5.032,0.570667 7.3,1.697334 0.02667,0.01067 0.04133,0.03733 0.03867,0.06667 -0.122667,1.158667 0.706666,2.806667 2.216,4.404 1.685333,1.782667 3.701333,2.953334 5.068,2.953334 0.03733,0 0.07333,0 0.109333,-0.0013 0.02933,-0.008 0.05867,0.01733 0.06933,0.04933 1.88,7.021333 1.862667,12.585333 -0.05733,17.013332 -2.264,5.221334 -7.081333,8.749334 -14.726666,10.792 -0.0067,0.0013 -0.012,0.0013 -0.01733,0.0013"
       style="fill:#eaebee;fill-opacity:1;fill-rule:nonzero;stroke:none;stroke-width:1.33333"
       id="path10412" /></g></svg>
