<?xml version="1.0" encoding="UTF-8" standalone="no"?>
<!-- Created with Inkscape (http://www.inkscape.org/) -->

<svg
   width="250"
   height="237.39252"
   viewBox="0 0 250 237.39252"
   version="1.1"
   id="SVGRoot"
   sodipodi:docname="C:\Users\Ido\AppData\Local\Temp\ink_ext_XXXXXX.svgJW87V1"
   inkscape:export-filename="Feature_4.svg"
   inkscape:export-xdpi="60"
   inkscape:export-ydpi="60"
   xmlns:inkscape="http://www.inkscape.org/namespaces/inkscape"
   xmlns:sodipodi="http://sodipodi.sourceforge.net/DTD/sodipodi-0.dtd"
   xmlns="http://www.w3.org/2000/svg"
   xmlns:svg="http://www.w3.org/2000/svg">
  <sodipodi:namedview
     id="namedview803"
     pagecolor="#ffffff"
     bordercolor="#000000"
     borderopacity="0.25"
     inkscape:showpageshadow="2"
     inkscape:pageopacity="0.0"
     inkscape:pagecheckerboard="0"
     inkscape:deskcolor="#d1d1d1"
     inkscape:document-units="px"
     showgrid="false"
     inkscape:zoom="0.25"
     inkscape:cx="755.5"
     inkscape:cy="755.5"
     inkscape:window-width="2560"
     inkscape:window-height="1369"
     inkscape:window-x="3832"
     inkscape:window-y="-8"
     inkscape:window-maximized="0"
     inkscape:current-layer="layer1" />
  <defs
     id="defs798" />
  <g
     inkscape:label="Layer 1"
     inkscape:groupmode="layer"
     id="layer1"
     transform="translate(-213.4402)">
    <g
       id="g5538"
       transform="matrix(9.0701301,0,0,-9.0701301,253.26714,166.13757)">
      <path
         d="m 0,0 -1.216,-0.458 -0.143,-1.03 1.245,0.4 z M 0.5,0.2 0.386,-0.916 3.132,-0.014 3.476,1.331 Z M 18.78,0 l 1.216,-0.458 0.143,-1.03 -1.244,0.4 z m -0.5,0.2 0.114,-1.116 -2.746,0.902 -0.343,1.345 z M 12.444,4.208 C 11.6,3.563 10.542,3.163 9.397,3.163 H 9.383 c -1.144,0 -2.203,0.4 -3.047,1.045 L 5.836,2.247 8.31,1.044 8.868,-0.286 c 0.172,-0.029 0.343,-0.029 0.515,-0.029 0.186,0 0.358,0 0.529,0.029 l 0.558,1.33 2.475,1.203 z M 4.963,9.159 5.006,9.116 C 5.135,9.001 5.278,8.858 5.507,8.744 6.122,8.429 6.666,8.329 7.18,8.4 c 0.515,0.072 1.016,0.315 1.545,0.73 0.086,0.086 0.186,0.158 0.3,0.201 0.115,0.057 0.244,0.1 0.358,0.1 0.129,0 0.258,-0.043 0.372,-0.1 0.114,-0.043 0.215,-0.115 0.3,-0.186 L 10.07,9.13 c 0.514,-0.415 1.015,-0.658 1.53,-0.73 0.515,-0.071 1.059,0.029 1.674,0.344 0.228,0.114 0.372,0.257 0.5,0.372 l 0.043,0.043 V 8.5 C 13.717,8.443 13.617,8.372 13.488,8.3 12.773,7.957 12.144,7.842 11.529,7.928 10.928,8 10.356,8.286 9.769,8.758 H 9.755 C 9.698,8.815 9.612,8.873 9.555,8.901 9.498,8.93 9.44,8.958 9.383,8.958 9.34,8.958 9.283,8.93 9.226,8.901 9.154,8.873 9.083,8.815 9.025,8.772 8.439,8.286 7.853,8 7.252,7.928 6.637,7.842 6.007,7.957 5.292,8.3 5.164,8.372 5.063,8.443 4.963,8.5 Z m 3.319,9.158 h 1.101 1.116 c 2.875,0 5.235,-2.461 5.235,-4.751 0,-1.517 1.044,-1.517 1.044,-2.39 V 7.799 c 0,-1.202 -2.446,-1.087 -2.446,0.1 v 3.234 C 12.644,11.591 11.014,11.806 9.383,11.834 7.767,11.806 6.136,11.591 4.448,11.133 V 7.899 c 0,-1.187 -2.446,-1.302 -2.446,-0.1 v 3.377 c 0,0.873 1.045,0.873 1.045,2.39 0,2.29 2.36,4.751 5.235,4.751 M 14.246,6.912 C 14.018,6.039 13.56,5.266 12.945,4.651 l -0.057,-0.057 0.5,-1.961 8.325,-3.191 1.459,-7.298 H 9.383 -4.391 l 1.459,7.298 8.325,3.191 0.5,1.961 -0.057,0.057 C 5.221,5.266 4.763,6.039 4.534,6.912 4.72,7.083 4.863,7.298 4.92,7.542 5.063,6.568 5.536,5.681 6.208,5.009 7.023,4.193 8.153,3.678 9.383,3.678 h 0.014 c 1.23,0 2.36,0.515 3.176,1.331 0.672,0.672 1.144,1.559 1.287,2.533 0.057,-0.244 0.201,-0.459 0.386,-0.63"
         style="fill:#eaebee;fill-opacity:1;fill-rule:evenodd;stroke:none"
         id="path5540"
         inkscape:label="Soldier" />
    </g>
  </g>
</svg>
