<?xml version="1.0" encoding="UTF-8" standalone="no"?>
<!-- Created with Inkscape (http://www.inkscape.org/) -->

<svg
   width="250"
   height="106.44155"
   viewBox="0 0 250 106.44155"
   version="1.1"
   id="SVGRoot"
   sodipodi:docname="C:\Users\Ido\AppData\Local\Temp\ink_ext_XXXXXX.svgSMFCW1"
   xml:space="preserve"
   inkscape:export-filename="Medical_Training_Logo.svg"
   inkscape:export-xdpi="96"
   inkscape:export-ydpi="96"
   xmlns:inkscape="http://www.inkscape.org/namespaces/inkscape"
   xmlns:sodipodi="http://sodipodi.sourceforge.net/DTD/sodipodi-0.dtd"
   xmlns="http://www.w3.org/2000/svg"
   xmlns:svg="http://www.w3.org/2000/svg"><sodipodi:namedview
     id="namedview621"
     pagecolor="#2d2c2d"
     bordercolor="#000000"
     borderopacity="0.25"
     inkscape:showpageshadow="2"
     inkscape:pageopacity="0"
     inkscape:pagecheckerboard="0"
     inkscape:deskcolor="#d1d1d1"
     inkscape:document-units="px"
     showgrid="false"
     inkscape:zoom="0.25"
     inkscape:cx="755.5"
     inkscape:cy="755.5"
     inkscape:window-width="2560"
     inkscape:window-height="1369"
     inkscape:window-x="3832"
     inkscape:window-y="-8"
     inkscape:window-maximized="0"
     inkscape:current-layer="layer1" /><defs
     id="defs616" /><path
     d="m 100.3214,101.36901 c -8.347569,0 -15.189373,-6.710054 -15.189373,-15.198784 0,-2.324525 0.545815,-4.658451 1.50576,-6.56889 h 27.376643 c 0.95051,1.910439 1.50576,4.244365 1.50576,6.56889 0,8.48873 -6.71005,15.198784 -15.19879,15.198784 m 39.41333,0 c -8.47932,0 -15.32113,-6.710054 -15.32113,-15.198784 0,-2.324525 0.54581,-4.658451 1.50576,-6.56889 h 27.50839 c 0.95993,1.910439 1.50576,4.244365 1.50576,6.56889 0,8.48873 -6.8418,15.198784 -15.19878,15.198784 m 39.28157,0 c -8.34758,0 -15.18938,-6.710054 -15.18938,-15.198784 0,-2.324525 0.54582,-4.658451 1.50576,-6.56889 h 27.37664 c 0.95052,1.910439 1.50576,4.244365 1.50576,6.56889 0,8.48873 -6.8418,15.198784 -15.19878,15.198784 m 39.28156,0 c -8.34756,0 -15.18937,-6.710054 -15.18937,-15.198784 0,-2.324525 0.54581,-4.658451 1.50577,-6.56889 h 27.37663 c 0.95051,1.910439 1.49635,4.244365 1.49635,6.56889 0,8.48873 -6.70064,15.198784 -15.18938,15.198784 m -157.248617,0 c -8.48873,0 -15.198785,-6.710054 -15.198785,-15.198784 0,-2.324525 0.555274,-4.658451 1.50576,-6.56889 h 27.376641 c 0.950508,1.910439 1.50576,4.244365 1.50576,6.56889 0,8.48873 -6.851218,15.198784 -15.189376,15.198784 M 158.90496,0.04062677 c 11.76376,-0.54581526 40.505,4.38553703 40.505,16.15871523 0,11.641421 -28.74124,26.426126 -40.505,26.426126 h -50.92299 c -8.33816,0 -16.553975,-7.124142 -19.838416,-13.824781 H 72.813012 c -1.232845,1.910438 -3.425611,3.284441 -5.881888,3.284441 H 52.560513 c -2.46569,0 -4.658451,-1.374003 -5.891296,-3.284441 H 27.103719 c -1.232845,1.910438 -3.425606,3.284441 -5.891297,3.284441 H 6.8418045 C 3.0115267,32.085128 0,28.932443 0,25.233915 V 20.848378 C 0,17.0181 3.0115267,14.006573 6.8418045,14.006573 H 21.212422 c 2.465691,0 4.658452,1.232845 5.891297,3.284442 h 19.565498 c 1.232845,-2.051597 3.425606,-3.284442 5.891296,-3.284442 h 14.370611 c 2.456277,0 4.649043,1.232845 5.881888,3.284442 H 88.143554 C 96.218203,-1.6062983 141.52282,0.85938495 158.90496,0.04062677 M 55.70379,49.335516 h 169.30413 c 3.01153,0 5.60897,0.818758 8.07465,2.606855 l 10.67209,7.11472 c 6.02305,4.103206 7.93348,12.0461 4.65845,18.483233 l -10.54033,20.948917 c -2.60686,5.072539 -7.38765,7.952309 -12.86486,7.952309 H 55.70379 c -5.336045,0 -10.126253,-2.74802 -12.723693,-7.669979 L 31.621006,77.408568 C 28.063643,70.69852 30.388161,62.209783 36.95705,58.238332 l 11.359092,-6.851213 c 2.324525,-1.37401 4.649043,-2.051603 7.387648,-2.051603"
     style="fill:#eaebee;fill-opacity:1;fill-rule:evenodd;stroke:none;stroke-width:9.41099"
     id="path10262" /></svg>
