<svg xmlns="http://www.w3.org/2000/svg" version="1.1" xmlns:xlink="http://www.w3.org/1999/xlink" xmlns:svgjs="http://svgjs.com/svgjs" width="512" height="512" x="0" y="0" viewBox="0 0 512.003 512.003" style="enable-background:new 0 0 512 512" xml:space="preserve" class=""><g><g><path d="m368.64 414.389c-9.77-7.064-21.707-11.332-34.496-12.296-1.819-5.325-3.482-11.055-4.98-17.198-46.666 5.486-102.316 5.172-146.31-.06-2.441 10.021-5.319 18.953-8.61 26.781-18.294-4.688-38.08.227-52.105 13.887-31.333-20.355-72.615 2.291-72.615 39.367 0 25.916 21.084 47 47 47h323c2.962 0 5.858-.877 8.323-2.521 15.452-10.306 24.677-26.933 24.677-44.479-.001-39.592-44.473-66.153-83.884-50.481z" fill="#eaebee" data-original="#000000" class=""></path><path d="m349.126 272.913c-.081 9.898.021 20.2.383 30.595 15.191 3.016 24.783 6.276 30.354 8.827-8.2 3.72-25.02 8.89-55.42 12.6-34.792 4.314-78.318 5.275-118.14 1.95-20.968-1.757-54.853-5.866-74.05-14.6 8.036-3.651 19.072-6.571 30.262-8.783.374-10.386.479-20.687.399-30.595-44.933 7.935-65.912 20.485-65.912 39.358 0 21.04 27.6 29.65 36.67 32.48 68.792 21.482 236.32 19.367 272.52-13.93 7.28-6.7 8.81-13.79 8.81-18.55.001-18.868-20.966-31.417-65.876-39.352z" fill="#eaebee" data-original="#000000" class=""></path></g><path d="m451.724 80.554c-26.989-48.195-82.731-75.535-126.489-62.646-38.291-25.813-103.235-22.913-136.246 4.807-48.795-20.622-106.858 5.083-122.585 57.934-16.719 4.618-31.949 13.574-43.637 25.793-31.985 33.438-30.337 83.508 5.376 115.093 32.987 29.176 83.085 31.931 118.753 7.57 15.152 2.314 30.615.799 44.378-3.924 1.737 28.311 2.009 51.67 1.394 73.89 17.978 3.623 108.736 3.612 126.666.009-.739-26.802.05-52.557 1.511-75.689 17.103 7.136 36.876 8.868 55.743 4.408 14.62 11.523 32.554 17.782 51.364 17.782 46.347 0 84.052-37.791 84.052-84.243-.001-37.414-24.944-70.282-60.28-80.784z" fill="#eaebee" data-original="#000000" class=""></path></g></svg>