<svg xmlns="http://www.w3.org/2000/svg" version="1.1" xmlns:xlink="http://www.w3.org/1999/xlink" xmlns:svgjs="http://svgjs.com/svgjs" width="512" height="512" x="0" y="0" viewBox="0 0 24 24" style="enable-background:new 0 0 512 512" xml:space="preserve" class=""><g><g id="Icon"><g><path d="m17.732 9.557c-.182-.293-.503-.47-.848-.47-.344 0-.665.177-.848.47-1.271 2.035-3.525 5.64-3.525 5.64-.219.352-.682.458-1.033.239-.352-.219-.458-.682-.239-1.033 0 0 2.1-3.361 2.93-4.688.202-.324.202-.736 0-1.06-.849-1.357-3.033-4.852-3.033-4.852-.137-.22-.377-.353-.636-.353s-.499.133-.636.353l-8.5 13.6c-.144.231-.152.522-.02.761.132.238.383.386.656.386h20c.273 0 .524-.148.656-.386.132-.239.124-.53-.02-.761 0 0-3.304-5.287-4.904-7.846z" fill="#eaebee" data-original="#000000" class=""></path></g></g></g></svg>