<?xml version="1.0" encoding="UTF-8" standalone="no"?>
<!-- Created with Inkscape (http://www.inkscape.org/) -->

<svg
   version="1.1"
   id="svg2"
   width="682.66669"
   height="682.66669"
   viewBox="0 0 682.66669 682.66669"
   sodipodi:docname="top.svg"
   inkscape:version="1.2.1 (9c6d41e410, 2022-07-14, custom)"
   xmlns:inkscape="http://www.inkscape.org/namespaces/inkscape"
   xmlns:sodipodi="http://sodipodi.sourceforge.net/DTD/sodipodi-0.dtd"
   xmlns="http://www.w3.org/2000/svg"
   xmlns:svg="http://www.w3.org/2000/svg">
  <defs
     id="defs6" />
  <sodipodi:namedview
     id="namedview4"
     pagecolor="#ffffff"
     bordercolor="#000000"
     borderopacity="0.25"
     inkscape:showpageshadow="2"
     inkscape:pageopacity="0.0"
     inkscape:pagecheckerboard="0"
     inkscape:deskcolor="#d1d1d1"
     showgrid="false"
     inkscape:zoom="0.87214437"
     inkscape:cx="153.07099"
     inkscape:cy="314.16817"
     inkscape:window-width="1920"
     inkscape:window-height="1015"
     inkscape:window-x="0"
     inkscape:window-y="29"
     inkscape:window-maximized="1"
     inkscape:current-layer="g8" />
  <g
     inkscape:groupmode="layer"
     inkscape:label="Image"
     id="g8">
    <path
       style="fill:#eaebee;stroke-width:1.33333;fill-opacity:1"
       d="M 312.70875,640.72248 C 182.50214,632.61808 65.955761,526.75821 45.815593,397.87058 29.72423,304.73379 54.783258,202.61685 123.4661,135.48804 184.76911,68.765333 277.4992,34.107258 367.5635,42.537762 c 115.60409,8.321293 218.22465,93.471918 257.69072,200.867798 35.42257,101.54228 12.42801,222.04743 -62.40084,300.3171 -53.06154,60.17258 -131.18684,97.42034 -211.72134,97.56909 -12.80624,0.21023 -25.63014,0.0329 -38.42329,-0.56927 z m 80.09267,-58.32022 C 504.70508,560.50927 593.44732,450.43561 585.97506,335.77429 587.90856,234.78197 513.52566,142.07716 420.37879,108.78071 379.52737,93.931614 334.39867,94.317383 291.96427,100.58897 182.00927,122.089 90.844986,226.99967 96.766987,340.91132 88.85344,466.51983 199.37822,584.2431 324.76763,586.31478 c 22.66319,-0.18618 45.75056,1.01757 68.03379,-3.91252 z"
       id="path847"
       sodipodi:nodetypes="sssssssssssssssssssssssssssss" />
    <path
       d="m 330.15539,489.15504 c -5.01985,-2.2472 -12.05876,-9.59303 -13.91823,-14.5251 -0.94829,-2.51529 -1.4151,-34.29325 -1.4151,-96.33333 0,-50.91893 -0.455,-92.57987 -1.01111,-92.57987 -0.55612,0 -14.50612,13.50669 -31,30.01488 -32.9118,32.94031 -35.66295,34.86819 -48.05859,33.67712 -17.70045,-1.70079 -28.88844,-21.1741 -21.87128,-38.06816 2.5816,-6.2153 106.49504,-110.8243 115.25566,-116.02714 7.06506,-4.19588 18.20188,-4.79029 24.68532,-1.31756 6.44447,3.45185 114.33784,112.35828 116.96504,118.06326 7.5286,16.34845 -6.04997,37.51089 -24.14368,37.62832 -11.6164,0.0753 -13.89217,-1.57983 -46.48803,-33.81167 l -31,-30.65381 v 92.82724 c 0,62.21453 -0.46668,94.06508 -1.4151,96.58072 -1.91932,5.09082 -8.97995,12.33551 -14.20874,14.57912 -5.40836,2.32067 -17.13477,2.29236 -22.37616,-0.054 z"
       style="fill:#eaebee;stroke-width:1.33333;fill-opacity:1"
       id="path1013" />
  </g>
</svg>
