<svg xmlns="http://www.w3.org/2000/svg" version="1.1" xmlns:xlink="http://www.w3.org/1999/xlink" xmlns:svgjs="http://svgjs.com/svgjs" width="512" height="512" x="0" y="0" viewBox="0 0 512 512" style="enable-background:new 0 0 512 512" xml:space="preserve" class=""><g>
<g>
	<g>
		<path d="M256,0c-39.113,0-70.934,31.821-70.934,70.934c0,3.561,0.271,7.058,0.78,10.48h30.822
			c-0.892-3.345-1.374-6.857-1.374-10.48c0-22.446,18.261-40.707,40.707-40.707s40.706,18.261,40.706,40.707
			c0,3.623-0.483,7.134-1.374,10.48h30.822c0.509-3.421,0.78-6.919,0.78-10.48C326.932,31.821,295.112,0,256,0z" fill="#eaebee" data-original="#000000" class=""></path>
	</g>
</g>
<g>
	<g>
		<path d="M497.046,403.011l-37.929-214.684c-7.85-44.436-46.298-76.687-91.421-76.687H144.304
			c-45.122,0-83.571,32.251-91.422,76.687L14.954,403.011c-4.787,27.099,2.611,54.731,20.295,75.814
			C52.934,499.909,78.858,512,106.377,512h299.248c27.519,0,53.443-12.092,71.127-33.174
			C494.437,457.743,501.832,430.11,497.046,403.011z M243.825,372.327c-2.935,2.839-6.725,4.252-10.509,4.253
			c-3.952,0-7.897-1.54-10.863-4.604l-42.354-43.767v33.257c0,8.347-6.767,15.114-15.114,15.114s-15.114-6.767-15.114-15.114
			v-99.292c0-8.347,6.767-15.114,15.114-15.114s15.114,6.767,15.114,15.114v33.257l42.354-43.767
			c5.805-5.998,15.372-6.155,21.372-0.351c5.998,5.805,6.154,15.372,0.351,21.371l-37.872,39.136l37.872,39.136
			C249.98,356.954,249.823,366.522,243.825,372.327z M313.745,376.58c-26.681,0-48.388-21.707-48.388-48.388v-32.742
			c0-26.681,21.707-48.388,48.388-48.388c15.008,0,28.915,6.79,38.159,18.63c5.137,6.579,3.967,16.078-2.614,21.213
			c-6.581,5.137-16.078,3.966-21.214-2.613c-3.474-4.45-8.698-7.004-14.332-7.004c-10.014,0-18.161,8.147-18.161,18.161v32.741
			c0,10.014,8.147,18.161,18.161,18.161c8.987,0,16.472-6.563,17.911-15.149h-7.324c-8.347,0-15.114-6.767-15.114-15.114
			s6.767-15.114,15.114-15.114h22.687c8.347,0,15.114,6.767,15.114,15.114v12.102h0.001
			C362.133,354.873,340.426,376.58,313.745,376.58z" fill="#eaebee" data-original="#000000" class=""></path>
	</g>
</g>
<g>
</g>
<g>
</g>
<g>
</g>
<g>
</g>
<g>
</g>
<g>
</g>
<g>
</g>
<g>
</g>
<g>
</g>
<g>
</g>
<g>
</g>
<g>
</g>
<g>
</g>
<g>
</g>
<g>
</g>
</g></svg>